G75*
%MOIN*%
%OFA0B0*%
%FSLAX24Y24*%
%IPPOS*%
%LPD*%
%AMOC8*
5,1,8,0,0,1.08239X$1,22.5*
%
%ADD10C,0.1125*%
%ADD11C,0.0448*%
%ADD12C,0.1660*%
%ADD13C,0.0300*%
%ADD14C,0.0150*%
D10*
X004449Y007326D03*
X019901Y007326D03*
D11*
X019616Y009739D03*
X004734Y009739D03*
D12*
X001775Y009395D03*
X001775Y002095D03*
X022475Y002095D03*
X022475Y009395D03*
D13*
X017475Y006755D03*
X016915Y006515D03*
X016475Y006095D03*
X016275Y006755D03*
X014915Y006755D03*
X014275Y006755D03*
X013635Y006755D03*
X012995Y006755D03*
X012575Y006695D03*
X011075Y006755D03*
X010435Y006755D03*
X009795Y006755D03*
X009375Y006695D03*
X007955Y006755D03*
X007235Y006755D03*
X006275Y006795D03*
X006195Y006195D03*
X006025Y008895D03*
X009175Y008895D03*
X012325Y008845D03*
X015475Y008795D03*
X018915Y006115D03*
X017025Y002595D03*
X017275Y002095D03*
X018035Y001715D03*
X018435Y001715D03*
X018835Y001715D03*
X019235Y002435D03*
X015235Y002435D03*
X014755Y001715D03*
X014435Y001475D03*
X014115Y001715D03*
X013275Y002095D03*
X013025Y002595D03*
X011475Y002595D03*
X011175Y003195D03*
X009025Y002595D03*
X007475Y002595D03*
X007175Y003195D03*
X005025Y002595D03*
X005075Y002095D03*
X006115Y001715D03*
X006435Y001475D03*
X006755Y001715D03*
X009475Y001595D03*
X010115Y001715D03*
X010435Y001475D03*
X010755Y001715D03*
D14*
X004275Y001095D02*
X004275Y006621D01*
X004306Y006608D01*
X004591Y006608D01*
X004855Y006717D01*
X005057Y006919D01*
X005166Y007183D01*
X005166Y007468D01*
X005057Y007732D01*
X004855Y007934D01*
X004591Y008043D01*
X004306Y008043D01*
X004275Y008030D01*
X004275Y008558D01*
X004347Y008528D01*
X004550Y008528D01*
X004738Y008606D01*
X004881Y008749D01*
X004959Y008937D01*
X004959Y009140D01*
X004881Y009327D01*
X004837Y009372D01*
X004894Y009395D01*
X008475Y009395D01*
X008475Y001095D01*
X004275Y001095D01*
X004275Y001187D02*
X006334Y001187D01*
X006374Y001170D02*
X006496Y001170D01*
X006608Y001216D01*
X006694Y001302D01*
X006738Y001410D01*
X006816Y001410D01*
X006928Y001456D01*
X007014Y001542D01*
X007060Y001654D01*
X007060Y001776D01*
X007014Y001888D01*
X006928Y001974D01*
X006816Y002020D01*
X006694Y002020D01*
X006582Y001974D01*
X006496Y001888D01*
X006452Y001780D01*
X006418Y001780D01*
X006374Y001888D01*
X006288Y001974D01*
X006176Y002020D01*
X006054Y002020D01*
X005942Y001974D01*
X005856Y001888D01*
X005810Y001776D01*
X005810Y001654D01*
X005856Y001542D01*
X005942Y001456D01*
X006054Y001410D01*
X006132Y001410D01*
X006176Y001302D01*
X006262Y001216D01*
X006374Y001170D01*
X006536Y001187D02*
X008475Y001187D01*
X008475Y001335D02*
X006707Y001335D01*
X006955Y001484D02*
X008475Y001484D01*
X008475Y001632D02*
X007051Y001632D01*
X007058Y001781D02*
X008475Y001781D01*
X008475Y001929D02*
X006972Y001929D01*
X006538Y001929D02*
X006332Y001929D01*
X006418Y001781D02*
X006452Y001781D01*
X005898Y001929D02*
X004275Y001929D01*
X004275Y001781D02*
X005812Y001781D01*
X005819Y001632D02*
X004275Y001632D01*
X004275Y001484D02*
X005915Y001484D01*
X006163Y001335D02*
X004275Y001335D01*
X004275Y002078D02*
X008475Y002078D01*
X008475Y002226D02*
X004275Y002226D01*
X004275Y002375D02*
X004814Y002375D01*
X004852Y002336D02*
X004964Y002290D01*
X005086Y002290D01*
X005198Y002336D01*
X005284Y002422D01*
X005330Y002534D01*
X005330Y002656D01*
X005284Y002768D01*
X005198Y002854D01*
X005086Y002900D01*
X004964Y002900D01*
X004852Y002854D01*
X004766Y002768D01*
X004720Y002656D01*
X004720Y002534D01*
X004766Y002422D01*
X004852Y002336D01*
X004725Y002523D02*
X004275Y002523D01*
X004275Y002672D02*
X004727Y002672D01*
X004819Y002820D02*
X004275Y002820D01*
X004275Y002969D02*
X006970Y002969D01*
X007002Y002936D02*
X007114Y002890D01*
X007236Y002890D01*
X007348Y002936D01*
X007434Y003022D01*
X007480Y003134D01*
X007480Y003256D01*
X007434Y003368D01*
X007348Y003454D01*
X007236Y003500D01*
X007114Y003500D01*
X007002Y003454D01*
X006916Y003368D01*
X006870Y003256D01*
X006870Y003134D01*
X006916Y003022D01*
X007002Y002936D01*
X007216Y002768D02*
X007170Y002656D01*
X007170Y002534D01*
X007216Y002422D01*
X007302Y002336D01*
X007414Y002290D01*
X007536Y002290D01*
X007648Y002336D01*
X007734Y002422D01*
X007780Y002534D01*
X007780Y002656D01*
X007734Y002768D01*
X007648Y002854D01*
X007536Y002900D01*
X007414Y002900D01*
X007302Y002854D01*
X007216Y002768D01*
X007269Y002820D02*
X005231Y002820D01*
X005323Y002672D02*
X007177Y002672D01*
X007175Y002523D02*
X005325Y002523D01*
X005236Y002375D02*
X007264Y002375D01*
X007686Y002375D02*
X008475Y002375D01*
X008475Y002523D02*
X007775Y002523D01*
X007773Y002672D02*
X008475Y002672D01*
X008475Y002820D02*
X007681Y002820D01*
X007380Y002969D02*
X008475Y002969D01*
X008475Y003117D02*
X007473Y003117D01*
X007476Y003266D02*
X008475Y003266D01*
X008475Y003414D02*
X007387Y003414D01*
X006963Y003414D02*
X004275Y003414D01*
X004275Y003266D02*
X006874Y003266D01*
X006877Y003117D02*
X004275Y003117D01*
X004275Y003563D02*
X008475Y003563D01*
X008475Y003711D02*
X004275Y003711D01*
X004275Y003860D02*
X008475Y003860D01*
X008475Y004008D02*
X004275Y004008D01*
X004275Y004157D02*
X008475Y004157D01*
X008475Y004305D02*
X004275Y004305D01*
X004275Y004454D02*
X008475Y004454D01*
X008475Y004602D02*
X004275Y004602D01*
X004275Y004751D02*
X008475Y004751D01*
X008475Y004899D02*
X004275Y004899D01*
X004275Y005048D02*
X008475Y005048D01*
X008475Y005196D02*
X004275Y005196D01*
X004275Y005345D02*
X008475Y005345D01*
X008475Y005493D02*
X004275Y005493D01*
X004275Y005642D02*
X008475Y005642D01*
X008475Y005790D02*
X004275Y005790D01*
X004275Y005939D02*
X006020Y005939D01*
X006022Y005936D02*
X006134Y005890D01*
X006256Y005890D01*
X006368Y005936D01*
X006454Y006022D01*
X006500Y006134D01*
X006500Y006256D01*
X006454Y006368D01*
X006368Y006454D01*
X006256Y006500D01*
X006134Y006500D01*
X006022Y006454D01*
X005936Y006368D01*
X005890Y006256D01*
X005890Y006134D01*
X005936Y006022D01*
X006022Y005936D01*
X005910Y006087D02*
X004275Y006087D01*
X004275Y006236D02*
X005890Y006236D01*
X005953Y006384D02*
X004275Y006384D01*
X004275Y006533D02*
X007026Y006533D01*
X007062Y006496D02*
X006976Y006582D01*
X006930Y006694D01*
X006930Y006816D01*
X006976Y006928D01*
X007062Y007014D01*
X007174Y007060D01*
X007296Y007060D01*
X007408Y007014D01*
X007494Y006928D01*
X007540Y006816D01*
X007540Y006694D01*
X007494Y006582D01*
X007408Y006496D01*
X007296Y006450D01*
X007174Y006450D01*
X007062Y006496D01*
X007444Y006533D02*
X007746Y006533D01*
X007782Y006496D02*
X007696Y006582D01*
X007650Y006694D01*
X007650Y006816D01*
X007696Y006928D01*
X007782Y007014D01*
X007894Y007060D01*
X008016Y007060D01*
X008128Y007014D01*
X008214Y006928D01*
X008260Y006816D01*
X008260Y006694D01*
X008214Y006582D01*
X008128Y006496D01*
X008016Y006450D01*
X007894Y006450D01*
X007782Y006496D01*
X007656Y006681D02*
X007534Y006681D01*
X007534Y006830D02*
X007656Y006830D01*
X007747Y006978D02*
X007443Y006978D01*
X007027Y006978D02*
X005081Y006978D01*
X005143Y007127D02*
X008475Y007127D01*
X008475Y007275D02*
X005166Y007275D01*
X005166Y007424D02*
X008475Y007424D01*
X008475Y007572D02*
X005123Y007572D01*
X005062Y007721D02*
X008475Y007721D01*
X008475Y007869D02*
X004920Y007869D01*
X004653Y008018D02*
X008475Y008018D01*
X008475Y008166D02*
X004275Y008166D01*
X004275Y008315D02*
X008475Y008315D01*
X008475Y008463D02*
X004275Y008463D01*
X004744Y008612D02*
X005912Y008612D01*
X005964Y008590D02*
X006086Y008590D01*
X006198Y008636D01*
X006284Y008722D01*
X006330Y008834D01*
X006330Y008956D01*
X006284Y009068D01*
X006198Y009154D01*
X006086Y009200D01*
X005964Y009200D01*
X005852Y009154D01*
X005766Y009068D01*
X005720Y008956D01*
X005720Y008834D01*
X005766Y008722D01*
X005852Y008636D01*
X005964Y008590D01*
X006138Y008612D02*
X008475Y008612D01*
X008475Y008760D02*
X006299Y008760D01*
X006330Y008909D02*
X008475Y008909D01*
X008475Y009057D02*
X006288Y009057D01*
X005762Y009057D02*
X004959Y009057D01*
X004947Y008909D02*
X005720Y008909D01*
X005751Y008760D02*
X004886Y008760D01*
X004932Y009206D02*
X008475Y009206D01*
X008475Y009354D02*
X004855Y009354D01*
X009075Y009354D02*
X011775Y009354D01*
X011775Y009395D02*
X011775Y002668D01*
X011734Y002768D01*
X011648Y002854D01*
X011536Y002900D01*
X011414Y002900D01*
X011302Y002854D01*
X011216Y002768D01*
X011170Y002656D01*
X011170Y002534D01*
X011216Y002422D01*
X011302Y002336D01*
X011414Y002290D01*
X011536Y002290D01*
X011648Y002336D01*
X011734Y002422D01*
X011775Y002522D01*
X011775Y001095D01*
X009075Y001095D01*
X009075Y002290D01*
X009086Y002290D01*
X009198Y002336D01*
X009284Y002422D01*
X009330Y002534D01*
X009330Y002656D01*
X009284Y002768D01*
X009198Y002854D01*
X009086Y002900D01*
X009075Y002900D01*
X009075Y008606D01*
X009114Y008590D01*
X009236Y008590D01*
X009348Y008636D01*
X009434Y008722D01*
X009480Y008834D01*
X009480Y008956D01*
X009434Y009068D01*
X009348Y009154D01*
X009236Y009200D01*
X009114Y009200D01*
X009075Y009184D01*
X009075Y009395D01*
X011775Y009395D01*
X011775Y009206D02*
X009075Y009206D01*
X009438Y009057D02*
X011775Y009057D01*
X011775Y008909D02*
X009480Y008909D01*
X009449Y008760D02*
X011775Y008760D01*
X011775Y008612D02*
X009288Y008612D01*
X009075Y008463D02*
X011775Y008463D01*
X011775Y008315D02*
X009075Y008315D01*
X009075Y008166D02*
X011775Y008166D01*
X011775Y008018D02*
X009075Y008018D01*
X009075Y007869D02*
X011775Y007869D01*
X011775Y007721D02*
X009075Y007721D01*
X009075Y007572D02*
X011775Y007572D01*
X011775Y007424D02*
X009075Y007424D01*
X009075Y007275D02*
X011775Y007275D01*
X011775Y007127D02*
X009075Y007127D01*
X009075Y006978D02*
X009587Y006978D01*
X009622Y007014D02*
X009536Y006928D01*
X009490Y006816D01*
X009490Y006694D01*
X009536Y006582D01*
X009622Y006496D01*
X009734Y006450D01*
X009856Y006450D01*
X009968Y006496D01*
X010054Y006582D01*
X010100Y006694D01*
X010100Y006816D01*
X010054Y006928D01*
X009968Y007014D01*
X009856Y007060D01*
X009734Y007060D01*
X009622Y007014D01*
X009496Y006830D02*
X009075Y006830D01*
X009075Y006681D02*
X009496Y006681D01*
X009375Y006695D02*
X009175Y006495D01*
X009075Y006533D02*
X009586Y006533D01*
X010004Y006533D02*
X010226Y006533D01*
X010262Y006496D02*
X010176Y006582D01*
X010130Y006694D01*
X010130Y006816D01*
X010176Y006928D01*
X010262Y007014D01*
X010374Y007060D01*
X010496Y007060D01*
X010608Y007014D01*
X010694Y006928D01*
X010740Y006816D01*
X010740Y006694D01*
X010694Y006582D01*
X010608Y006496D01*
X010496Y006450D01*
X010374Y006450D01*
X010262Y006496D01*
X010644Y006533D02*
X010866Y006533D01*
X010902Y006496D02*
X010816Y006582D01*
X010770Y006694D01*
X010770Y006816D01*
X010816Y006928D01*
X010902Y007014D01*
X011014Y007060D01*
X011136Y007060D01*
X011248Y007014D01*
X011334Y006928D01*
X011380Y006816D01*
X011380Y006694D01*
X011334Y006582D01*
X011248Y006496D01*
X011136Y006450D01*
X011014Y006450D01*
X010902Y006496D01*
X010776Y006681D02*
X010734Y006681D01*
X010734Y006830D02*
X010776Y006830D01*
X010867Y006978D02*
X010643Y006978D01*
X010227Y006978D02*
X010003Y006978D01*
X010094Y006830D02*
X010136Y006830D01*
X010136Y006681D02*
X010094Y006681D01*
X009075Y006384D02*
X011775Y006384D01*
X011775Y006236D02*
X009075Y006236D01*
X009075Y006087D02*
X011775Y006087D01*
X011775Y005939D02*
X009075Y005939D01*
X009075Y005790D02*
X011775Y005790D01*
X011775Y005642D02*
X009075Y005642D01*
X009075Y005493D02*
X011775Y005493D01*
X011775Y005345D02*
X009075Y005345D01*
X009075Y005196D02*
X011775Y005196D01*
X011775Y005048D02*
X009075Y005048D01*
X009075Y004899D02*
X011775Y004899D01*
X011775Y004751D02*
X009075Y004751D01*
X009075Y004602D02*
X011775Y004602D01*
X011775Y004454D02*
X009075Y004454D01*
X009075Y004305D02*
X011775Y004305D01*
X011775Y004157D02*
X009075Y004157D01*
X009075Y004008D02*
X011775Y004008D01*
X011775Y003860D02*
X009075Y003860D01*
X009075Y003711D02*
X011775Y003711D01*
X011775Y003563D02*
X009075Y003563D01*
X009075Y003414D02*
X010963Y003414D01*
X011002Y003454D02*
X010916Y003368D01*
X010870Y003256D01*
X010870Y003134D01*
X010916Y003022D01*
X011002Y002936D01*
X011114Y002890D01*
X011236Y002890D01*
X011348Y002936D01*
X011434Y003022D01*
X011480Y003134D01*
X011480Y003256D01*
X011434Y003368D01*
X011348Y003454D01*
X011236Y003500D01*
X011114Y003500D01*
X011002Y003454D01*
X011387Y003414D02*
X011775Y003414D01*
X011775Y003266D02*
X011476Y003266D01*
X011473Y003117D02*
X011775Y003117D01*
X011775Y002969D02*
X011380Y002969D01*
X011269Y002820D02*
X009231Y002820D01*
X009323Y002672D02*
X011177Y002672D01*
X011175Y002523D02*
X009325Y002523D01*
X009236Y002375D02*
X011264Y002375D01*
X011686Y002375D02*
X011775Y002375D01*
X011775Y002226D02*
X009075Y002226D01*
X009075Y002078D02*
X011775Y002078D01*
X011775Y001929D02*
X010972Y001929D01*
X011014Y001888D02*
X010928Y001974D01*
X010816Y002020D01*
X010694Y002020D01*
X010582Y001974D01*
X010496Y001888D01*
X010452Y001780D01*
X010418Y001780D01*
X010374Y001888D01*
X010288Y001974D01*
X010176Y002020D01*
X010054Y002020D01*
X009942Y001974D01*
X009856Y001888D01*
X009810Y001776D01*
X009810Y001654D01*
X009856Y001542D01*
X009942Y001456D01*
X010054Y001410D01*
X010132Y001410D01*
X010176Y001302D01*
X010262Y001216D01*
X010374Y001170D01*
X010496Y001170D01*
X010608Y001216D01*
X010694Y001302D01*
X010738Y001410D01*
X010816Y001410D01*
X010928Y001456D01*
X011014Y001542D01*
X011060Y001654D01*
X011060Y001776D01*
X011014Y001888D01*
X011058Y001781D02*
X011775Y001781D01*
X011775Y001632D02*
X011051Y001632D01*
X010955Y001484D02*
X011775Y001484D01*
X011775Y001335D02*
X010707Y001335D01*
X010536Y001187D02*
X011775Y001187D01*
X012275Y001187D02*
X014334Y001187D01*
X014374Y001170D02*
X014262Y001216D01*
X014176Y001302D01*
X014132Y001410D01*
X014054Y001410D01*
X013942Y001456D01*
X013856Y001542D01*
X013810Y001654D01*
X013810Y001776D01*
X013856Y001888D01*
X013942Y001974D01*
X014054Y002020D01*
X014176Y002020D01*
X014288Y001974D01*
X014374Y001888D01*
X014418Y001780D01*
X014452Y001780D01*
X014496Y001888D01*
X014582Y001974D01*
X014694Y002020D01*
X014816Y002020D01*
X014928Y001974D01*
X015014Y001888D01*
X015060Y001776D01*
X015060Y001654D01*
X015014Y001542D01*
X014928Y001456D01*
X014816Y001410D01*
X014738Y001410D01*
X014694Y001302D01*
X014608Y001216D01*
X014496Y001170D01*
X014374Y001170D01*
X014536Y001187D02*
X015575Y001187D01*
X015575Y001095D02*
X012275Y001095D01*
X012275Y008540D01*
X012386Y008540D01*
X012498Y008586D01*
X012584Y008672D01*
X012630Y008784D01*
X012630Y008906D01*
X012584Y009018D01*
X012498Y009104D01*
X012386Y009150D01*
X012275Y009150D01*
X012275Y009395D01*
X015575Y009395D01*
X015575Y009084D01*
X015536Y009100D01*
X015414Y009100D01*
X015302Y009054D01*
X015216Y008968D01*
X015170Y008856D01*
X015170Y008734D01*
X015216Y008622D01*
X015302Y008536D01*
X015414Y008490D01*
X015536Y008490D01*
X015575Y008506D01*
X015575Y001095D01*
X015975Y001095D02*
X019775Y001095D01*
X019775Y006608D01*
X019759Y006608D01*
X019495Y006717D01*
X019293Y006919D01*
X019184Y007183D01*
X019184Y007468D01*
X019293Y007732D01*
X019495Y007934D01*
X019759Y008043D01*
X019775Y008043D01*
X019775Y008538D01*
X019612Y008606D01*
X019469Y008749D01*
X019391Y008937D01*
X019391Y009140D01*
X019469Y009327D01*
X019513Y009372D01*
X019456Y009395D01*
X015975Y009395D01*
X015975Y006828D01*
X016016Y006928D01*
X016102Y007014D01*
X016214Y007060D01*
X016336Y007060D01*
X016448Y007014D01*
X016534Y006928D01*
X016580Y006816D01*
X016580Y006694D01*
X016534Y006582D01*
X016448Y006496D01*
X016336Y006450D01*
X016214Y006450D01*
X016102Y006496D01*
X016016Y006582D01*
X015975Y006682D01*
X015975Y001095D01*
X015975Y001187D02*
X019775Y001187D01*
X019775Y001335D02*
X015975Y001335D01*
X015975Y001484D02*
X017835Y001484D01*
X017862Y001456D02*
X017974Y001410D01*
X018096Y001410D01*
X018208Y001456D01*
X018235Y001484D01*
X018262Y001456D01*
X018374Y001410D01*
X018496Y001410D01*
X018608Y001456D01*
X018635Y001484D01*
X018662Y001456D01*
X018774Y001410D01*
X018896Y001410D01*
X019008Y001456D01*
X019094Y001542D01*
X019140Y001654D01*
X019140Y001776D01*
X019094Y001888D01*
X019008Y001974D01*
X018896Y002020D01*
X018774Y002020D01*
X018662Y001974D01*
X018635Y001946D01*
X018608Y001974D01*
X018496Y002020D01*
X018374Y002020D01*
X018262Y001974D01*
X018235Y001946D01*
X018208Y001974D01*
X018096Y002020D01*
X017974Y002020D01*
X017862Y001974D01*
X017776Y001888D01*
X017730Y001776D01*
X017730Y001654D01*
X017776Y001542D01*
X017862Y001456D01*
X017739Y001632D02*
X015975Y001632D01*
X015975Y001781D02*
X017732Y001781D01*
X017818Y001929D02*
X015975Y001929D01*
X015975Y002078D02*
X019775Y002078D01*
X019775Y001929D02*
X019052Y001929D01*
X019138Y001781D02*
X019775Y001781D01*
X019775Y001632D02*
X019131Y001632D01*
X019035Y001484D02*
X019775Y001484D01*
X018635Y001484D02*
X018635Y001484D01*
X018235Y001484D02*
X018235Y001484D01*
X017275Y002095D02*
X016975Y002095D01*
X016964Y002290D02*
X017086Y002290D01*
X017198Y002336D01*
X017284Y002422D01*
X017330Y002534D01*
X017330Y002656D01*
X017284Y002768D01*
X017198Y002854D01*
X017086Y002900D01*
X016964Y002900D01*
X016852Y002854D01*
X016766Y002768D01*
X016720Y002656D01*
X016720Y002534D01*
X016766Y002422D01*
X016852Y002336D01*
X016964Y002290D01*
X016814Y002375D02*
X015975Y002375D01*
X015975Y002523D02*
X016725Y002523D01*
X016727Y002672D02*
X015975Y002672D01*
X015975Y002820D02*
X016819Y002820D01*
X017231Y002820D02*
X019775Y002820D01*
X019775Y002672D02*
X019430Y002672D01*
X019408Y002694D02*
X019296Y002740D01*
X019174Y002740D01*
X019062Y002694D01*
X018976Y002608D01*
X018930Y002496D01*
X018930Y002374D01*
X018976Y002262D01*
X019062Y002176D01*
X019174Y002130D01*
X019296Y002130D01*
X019408Y002176D01*
X019494Y002262D01*
X019540Y002374D01*
X019540Y002496D01*
X019494Y002608D01*
X019408Y002694D01*
X019040Y002672D02*
X017323Y002672D01*
X017325Y002523D02*
X018941Y002523D01*
X018930Y002375D02*
X017236Y002375D01*
X015975Y002226D02*
X019013Y002226D01*
X019457Y002226D02*
X019775Y002226D01*
X019775Y002375D02*
X019540Y002375D01*
X019529Y002523D02*
X019775Y002523D01*
X019775Y002969D02*
X015975Y002969D01*
X015975Y003117D02*
X019775Y003117D01*
X019775Y003266D02*
X015975Y003266D01*
X015975Y003414D02*
X019775Y003414D01*
X019775Y003563D02*
X015975Y003563D01*
X015975Y003711D02*
X019775Y003711D01*
X019775Y003860D02*
X015975Y003860D01*
X015975Y004008D02*
X019775Y004008D01*
X019775Y004157D02*
X015975Y004157D01*
X015975Y004305D02*
X019775Y004305D01*
X019775Y004454D02*
X015975Y004454D01*
X015975Y004602D02*
X019775Y004602D01*
X019775Y004751D02*
X015975Y004751D01*
X015975Y004899D02*
X019775Y004899D01*
X019775Y005048D02*
X015975Y005048D01*
X015975Y005196D02*
X019775Y005196D01*
X019775Y005345D02*
X015975Y005345D01*
X015975Y005493D02*
X019775Y005493D01*
X019775Y005642D02*
X015975Y005642D01*
X015975Y005790D02*
X019775Y005790D01*
X019775Y005939D02*
X019170Y005939D01*
X019174Y005942D02*
X019220Y006054D01*
X019220Y006176D01*
X019174Y006288D01*
X019088Y006374D01*
X018976Y006420D01*
X018854Y006420D01*
X018742Y006374D01*
X018656Y006288D01*
X018610Y006176D01*
X018610Y006054D01*
X018656Y005942D01*
X018742Y005856D01*
X018854Y005810D01*
X018976Y005810D01*
X019088Y005856D01*
X019174Y005942D01*
X019220Y006087D02*
X019775Y006087D01*
X019775Y006236D02*
X019195Y006236D01*
X019063Y006384D02*
X019775Y006384D01*
X019775Y006533D02*
X017684Y006533D01*
X017648Y006496D02*
X017734Y006582D01*
X017780Y006694D01*
X017780Y006816D01*
X017734Y006928D01*
X017648Y007014D01*
X017536Y007060D01*
X017414Y007060D01*
X017302Y007014D01*
X017216Y006928D01*
X017170Y006816D01*
X017170Y006694D01*
X017172Y006689D01*
X017088Y006774D01*
X016976Y006820D01*
X016854Y006820D01*
X016742Y006774D01*
X016656Y006688D01*
X016610Y006576D01*
X016610Y006454D01*
X016656Y006342D01*
X016742Y006256D01*
X016854Y006210D01*
X016976Y006210D01*
X017088Y006256D01*
X017174Y006342D01*
X017220Y006454D01*
X017220Y006576D01*
X017218Y006581D01*
X017302Y006496D01*
X017414Y006450D01*
X017536Y006450D01*
X017648Y006496D01*
X017774Y006681D02*
X019583Y006681D01*
X019383Y006830D02*
X017774Y006830D01*
X017683Y006978D02*
X019269Y006978D01*
X019207Y007127D02*
X015975Y007127D01*
X015975Y007275D02*
X019184Y007275D01*
X019184Y007424D02*
X015975Y007424D01*
X015975Y007572D02*
X019227Y007572D01*
X019288Y007721D02*
X015975Y007721D01*
X015975Y007869D02*
X019430Y007869D01*
X019697Y008018D02*
X015975Y008018D01*
X015975Y008166D02*
X019775Y008166D01*
X019775Y008315D02*
X015975Y008315D01*
X015975Y008463D02*
X019775Y008463D01*
X019606Y008612D02*
X015975Y008612D01*
X015975Y008760D02*
X019464Y008760D01*
X019403Y008909D02*
X015975Y008909D01*
X015975Y009057D02*
X019391Y009057D01*
X019418Y009206D02*
X015975Y009206D01*
X015975Y009354D02*
X019495Y009354D01*
X015575Y009354D02*
X012275Y009354D01*
X012275Y009206D02*
X015575Y009206D01*
X015311Y009057D02*
X012544Y009057D01*
X012629Y008909D02*
X015192Y008909D01*
X015170Y008760D02*
X012620Y008760D01*
X012523Y008612D02*
X015227Y008612D01*
X015575Y008463D02*
X012275Y008463D01*
X012275Y008315D02*
X015575Y008315D01*
X015575Y008166D02*
X012275Y008166D01*
X012275Y008018D02*
X015575Y008018D01*
X015575Y007869D02*
X012275Y007869D01*
X012275Y007721D02*
X015575Y007721D01*
X015575Y007572D02*
X012275Y007572D01*
X012275Y007424D02*
X015575Y007424D01*
X015575Y007275D02*
X012275Y007275D01*
X012275Y007127D02*
X015575Y007127D01*
X015575Y006978D02*
X015123Y006978D01*
X015088Y007014D02*
X015174Y006928D01*
X015220Y006816D01*
X015220Y006694D01*
X015174Y006582D01*
X015088Y006496D01*
X014976Y006450D01*
X014854Y006450D01*
X014742Y006496D01*
X014656Y006582D01*
X014610Y006694D01*
X014610Y006816D01*
X014656Y006928D01*
X014742Y007014D01*
X014854Y007060D01*
X014976Y007060D01*
X015088Y007014D01*
X014707Y006978D02*
X014483Y006978D01*
X014448Y007014D02*
X014336Y007060D01*
X014214Y007060D01*
X014102Y007014D01*
X014016Y006928D01*
X013970Y006816D01*
X013970Y006694D01*
X014016Y006582D01*
X014102Y006496D01*
X014214Y006450D01*
X014336Y006450D01*
X014448Y006496D01*
X014534Y006582D01*
X014580Y006694D01*
X014580Y006816D01*
X014534Y006928D01*
X014448Y007014D01*
X014574Y006830D02*
X014616Y006830D01*
X014616Y006681D02*
X014574Y006681D01*
X014484Y006533D02*
X014706Y006533D01*
X015124Y006533D02*
X015575Y006533D01*
X015575Y006681D02*
X015214Y006681D01*
X015214Y006830D02*
X015575Y006830D01*
X015975Y006830D02*
X015976Y006830D01*
X015975Y006681D02*
X015976Y006681D01*
X015975Y006533D02*
X016066Y006533D01*
X015975Y006384D02*
X016639Y006384D01*
X016793Y006236D02*
X015975Y006236D01*
X015975Y006087D02*
X018610Y006087D01*
X018660Y005939D02*
X015975Y005939D01*
X015575Y005939D02*
X012275Y005939D01*
X012275Y006087D02*
X015575Y006087D01*
X015575Y006236D02*
X012275Y006236D01*
X012275Y006384D02*
X015575Y006384D01*
X016484Y006533D02*
X016610Y006533D01*
X016574Y006681D02*
X016654Y006681D01*
X016574Y006830D02*
X017176Y006830D01*
X017267Y006978D02*
X016483Y006978D01*
X016067Y006978D02*
X015975Y006978D01*
X017220Y006533D02*
X017266Y006533D01*
X017191Y006384D02*
X018767Y006384D01*
X018635Y006236D02*
X017037Y006236D01*
X016775Y005795D02*
X016475Y006095D01*
X015575Y005790D02*
X012275Y005790D01*
X012275Y005642D02*
X015575Y005642D01*
X015575Y005493D02*
X012275Y005493D01*
X012275Y005345D02*
X015575Y005345D01*
X015575Y005196D02*
X012275Y005196D01*
X012275Y005048D02*
X015575Y005048D01*
X015575Y004899D02*
X012275Y004899D01*
X012275Y004751D02*
X015575Y004751D01*
X015575Y004602D02*
X012275Y004602D01*
X012275Y004454D02*
X015575Y004454D01*
X015575Y004305D02*
X012275Y004305D01*
X012275Y004157D02*
X015575Y004157D01*
X015575Y004008D02*
X012275Y004008D01*
X012275Y003860D02*
X015575Y003860D01*
X015575Y003711D02*
X012275Y003711D01*
X012275Y003563D02*
X015575Y003563D01*
X015575Y003414D02*
X012275Y003414D01*
X012275Y003266D02*
X015575Y003266D01*
X015575Y003117D02*
X012275Y003117D01*
X012275Y002969D02*
X015575Y002969D01*
X015575Y002820D02*
X013231Y002820D01*
X013198Y002854D02*
X013086Y002900D01*
X012964Y002900D01*
X012852Y002854D01*
X012766Y002768D01*
X012720Y002656D01*
X012720Y002534D01*
X012766Y002422D01*
X012852Y002336D01*
X012964Y002290D01*
X013086Y002290D01*
X013198Y002336D01*
X013284Y002422D01*
X013330Y002534D01*
X013330Y002656D01*
X013284Y002768D01*
X013198Y002854D01*
X013323Y002672D02*
X015040Y002672D01*
X015062Y002694D02*
X014976Y002608D01*
X014930Y002496D01*
X014930Y002374D01*
X014976Y002262D01*
X015062Y002176D01*
X015174Y002130D01*
X015296Y002130D01*
X015408Y002176D01*
X015494Y002262D01*
X015540Y002374D01*
X015540Y002496D01*
X015494Y002608D01*
X015408Y002694D01*
X015296Y002740D01*
X015174Y002740D01*
X015062Y002694D01*
X014941Y002523D02*
X013325Y002523D01*
X013236Y002375D02*
X014930Y002375D01*
X015013Y002226D02*
X012275Y002226D01*
X012275Y002375D02*
X012814Y002375D01*
X012725Y002523D02*
X012275Y002523D01*
X012275Y002672D02*
X012727Y002672D01*
X012819Y002820D02*
X012275Y002820D01*
X011775Y002820D02*
X011681Y002820D01*
X011773Y002672D02*
X011775Y002672D01*
X010970Y002969D02*
X009075Y002969D01*
X009075Y003117D02*
X010877Y003117D01*
X010874Y003266D02*
X009075Y003266D01*
X009075Y001929D02*
X009898Y001929D01*
X009812Y001781D02*
X009075Y001781D01*
X009075Y001632D02*
X009819Y001632D01*
X009915Y001484D02*
X009075Y001484D01*
X009075Y001335D02*
X010163Y001335D01*
X010334Y001187D02*
X009075Y001187D01*
X009475Y001295D02*
X009475Y001595D01*
X010332Y001929D02*
X010538Y001929D01*
X010452Y001781D02*
X010418Y001781D01*
X012275Y001781D02*
X013812Y001781D01*
X013898Y001929D02*
X012275Y001929D01*
X012275Y002078D02*
X015575Y002078D01*
X015575Y001929D02*
X014972Y001929D01*
X015058Y001781D02*
X015575Y001781D01*
X015575Y001632D02*
X015051Y001632D01*
X014955Y001484D02*
X015575Y001484D01*
X015575Y001335D02*
X014707Y001335D01*
X014163Y001335D02*
X012275Y001335D01*
X012275Y001484D02*
X013915Y001484D01*
X013819Y001632D02*
X012275Y001632D01*
X012875Y002095D02*
X013275Y002095D01*
X014332Y001929D02*
X014538Y001929D01*
X014452Y001781D02*
X014418Y001781D01*
X015457Y002226D02*
X015575Y002226D01*
X015575Y002375D02*
X015540Y002375D01*
X015529Y002523D02*
X015575Y002523D01*
X015575Y002672D02*
X015430Y002672D01*
X008475Y005939D02*
X006370Y005939D01*
X006480Y006087D02*
X008475Y006087D01*
X008475Y006236D02*
X006500Y006236D01*
X006437Y006384D02*
X008475Y006384D01*
X008475Y006533D02*
X008164Y006533D01*
X008254Y006681D02*
X008475Y006681D01*
X008475Y006830D02*
X008254Y006830D01*
X008163Y006978D02*
X008475Y006978D01*
X006936Y006830D02*
X004967Y006830D01*
X004767Y006681D02*
X006936Y006681D01*
X006275Y006795D02*
X006075Y006595D01*
X011284Y006533D02*
X011775Y006533D01*
X011775Y006681D02*
X011374Y006681D01*
X011374Y006830D02*
X011775Y006830D01*
X011775Y006978D02*
X011283Y006978D01*
X012275Y006978D02*
X012787Y006978D01*
X012822Y007014D02*
X012736Y006928D01*
X012690Y006816D01*
X012690Y006694D01*
X012736Y006582D01*
X012822Y006496D01*
X012934Y006450D01*
X013056Y006450D01*
X013168Y006496D01*
X013254Y006582D01*
X013300Y006694D01*
X013300Y006816D01*
X013254Y006928D01*
X013168Y007014D01*
X013056Y007060D01*
X012934Y007060D01*
X012822Y007014D01*
X012696Y006830D02*
X012275Y006830D01*
X012275Y006681D02*
X012696Y006681D01*
X012575Y006695D02*
X012575Y006295D01*
X012786Y006533D02*
X012275Y006533D01*
X013204Y006533D02*
X013426Y006533D01*
X013462Y006496D02*
X013574Y006450D01*
X013696Y006450D01*
X013808Y006496D01*
X013894Y006582D01*
X013940Y006694D01*
X013940Y006816D01*
X013894Y006928D01*
X013808Y007014D01*
X013696Y007060D01*
X013574Y007060D01*
X013462Y007014D01*
X013376Y006928D01*
X013330Y006816D01*
X013330Y006694D01*
X013376Y006582D01*
X013462Y006496D01*
X013844Y006533D02*
X014066Y006533D01*
X013976Y006681D02*
X013934Y006681D01*
X013934Y006830D02*
X013976Y006830D01*
X014067Y006978D02*
X013843Y006978D01*
X013427Y006978D02*
X013203Y006978D01*
X013294Y006830D02*
X013336Y006830D01*
X013336Y006681D02*
X013294Y006681D01*
X005075Y002095D02*
X004875Y002095D01*
M02*
