G75*
%MOIN*%
%OFA0B0*%
%FSLAX24Y24*%
%IPPOS*%
%LPD*%
%AMOC8*
5,1,8,0,0,1.08239X$1,22.5*
%
%ADD10C,0.1125*%
%ADD11C,0.0448*%
%ADD12C,0.1660*%
%ADD13C,0.0300*%
%ADD14C,0.0150*%
D10*
X004449Y007326D03*
X019901Y007326D03*
D11*
X019616Y009739D03*
X004734Y009739D03*
D12*
X001775Y009395D03*
X001775Y002095D03*
X022475Y002095D03*
X022475Y009395D03*
D13*
X017475Y006755D03*
X016915Y006515D03*
X016475Y006095D03*
X016275Y006755D03*
X014915Y006755D03*
X014275Y006755D03*
X013635Y006755D03*
X012995Y006755D03*
X012575Y006695D03*
X011075Y006755D03*
X010435Y006755D03*
X009795Y006755D03*
X009375Y006695D03*
X007955Y006755D03*
X007235Y006755D03*
X006275Y006795D03*
X006195Y006195D03*
X006025Y008895D03*
X009175Y008895D03*
X012325Y008845D03*
X015475Y008795D03*
X018915Y006115D03*
X017025Y002595D03*
X017275Y002095D03*
X018035Y001715D03*
X018435Y001715D03*
X018835Y001715D03*
X019235Y002435D03*
X015235Y002435D03*
X014755Y001715D03*
X014435Y001475D03*
X014115Y001715D03*
X013275Y002095D03*
X013025Y002595D03*
X011475Y002595D03*
X011175Y003195D03*
X009025Y002595D03*
X007475Y002595D03*
X007175Y003195D03*
X005025Y002595D03*
X005075Y002095D03*
X006115Y001715D03*
X006435Y001475D03*
X006755Y001715D03*
X009475Y001595D03*
X010115Y001715D03*
X010435Y001475D03*
X010755Y001715D03*
D14*
X000500Y001020D02*
X000500Y010440D01*
X023642Y010440D01*
X023642Y001020D01*
X000500Y001020D01*
X000500Y001038D02*
X023642Y001038D01*
X023642Y001187D02*
X022855Y001187D01*
X023033Y001260D02*
X022671Y001110D01*
X022279Y001110D01*
X021917Y001260D01*
X021640Y001537D01*
X021490Y001899D01*
X021490Y002291D01*
X021640Y002653D01*
X021917Y002930D01*
X022279Y003080D01*
X022671Y003080D01*
X023033Y002930D01*
X023310Y002653D01*
X023460Y002291D01*
X023460Y001899D01*
X023310Y001537D01*
X023033Y001260D01*
X023108Y001335D02*
X023642Y001335D01*
X023642Y001484D02*
X023256Y001484D01*
X023349Y001632D02*
X023642Y001632D01*
X023642Y001781D02*
X023411Y001781D01*
X023460Y001929D02*
X023642Y001929D01*
X023642Y002078D02*
X023460Y002078D01*
X023460Y002226D02*
X023642Y002226D01*
X023642Y002375D02*
X023425Y002375D01*
X023364Y002523D02*
X023642Y002523D01*
X023642Y002672D02*
X023291Y002672D01*
X023143Y002820D02*
X023642Y002820D01*
X023642Y002969D02*
X022940Y002969D01*
X023642Y003117D02*
X011473Y003117D01*
X011480Y003134D02*
X011434Y003022D01*
X011348Y002936D01*
X011236Y002890D01*
X011114Y002890D01*
X011002Y002936D01*
X010916Y003022D01*
X010870Y003134D01*
X010870Y003256D01*
X010916Y003368D01*
X011002Y003454D01*
X011114Y003500D01*
X011236Y003500D01*
X011348Y003454D01*
X011434Y003368D01*
X011480Y003256D01*
X011480Y003134D01*
X011476Y003266D02*
X023642Y003266D01*
X023642Y003414D02*
X011387Y003414D01*
X010963Y003414D02*
X007387Y003414D01*
X007348Y003454D02*
X007434Y003368D01*
X007480Y003256D01*
X007480Y003134D01*
X007434Y003022D01*
X007348Y002936D01*
X007236Y002890D01*
X007114Y002890D01*
X007002Y002936D01*
X006916Y003022D01*
X006870Y003134D01*
X006870Y003256D01*
X006916Y003368D01*
X007002Y003454D01*
X007114Y003500D01*
X007236Y003500D01*
X007348Y003454D01*
X007476Y003266D02*
X010874Y003266D01*
X010877Y003117D02*
X007473Y003117D01*
X007380Y002969D02*
X010970Y002969D01*
X011216Y002768D02*
X011170Y002656D01*
X011170Y002534D01*
X011216Y002422D01*
X011302Y002336D01*
X011414Y002290D01*
X011536Y002290D01*
X011648Y002336D01*
X011734Y002422D01*
X011780Y002534D01*
X011780Y002656D01*
X011734Y002768D01*
X011648Y002854D01*
X011536Y002900D01*
X011414Y002900D01*
X011302Y002854D01*
X011216Y002768D01*
X011269Y002820D02*
X007681Y002820D01*
X007648Y002854D02*
X007536Y002900D01*
X007414Y002900D01*
X007302Y002854D01*
X007216Y002768D01*
X007170Y002656D01*
X007170Y002534D01*
X007216Y002422D01*
X007302Y002336D01*
X007414Y002290D01*
X007536Y002290D01*
X007648Y002336D01*
X007734Y002422D01*
X007780Y002534D01*
X007780Y002656D01*
X007734Y002768D01*
X007648Y002854D01*
X007773Y002672D02*
X011177Y002672D01*
X011175Y002523D02*
X007775Y002523D01*
X007686Y002375D02*
X011264Y002375D01*
X011686Y002375D02*
X013153Y002375D01*
X013102Y002354D02*
X013214Y002400D01*
X013336Y002400D01*
X013448Y002354D01*
X013534Y002268D01*
X013580Y002156D01*
X013580Y002034D01*
X013534Y001922D01*
X013448Y001836D01*
X013336Y001790D01*
X013214Y001790D01*
X013102Y001836D01*
X013016Y001922D01*
X012970Y002034D01*
X012970Y002156D01*
X013016Y002268D01*
X013102Y002354D01*
X012999Y002226D02*
X005351Y002226D01*
X005334Y002268D02*
X005248Y002354D01*
X005136Y002400D01*
X005014Y002400D01*
X004902Y002354D01*
X004816Y002268D01*
X004770Y002156D01*
X004770Y002034D01*
X004816Y001922D01*
X004902Y001836D01*
X005014Y001790D01*
X005136Y001790D01*
X005248Y001836D01*
X005334Y001922D01*
X005380Y002034D01*
X005380Y002156D01*
X005334Y002268D01*
X005197Y002375D02*
X007264Y002375D01*
X007175Y002523D02*
X002664Y002523D01*
X002610Y002653D02*
X002333Y002930D01*
X001971Y003080D01*
X001579Y003080D01*
X001217Y002930D01*
X000940Y002653D01*
X000790Y002291D01*
X000790Y001899D01*
X000940Y001537D01*
X001217Y001260D01*
X001579Y001110D01*
X001971Y001110D01*
X002333Y001260D01*
X002610Y001537D01*
X002760Y001899D01*
X002760Y002291D01*
X002610Y002653D01*
X002591Y002672D02*
X007177Y002672D01*
X007269Y002820D02*
X002443Y002820D01*
X002240Y002969D02*
X006970Y002969D01*
X006877Y003117D02*
X000500Y003117D01*
X000500Y003266D02*
X006874Y003266D01*
X006963Y003414D02*
X000500Y003414D01*
X000500Y003563D02*
X023642Y003563D01*
X023642Y003711D02*
X000500Y003711D01*
X000500Y003860D02*
X023642Y003860D01*
X023642Y004008D02*
X000500Y004008D01*
X000500Y004157D02*
X023642Y004157D01*
X023642Y004305D02*
X000500Y004305D01*
X000500Y004454D02*
X023642Y004454D01*
X023642Y004602D02*
X000500Y004602D01*
X000500Y004751D02*
X023642Y004751D01*
X023642Y004899D02*
X000500Y004899D01*
X000500Y005048D02*
X023642Y005048D01*
X023642Y005196D02*
X000500Y005196D01*
X000500Y005345D02*
X023642Y005345D01*
X023642Y005493D02*
X000500Y005493D01*
X000500Y005642D02*
X023642Y005642D01*
X023642Y005790D02*
X016536Y005790D01*
X016648Y005836D01*
X016734Y005922D01*
X016780Y006034D01*
X016780Y006156D01*
X016735Y006263D01*
X016742Y006256D01*
X016854Y006210D01*
X016976Y006210D01*
X017088Y006256D01*
X017174Y006342D01*
X017220Y006454D01*
X017220Y006576D01*
X017218Y006581D01*
X017302Y006496D01*
X017414Y006450D01*
X017536Y006450D01*
X017648Y006496D01*
X017734Y006582D01*
X017780Y006694D01*
X017780Y006816D01*
X017734Y006928D01*
X017648Y007014D01*
X017536Y007060D01*
X017414Y007060D01*
X017302Y007014D01*
X017216Y006928D01*
X017170Y006816D01*
X017170Y006694D01*
X017172Y006689D01*
X017088Y006774D01*
X016976Y006820D01*
X016854Y006820D01*
X016742Y006774D01*
X016656Y006688D01*
X016610Y006576D01*
X016610Y006454D01*
X016655Y006347D01*
X016648Y006354D01*
X016536Y006400D01*
X016414Y006400D01*
X016302Y006354D01*
X016216Y006268D01*
X016170Y006156D01*
X016170Y006034D01*
X016216Y005922D01*
X016302Y005836D01*
X016414Y005790D01*
X000500Y005790D01*
X000500Y005939D02*
X006020Y005939D01*
X006022Y005936D02*
X006134Y005890D01*
X006256Y005890D01*
X006368Y005936D01*
X006454Y006022D01*
X006500Y006134D01*
X006500Y006256D01*
X006454Y006368D01*
X006368Y006454D01*
X006280Y006490D01*
X006336Y006490D01*
X006448Y006536D01*
X006534Y006622D01*
X006580Y006734D01*
X006580Y006856D01*
X006534Y006968D01*
X006448Y007054D01*
X006336Y007100D01*
X006214Y007100D01*
X006102Y007054D01*
X006016Y006968D01*
X005970Y006856D01*
X005970Y006734D01*
X006016Y006622D01*
X006102Y006536D01*
X006190Y006500D01*
X006134Y006500D01*
X006022Y006454D01*
X005936Y006368D01*
X005890Y006256D01*
X005890Y006134D01*
X005936Y006022D01*
X006022Y005936D01*
X005910Y006087D02*
X000500Y006087D01*
X000500Y006236D02*
X005890Y006236D01*
X005953Y006384D02*
X000500Y006384D01*
X000500Y006533D02*
X006112Y006533D01*
X005992Y006681D02*
X004767Y006681D01*
X004855Y006717D02*
X005057Y006919D01*
X005166Y007183D01*
X005166Y007468D01*
X005057Y007732D01*
X004855Y007934D01*
X004591Y008043D01*
X004306Y008043D01*
X004042Y007934D01*
X003840Y007732D01*
X003731Y007468D01*
X003731Y007183D01*
X003840Y006919D01*
X004042Y006717D01*
X004306Y006608D01*
X004591Y006608D01*
X004855Y006717D01*
X004967Y006830D02*
X005970Y006830D01*
X006027Y006978D02*
X005081Y006978D01*
X005143Y007127D02*
X019207Y007127D01*
X019184Y007183D02*
X019293Y006919D01*
X019495Y006717D01*
X019759Y006608D01*
X020044Y006608D01*
X020308Y006717D01*
X020510Y006919D01*
X020619Y007183D01*
X020619Y007468D01*
X020510Y007732D01*
X020308Y007934D01*
X020044Y008043D01*
X019759Y008043D01*
X019495Y007934D01*
X019293Y007732D01*
X019184Y007468D01*
X019184Y007183D01*
X019184Y007275D02*
X005166Y007275D01*
X005166Y007424D02*
X019184Y007424D01*
X019227Y007572D02*
X005123Y007572D01*
X005062Y007721D02*
X019288Y007721D01*
X019430Y007869D02*
X004920Y007869D01*
X004653Y008018D02*
X019697Y008018D01*
X020106Y008018D02*
X023642Y008018D01*
X023642Y008166D02*
X000500Y008166D01*
X000500Y008018D02*
X004244Y008018D01*
X003977Y007869D02*
X000500Y007869D01*
X000500Y007721D02*
X003836Y007721D01*
X003774Y007572D02*
X000500Y007572D01*
X000500Y007424D02*
X003731Y007424D01*
X003731Y007275D02*
X000500Y007275D01*
X000500Y007127D02*
X003755Y007127D01*
X003816Y006978D02*
X000500Y006978D01*
X000500Y006830D02*
X003930Y006830D01*
X004130Y006681D02*
X000500Y006681D01*
X000500Y008315D02*
X023642Y008315D01*
X023642Y008463D02*
X022799Y008463D01*
X022671Y008410D02*
X023033Y008560D01*
X023310Y008837D01*
X023460Y009199D01*
X023460Y009591D01*
X023310Y009953D01*
X023033Y010230D01*
X022671Y010380D01*
X022279Y010380D01*
X021917Y010230D01*
X021640Y009953D01*
X021490Y009591D01*
X021490Y009199D01*
X021640Y008837D01*
X021917Y008560D01*
X022279Y008410D01*
X022671Y008410D01*
X023084Y008612D02*
X023642Y008612D01*
X023642Y008760D02*
X023233Y008760D01*
X023340Y008909D02*
X023642Y008909D01*
X023642Y009057D02*
X023401Y009057D01*
X023460Y009206D02*
X023642Y009206D01*
X023642Y009354D02*
X023460Y009354D01*
X023460Y009503D02*
X023642Y009503D01*
X023642Y009651D02*
X023435Y009651D01*
X023374Y009800D02*
X023642Y009800D01*
X023642Y009948D02*
X023312Y009948D01*
X023166Y010097D02*
X023642Y010097D01*
X023642Y010245D02*
X022997Y010245D01*
X023642Y010394D02*
X000500Y010394D01*
X000500Y010245D02*
X001253Y010245D01*
X001217Y010230D02*
X001579Y010380D01*
X001971Y010380D01*
X002333Y010230D01*
X002610Y009953D01*
X002760Y009591D01*
X002760Y009199D01*
X002610Y008837D01*
X002333Y008560D01*
X001971Y008410D01*
X001579Y008410D01*
X001217Y008560D01*
X000940Y008837D01*
X000790Y009199D01*
X000790Y009591D01*
X000940Y009953D01*
X001217Y010230D01*
X001084Y010097D02*
X000500Y010097D01*
X000500Y009948D02*
X000938Y009948D01*
X000876Y009800D02*
X000500Y009800D01*
X000500Y009651D02*
X000815Y009651D01*
X000790Y009503D02*
X000500Y009503D01*
X000500Y009354D02*
X000790Y009354D01*
X000790Y009206D02*
X000500Y009206D01*
X000500Y009057D02*
X000849Y009057D01*
X000910Y008909D02*
X000500Y008909D01*
X000500Y008760D02*
X001017Y008760D01*
X001166Y008612D02*
X000500Y008612D01*
X000500Y008463D02*
X001451Y008463D01*
X002099Y008463D02*
X022151Y008463D01*
X021866Y008612D02*
X020196Y008612D01*
X020191Y008606D02*
X020334Y008749D01*
X020412Y008937D01*
X020412Y009140D01*
X020334Y009327D01*
X020191Y009471D01*
X020003Y009549D01*
X019947Y009549D01*
X019995Y009664D01*
X019995Y009814D01*
X019937Y009954D01*
X019831Y010060D01*
X019691Y010118D01*
X019541Y010118D01*
X019401Y010060D01*
X019295Y009954D01*
X019237Y009814D01*
X019237Y009664D01*
X019295Y009524D01*
X019401Y009418D01*
X019513Y009372D01*
X019469Y009327D01*
X019391Y009140D01*
X019391Y008937D01*
X019469Y008749D01*
X019612Y008606D01*
X019800Y008528D01*
X020003Y008528D01*
X020191Y008606D01*
X020339Y008760D02*
X021717Y008760D01*
X021610Y008909D02*
X020400Y008909D01*
X020412Y009057D02*
X021549Y009057D01*
X021490Y009206D02*
X020385Y009206D01*
X020308Y009354D02*
X021490Y009354D01*
X021490Y009503D02*
X020114Y009503D01*
X019990Y009651D02*
X021515Y009651D01*
X021576Y009800D02*
X019995Y009800D01*
X019940Y009948D02*
X021638Y009948D01*
X021784Y010097D02*
X019743Y010097D01*
X019488Y010097D02*
X004862Y010097D01*
X004809Y010118D02*
X004659Y010118D01*
X004519Y010060D01*
X004413Y009954D01*
X004355Y009814D01*
X004355Y009664D01*
X004403Y009549D01*
X004347Y009549D01*
X004159Y009471D01*
X004016Y009327D01*
X003938Y009140D01*
X003938Y008937D01*
X004016Y008749D01*
X004159Y008606D01*
X004347Y008528D01*
X004550Y008528D01*
X004738Y008606D01*
X004881Y008749D01*
X004959Y008937D01*
X004959Y009140D01*
X004881Y009327D01*
X004837Y009372D01*
X004949Y009418D01*
X005055Y009524D01*
X005113Y009664D01*
X005113Y009814D01*
X005055Y009954D01*
X004949Y010060D01*
X004809Y010118D01*
X004607Y010097D02*
X002466Y010097D01*
X002297Y010245D02*
X021953Y010245D01*
X019495Y009354D02*
X004855Y009354D01*
X004932Y009206D02*
X019418Y009206D01*
X019391Y009057D02*
X004959Y009057D01*
X004947Y008909D02*
X019403Y008909D01*
X019464Y008760D02*
X004886Y008760D01*
X004744Y008612D02*
X019606Y008612D01*
X020373Y007869D02*
X023642Y007869D01*
X023642Y007721D02*
X020514Y007721D01*
X020576Y007572D02*
X023642Y007572D01*
X023642Y007424D02*
X020619Y007424D01*
X020619Y007275D02*
X023642Y007275D01*
X023642Y007127D02*
X020595Y007127D01*
X020534Y006978D02*
X023642Y006978D01*
X023642Y006830D02*
X020420Y006830D01*
X020220Y006681D02*
X023642Y006681D01*
X023642Y006533D02*
X017684Y006533D01*
X017774Y006681D02*
X019583Y006681D01*
X019383Y006830D02*
X017774Y006830D01*
X017683Y006978D02*
X019269Y006978D01*
X019063Y006384D02*
X023642Y006384D01*
X023642Y006236D02*
X019195Y006236D01*
X019174Y006288D02*
X019088Y006374D01*
X018976Y006420D01*
X018854Y006420D01*
X018742Y006374D01*
X018656Y006288D01*
X018610Y006176D01*
X018610Y006054D01*
X018656Y005942D01*
X018742Y005856D01*
X018854Y005810D01*
X018976Y005810D01*
X019088Y005856D01*
X019174Y005942D01*
X019220Y006054D01*
X019220Y006176D01*
X019174Y006288D01*
X018767Y006384D02*
X017191Y006384D01*
X017037Y006236D02*
X018635Y006236D01*
X018610Y006087D02*
X016780Y006087D01*
X016740Y005939D02*
X018660Y005939D01*
X019170Y005939D02*
X023642Y005939D01*
X023642Y006087D02*
X019220Y006087D01*
X017266Y006533D02*
X017220Y006533D01*
X017176Y006830D02*
X016574Y006830D01*
X016580Y006816D02*
X016534Y006928D01*
X016448Y007014D01*
X016336Y007060D01*
X016214Y007060D01*
X016102Y007014D01*
X016016Y006928D01*
X015970Y006816D01*
X015970Y006694D01*
X016016Y006582D01*
X016102Y006496D01*
X016214Y006450D01*
X016336Y006450D01*
X016448Y006496D01*
X016534Y006582D01*
X016580Y006694D01*
X016580Y006816D01*
X016574Y006681D02*
X016654Y006681D01*
X016610Y006533D02*
X016484Y006533D01*
X016574Y006384D02*
X016639Y006384D01*
X016747Y006236D02*
X016793Y006236D01*
X016376Y006384D02*
X006437Y006384D01*
X006500Y006236D02*
X016203Y006236D01*
X016170Y006087D02*
X006480Y006087D01*
X006370Y005939D02*
X016210Y005939D01*
X016414Y005790D02*
X016536Y005790D01*
X015174Y006582D02*
X015088Y006496D01*
X014976Y006450D01*
X014854Y006450D01*
X014742Y006496D01*
X014656Y006582D01*
X014610Y006694D01*
X014610Y006816D01*
X014656Y006928D01*
X014742Y007014D01*
X014854Y007060D01*
X014976Y007060D01*
X015088Y007014D01*
X015174Y006928D01*
X015220Y006816D01*
X015220Y006694D01*
X015174Y006582D01*
X015124Y006533D02*
X016066Y006533D01*
X015976Y006681D02*
X015214Y006681D01*
X015214Y006830D02*
X015976Y006830D01*
X016067Y006978D02*
X015123Y006978D01*
X014707Y006978D02*
X014483Y006978D01*
X014448Y007014D02*
X014336Y007060D01*
X014214Y007060D01*
X014102Y007014D01*
X014016Y006928D01*
X013970Y006816D01*
X013970Y006694D01*
X014016Y006582D01*
X014102Y006496D01*
X014214Y006450D01*
X014336Y006450D01*
X014448Y006496D01*
X014534Y006582D01*
X014580Y006694D01*
X014580Y006816D01*
X014534Y006928D01*
X014448Y007014D01*
X014574Y006830D02*
X014616Y006830D01*
X014616Y006681D02*
X014574Y006681D01*
X014484Y006533D02*
X014706Y006533D01*
X014066Y006533D02*
X013844Y006533D01*
X013808Y006496D02*
X013894Y006582D01*
X013940Y006694D01*
X013940Y006816D01*
X013894Y006928D01*
X013808Y007014D01*
X013696Y007060D01*
X013574Y007060D01*
X013462Y007014D01*
X013376Y006928D01*
X013330Y006816D01*
X013330Y006694D01*
X013376Y006582D01*
X013462Y006496D01*
X013574Y006450D01*
X013696Y006450D01*
X013808Y006496D01*
X013426Y006533D02*
X013204Y006533D01*
X013168Y006496D02*
X013254Y006582D01*
X013300Y006694D01*
X013300Y006816D01*
X013254Y006928D01*
X013168Y007014D01*
X013056Y007060D01*
X012934Y007060D01*
X012822Y007014D01*
X012755Y006946D01*
X012748Y006954D01*
X012636Y007000D01*
X012514Y007000D01*
X012402Y006954D01*
X012316Y006868D01*
X012270Y006756D01*
X012270Y006634D01*
X012316Y006522D01*
X012402Y006436D01*
X012514Y006390D01*
X012636Y006390D01*
X012748Y006436D01*
X012815Y006504D01*
X012822Y006496D01*
X012934Y006450D01*
X013056Y006450D01*
X013168Y006496D01*
X013294Y006681D02*
X013336Y006681D01*
X013336Y006830D02*
X013294Y006830D01*
X013203Y006978D02*
X013427Y006978D01*
X013843Y006978D02*
X014067Y006978D01*
X013976Y006830D02*
X013934Y006830D01*
X013934Y006681D02*
X013976Y006681D01*
X012787Y006978D02*
X012689Y006978D01*
X012461Y006978D02*
X011283Y006978D01*
X011248Y007014D02*
X011136Y007060D01*
X011014Y007060D01*
X010902Y007014D01*
X010816Y006928D01*
X010770Y006816D01*
X010770Y006694D01*
X010816Y006582D01*
X010902Y006496D01*
X011014Y006450D01*
X011136Y006450D01*
X011248Y006496D01*
X011334Y006582D01*
X011380Y006694D01*
X011380Y006816D01*
X011334Y006928D01*
X011248Y007014D01*
X011374Y006830D02*
X012301Y006830D01*
X012270Y006681D02*
X011374Y006681D01*
X011284Y006533D02*
X012312Y006533D01*
X010866Y006533D02*
X010644Y006533D01*
X010608Y006496D02*
X010694Y006582D01*
X010740Y006694D01*
X010740Y006816D01*
X010694Y006928D01*
X010608Y007014D01*
X010496Y007060D01*
X010374Y007060D01*
X010262Y007014D01*
X010176Y006928D01*
X010130Y006816D01*
X010130Y006694D01*
X010176Y006582D01*
X010262Y006496D01*
X010374Y006450D01*
X010496Y006450D01*
X010608Y006496D01*
X010734Y006681D02*
X010776Y006681D01*
X010776Y006830D02*
X010734Y006830D01*
X010643Y006978D02*
X010867Y006978D01*
X010227Y006978D02*
X010003Y006978D01*
X009968Y007014D02*
X010054Y006928D01*
X010100Y006816D01*
X010100Y006694D01*
X010054Y006582D01*
X009968Y006496D01*
X009856Y006450D01*
X009734Y006450D01*
X009622Y006496D01*
X009615Y006504D01*
X009548Y006436D01*
X009436Y006390D01*
X009314Y006390D01*
X009202Y006436D01*
X009116Y006522D01*
X009070Y006634D01*
X009070Y006756D01*
X009116Y006868D01*
X009202Y006954D01*
X009314Y007000D01*
X009436Y007000D01*
X009548Y006954D01*
X009555Y006946D01*
X009622Y007014D01*
X009734Y007060D01*
X009856Y007060D01*
X009968Y007014D01*
X009587Y006978D02*
X009489Y006978D01*
X009261Y006978D02*
X008163Y006978D01*
X008128Y007014D02*
X008016Y007060D01*
X007894Y007060D01*
X007782Y007014D01*
X007696Y006928D01*
X007650Y006816D01*
X007650Y006694D01*
X007696Y006582D01*
X007782Y006496D01*
X007894Y006450D01*
X008016Y006450D01*
X008128Y006496D01*
X008214Y006582D01*
X008260Y006694D01*
X008260Y006816D01*
X008214Y006928D01*
X008128Y007014D01*
X008254Y006830D02*
X009101Y006830D01*
X009070Y006681D02*
X008254Y006681D01*
X008164Y006533D02*
X009112Y006533D01*
X010004Y006533D02*
X010226Y006533D01*
X010136Y006681D02*
X010094Y006681D01*
X010094Y006830D02*
X010136Y006830D01*
X007747Y006978D02*
X007443Y006978D01*
X007408Y007014D02*
X007296Y007060D01*
X007174Y007060D01*
X007062Y007014D01*
X006976Y006928D01*
X006930Y006816D01*
X006930Y006694D01*
X006976Y006582D01*
X007062Y006496D01*
X007174Y006450D01*
X007296Y006450D01*
X007408Y006496D01*
X007494Y006582D01*
X007540Y006694D01*
X007540Y006816D01*
X007494Y006928D01*
X007408Y007014D01*
X007534Y006830D02*
X007656Y006830D01*
X007656Y006681D02*
X007534Y006681D01*
X007444Y006533D02*
X007746Y006533D01*
X007026Y006533D02*
X006438Y006533D01*
X006558Y006681D02*
X006936Y006681D01*
X006936Y006830D02*
X006580Y006830D01*
X006523Y006978D02*
X007027Y006978D01*
X004154Y008612D02*
X002384Y008612D01*
X002533Y008760D02*
X004011Y008760D01*
X003950Y008909D02*
X002640Y008909D01*
X002701Y009057D02*
X003938Y009057D01*
X003965Y009206D02*
X002760Y009206D01*
X002760Y009354D02*
X004042Y009354D01*
X004236Y009503D02*
X002760Y009503D01*
X002735Y009651D02*
X004360Y009651D01*
X004355Y009800D02*
X002674Y009800D01*
X002612Y009948D02*
X004410Y009948D01*
X005058Y009948D02*
X019292Y009948D01*
X019237Y009800D02*
X005113Y009800D01*
X005108Y009651D02*
X019242Y009651D01*
X019317Y009503D02*
X005033Y009503D01*
X006025Y009145D02*
X006025Y008895D01*
X009175Y008895D02*
X009175Y009195D01*
X012275Y009195D02*
X012275Y008845D01*
X012325Y008845D01*
X015475Y008795D02*
X015475Y009095D01*
X016483Y006978D02*
X017267Y006978D01*
X022010Y002969D02*
X011380Y002969D01*
X011681Y002820D02*
X021807Y002820D01*
X021659Y002672D02*
X019430Y002672D01*
X019408Y002694D02*
X019296Y002740D01*
X019174Y002740D01*
X019062Y002694D01*
X018976Y002608D01*
X018930Y002496D01*
X018930Y002374D01*
X018976Y002262D01*
X019062Y002176D01*
X019174Y002130D01*
X019296Y002130D01*
X019408Y002176D01*
X019494Y002262D01*
X019540Y002374D01*
X019540Y002496D01*
X019494Y002608D01*
X019408Y002694D01*
X019040Y002672D02*
X015430Y002672D01*
X015408Y002694D02*
X015296Y002740D01*
X015174Y002740D01*
X015062Y002694D01*
X014976Y002608D01*
X014930Y002496D01*
X014930Y002374D01*
X014976Y002262D01*
X015062Y002176D01*
X015174Y002130D01*
X015296Y002130D01*
X015408Y002176D01*
X015494Y002262D01*
X015540Y002374D01*
X015540Y002496D01*
X015494Y002608D01*
X015408Y002694D01*
X015529Y002523D02*
X018941Y002523D01*
X018930Y002375D02*
X017397Y002375D01*
X017448Y002354D02*
X017336Y002400D01*
X017214Y002400D01*
X017102Y002354D01*
X017016Y002268D01*
X016970Y002156D01*
X016970Y002034D01*
X017016Y001922D01*
X017102Y001836D01*
X017214Y001790D01*
X017336Y001790D01*
X017448Y001836D01*
X017534Y001922D01*
X017580Y002034D01*
X017580Y002156D01*
X017534Y002268D01*
X017448Y002354D01*
X017551Y002226D02*
X019013Y002226D01*
X019457Y002226D02*
X021490Y002226D01*
X021525Y002375D02*
X019540Y002375D01*
X019529Y002523D02*
X021586Y002523D01*
X021490Y002078D02*
X017580Y002078D01*
X017536Y001929D02*
X017818Y001929D01*
X017776Y001888D02*
X017730Y001776D01*
X017730Y001654D01*
X017776Y001542D01*
X017862Y001456D01*
X017974Y001410D01*
X018096Y001410D01*
X018208Y001456D01*
X018235Y001484D01*
X018262Y001456D01*
X018374Y001410D01*
X018496Y001410D01*
X018608Y001456D01*
X018635Y001484D01*
X018662Y001456D01*
X018774Y001410D01*
X018896Y001410D01*
X019008Y001456D01*
X019094Y001542D01*
X019140Y001654D01*
X019140Y001776D01*
X019094Y001888D01*
X019008Y001974D01*
X018896Y002020D01*
X018774Y002020D01*
X018662Y001974D01*
X018635Y001946D01*
X018608Y001974D01*
X018496Y002020D01*
X018374Y002020D01*
X018262Y001974D01*
X018235Y001946D01*
X018208Y001974D01*
X018096Y002020D01*
X017974Y002020D01*
X017862Y001974D01*
X017776Y001888D01*
X017732Y001781D02*
X015058Y001781D01*
X015060Y001776D02*
X015014Y001888D01*
X014928Y001974D01*
X014816Y002020D01*
X014694Y002020D01*
X014582Y001974D01*
X014496Y001888D01*
X014452Y001780D01*
X014418Y001780D01*
X014374Y001888D01*
X014288Y001974D01*
X014176Y002020D01*
X014054Y002020D01*
X013942Y001974D01*
X013856Y001888D01*
X013810Y001776D01*
X013810Y001654D01*
X013856Y001542D01*
X013942Y001456D01*
X014054Y001410D01*
X014132Y001410D01*
X014176Y001302D01*
X014262Y001216D01*
X014374Y001170D01*
X014496Y001170D01*
X014608Y001216D01*
X014694Y001302D01*
X014738Y001410D01*
X014816Y001410D01*
X014928Y001456D01*
X015014Y001542D01*
X015060Y001654D01*
X015060Y001776D01*
X014972Y001929D02*
X017014Y001929D01*
X016970Y002078D02*
X013580Y002078D01*
X013536Y001929D02*
X013898Y001929D01*
X013812Y001781D02*
X011058Y001781D01*
X011060Y001776D02*
X011014Y001888D01*
X010928Y001974D01*
X010816Y002020D01*
X010694Y002020D01*
X010582Y001974D01*
X010496Y001888D01*
X010452Y001780D01*
X010418Y001780D01*
X010374Y001888D01*
X010288Y001974D01*
X010176Y002020D01*
X010054Y002020D01*
X009942Y001974D01*
X009856Y001888D01*
X009810Y001776D01*
X009810Y001654D01*
X009856Y001542D01*
X009942Y001456D01*
X010054Y001410D01*
X010132Y001410D01*
X010176Y001302D01*
X010262Y001216D01*
X010374Y001170D01*
X010496Y001170D01*
X010608Y001216D01*
X010694Y001302D01*
X010738Y001410D01*
X010816Y001410D01*
X010928Y001456D01*
X011014Y001542D01*
X011060Y001654D01*
X011060Y001776D01*
X010972Y001929D02*
X013014Y001929D01*
X012970Y002078D02*
X005380Y002078D01*
X005336Y001929D02*
X005898Y001929D01*
X005856Y001888D02*
X005810Y001776D01*
X005810Y001654D01*
X005856Y001542D01*
X005942Y001456D01*
X006054Y001410D01*
X006132Y001410D01*
X006176Y001302D01*
X006262Y001216D01*
X006374Y001170D01*
X006496Y001170D01*
X006608Y001216D01*
X006694Y001302D01*
X006738Y001410D01*
X006816Y001410D01*
X006928Y001456D01*
X007014Y001542D01*
X007060Y001654D01*
X007060Y001776D01*
X007014Y001888D01*
X006928Y001974D01*
X006816Y002020D01*
X006694Y002020D01*
X006582Y001974D01*
X006496Y001888D01*
X006452Y001780D01*
X006418Y001780D01*
X006374Y001888D01*
X006288Y001974D01*
X006176Y002020D01*
X006054Y002020D01*
X005942Y001974D01*
X005856Y001888D01*
X005812Y001781D02*
X002711Y001781D01*
X002760Y001929D02*
X004814Y001929D01*
X004770Y002078D02*
X002760Y002078D01*
X002760Y002226D02*
X004799Y002226D01*
X004953Y002375D02*
X002725Y002375D01*
X001310Y002969D02*
X000500Y002969D01*
X000500Y002820D02*
X001107Y002820D01*
X000959Y002672D02*
X000500Y002672D01*
X000500Y002523D02*
X000886Y002523D01*
X000825Y002375D02*
X000500Y002375D01*
X000500Y002226D02*
X000790Y002226D01*
X000790Y002078D02*
X000500Y002078D01*
X000500Y001929D02*
X000790Y001929D01*
X000839Y001781D02*
X000500Y001781D01*
X000500Y001632D02*
X000901Y001632D01*
X000994Y001484D02*
X000500Y001484D01*
X000500Y001335D02*
X001142Y001335D01*
X001395Y001187D02*
X000500Y001187D01*
X002155Y001187D02*
X006334Y001187D01*
X006536Y001187D02*
X010334Y001187D01*
X010536Y001187D02*
X014334Y001187D01*
X014536Y001187D02*
X022095Y001187D01*
X021842Y001335D02*
X014707Y001335D01*
X014955Y001484D02*
X017835Y001484D01*
X017739Y001632D02*
X015051Y001632D01*
X014452Y001781D02*
X014418Y001781D01*
X014332Y001929D02*
X014538Y001929D01*
X015013Y002226D02*
X013551Y002226D01*
X013397Y002375D02*
X014930Y002375D01*
X014941Y002523D02*
X011775Y002523D01*
X011773Y002672D02*
X015040Y002672D01*
X015540Y002375D02*
X017153Y002375D01*
X016999Y002226D02*
X015457Y002226D01*
X017025Y002595D02*
X017025Y002845D01*
X019052Y001929D02*
X021490Y001929D01*
X021539Y001781D02*
X019138Y001781D01*
X019131Y001632D02*
X021601Y001632D01*
X021694Y001484D02*
X019035Y001484D01*
X018635Y001484D02*
X018635Y001484D01*
X018235Y001484D02*
X018235Y001484D01*
X014163Y001335D02*
X010707Y001335D01*
X010955Y001484D02*
X013915Y001484D01*
X013819Y001632D02*
X011051Y001632D01*
X010538Y001929D02*
X010332Y001929D01*
X010418Y001781D02*
X010452Y001781D01*
X009898Y001929D02*
X006972Y001929D01*
X007058Y001781D02*
X009229Y001781D01*
X009216Y001768D02*
X009170Y001656D01*
X009170Y001534D01*
X009216Y001422D01*
X009302Y001336D01*
X009414Y001290D01*
X009536Y001290D01*
X009648Y001336D01*
X009734Y001422D01*
X009780Y001534D01*
X009780Y001656D01*
X009734Y001768D01*
X009648Y001854D01*
X009536Y001900D01*
X009414Y001900D01*
X009302Y001854D01*
X009216Y001768D01*
X009170Y001632D02*
X007051Y001632D01*
X006955Y001484D02*
X009191Y001484D01*
X009306Y001335D02*
X006707Y001335D01*
X006163Y001335D02*
X002408Y001335D01*
X002556Y001484D02*
X005915Y001484D01*
X005819Y001632D02*
X002649Y001632D01*
X005025Y002595D02*
X005025Y002845D01*
X006332Y001929D02*
X006538Y001929D01*
X006452Y001781D02*
X006418Y001781D01*
X009025Y002595D02*
X009025Y002845D01*
X009721Y001781D02*
X009812Y001781D01*
X009819Y001632D02*
X009780Y001632D01*
X009759Y001484D02*
X009915Y001484D01*
X010163Y001335D02*
X009644Y001335D01*
X013025Y002595D02*
X013025Y002845D01*
M02*
