G75*
%MOIN*%
%OFA0B0*%
%FSLAX24Y24*%
%IPPOS*%
%LPD*%
%AMOC8*
5,1,8,0,0,1.08239X$1,22.5*
%
%ADD10R,0.0150X0.0300*%
%ADD11R,0.0150X0.0400*%
D10*
X005650Y002095D03*
X005900Y002095D03*
X006150Y002095D03*
X006400Y002095D03*
X006650Y002095D03*
X006900Y002095D03*
X009650Y002095D03*
X009900Y002095D03*
X010150Y002095D03*
X010400Y002095D03*
X010650Y002095D03*
X010900Y002095D03*
X013650Y002095D03*
X013900Y002095D03*
X014150Y002095D03*
X014400Y002095D03*
X014650Y002095D03*
X014900Y002095D03*
X017650Y002095D03*
X017900Y002095D03*
X018150Y002095D03*
X018400Y002095D03*
X018650Y002095D03*
X018900Y002095D03*
D11*
X018900Y002545D03*
X018650Y002545D03*
X018400Y002545D03*
X018150Y002545D03*
X017900Y002545D03*
X017650Y002545D03*
X014900Y002545D03*
X014650Y002545D03*
X014400Y002545D03*
X014150Y002545D03*
X013900Y002545D03*
X013650Y002545D03*
X010900Y002545D03*
X010650Y002545D03*
X010400Y002545D03*
X010150Y002545D03*
X009900Y002545D03*
X009650Y002545D03*
X006900Y002545D03*
X006650Y002545D03*
X006400Y002545D03*
X006150Y002545D03*
X005900Y002545D03*
X005650Y002545D03*
M02*
