G75*
%MOIN*%
%OFA0B0*%
%FSLAX24Y24*%
%IPPOS*%
%LPD*%
%AMOC8*
5,1,8,0,0,1.08239X$1,22.5*
%
%ADD10R,0.0230X0.0380*%
%ADD11R,0.0230X0.0480*%
%ADD12C,0.1205*%
%ADD13C,0.0651*%
%ADD14C,0.0631*%
%ADD15C,0.2049*%
%ADD16C,0.0340*%
D10*
X005650Y002095D03*
X005900Y002095D03*
X006150Y002095D03*
X006400Y002095D03*
X006650Y002095D03*
X006900Y002095D03*
X009650Y002095D03*
X009900Y002095D03*
X010150Y002095D03*
X010400Y002095D03*
X010650Y002095D03*
X010900Y002095D03*
X013650Y002095D03*
X013900Y002095D03*
X014150Y002095D03*
X014400Y002095D03*
X014650Y002095D03*
X014900Y002095D03*
X017650Y002095D03*
X017900Y002095D03*
X018150Y002095D03*
X018400Y002095D03*
X018650Y002095D03*
X018900Y002095D03*
D11*
X018900Y002545D03*
X018650Y002545D03*
X018400Y002545D03*
X018150Y002545D03*
X017900Y002545D03*
X017650Y002545D03*
X014900Y002545D03*
X014650Y002545D03*
X014400Y002545D03*
X014150Y002545D03*
X013900Y002545D03*
X013650Y002545D03*
X010900Y002545D03*
X010650Y002545D03*
X010400Y002545D03*
X010150Y002545D03*
X009900Y002545D03*
X009650Y002545D03*
X006900Y002545D03*
X006650Y002545D03*
X006400Y002545D03*
X006150Y002545D03*
X005900Y002545D03*
X005650Y002545D03*
D12*
X004449Y007326D03*
X019901Y007326D03*
D13*
X019901Y009038D03*
X004449Y009038D03*
D14*
X004734Y009739D03*
X019616Y009739D03*
D15*
X001775Y002095D03*
X001775Y009395D03*
X022475Y009395D03*
X022475Y002095D03*
D16*
X019235Y002435D03*
X018835Y001715D03*
X018435Y001715D03*
X018035Y001715D03*
X017275Y002095D03*
X017025Y002595D03*
X015235Y002435D03*
X014755Y001715D03*
X014435Y001475D03*
X014115Y001715D03*
X013275Y002095D03*
X013025Y002595D03*
X011475Y002595D03*
X011175Y003195D03*
X009025Y002595D03*
X007475Y002595D03*
X007175Y003195D03*
X005025Y002595D03*
X005075Y002095D03*
X006115Y001715D03*
X006435Y001475D03*
X006755Y001715D03*
X009475Y001595D03*
X010115Y001715D03*
X010435Y001475D03*
X010755Y001715D03*
X006195Y006195D03*
X006275Y006795D03*
X007235Y006755D03*
X007955Y006755D03*
X009375Y006695D03*
X009795Y006755D03*
X010435Y006755D03*
X011075Y006755D03*
X012575Y006695D03*
X012995Y006755D03*
X013635Y006755D03*
X014275Y006755D03*
X014915Y006755D03*
X016275Y006755D03*
X016915Y006515D03*
X016475Y006095D03*
X017475Y006755D03*
X018915Y006115D03*
X015475Y008795D03*
X012325Y008845D03*
X009175Y008895D03*
X006025Y008895D03*
M02*
