G75*
%MOIN*%
%OFA0B0*%
%FSLAX24Y24*%
%IPPOS*%
%LPD*%
%AMOC8*
5,1,8,0,0,1.08239X$1,22.5*
%
%ADD10R,0.0277X0.0572*%
%ADD11C,0.1205*%
%ADD12C,0.0651*%
%ADD13C,0.0631*%
%ADD14C,0.2049*%
%ADD15C,0.0340*%
D10*
X006033Y007284D03*
X006348Y007284D03*
X006663Y007284D03*
X006978Y007284D03*
X007293Y007284D03*
X007608Y007284D03*
X007923Y007284D03*
X008238Y007284D03*
X008553Y007284D03*
X008868Y007284D03*
X009183Y007284D03*
X009498Y007284D03*
X009813Y007284D03*
X010128Y007284D03*
X010443Y007284D03*
X010758Y007284D03*
X011073Y007284D03*
X011388Y007284D03*
X011703Y007284D03*
X012018Y007284D03*
X012332Y007284D03*
X012647Y007284D03*
X012962Y007284D03*
X013277Y007284D03*
X013592Y007284D03*
X013907Y007284D03*
X014222Y007284D03*
X014537Y007284D03*
X014852Y007284D03*
X015167Y007284D03*
X015482Y007284D03*
X015797Y007284D03*
X016112Y007284D03*
X016427Y007284D03*
X016742Y007284D03*
X017057Y007284D03*
X017372Y007284D03*
X017687Y007284D03*
X018002Y007284D03*
X018317Y007284D03*
X018317Y008025D03*
X018002Y008025D03*
X017687Y008025D03*
X017372Y008025D03*
X017057Y008025D03*
X016742Y008025D03*
X016427Y008025D03*
X016112Y008025D03*
X015797Y008025D03*
X015482Y008025D03*
X015167Y008025D03*
X014852Y008025D03*
X014537Y008025D03*
X014222Y008025D03*
X013907Y008025D03*
X013592Y008025D03*
X013277Y008025D03*
X012962Y008025D03*
X012647Y008025D03*
X012332Y008025D03*
X012018Y008025D03*
X011703Y008025D03*
X011388Y008025D03*
X011073Y008025D03*
X010758Y008025D03*
X010443Y008025D03*
X010128Y008025D03*
X009813Y008025D03*
X009498Y008025D03*
X009183Y008025D03*
X008868Y008025D03*
X008553Y008025D03*
X008238Y008025D03*
X007923Y008025D03*
X007608Y008025D03*
X007293Y008025D03*
X006978Y008025D03*
X006663Y008025D03*
X006348Y008025D03*
X006033Y008025D03*
D11*
X004449Y007326D03*
X019901Y007326D03*
D12*
X019901Y009038D03*
X004449Y009038D03*
D13*
X004734Y009739D03*
X019616Y009739D03*
D14*
X001775Y002095D03*
X001775Y009395D03*
X022475Y009395D03*
X022475Y002095D03*
D15*
X019235Y002435D03*
X018835Y001715D03*
X018435Y001715D03*
X018035Y001715D03*
X017275Y002095D03*
X017025Y002595D03*
X015235Y002435D03*
X014755Y001715D03*
X014435Y001475D03*
X014115Y001715D03*
X013275Y002095D03*
X013025Y002595D03*
X011475Y002595D03*
X011175Y003195D03*
X009025Y002595D03*
X007475Y002595D03*
X007175Y003195D03*
X005025Y002595D03*
X005075Y002095D03*
X006115Y001715D03*
X006435Y001475D03*
X006755Y001715D03*
X009475Y001595D03*
X010115Y001715D03*
X010435Y001475D03*
X010755Y001715D03*
X006195Y006195D03*
X006275Y006795D03*
X007235Y006755D03*
X007955Y006755D03*
X009375Y006695D03*
X009795Y006755D03*
X010435Y006755D03*
X011075Y006755D03*
X012575Y006695D03*
X012995Y006755D03*
X013635Y006755D03*
X014275Y006755D03*
X014915Y006755D03*
X016275Y006755D03*
X016915Y006515D03*
X016475Y006095D03*
X017475Y006755D03*
X018915Y006115D03*
X015475Y008795D03*
X012325Y008845D03*
X009175Y008895D03*
X006025Y008895D03*
M02*
