G75*
%MOIN*%
%OFA0B0*%
%FSLAX24Y24*%
%IPPOS*%
%LPD*%
%AMOC8*
5,1,8,0,0,1.08239X$1,22.5*
%
%ADD10C,0.0000*%
%ADD11C,0.0060*%
%ADD12C,0.0040*%
%ADD13C,0.0070*%
%ADD14C,0.0050*%
D10*
X000275Y000795D02*
X000275Y010665D01*
X023867Y010665D01*
X023867Y000795D01*
X000275Y000795D01*
X004164Y009038D02*
X004166Y009071D01*
X004172Y009104D01*
X004181Y009135D01*
X004194Y009166D01*
X004211Y009195D01*
X004231Y009221D01*
X004253Y009245D01*
X004279Y009267D01*
X004306Y009285D01*
X004336Y009300D01*
X004367Y009311D01*
X004400Y009319D01*
X004432Y009323D01*
X004466Y009323D01*
X004498Y009319D01*
X004531Y009311D01*
X004562Y009300D01*
X004591Y009285D01*
X004619Y009267D01*
X004645Y009245D01*
X004667Y009221D01*
X004687Y009195D01*
X004704Y009166D01*
X004717Y009135D01*
X004726Y009104D01*
X004732Y009071D01*
X004734Y009038D01*
X004732Y009005D01*
X004726Y008972D01*
X004717Y008941D01*
X004704Y008910D01*
X004687Y008881D01*
X004667Y008855D01*
X004645Y008831D01*
X004619Y008809D01*
X004592Y008791D01*
X004562Y008776D01*
X004531Y008765D01*
X004498Y008757D01*
X004466Y008753D01*
X004432Y008753D01*
X004400Y008757D01*
X004367Y008765D01*
X004336Y008776D01*
X004306Y008791D01*
X004279Y008809D01*
X004253Y008831D01*
X004231Y008855D01*
X004211Y008881D01*
X004194Y008910D01*
X004181Y008941D01*
X004172Y008972D01*
X004166Y009005D01*
X004164Y009038D01*
X019616Y009038D02*
X019618Y009071D01*
X019624Y009104D01*
X019633Y009135D01*
X019646Y009166D01*
X019663Y009195D01*
X019683Y009221D01*
X019705Y009245D01*
X019731Y009267D01*
X019758Y009285D01*
X019788Y009300D01*
X019819Y009311D01*
X019852Y009319D01*
X019884Y009323D01*
X019918Y009323D01*
X019950Y009319D01*
X019983Y009311D01*
X020014Y009300D01*
X020043Y009285D01*
X020071Y009267D01*
X020097Y009245D01*
X020119Y009221D01*
X020139Y009195D01*
X020156Y009166D01*
X020169Y009135D01*
X020178Y009104D01*
X020184Y009071D01*
X020186Y009038D01*
X020184Y009005D01*
X020178Y008972D01*
X020169Y008941D01*
X020156Y008910D01*
X020139Y008881D01*
X020119Y008855D01*
X020097Y008831D01*
X020071Y008809D01*
X020044Y008791D01*
X020014Y008776D01*
X019983Y008765D01*
X019950Y008757D01*
X019918Y008753D01*
X019884Y008753D01*
X019852Y008757D01*
X019819Y008765D01*
X019788Y008776D01*
X019758Y008791D01*
X019731Y008809D01*
X019705Y008831D01*
X019683Y008855D01*
X019663Y008881D01*
X019646Y008910D01*
X019633Y008941D01*
X019624Y008972D01*
X019618Y009005D01*
X019616Y009038D01*
D11*
X018019Y004266D02*
X018232Y004052D01*
X018232Y003625D01*
X017805Y003625D02*
X017805Y004052D01*
X018019Y004266D01*
X017805Y003945D02*
X018232Y003945D01*
X014482Y003839D02*
X014482Y003732D01*
X014375Y003625D01*
X014055Y003625D01*
X014055Y004266D01*
X014375Y004266D01*
X014482Y004159D01*
X014482Y004052D01*
X014375Y003945D01*
X014055Y003945D01*
X014375Y003945D02*
X014482Y003839D01*
X010482Y003732D02*
X010375Y003625D01*
X010162Y003625D01*
X010055Y003732D01*
X010055Y004159D01*
X010162Y004266D01*
X010375Y004266D01*
X010482Y004159D01*
X006482Y004159D02*
X006482Y003732D01*
X006375Y003625D01*
X006055Y003625D01*
X006055Y004266D01*
X006375Y004266D01*
X006482Y004159D01*
D12*
X001208Y004850D02*
X001208Y004926D01*
X001132Y005003D01*
X000748Y005003D01*
X001055Y005003D02*
X001055Y004773D01*
X000978Y004696D01*
X000748Y004696D01*
X000748Y004543D02*
X000748Y004313D01*
X000825Y004236D01*
X000902Y004313D01*
X000902Y004466D01*
X000978Y004543D01*
X001055Y004466D01*
X001055Y004236D01*
X001055Y004082D02*
X000825Y004082D01*
X000748Y004006D01*
X000748Y003852D01*
X000902Y003852D02*
X000902Y004082D01*
X001055Y004082D02*
X001055Y003852D01*
X000978Y003775D01*
X000902Y003852D01*
X001055Y003622D02*
X001055Y003315D01*
X000595Y003315D01*
X000595Y003622D01*
X000825Y003468D02*
X000825Y003315D01*
X000671Y005617D02*
X000978Y005617D01*
X001055Y005694D01*
X001055Y005847D01*
X000978Y005924D01*
X000978Y006077D02*
X000825Y006077D01*
X000748Y006154D01*
X000748Y006308D01*
X000825Y006384D01*
X000978Y006384D01*
X001055Y006308D01*
X001055Y006154D01*
X000978Y006077D01*
X000671Y005924D02*
X000595Y005847D01*
X000595Y005694D01*
X000671Y005617D01*
X000748Y006538D02*
X000748Y006768D01*
X000825Y006845D01*
X001055Y006845D01*
X001055Y006998D02*
X000748Y006998D01*
X000748Y007228D01*
X000825Y007305D01*
X001055Y007305D01*
X000978Y007459D02*
X000825Y007459D01*
X000748Y007535D01*
X000748Y007689D01*
X000825Y007765D01*
X000902Y007765D01*
X000902Y007459D01*
X000978Y007459D02*
X001055Y007535D01*
X001055Y007689D01*
X000978Y007919D02*
X000825Y007919D01*
X000748Y007996D01*
X000748Y008226D01*
X000748Y008379D02*
X000748Y008533D01*
X000671Y008456D02*
X000978Y008456D01*
X001055Y008533D01*
X000978Y008686D02*
X000825Y008686D01*
X000748Y008763D01*
X000748Y008916D01*
X000825Y008993D01*
X000978Y008993D01*
X001055Y008916D01*
X001055Y008763D01*
X000978Y008686D01*
X001055Y008226D02*
X001055Y007996D01*
X000978Y007919D01*
X000902Y009147D02*
X000748Y009300D01*
X000748Y009377D01*
X000748Y009147D02*
X001055Y009147D01*
X001055Y006538D02*
X000748Y006538D01*
X022795Y006682D02*
X022795Y006375D01*
X023255Y006375D01*
X023255Y006682D01*
X023102Y006836D02*
X023255Y006989D01*
X023102Y007143D01*
X022795Y007143D01*
X022948Y007296D02*
X022795Y007450D01*
X022948Y007603D01*
X023255Y007603D01*
X023025Y007603D02*
X023025Y007296D01*
X022948Y007296D02*
X023255Y007296D01*
X023102Y006836D02*
X022795Y006836D01*
X023025Y006529D02*
X023025Y006375D01*
X023025Y006222D02*
X022871Y006222D01*
X022795Y006145D01*
X022795Y005915D01*
X023255Y005915D01*
X023102Y005915D02*
X023102Y006145D01*
X023025Y006222D01*
X023102Y006068D02*
X023255Y006222D01*
X023255Y005353D02*
X023255Y005046D01*
X022795Y005046D01*
X022795Y004893D02*
X022795Y004586D01*
X023255Y004586D01*
X023255Y004893D01*
X023025Y004739D02*
X023025Y004586D01*
X023255Y004432D02*
X022795Y004432D01*
X022795Y004125D02*
X023255Y004432D01*
X023255Y004125D02*
X022795Y004125D01*
X022795Y003972D02*
X022795Y003665D01*
X022795Y003818D02*
X023255Y003818D01*
D13*
X020208Y005948D02*
X019559Y005948D01*
X019497Y005950D01*
X019436Y005956D01*
X019375Y005965D01*
X019314Y005979D01*
X019255Y005996D01*
X019197Y006017D01*
X019140Y006042D01*
X019085Y006070D01*
X019032Y006101D01*
X018981Y006136D01*
X018932Y006174D01*
X018885Y006215D01*
X018842Y006258D01*
X018801Y006305D01*
X018763Y006354D01*
X018728Y006405D01*
X018697Y006458D01*
X018669Y006513D01*
X018644Y006570D01*
X018623Y006628D01*
X018606Y006687D01*
X018592Y006748D01*
X018583Y006809D01*
X018577Y006870D01*
X018575Y006932D01*
X018575Y006936D01*
X005775Y006936D01*
X005775Y006934D01*
X005776Y006934D02*
X005774Y006872D01*
X005768Y006810D01*
X005759Y006749D01*
X005745Y006689D01*
X005728Y006629D01*
X005707Y006571D01*
X005682Y006514D01*
X005654Y006459D01*
X005623Y006406D01*
X005588Y006354D01*
X005550Y006305D01*
X005509Y006259D01*
X005465Y006215D01*
X005419Y006174D01*
X005370Y006136D01*
X005318Y006101D01*
X005265Y006070D01*
X005210Y006042D01*
X005153Y006017D01*
X005095Y005996D01*
X005035Y005979D01*
X004975Y005965D01*
X004914Y005956D01*
X004852Y005950D01*
X004790Y005948D01*
X004142Y005948D01*
X004142Y005947D02*
X004080Y005949D01*
X004019Y005954D01*
X003957Y005964D01*
X003897Y005977D01*
X003837Y005993D01*
X003779Y006014D01*
X003722Y006037D01*
X003666Y006064D01*
X003612Y006095D01*
X003560Y006128D01*
X003510Y006165D01*
X003463Y006205D01*
X003418Y006247D01*
X003376Y006292D01*
X003336Y006339D01*
X003299Y006389D01*
X003266Y006441D01*
X003235Y006495D01*
X003208Y006551D01*
X003185Y006608D01*
X003164Y006666D01*
X003148Y006726D01*
X003135Y006786D01*
X003125Y006848D01*
X003120Y006909D01*
X003118Y006971D01*
X003118Y010377D01*
X020208Y005947D02*
X020270Y005949D01*
X020331Y005954D01*
X020393Y005964D01*
X020453Y005977D01*
X020513Y005993D01*
X020571Y006014D01*
X020628Y006037D01*
X020684Y006064D01*
X020738Y006095D01*
X020790Y006128D01*
X020840Y006165D01*
X020887Y006205D01*
X020932Y006247D01*
X020974Y006292D01*
X021014Y006339D01*
X021051Y006389D01*
X021084Y006441D01*
X021115Y006495D01*
X021142Y006551D01*
X021165Y006608D01*
X021186Y006666D01*
X021202Y006726D01*
X021215Y006786D01*
X021225Y006848D01*
X021230Y006909D01*
X021232Y006971D01*
X021232Y010377D01*
D14*
X021475Y009395D02*
X021477Y009458D01*
X021483Y009520D01*
X021493Y009582D01*
X021506Y009644D01*
X021524Y009704D01*
X021545Y009763D01*
X021570Y009821D01*
X021599Y009877D01*
X021631Y009931D01*
X021666Y009983D01*
X021704Y010032D01*
X021746Y010080D01*
X021790Y010124D01*
X021838Y010166D01*
X021887Y010204D01*
X021939Y010239D01*
X021993Y010271D01*
X022049Y010300D01*
X022107Y010325D01*
X022166Y010346D01*
X022226Y010364D01*
X022288Y010377D01*
X022350Y010387D01*
X022412Y010393D01*
X022475Y010395D01*
X022538Y010393D01*
X022600Y010387D01*
X022662Y010377D01*
X022724Y010364D01*
X022784Y010346D01*
X022843Y010325D01*
X022901Y010300D01*
X022957Y010271D01*
X023011Y010239D01*
X023063Y010204D01*
X023112Y010166D01*
X023160Y010124D01*
X023204Y010080D01*
X023246Y010032D01*
X023284Y009983D01*
X023319Y009931D01*
X023351Y009877D01*
X023380Y009821D01*
X023405Y009763D01*
X023426Y009704D01*
X023444Y009644D01*
X023457Y009582D01*
X023467Y009520D01*
X023473Y009458D01*
X023475Y009395D01*
X023473Y009332D01*
X023467Y009270D01*
X023457Y009208D01*
X023444Y009146D01*
X023426Y009086D01*
X023405Y009027D01*
X023380Y008969D01*
X023351Y008913D01*
X023319Y008859D01*
X023284Y008807D01*
X023246Y008758D01*
X023204Y008710D01*
X023160Y008666D01*
X023112Y008624D01*
X023063Y008586D01*
X023011Y008551D01*
X022957Y008519D01*
X022901Y008490D01*
X022843Y008465D01*
X022784Y008444D01*
X022724Y008426D01*
X022662Y008413D01*
X022600Y008403D01*
X022538Y008397D01*
X022475Y008395D01*
X022412Y008397D01*
X022350Y008403D01*
X022288Y008413D01*
X022226Y008426D01*
X022166Y008444D01*
X022107Y008465D01*
X022049Y008490D01*
X021993Y008519D01*
X021939Y008551D01*
X021887Y008586D01*
X021838Y008624D01*
X021790Y008666D01*
X021746Y008710D01*
X021704Y008758D01*
X021666Y008807D01*
X021631Y008859D01*
X021599Y008913D01*
X021570Y008969D01*
X021545Y009027D01*
X021524Y009086D01*
X021506Y009146D01*
X021493Y009208D01*
X021483Y009270D01*
X021477Y009332D01*
X021475Y009395D01*
X021475Y002095D02*
X021477Y002158D01*
X021483Y002220D01*
X021493Y002282D01*
X021506Y002344D01*
X021524Y002404D01*
X021545Y002463D01*
X021570Y002521D01*
X021599Y002577D01*
X021631Y002631D01*
X021666Y002683D01*
X021704Y002732D01*
X021746Y002780D01*
X021790Y002824D01*
X021838Y002866D01*
X021887Y002904D01*
X021939Y002939D01*
X021993Y002971D01*
X022049Y003000D01*
X022107Y003025D01*
X022166Y003046D01*
X022226Y003064D01*
X022288Y003077D01*
X022350Y003087D01*
X022412Y003093D01*
X022475Y003095D01*
X022538Y003093D01*
X022600Y003087D01*
X022662Y003077D01*
X022724Y003064D01*
X022784Y003046D01*
X022843Y003025D01*
X022901Y003000D01*
X022957Y002971D01*
X023011Y002939D01*
X023063Y002904D01*
X023112Y002866D01*
X023160Y002824D01*
X023204Y002780D01*
X023246Y002732D01*
X023284Y002683D01*
X023319Y002631D01*
X023351Y002577D01*
X023380Y002521D01*
X023405Y002463D01*
X023426Y002404D01*
X023444Y002344D01*
X023457Y002282D01*
X023467Y002220D01*
X023473Y002158D01*
X023475Y002095D01*
X023473Y002032D01*
X023467Y001970D01*
X023457Y001908D01*
X023444Y001846D01*
X023426Y001786D01*
X023405Y001727D01*
X023380Y001669D01*
X023351Y001613D01*
X023319Y001559D01*
X023284Y001507D01*
X023246Y001458D01*
X023204Y001410D01*
X023160Y001366D01*
X023112Y001324D01*
X023063Y001286D01*
X023011Y001251D01*
X022957Y001219D01*
X022901Y001190D01*
X022843Y001165D01*
X022784Y001144D01*
X022724Y001126D01*
X022662Y001113D01*
X022600Y001103D01*
X022538Y001097D01*
X022475Y001095D01*
X022412Y001097D01*
X022350Y001103D01*
X022288Y001113D01*
X022226Y001126D01*
X022166Y001144D01*
X022107Y001165D01*
X022049Y001190D01*
X021993Y001219D01*
X021939Y001251D01*
X021887Y001286D01*
X021838Y001324D01*
X021790Y001366D01*
X021746Y001410D01*
X021704Y001458D01*
X021666Y001507D01*
X021631Y001559D01*
X021599Y001613D01*
X021570Y001669D01*
X021545Y001727D01*
X021524Y001786D01*
X021506Y001846D01*
X021493Y001908D01*
X021483Y001970D01*
X021477Y002032D01*
X021475Y002095D01*
X000775Y002095D02*
X000777Y002158D01*
X000783Y002220D01*
X000793Y002282D01*
X000806Y002344D01*
X000824Y002404D01*
X000845Y002463D01*
X000870Y002521D01*
X000899Y002577D01*
X000931Y002631D01*
X000966Y002683D01*
X001004Y002732D01*
X001046Y002780D01*
X001090Y002824D01*
X001138Y002866D01*
X001187Y002904D01*
X001239Y002939D01*
X001293Y002971D01*
X001349Y003000D01*
X001407Y003025D01*
X001466Y003046D01*
X001526Y003064D01*
X001588Y003077D01*
X001650Y003087D01*
X001712Y003093D01*
X001775Y003095D01*
X001838Y003093D01*
X001900Y003087D01*
X001962Y003077D01*
X002024Y003064D01*
X002084Y003046D01*
X002143Y003025D01*
X002201Y003000D01*
X002257Y002971D01*
X002311Y002939D01*
X002363Y002904D01*
X002412Y002866D01*
X002460Y002824D01*
X002504Y002780D01*
X002546Y002732D01*
X002584Y002683D01*
X002619Y002631D01*
X002651Y002577D01*
X002680Y002521D01*
X002705Y002463D01*
X002726Y002404D01*
X002744Y002344D01*
X002757Y002282D01*
X002767Y002220D01*
X002773Y002158D01*
X002775Y002095D01*
X002773Y002032D01*
X002767Y001970D01*
X002757Y001908D01*
X002744Y001846D01*
X002726Y001786D01*
X002705Y001727D01*
X002680Y001669D01*
X002651Y001613D01*
X002619Y001559D01*
X002584Y001507D01*
X002546Y001458D01*
X002504Y001410D01*
X002460Y001366D01*
X002412Y001324D01*
X002363Y001286D01*
X002311Y001251D01*
X002257Y001219D01*
X002201Y001190D01*
X002143Y001165D01*
X002084Y001144D01*
X002024Y001126D01*
X001962Y001113D01*
X001900Y001103D01*
X001838Y001097D01*
X001775Y001095D01*
X001712Y001097D01*
X001650Y001103D01*
X001588Y001113D01*
X001526Y001126D01*
X001466Y001144D01*
X001407Y001165D01*
X001349Y001190D01*
X001293Y001219D01*
X001239Y001251D01*
X001187Y001286D01*
X001138Y001324D01*
X001090Y001366D01*
X001046Y001410D01*
X001004Y001458D01*
X000966Y001507D01*
X000931Y001559D01*
X000899Y001613D01*
X000870Y001669D01*
X000845Y001727D01*
X000824Y001786D01*
X000806Y001846D01*
X000793Y001908D01*
X000783Y001970D01*
X000777Y002032D01*
X000775Y002095D01*
X000775Y009395D02*
X000777Y009458D01*
X000783Y009520D01*
X000793Y009582D01*
X000806Y009644D01*
X000824Y009704D01*
X000845Y009763D01*
X000870Y009821D01*
X000899Y009877D01*
X000931Y009931D01*
X000966Y009983D01*
X001004Y010032D01*
X001046Y010080D01*
X001090Y010124D01*
X001138Y010166D01*
X001187Y010204D01*
X001239Y010239D01*
X001293Y010271D01*
X001349Y010300D01*
X001407Y010325D01*
X001466Y010346D01*
X001526Y010364D01*
X001588Y010377D01*
X001650Y010387D01*
X001712Y010393D01*
X001775Y010395D01*
X001838Y010393D01*
X001900Y010387D01*
X001962Y010377D01*
X002024Y010364D01*
X002084Y010346D01*
X002143Y010325D01*
X002201Y010300D01*
X002257Y010271D01*
X002311Y010239D01*
X002363Y010204D01*
X002412Y010166D01*
X002460Y010124D01*
X002504Y010080D01*
X002546Y010032D01*
X002584Y009983D01*
X002619Y009931D01*
X002651Y009877D01*
X002680Y009821D01*
X002705Y009763D01*
X002726Y009704D01*
X002744Y009644D01*
X002757Y009582D01*
X002767Y009520D01*
X002773Y009458D01*
X002775Y009395D01*
X002773Y009332D01*
X002767Y009270D01*
X002757Y009208D01*
X002744Y009146D01*
X002726Y009086D01*
X002705Y009027D01*
X002680Y008969D01*
X002651Y008913D01*
X002619Y008859D01*
X002584Y008807D01*
X002546Y008758D01*
X002504Y008710D01*
X002460Y008666D01*
X002412Y008624D01*
X002363Y008586D01*
X002311Y008551D01*
X002257Y008519D01*
X002201Y008490D01*
X002143Y008465D01*
X002084Y008444D01*
X002024Y008426D01*
X001962Y008413D01*
X001900Y008403D01*
X001838Y008397D01*
X001775Y008395D01*
X001712Y008397D01*
X001650Y008403D01*
X001588Y008413D01*
X001526Y008426D01*
X001466Y008444D01*
X001407Y008465D01*
X001349Y008490D01*
X001293Y008519D01*
X001239Y008551D01*
X001187Y008586D01*
X001138Y008624D01*
X001090Y008666D01*
X001046Y008710D01*
X001004Y008758D01*
X000966Y008807D01*
X000931Y008859D01*
X000899Y008913D01*
X000870Y008969D01*
X000845Y009027D01*
X000824Y009086D01*
X000806Y009146D01*
X000793Y009208D01*
X000783Y009270D01*
X000777Y009332D01*
X000775Y009395D01*
M02*
