%
M48
M72
T01C0.0100
T02C0.0248
T03C0.0571
T04C0.0750
T05C0.1260
%
T01
X5075Y2095
X5025Y2595
X6115Y1715
X6435Y1475
X6755Y1715
X7475Y2595
X7175Y3195
X9025Y2595
X10115Y1715
X10435Y1475
X10755Y1715
X9475Y1595
X11475Y2595
X11175Y3195
X13025Y2595
X13275Y2095
X14115Y1715
X14435Y1475
X14755Y1715
X15235Y2435
X17025Y2595
X17275Y2095
X18035Y1715
X18435Y1715
X18835Y1715
X19235Y2435
X18915Y6115
X17475Y6755
X16915Y6515
X16475Y6095
X16275Y6755
X14915Y6755
X14275Y6755
X13635Y6755
X12995Y6755
X12575Y6695
X11075Y6755
X10435Y6755
X9795Y6755
X9375Y6695
X7955Y6755
X7235Y6755
X6275Y6795
X6195Y6195
X6025Y8895
X9175Y8895
X12325Y8845
X15475Y8795
T02
X19616Y9739
X4734Y9739
T03
X4449Y9038
X19901Y9038
T04
X19901Y7326
X4449Y7326
T05
X1775Y2095
X1775Y9395
X22475Y9395
X22475Y2095
M30
