G75*
%MOIN*%
%OFA0B0*%
%FSLAX25Y25*%
%IPPOS*%
%LPD*%
%AMOC8*
5,1,8,0,0,1.08239X$1,22.5*
%
%ADD10R,0.03800X0.06000*%
%ADD11R,0.01575X0.04724*%
%ADD12R,0.02362X0.08661*%
%ADD13C,0.05512*%
%ADD14C,0.11280*%
%ADD15R,0.01969X0.04921*%
%ADD16R,0.01500X0.03000*%
%ADD17R,0.01500X0.04000*%
%ADD18C,0.19685*%
%ADD19C,0.07087*%
%ADD20R,0.06299X0.07087*%
%ADD21R,0.04331X0.03937*%
%ADD22R,0.08800X0.04800*%
%ADD23R,0.08661X0.14173*%
%ADD24C,0.01500*%
%ADD25C,0.02600*%
%ADD26C,0.03200*%
%ADD27C,0.01600*%
%ADD28C,0.00800*%
%ADD29C,0.01200*%
%ADD30C,0.03962*%
D10*
X0142700Y0122800D03*
X0150900Y0122800D03*
X0164700Y0122800D03*
X0172900Y0122800D03*
X0172900Y0137800D03*
X0164700Y0137800D03*
X0150900Y0137800D03*
X0142700Y0137800D03*
X0115900Y0130800D03*
X0107700Y0130800D03*
X0052900Y0126800D03*
X0044700Y0126800D03*
X0025900Y0125800D03*
X0017700Y0125800D03*
X0017700Y0138800D03*
X0025900Y0138800D03*
X0044700Y0138800D03*
X0052900Y0138800D03*
X0056900Y0200800D03*
X0048700Y0200800D03*
X0048700Y0211800D03*
X0056900Y0211800D03*
X0026900Y0210800D03*
X0018700Y0210800D03*
X0018700Y0199800D03*
X0026900Y0199800D03*
X0124700Y0199800D03*
X0132900Y0199800D03*
X0144700Y0199800D03*
X0152900Y0199800D03*
X0152900Y0209800D03*
X0144700Y0209800D03*
X0172700Y0209800D03*
X0180900Y0209800D03*
X0180900Y0199800D03*
X0172700Y0199800D03*
X0231700Y0198800D03*
X0239900Y0198800D03*
X0264700Y0198800D03*
X0272900Y0198800D03*
X0272900Y0209800D03*
X0264700Y0209800D03*
X0294700Y0209800D03*
X0302900Y0209800D03*
X0302900Y0198800D03*
X0294700Y0198800D03*
X0341700Y0207800D03*
X0349900Y0207800D03*
X0384700Y0205800D03*
X0392900Y0205800D03*
X0392900Y0195800D03*
X0384700Y0195800D03*
X0412700Y0195800D03*
X0420900Y0195800D03*
X0420900Y0205800D03*
X0412700Y0205800D03*
X0470700Y0206800D03*
X0478900Y0206800D03*
X0418900Y0133800D03*
X0410700Y0133800D03*
X0410700Y0121800D03*
X0418900Y0121800D03*
X0392900Y0122800D03*
X0384700Y0122800D03*
X0384700Y0133800D03*
X0392900Y0133800D03*
X0355900Y0130800D03*
X0347700Y0130800D03*
X0298900Y0124800D03*
X0290700Y0124800D03*
X0290700Y0137800D03*
X0298900Y0137800D03*
X0272900Y0137800D03*
X0264700Y0137800D03*
X0264700Y0124800D03*
X0272900Y0124800D03*
X0235900Y0130800D03*
X0227700Y0130800D03*
X0469700Y0131800D03*
X0477900Y0131800D03*
D11*
X0448316Y0127217D03*
X0445757Y0127217D03*
X0443198Y0127217D03*
X0440639Y0127217D03*
X0438080Y0127217D03*
X0435520Y0127217D03*
X0432961Y0127217D03*
X0430402Y0127217D03*
X0427843Y0127217D03*
X0425284Y0127217D03*
X0425284Y0104383D03*
X0427843Y0104383D03*
X0430402Y0104383D03*
X0432961Y0104383D03*
X0435520Y0104383D03*
X0438080Y0104383D03*
X0440639Y0104383D03*
X0443198Y0104383D03*
X0445757Y0104383D03*
X0448316Y0104383D03*
X0353316Y0097383D03*
X0350757Y0097383D03*
X0348198Y0097383D03*
X0345639Y0097383D03*
X0343080Y0097383D03*
X0340520Y0097383D03*
X0337961Y0097383D03*
X0335402Y0097383D03*
X0332843Y0097383D03*
X0330284Y0097383D03*
X0330284Y0120217D03*
X0332843Y0120217D03*
X0335402Y0120217D03*
X0337961Y0120217D03*
X0340520Y0120217D03*
X0343080Y0120217D03*
X0345639Y0120217D03*
X0348198Y0120217D03*
X0350757Y0120217D03*
X0353316Y0120217D03*
X0203316Y0127217D03*
X0200757Y0127217D03*
X0198198Y0127217D03*
X0195639Y0127217D03*
X0193080Y0127217D03*
X0190520Y0127217D03*
X0187961Y0127217D03*
X0185402Y0127217D03*
X0182843Y0127217D03*
X0180284Y0127217D03*
X0180284Y0104383D03*
X0182843Y0104383D03*
X0185402Y0104383D03*
X0187961Y0104383D03*
X0190520Y0104383D03*
X0193080Y0104383D03*
X0195639Y0104383D03*
X0198198Y0104383D03*
X0200757Y0104383D03*
X0203316Y0104383D03*
X0083316Y0104383D03*
X0080757Y0104383D03*
X0078198Y0104383D03*
X0075639Y0104383D03*
X0073080Y0104383D03*
X0070520Y0104383D03*
X0067961Y0104383D03*
X0065402Y0104383D03*
X0062843Y0104383D03*
X0060284Y0104383D03*
X0060284Y0127217D03*
X0062843Y0127217D03*
X0065402Y0127217D03*
X0067961Y0127217D03*
X0070520Y0127217D03*
X0073080Y0127217D03*
X0075639Y0127217D03*
X0078198Y0127217D03*
X0080757Y0127217D03*
X0083316Y0127217D03*
X0107284Y0229383D03*
X0109843Y0229383D03*
X0112402Y0229383D03*
X0114961Y0229383D03*
X0117520Y0229383D03*
X0120080Y0229383D03*
X0122639Y0229383D03*
X0125198Y0229383D03*
X0127757Y0229383D03*
X0130316Y0229383D03*
X0151284Y0229383D03*
X0153843Y0229383D03*
X0156402Y0229383D03*
X0158961Y0229383D03*
X0161520Y0229383D03*
X0164080Y0229383D03*
X0166639Y0229383D03*
X0169198Y0229383D03*
X0171757Y0229383D03*
X0174316Y0229383D03*
X0193284Y0229383D03*
X0195843Y0229383D03*
X0198402Y0229383D03*
X0200961Y0229383D03*
X0203520Y0229383D03*
X0206080Y0229383D03*
X0208639Y0229383D03*
X0211198Y0229383D03*
X0213757Y0229383D03*
X0216316Y0229383D03*
X0232284Y0229383D03*
X0234843Y0229383D03*
X0237402Y0229383D03*
X0239961Y0229383D03*
X0242520Y0229383D03*
X0245080Y0229383D03*
X0247639Y0229383D03*
X0250198Y0229383D03*
X0252757Y0229383D03*
X0255316Y0229383D03*
X0255316Y0252217D03*
X0252757Y0252217D03*
X0250198Y0252217D03*
X0247639Y0252217D03*
X0245080Y0252217D03*
X0242520Y0252217D03*
X0239961Y0252217D03*
X0237402Y0252217D03*
X0234843Y0252217D03*
X0232284Y0252217D03*
X0216316Y0252217D03*
X0213757Y0252217D03*
X0211198Y0252217D03*
X0208639Y0252217D03*
X0206080Y0252217D03*
X0203520Y0252217D03*
X0200961Y0252217D03*
X0198402Y0252217D03*
X0195843Y0252217D03*
X0193284Y0252217D03*
X0174316Y0252217D03*
X0171757Y0252217D03*
X0169198Y0252217D03*
X0166639Y0252217D03*
X0164080Y0252217D03*
X0161520Y0252217D03*
X0158961Y0252217D03*
X0156402Y0252217D03*
X0153843Y0252217D03*
X0151284Y0252217D03*
X0130316Y0252217D03*
X0127757Y0252217D03*
X0125198Y0252217D03*
X0122639Y0252217D03*
X0120080Y0252217D03*
X0117520Y0252217D03*
X0114961Y0252217D03*
X0112402Y0252217D03*
X0109843Y0252217D03*
X0107284Y0252217D03*
D12*
X0109300Y0192599D03*
X0104300Y0192599D03*
X0099300Y0192599D03*
X0094300Y0192599D03*
X0089300Y0192599D03*
X0084300Y0192599D03*
X0114300Y0192599D03*
X0119300Y0192599D03*
X0144300Y0189599D03*
X0149300Y0189599D03*
X0154300Y0189599D03*
X0159300Y0189599D03*
X0164300Y0189599D03*
X0169300Y0189599D03*
X0174300Y0189599D03*
X0179300Y0189599D03*
X0203300Y0188599D03*
X0208300Y0188599D03*
X0213300Y0188599D03*
X0218300Y0188599D03*
X0223300Y0188599D03*
X0228300Y0188599D03*
X0233300Y0188599D03*
X0238300Y0188599D03*
X0264300Y0189599D03*
X0269300Y0189599D03*
X0274300Y0189599D03*
X0279300Y0189599D03*
X0284300Y0189599D03*
X0289300Y0189599D03*
X0294300Y0189599D03*
X0299300Y0189599D03*
X0322300Y0189599D03*
X0327300Y0189599D03*
X0332300Y0189599D03*
X0337300Y0189599D03*
X0342300Y0189599D03*
X0347300Y0189599D03*
X0352300Y0189599D03*
X0357300Y0189599D03*
X0384300Y0184599D03*
X0389300Y0184599D03*
X0394300Y0184599D03*
X0399300Y0184599D03*
X0404300Y0184599D03*
X0409300Y0184599D03*
X0414300Y0184599D03*
X0419300Y0184599D03*
X0443300Y0187599D03*
X0448300Y0187599D03*
X0453300Y0187599D03*
X0458300Y0187599D03*
X0463300Y0187599D03*
X0468300Y0187599D03*
X0473300Y0187599D03*
X0478300Y0187599D03*
X0478300Y0149902D03*
X0473300Y0149902D03*
X0468300Y0149902D03*
X0463300Y0149902D03*
X0458300Y0149902D03*
X0453300Y0149902D03*
X0448300Y0149902D03*
X0443300Y0149902D03*
X0419300Y0146902D03*
X0414300Y0146902D03*
X0409300Y0146902D03*
X0404300Y0146902D03*
X0399300Y0146902D03*
X0394300Y0146902D03*
X0389300Y0146902D03*
X0384300Y0146902D03*
X0357300Y0151902D03*
X0352300Y0151902D03*
X0347300Y0151902D03*
X0342300Y0151902D03*
X0337300Y0151902D03*
X0332300Y0151902D03*
X0327300Y0151902D03*
X0322300Y0151902D03*
X0299300Y0151902D03*
X0294300Y0151902D03*
X0289300Y0151902D03*
X0284300Y0151902D03*
X0279300Y0151902D03*
X0274300Y0151902D03*
X0269300Y0151902D03*
X0264300Y0151902D03*
X0238300Y0150902D03*
X0233300Y0150902D03*
X0228300Y0150902D03*
X0223300Y0150902D03*
X0218300Y0150902D03*
X0213300Y0150902D03*
X0208300Y0150902D03*
X0203300Y0150902D03*
X0179300Y0151902D03*
X0174300Y0151902D03*
X0169300Y0151902D03*
X0164300Y0151902D03*
X0159300Y0151902D03*
X0154300Y0151902D03*
X0149300Y0151902D03*
X0144300Y0151902D03*
X0119300Y0154902D03*
X0114300Y0154902D03*
X0109300Y0154902D03*
X0104300Y0154902D03*
X0099300Y0154902D03*
X0094300Y0154902D03*
X0089300Y0154902D03*
X0084300Y0154902D03*
X0054300Y0151902D03*
X0049300Y0151902D03*
X0044300Y0151902D03*
X0039300Y0151902D03*
X0034300Y0151902D03*
X0029300Y0151902D03*
X0024300Y0151902D03*
X0019300Y0151902D03*
X0019300Y0189599D03*
X0024300Y0189599D03*
X0029300Y0189599D03*
X0034300Y0189599D03*
X0039300Y0189599D03*
X0044300Y0189599D03*
X0049300Y0189599D03*
X0054300Y0189599D03*
D13*
X0169272Y0034957D03*
X0318879Y0034957D03*
D14*
X0321339Y0057713D03*
X0166812Y0057713D03*
D15*
X0182658Y0044190D03*
X0185808Y0044190D03*
X0188957Y0044190D03*
X0192107Y0044190D03*
X0195257Y0044190D03*
X0198406Y0044190D03*
X0201556Y0044190D03*
X0204706Y0044190D03*
X0207855Y0044190D03*
X0211005Y0044190D03*
X0214154Y0044190D03*
X0217304Y0044190D03*
X0220454Y0044190D03*
X0223603Y0044190D03*
X0226753Y0044190D03*
X0229902Y0044190D03*
X0233052Y0044190D03*
X0236202Y0044190D03*
X0239351Y0044190D03*
X0242501Y0044190D03*
X0245650Y0044190D03*
X0248800Y0044190D03*
X0251950Y0044190D03*
X0255099Y0044190D03*
X0258249Y0044190D03*
X0261398Y0044190D03*
X0264548Y0044190D03*
X0267698Y0044190D03*
X0270847Y0044190D03*
X0273997Y0044190D03*
X0277146Y0044190D03*
X0280296Y0044190D03*
X0283446Y0044190D03*
X0286595Y0044190D03*
X0289745Y0044190D03*
X0292894Y0044190D03*
X0296044Y0044190D03*
X0299194Y0044190D03*
X0302343Y0044190D03*
X0305493Y0044190D03*
X0305493Y0037300D03*
X0302343Y0037300D03*
X0299194Y0037300D03*
X0296044Y0037300D03*
X0292894Y0037300D03*
X0289745Y0037300D03*
X0286595Y0037300D03*
X0283446Y0037300D03*
X0280296Y0037300D03*
X0277146Y0037300D03*
X0273997Y0037300D03*
X0270847Y0037300D03*
X0267698Y0037300D03*
X0264548Y0037300D03*
X0261398Y0037300D03*
X0258249Y0037300D03*
X0255099Y0037300D03*
X0251950Y0037300D03*
X0248800Y0037300D03*
X0245650Y0037300D03*
X0242501Y0037300D03*
X0239351Y0037300D03*
X0236202Y0037300D03*
X0233052Y0037300D03*
X0229902Y0037300D03*
X0226753Y0037300D03*
X0223603Y0037300D03*
X0220454Y0037300D03*
X0217304Y0037300D03*
X0214154Y0037300D03*
X0211005Y0037300D03*
X0207855Y0037300D03*
X0204706Y0037300D03*
X0201556Y0037300D03*
X0198406Y0037300D03*
X0195257Y0037300D03*
X0192107Y0037300D03*
X0188957Y0037300D03*
X0185808Y0037300D03*
X0182658Y0037300D03*
D16*
X0195605Y0264800D03*
X0198105Y0264800D03*
X0200605Y0264800D03*
X0203105Y0264800D03*
X0205605Y0264800D03*
X0208105Y0264800D03*
X0235605Y0264800D03*
X0238105Y0264800D03*
X0240605Y0264800D03*
X0243105Y0264800D03*
X0245605Y0264800D03*
X0248105Y0264800D03*
X0168105Y0264800D03*
X0165605Y0264800D03*
X0163105Y0264800D03*
X0160605Y0264800D03*
X0158105Y0264800D03*
X0155605Y0264800D03*
X0128105Y0264800D03*
X0125605Y0264800D03*
X0123105Y0264800D03*
X0120605Y0264800D03*
X0118105Y0264800D03*
X0115605Y0264800D03*
D17*
X0115605Y0260300D03*
X0118105Y0260300D03*
X0120605Y0260300D03*
X0123105Y0260300D03*
X0125605Y0260300D03*
X0128105Y0260300D03*
X0155605Y0260300D03*
X0158105Y0260300D03*
X0160605Y0260300D03*
X0163105Y0260300D03*
X0165605Y0260300D03*
X0168105Y0260300D03*
X0195605Y0260300D03*
X0198105Y0260300D03*
X0200605Y0260300D03*
X0203105Y0260300D03*
X0205605Y0260300D03*
X0208105Y0260300D03*
X0235605Y0260300D03*
X0238105Y0260300D03*
X0240605Y0260300D03*
X0243105Y0260300D03*
X0245605Y0260300D03*
X0248105Y0260300D03*
D18*
X0026800Y0044300D03*
X0026800Y0229300D03*
X0469300Y0229300D03*
X0469300Y0044300D03*
D19*
X0448690Y0241257D02*
X0448690Y0248343D01*
X0434910Y0248343D02*
X0434910Y0241257D01*
X0300690Y0241257D02*
X0300690Y0248343D01*
X0286910Y0248343D02*
X0286910Y0241257D01*
D20*
X0343288Y0240800D03*
X0354312Y0240800D03*
D21*
X0350146Y0258800D03*
X0343454Y0258800D03*
D22*
X0377600Y0258900D03*
X0377600Y0249800D03*
X0377600Y0240700D03*
D23*
X0402001Y0249800D03*
D24*
X0397800Y0205800D02*
X0392900Y0205800D01*
X0392900Y0195800D01*
X0392900Y0185999D01*
X0394300Y0184599D01*
X0384700Y0184999D02*
X0384300Y0184599D01*
X0384700Y0184999D02*
X0384700Y0195800D01*
X0384700Y0205800D01*
X0379800Y0205800D01*
X0357300Y0195300D02*
X0350800Y0201800D01*
X0350800Y0206900D01*
X0349900Y0207800D01*
X0354800Y0207800D01*
X0352300Y0195300D02*
X0341800Y0205800D01*
X0341800Y0207700D01*
X0341700Y0207800D01*
X0336800Y0207800D01*
X0326800Y0197800D02*
X0326800Y0190099D01*
X0327300Y0189599D01*
X0322300Y0189599D02*
X0319001Y0189599D01*
X0318800Y0189800D01*
X0302900Y0194900D02*
X0302900Y0198800D01*
X0302900Y0209800D01*
X0307800Y0209800D01*
X0294700Y0209800D02*
X0294700Y0198800D01*
X0294700Y0189999D01*
X0294300Y0189599D01*
X0299300Y0189599D02*
X0299800Y0190099D01*
X0299800Y0191800D01*
X0302900Y0194900D01*
X0294700Y0209800D02*
X0289800Y0209800D01*
X0277800Y0209800D02*
X0272900Y0209800D01*
X0272900Y0198800D01*
X0272900Y0197800D01*
X0274800Y0197800D01*
X0274800Y0189599D01*
X0274300Y0189599D01*
X0264700Y0189999D02*
X0264700Y0198800D01*
X0264700Y0209800D01*
X0268800Y0209800D01*
X0239800Y0204800D02*
X0239800Y0198800D01*
X0239900Y0198800D01*
X0238300Y0198800D01*
X0238300Y0188599D01*
X0233300Y0188599D02*
X0233300Y0190800D01*
X0232800Y0190800D01*
X0232800Y0198800D01*
X0231700Y0198800D01*
X0231800Y0198800D01*
X0231800Y0204800D01*
X0207800Y0196800D02*
X0207800Y0189099D01*
X0208300Y0188599D01*
X0203300Y0188599D02*
X0200001Y0188599D01*
X0199800Y0188800D01*
X0181800Y0192800D02*
X0179300Y0190300D01*
X0179300Y0189599D01*
X0181800Y0192800D02*
X0181800Y0198900D01*
X0180900Y0199800D01*
X0180900Y0209800D01*
X0180800Y0209900D01*
X0180800Y0216800D01*
X0172800Y0216800D02*
X0172800Y0209900D01*
X0172700Y0209800D01*
X0172700Y0199800D01*
X0172700Y0191199D01*
X0174300Y0189599D01*
X0154300Y0189599D02*
X0154300Y0198400D01*
X0152900Y0199800D01*
X0152900Y0209800D01*
X0152800Y0209900D01*
X0152800Y0216800D01*
X0143800Y0216800D02*
X0143800Y0210700D01*
X0144700Y0209800D01*
X0144700Y0199800D01*
X0144300Y0199400D01*
X0144300Y0189599D01*
X0137800Y0192800D02*
X0137800Y0197800D01*
X0136800Y0199800D01*
X0132900Y0199800D01*
X0132800Y0199700D01*
X0132800Y0194800D01*
X0128599Y0190599D01*
X0119001Y0190599D01*
X0118800Y0190800D01*
X0118800Y0192099D01*
X0119300Y0192599D01*
X0114800Y0193099D02*
X0114300Y0192599D01*
X0114800Y0193099D02*
X0114800Y0198800D01*
X0115800Y0199800D01*
X0124700Y0199800D01*
X0124700Y0205700D01*
X0124800Y0205800D01*
X0122639Y0229383D02*
X0122800Y0229544D01*
X0122800Y0234800D01*
X0127800Y0234800D02*
X0127800Y0229426D01*
X0127757Y0229383D01*
X0117520Y0229383D02*
X0117520Y0235080D01*
X0116800Y0235800D01*
X0111800Y0235800D01*
X0107800Y0235800D01*
X0106800Y0234800D01*
X0106800Y0229867D01*
X0107284Y0229383D01*
X0150800Y0229867D02*
X0150800Y0233800D01*
X0151800Y0234800D01*
X0154800Y0234800D01*
X0159800Y0234800D01*
X0161520Y0233080D01*
X0161520Y0229383D01*
X0166639Y0229383D02*
X0166800Y0229544D01*
X0166800Y0234800D01*
X0171800Y0234800D02*
X0171800Y0229426D01*
X0171757Y0229383D01*
X0151284Y0229383D02*
X0150800Y0229867D01*
X0192800Y0229867D02*
X0192800Y0233800D01*
X0193800Y0234800D01*
X0197800Y0234800D01*
X0202800Y0234800D01*
X0203520Y0234080D01*
X0203520Y0229383D01*
X0208639Y0229383D02*
X0208800Y0229544D01*
X0208800Y0234800D01*
X0213800Y0234800D02*
X0213800Y0229426D01*
X0213757Y0229383D01*
X0232284Y0229383D02*
X0232284Y0234284D01*
X0232800Y0234800D01*
X0242520Y0234520D02*
X0242520Y0229383D01*
X0247639Y0229383D02*
X0247800Y0229544D01*
X0247800Y0234800D01*
X0252800Y0234800D02*
X0252800Y0229426D01*
X0252757Y0229383D01*
X0242800Y0234800D02*
X0242520Y0234520D01*
X0193284Y0229383D02*
X0192800Y0229867D01*
X0264300Y0189599D02*
X0264700Y0189999D01*
X0264300Y0151902D02*
X0263800Y0151402D01*
X0263800Y0148800D01*
X0264700Y0147900D01*
X0264700Y0137800D01*
X0264700Y0124800D01*
X0264700Y0116900D01*
X0264800Y0116800D01*
X0272800Y0116800D02*
X0272900Y0116900D01*
X0272900Y0124800D01*
X0272900Y0137800D01*
X0272900Y0141700D01*
X0269800Y0144800D01*
X0269800Y0151402D01*
X0269300Y0151902D01*
X0289300Y0151902D02*
X0289300Y0139200D01*
X0290700Y0137800D01*
X0290700Y0124800D01*
X0290700Y0115900D01*
X0290800Y0115800D01*
X0298800Y0115800D02*
X0298900Y0115900D01*
X0298900Y0124800D01*
X0298900Y0137800D01*
X0299300Y0138200D01*
X0299300Y0151902D01*
X0318800Y0151800D02*
X0318902Y0151902D01*
X0322300Y0151902D01*
X0327300Y0151902D02*
X0327300Y0140300D01*
X0321800Y0134800D01*
X0321800Y0133800D01*
X0330284Y0120217D02*
X0330284Y0117316D01*
X0333800Y0113800D01*
X0340520Y0113800D01*
X0340520Y0109080D01*
X0344800Y0104800D01*
X0348800Y0104800D01*
X0350800Y0106800D01*
X0350800Y0111800D01*
X0350300Y0112300D01*
X0348800Y0110800D01*
X0350300Y0112300D02*
X0350757Y0112757D01*
X0350757Y0120217D01*
X0350800Y0120261D01*
X0350800Y0124800D01*
X0348800Y0126800D01*
X0348800Y0129700D01*
X0347700Y0130800D01*
X0347700Y0137700D01*
X0351800Y0141800D01*
X0351800Y0151402D01*
X0352300Y0151902D01*
X0357300Y0151902D02*
X0357300Y0145300D01*
X0355800Y0143800D01*
X0355800Y0130900D01*
X0355900Y0130800D01*
X0359800Y0130800D01*
X0361800Y0128800D01*
X0345639Y0120217D02*
X0345639Y0116639D01*
X0343800Y0114800D01*
X0340520Y0113800D02*
X0340520Y0120217D01*
X0383800Y0143800D02*
X0383800Y0146402D01*
X0384300Y0146902D01*
X0389300Y0146902D02*
X0389800Y0146402D01*
X0389800Y0140800D01*
X0392900Y0137700D01*
X0392900Y0133800D01*
X0392900Y0122800D01*
X0392900Y0115900D01*
X0392800Y0115800D01*
X0384800Y0115800D02*
X0384700Y0115900D01*
X0384700Y0122800D01*
X0384700Y0133800D01*
X0384700Y0142900D01*
X0383800Y0143800D01*
X0409300Y0146902D02*
X0409800Y0146402D01*
X0409800Y0140800D01*
X0410700Y0139900D01*
X0410700Y0133800D01*
X0410700Y0121800D01*
X0410700Y0115700D01*
X0409800Y0114800D01*
X0418800Y0113800D02*
X0418900Y0113900D01*
X0418900Y0121800D01*
X0418900Y0133800D01*
X0418900Y0146502D01*
X0419300Y0146902D01*
X0425200Y0132600D02*
X0434800Y0142200D01*
X0442502Y0149902D01*
X0443300Y0149902D01*
X0448300Y0149902D02*
X0448300Y0146300D01*
X0444800Y0142800D01*
X0435520Y0141883D02*
X0434800Y0142200D01*
X0435520Y0141883D02*
X0435520Y0127217D01*
X0435520Y0121080D01*
X0435800Y0120800D01*
X0440800Y0120800D02*
X0440800Y0127217D01*
X0440639Y0127217D01*
X0445757Y0127217D02*
X0445757Y0123843D01*
X0425284Y0127217D02*
X0425200Y0127800D01*
X0425200Y0132600D01*
X0469700Y0131800D02*
X0469700Y0122900D01*
X0469800Y0122800D01*
X0478800Y0121800D02*
X0478800Y0131800D01*
X0477900Y0131800D01*
X0478300Y0132200D01*
X0478300Y0146800D01*
X0478300Y0149902D01*
X0478300Y0146800D02*
X0478800Y0146800D01*
X0473800Y0146800D02*
X0473800Y0149402D01*
X0473300Y0149902D01*
X0473800Y0146800D02*
X0472800Y0145800D01*
X0472800Y0143800D01*
X0469700Y0140700D01*
X0469700Y0131800D01*
X0419300Y0184599D02*
X0420900Y0186199D01*
X0420900Y0195800D01*
X0420900Y0205800D01*
X0416800Y0205800D01*
X0412700Y0205800D02*
X0412700Y0195800D01*
X0412800Y0195700D01*
X0412800Y0191800D01*
X0414300Y0190300D01*
X0414300Y0184599D01*
X0438800Y0188800D02*
X0440001Y0187599D01*
X0443300Y0187599D01*
X0447800Y0188099D02*
X0447800Y0194800D01*
X0447800Y0188099D02*
X0448300Y0187599D01*
X0470800Y0196800D02*
X0473300Y0194300D01*
X0473300Y0187599D01*
X0478300Y0187599D02*
X0478300Y0206200D01*
X0478900Y0206800D01*
X0477800Y0205700D01*
X0477800Y0209800D01*
X0481800Y0213800D01*
X0470800Y0206800D02*
X0465800Y0206800D01*
X0470700Y0206800D02*
X0470800Y0206700D01*
X0470800Y0206800D01*
X0470800Y0206700D02*
X0470800Y0196800D01*
X0412700Y0205800D02*
X0407800Y0205800D01*
X0357300Y0195300D02*
X0357300Y0189599D01*
X0352300Y0189599D02*
X0352300Y0195300D01*
X0242800Y0131800D02*
X0241800Y0130800D01*
X0235900Y0130800D01*
X0235800Y0130900D01*
X0235800Y0136800D01*
X0238300Y0139300D01*
X0238300Y0150902D01*
X0233300Y0150902D02*
X0233300Y0142300D01*
X0227800Y0136800D01*
X0227800Y0130900D01*
X0227700Y0130800D01*
X0226800Y0130800D01*
X0226800Y0122800D01*
X0213800Y0124800D02*
X0213800Y0118800D01*
X0212800Y0117800D01*
X0211800Y0116800D01*
X0208800Y0116800D01*
X0206800Y0114800D01*
X0197800Y0114800D01*
X0195639Y0116961D01*
X0195639Y0127217D01*
X0195800Y0127056D01*
X0195800Y0121800D01*
X0200757Y0120843D02*
X0200800Y0120800D01*
X0200757Y0120843D02*
X0200757Y0127217D01*
X0190520Y0127217D02*
X0190520Y0131520D01*
X0190800Y0131800D01*
X0184800Y0135800D02*
X0184400Y0135800D01*
X0180400Y0131800D01*
X0180400Y0127800D01*
X0180284Y0127217D01*
X0172900Y0122800D02*
X0172900Y0137800D01*
X0179300Y0144200D01*
X0179300Y0151902D01*
X0164300Y0151902D02*
X0164300Y0138200D01*
X0164700Y0137800D01*
X0164700Y0122800D01*
X0164700Y0114900D01*
X0164800Y0114800D01*
X0172800Y0114800D02*
X0172900Y0114900D01*
X0172900Y0122800D01*
X0150900Y0122800D02*
X0150900Y0115900D01*
X0150800Y0115800D01*
X0150900Y0122800D02*
X0150900Y0137800D01*
X0150900Y0147700D01*
X0149800Y0148800D01*
X0149800Y0151402D01*
X0149300Y0151902D01*
X0144300Y0151902D02*
X0143800Y0151402D01*
X0143800Y0149800D01*
X0142700Y0148700D01*
X0142700Y0137800D01*
X0142700Y0122800D01*
X0142700Y0115900D01*
X0142800Y0115800D01*
X0115800Y0122800D02*
X0115800Y0130900D01*
X0115900Y0130800D01*
X0115800Y0130900D02*
X0115800Y0140800D01*
X0114300Y0145300D02*
X0107800Y0138800D01*
X0107800Y0130900D01*
X0107800Y0122800D01*
X0107700Y0130800D02*
X0106800Y0131700D01*
X0080757Y0127217D02*
X0080757Y0115843D01*
X0080800Y0115800D01*
X0078800Y0113800D01*
X0074800Y0113800D01*
X0068300Y0120300D01*
X0067800Y0119800D01*
X0061800Y0119800D01*
X0060300Y0121300D01*
X0060300Y0127202D01*
X0060284Y0127217D01*
X0060300Y0127233D01*
X0060300Y0138300D01*
X0074902Y0152902D01*
X0075005Y0152800D01*
X0077800Y0152800D01*
X0084198Y0152800D01*
X0084300Y0152902D01*
X0084300Y0154902D01*
X0089300Y0154902D02*
X0089300Y0149300D01*
X0087800Y0147800D01*
X0094000Y0152600D02*
X0094000Y0154602D01*
X0094300Y0154902D01*
X0054300Y0151902D02*
X0054300Y0141200D01*
X0054800Y0140700D01*
X0052900Y0138800D01*
X0052900Y0126800D01*
X0052800Y0126700D01*
X0052800Y0119800D01*
X0044800Y0119800D02*
X0044800Y0126700D01*
X0044700Y0126800D01*
X0044700Y0138800D01*
X0044300Y0139200D01*
X0044300Y0151902D01*
X0025900Y0143700D02*
X0025900Y0138800D01*
X0025900Y0125800D01*
X0025800Y0125700D01*
X0025800Y0118800D01*
X0016800Y0118800D02*
X0016800Y0124900D01*
X0017700Y0125800D01*
X0017700Y0138800D01*
X0017700Y0150302D01*
X0019300Y0151902D01*
X0024300Y0151902D02*
X0024800Y0151402D01*
X0024800Y0144800D01*
X0025900Y0143700D01*
X0068300Y0120300D02*
X0070520Y0122520D01*
X0070520Y0127217D01*
X0075639Y0127217D02*
X0075639Y0121961D01*
X0076800Y0120800D01*
X0184800Y0135800D02*
X0199902Y0150902D01*
X0203300Y0150902D01*
X0208300Y0150902D02*
X0208300Y0146300D01*
X0205800Y0143800D01*
X0198800Y0143800D01*
X0196800Y0141800D01*
X0212800Y0117800D02*
X0212800Y0113800D01*
X0266800Y0071800D02*
X0266800Y0066800D01*
X0248800Y0048800D01*
X0248800Y0044190D01*
X0245650Y0044190D02*
X0245650Y0032950D01*
X0246800Y0031800D01*
X0245650Y0037300D02*
X0242501Y0037300D01*
X0239351Y0037300D01*
X0236202Y0037300D01*
X0233052Y0037300D01*
X0229902Y0037300D01*
X0226753Y0037300D01*
X0223603Y0037300D01*
X0220454Y0037300D01*
X0217304Y0037300D01*
X0214154Y0037300D01*
X0214154Y0044190D01*
X0214154Y0037300D02*
X0214154Y0031446D01*
X0214800Y0030800D01*
X0214154Y0037300D02*
X0211005Y0037300D01*
X0207855Y0037300D01*
X0204706Y0037300D01*
X0201556Y0037300D01*
X0198406Y0037300D01*
X0195257Y0037300D01*
X0192107Y0037300D01*
X0188957Y0037300D01*
X0185808Y0037300D01*
X0182658Y0037300D01*
X0182658Y0044190D01*
X0185808Y0044190D02*
X0185808Y0047792D01*
X0184800Y0048800D01*
X0116800Y0048800D01*
X0182658Y0037300D02*
X0182658Y0030942D01*
X0182800Y0030800D01*
X0245650Y0037300D02*
X0248800Y0037300D01*
X0251950Y0037300D01*
X0255099Y0037300D01*
X0258249Y0037300D01*
X0261398Y0037300D01*
X0264548Y0037300D01*
X0267698Y0037300D01*
X0270847Y0037300D01*
X0273997Y0037300D01*
X0277146Y0037300D01*
X0277146Y0044190D01*
X0280296Y0044190D02*
X0280296Y0049296D01*
X0280800Y0049800D01*
X0280296Y0037300D02*
X0277146Y0037300D01*
X0277146Y0032146D01*
X0276800Y0031800D01*
X0280296Y0037300D02*
X0283446Y0037300D01*
X0286595Y0037300D01*
X0289745Y0037300D01*
X0292894Y0037300D01*
X0296044Y0037300D01*
X0299194Y0037300D01*
X0302343Y0037300D01*
X0305493Y0037300D01*
X0056900Y0192199D02*
X0054300Y0189599D01*
X0056900Y0192199D02*
X0056900Y0200800D01*
X0056900Y0211800D01*
X0062800Y0211800D01*
X0048800Y0211900D02*
X0048800Y0217800D01*
X0048800Y0211900D02*
X0048700Y0211800D01*
X0048700Y0200800D01*
X0049300Y0200200D01*
X0049300Y0189599D01*
X0029300Y0189599D02*
X0028699Y0190200D01*
X0029200Y0190200D02*
X0029300Y0189599D01*
X0024400Y0190200D02*
X0024300Y0189599D01*
X0024300Y0194300D01*
X0026900Y0196900D01*
X0026900Y0199800D01*
X0026900Y0210800D01*
X0027900Y0211800D01*
X0032800Y0211800D01*
X0018700Y0210800D02*
X0018700Y0199800D01*
X0018700Y0191900D01*
X0018800Y0191800D01*
X0018800Y0190099D01*
X0019300Y0189599D01*
X0018700Y0210800D02*
X0018700Y0215900D01*
X0017800Y0216800D01*
X0080800Y0192800D02*
X0081001Y0192599D01*
X0084300Y0192599D01*
X0088800Y0193099D02*
X0088800Y0200800D01*
X0088800Y0193099D02*
X0089300Y0192599D01*
D25*
X0080800Y0192800D03*
X0088800Y0200800D03*
X0062800Y0211800D03*
X0048800Y0217800D03*
X0032800Y0211800D03*
X0017800Y0216800D03*
X0111800Y0235800D03*
X0122800Y0234800D03*
X0127800Y0234800D03*
X0143800Y0216800D03*
X0152800Y0216800D03*
X0172800Y0216800D03*
X0180800Y0216800D03*
X0171800Y0234800D03*
X0166800Y0234800D03*
X0154800Y0234800D03*
X0197800Y0234800D03*
X0208800Y0234800D03*
X0213800Y0234800D03*
X0217800Y0222800D03*
X0232800Y0234800D03*
X0242800Y0234800D03*
X0247800Y0234800D03*
X0252800Y0234800D03*
X0268800Y0209800D03*
X0277800Y0209800D03*
X0289800Y0209800D03*
X0307800Y0209800D03*
X0326800Y0197800D03*
X0318800Y0189800D03*
X0343800Y0198800D03*
X0336800Y0207800D03*
X0354800Y0207800D03*
X0379800Y0205800D03*
X0397800Y0205800D03*
X0407800Y0205800D03*
X0416800Y0205800D03*
X0438800Y0188800D03*
X0447800Y0194800D03*
X0453800Y0196300D03*
X0465800Y0206800D03*
X0481800Y0213800D03*
X0453800Y0221800D03*
X0364800Y0240800D03*
X0311800Y0244800D03*
X0239800Y0204800D03*
X0231800Y0204800D03*
X0207800Y0196800D03*
X0199800Y0188800D03*
X0137800Y0192800D03*
X0124800Y0205800D03*
X0077800Y0152800D03*
X0087800Y0147800D03*
X0076800Y0120800D03*
X0052800Y0119800D03*
X0044800Y0119800D03*
X0025800Y0118800D03*
X0016800Y0118800D03*
X0107800Y0122800D03*
X0115800Y0122800D03*
X0142800Y0115800D03*
X0150800Y0115800D03*
X0164800Y0114800D03*
X0172800Y0114800D03*
X0190800Y0131800D03*
X0184800Y0135800D03*
X0196800Y0141800D03*
X0211600Y0135800D03*
X0214800Y0139000D03*
X0221200Y0143800D03*
X0226000Y0144600D03*
X0242800Y0131800D03*
X0226800Y0122800D03*
X0213800Y0124800D03*
X0200800Y0120800D03*
X0212800Y0113800D03*
X0187600Y0095000D03*
X0180400Y0091800D03*
X0216800Y0061800D03*
X0220400Y0051800D03*
X0223600Y0049400D03*
X0214800Y0030800D03*
X0190800Y0049400D03*
X0182800Y0030800D03*
X0246800Y0031800D03*
X0276800Y0031800D03*
X0280800Y0049800D03*
X0281800Y0053800D03*
X0284300Y0057800D03*
X0282800Y0065800D03*
X0290300Y0068300D03*
X0266800Y0071800D03*
X0297200Y0049400D03*
X0301200Y0049400D03*
X0346800Y0032800D03*
X0410000Y0064600D03*
X0412800Y0071300D03*
X0345800Y0081800D03*
X0339800Y0078800D03*
X0344800Y0086800D03*
X0344800Y0091800D03*
X0348800Y0110800D03*
X0343800Y0114800D03*
X0361800Y0128800D03*
X0364800Y0141800D03*
X0347800Y0142800D03*
X0321800Y0133800D03*
X0318800Y0151800D03*
X0298800Y0115800D03*
X0290800Y0115800D03*
X0272800Y0116800D03*
X0264800Y0116800D03*
X0384800Y0115800D03*
X0392800Y0115800D03*
X0409800Y0114800D03*
X0418800Y0113800D03*
X0435800Y0120800D03*
X0440800Y0120800D03*
X0428800Y0131800D03*
X0439800Y0135800D03*
X0444800Y0142800D03*
X0469800Y0122800D03*
X0478800Y0121800D03*
X0116800Y0048800D03*
X0097200Y0067000D03*
D26*
X0049300Y0151902D02*
X0044300Y0151902D01*
X0039300Y0151902D01*
X0039300Y0189599D02*
X0044300Y0189599D01*
X0049300Y0189599D01*
X0029300Y0189599D02*
X0025001Y0189599D01*
X0024400Y0190200D01*
X0149300Y0189599D02*
X0154300Y0189599D01*
X0164300Y0189599D02*
X0169300Y0189599D01*
X0174300Y0189599D01*
X0174300Y0151902D02*
X0169300Y0151902D01*
X0164300Y0151902D01*
X0269300Y0189599D02*
X0274300Y0189599D01*
X0284300Y0189599D02*
X0289300Y0189599D01*
X0294300Y0189599D01*
X0294300Y0151902D02*
X0289300Y0151902D01*
X0284300Y0151902D01*
X0389300Y0184599D02*
X0394300Y0184599D01*
X0404300Y0184599D02*
X0409300Y0184599D01*
X0414300Y0184599D01*
X0414300Y0146902D02*
X0409300Y0146902D01*
X0404300Y0146902D01*
X0402001Y0249800D02*
X0413800Y0249800D01*
D27*
X0377600Y0249800D02*
X0376600Y0250800D01*
X0349800Y0250800D01*
X0343288Y0244288D01*
X0343288Y0240800D01*
X0339288Y0244800D01*
X0311800Y0244800D01*
X0300690Y0244800D01*
X0293800Y0253800D02*
X0337454Y0253800D01*
X0343454Y0258800D01*
X0343800Y0259146D01*
X0343800Y0261800D01*
X0345800Y0263800D01*
X0358800Y0263800D01*
X0363700Y0258900D01*
X0377600Y0258900D01*
X0350146Y0258800D02*
X0349800Y0258454D01*
X0349800Y0250800D01*
X0354312Y0240800D02*
X0364800Y0240800D01*
X0377500Y0240800D01*
X0377600Y0240700D01*
X0293800Y0253800D02*
X0286910Y0245910D01*
X0286910Y0244800D01*
X0119300Y0154902D02*
X0119300Y0144300D01*
X0115800Y0140800D01*
X0114300Y0145300D02*
X0114300Y0154902D01*
X0107800Y0130900D02*
X0107700Y0130800D01*
X0216800Y0061800D02*
X0217304Y0061296D01*
X0217304Y0044190D01*
X0445757Y0123843D02*
X0447800Y0121800D01*
X0449800Y0121800D01*
X0458800Y0130800D01*
X0468700Y0130800D01*
X0469700Y0131800D01*
D28*
X0465200Y0143800D02*
X0467600Y0146200D01*
X0467600Y0149400D01*
X0468300Y0149902D01*
X0463300Y0149902D02*
X0462800Y0149400D01*
X0462800Y0147000D01*
X0448400Y0132600D01*
X0448400Y0132800D01*
X0448800Y0132800D01*
X0448400Y0132800D02*
X0445800Y0132800D01*
X0443300Y0130300D01*
X0443300Y0127320D01*
X0443198Y0127217D01*
X0438300Y0127438D02*
X0438080Y0127217D01*
X0438000Y0127800D01*
X0438000Y0130200D01*
X0442800Y0135000D01*
X0446000Y0135000D01*
X0458000Y0147000D01*
X0458000Y0149400D01*
X0458300Y0149902D01*
X0453300Y0149902D02*
X0453200Y0149400D01*
X0453200Y0147000D01*
X0442800Y0136600D01*
X0441200Y0136600D01*
X0440400Y0135800D01*
X0439800Y0135800D01*
X0440400Y0135800D02*
X0440800Y0135800D01*
X0428800Y0131800D02*
X0427843Y0130843D01*
X0427843Y0127217D01*
X0448316Y0127217D02*
X0448400Y0127800D01*
X0464400Y0143800D01*
X0465200Y0143800D01*
X0448316Y0104383D02*
X0448400Y0103800D01*
X0448400Y0095800D01*
X0382000Y0029400D01*
X0316400Y0029400D01*
X0308400Y0037400D01*
X0308400Y0041400D01*
X0306000Y0043800D01*
X0305493Y0044190D01*
X0302800Y0044600D02*
X0302800Y0047000D01*
X0304400Y0048600D01*
X0306800Y0048600D01*
X0310000Y0045400D01*
X0310000Y0038200D01*
X0317200Y0031000D01*
X0321200Y0031000D01*
X0326800Y0036600D01*
X0386000Y0036600D01*
X0446000Y0096600D01*
X0446000Y0103800D01*
X0445757Y0104383D01*
X0443600Y0103800D02*
X0443600Y0101400D01*
X0444400Y0100600D01*
X0444400Y0099000D01*
X0410000Y0064600D01*
X0412800Y0071300D02*
X0440639Y0099139D01*
X0440639Y0104383D01*
X0443198Y0104383D02*
X0443600Y0103800D01*
X0438080Y0104383D02*
X0438000Y0103800D01*
X0438000Y0100600D01*
X0384700Y0047300D01*
X0310800Y0047300D01*
X0305500Y0052600D01*
X0296400Y0052600D01*
X0293200Y0049400D01*
X0293200Y0044600D01*
X0292894Y0044190D01*
X0290000Y0044600D02*
X0289745Y0044190D01*
X0290000Y0044600D02*
X0290000Y0048600D01*
X0295600Y0054200D01*
X0307000Y0054200D01*
X0311400Y0049300D01*
X0383300Y0049300D01*
X0383400Y0049200D01*
X0435600Y0101400D01*
X0435600Y0103800D01*
X0435520Y0104383D01*
X0427843Y0104383D02*
X0427843Y0098843D01*
X0393800Y0064800D01*
X0301800Y0064800D01*
X0286800Y0049800D01*
X0286800Y0044394D01*
X0286595Y0044190D01*
X0283800Y0044544D02*
X0283800Y0049300D01*
X0302300Y0067800D01*
X0392800Y0067800D01*
X0425284Y0100284D01*
X0425284Y0104383D01*
X0365800Y0122800D02*
X0365800Y0140800D01*
X0364800Y0141800D01*
X0347800Y0142800D02*
X0347800Y0151402D01*
X0347300Y0151902D01*
X0344400Y0150200D02*
X0342800Y0151800D01*
X0342300Y0151902D01*
X0344400Y0150200D02*
X0344400Y0127000D01*
X0348400Y0123000D01*
X0348400Y0120600D01*
X0348198Y0120217D01*
X0353316Y0120217D02*
X0363217Y0120217D01*
X0365800Y0122800D01*
X0343080Y0120217D02*
X0342800Y0120600D01*
X0342800Y0143800D01*
X0338000Y0148600D01*
X0338000Y0151800D01*
X0337300Y0151902D01*
X0332400Y0151800D02*
X0332300Y0151902D01*
X0332400Y0151800D02*
X0332400Y0120600D01*
X0332843Y0120217D01*
X0332800Y0120261D01*
X0332843Y0097383D02*
X0332400Y0096600D01*
X0332400Y0094200D01*
X0312400Y0074200D01*
X0282000Y0074200D01*
X0255600Y0047800D01*
X0255600Y0044600D01*
X0255099Y0044190D01*
X0252400Y0044600D02*
X0252400Y0047000D01*
X0281200Y0075800D01*
X0310800Y0075800D01*
X0330284Y0095284D01*
X0330284Y0097383D01*
X0330000Y0096600D01*
X0340400Y0096600D02*
X0340520Y0097383D01*
X0340400Y0096600D02*
X0340400Y0094200D01*
X0318800Y0072600D01*
X0282800Y0072600D01*
X0258800Y0048600D01*
X0258800Y0044600D01*
X0258249Y0044190D01*
X0261398Y0044190D02*
X0262000Y0044600D01*
X0262000Y0049400D01*
X0283600Y0071000D01*
X0319600Y0071000D01*
X0342800Y0094200D01*
X0342800Y0096600D01*
X0343080Y0097383D01*
X0345639Y0097383D02*
X0345800Y0097221D01*
X0345800Y0092800D01*
X0344800Y0091800D01*
X0348198Y0090198D02*
X0344800Y0086800D01*
X0348198Y0090198D02*
X0348198Y0097383D01*
X0350757Y0097383D02*
X0350757Y0086757D01*
X0345800Y0081800D01*
X0348800Y0078800D02*
X0339800Y0078800D01*
X0348800Y0078800D02*
X0353316Y0083316D01*
X0353316Y0097383D01*
X0290300Y0068300D02*
X0282800Y0060800D01*
X0280800Y0060800D01*
X0267800Y0047800D01*
X0267800Y0044292D01*
X0267698Y0044190D01*
X0264800Y0044442D02*
X0264548Y0044190D01*
X0264800Y0044442D02*
X0264800Y0047800D01*
X0282800Y0065800D01*
X0284300Y0057800D02*
X0280800Y0057800D01*
X0270800Y0047800D01*
X0270800Y0044237D01*
X0270847Y0044190D01*
X0273997Y0044190D02*
X0273997Y0047997D01*
X0279800Y0053800D01*
X0281800Y0053800D01*
X0283800Y0044544D02*
X0283446Y0044190D01*
X0296044Y0044190D02*
X0296400Y0044600D01*
X0296400Y0047000D01*
X0297200Y0047800D01*
X0297200Y0049400D01*
X0299600Y0047800D02*
X0299600Y0044600D01*
X0299194Y0044190D01*
X0302343Y0044190D02*
X0302800Y0044600D01*
X0299600Y0047800D02*
X0301200Y0049400D01*
X0252400Y0044600D02*
X0251950Y0044190D01*
X0242501Y0044190D02*
X0242000Y0044600D01*
X0242000Y0052600D01*
X0203600Y0091000D01*
X0203600Y0103800D01*
X0203316Y0104383D01*
X0201200Y0103800D02*
X0200757Y0104383D01*
X0201200Y0103800D02*
X0201200Y0091000D01*
X0238800Y0053400D01*
X0238800Y0044600D01*
X0239351Y0044190D01*
X0236202Y0044190D02*
X0235600Y0044600D01*
X0235600Y0054200D01*
X0198000Y0091800D01*
X0198000Y0103800D01*
X0198198Y0104383D01*
X0195639Y0104383D02*
X0195600Y0103800D01*
X0195600Y0091800D01*
X0232400Y0055000D01*
X0232400Y0044600D01*
X0233052Y0044190D01*
X0229902Y0044190D02*
X0229200Y0044600D01*
X0229200Y0055800D01*
X0193200Y0091800D01*
X0193200Y0103800D01*
X0193080Y0104383D01*
X0190800Y0103800D02*
X0190520Y0104383D01*
X0190800Y0103800D02*
X0190800Y0091800D01*
X0226800Y0055800D01*
X0226800Y0044600D01*
X0226753Y0044190D01*
X0223603Y0044190D02*
X0223600Y0044600D01*
X0223600Y0049400D01*
X0220400Y0051800D02*
X0220400Y0044600D01*
X0220454Y0044190D01*
X0211005Y0044190D02*
X0210800Y0044600D01*
X0210800Y0048600D01*
X0184800Y0074600D01*
X0184800Y0074800D01*
X0110800Y0074800D01*
X0083600Y0102000D01*
X0083600Y0103800D01*
X0083316Y0104383D01*
X0081200Y0103800D02*
X0080757Y0104383D01*
X0081200Y0103800D02*
X0081200Y0101400D01*
X0110000Y0072600D01*
X0184400Y0072600D01*
X0207600Y0049400D01*
X0207600Y0044600D01*
X0207855Y0044190D01*
X0204706Y0044190D02*
X0204400Y0044600D01*
X0204400Y0050200D01*
X0183600Y0071000D01*
X0109200Y0071000D01*
X0078000Y0102200D01*
X0078000Y0103800D01*
X0078198Y0104383D01*
X0075639Y0104383D02*
X0075600Y0103800D01*
X0075600Y0101400D01*
X0107600Y0069400D01*
X0182800Y0069400D01*
X0201200Y0051000D01*
X0201200Y0044600D01*
X0201556Y0044190D01*
X0198406Y0044190D02*
X0198000Y0044600D01*
X0198000Y0050200D01*
X0180400Y0067800D01*
X0106800Y0067800D01*
X0073200Y0101400D01*
X0073200Y0103800D01*
X0073080Y0104383D01*
X0070800Y0103800D02*
X0070520Y0104383D01*
X0070800Y0103800D02*
X0070800Y0101400D01*
X0106000Y0066200D01*
X0178800Y0066200D01*
X0194800Y0050200D01*
X0194800Y0044600D01*
X0195257Y0044190D01*
X0192107Y0044190D02*
X0191600Y0044600D01*
X0191600Y0047000D01*
X0190800Y0047800D01*
X0190800Y0049400D01*
X0188400Y0048600D02*
X0188400Y0044600D01*
X0188957Y0044190D01*
X0188400Y0048600D02*
X0172400Y0064600D01*
X0163600Y0064600D01*
X0162800Y0063800D01*
X0096400Y0063800D01*
X0060400Y0099800D01*
X0060400Y0103800D01*
X0060284Y0104383D01*
X0062843Y0104383D02*
X0062800Y0103800D01*
X0062800Y0101400D01*
X0097200Y0067000D01*
X0180400Y0091800D02*
X0180400Y0103800D01*
X0180284Y0104383D01*
X0182843Y0104383D02*
X0182800Y0103800D01*
X0182800Y0099800D01*
X0187600Y0095000D01*
X0198800Y0111000D02*
X0214000Y0111000D01*
X0218000Y0115000D01*
X0218000Y0150200D01*
X0218300Y0150902D01*
X0218800Y0151000D01*
X0218800Y0154200D01*
X0223300Y0150902D02*
X0222800Y0147800D01*
X0221200Y0146200D01*
X0221200Y0143800D01*
X0226000Y0144600D02*
X0226000Y0146200D01*
X0227600Y0147800D01*
X0228300Y0150902D01*
X0227600Y0150200D01*
X0227600Y0147800D01*
X0222800Y0147800D02*
X0222800Y0150200D01*
X0223300Y0150902D01*
X0213300Y0150902D02*
X0213200Y0147800D01*
X0204400Y0139000D01*
X0191600Y0139000D01*
X0182800Y0130200D01*
X0182800Y0127800D01*
X0182843Y0127217D01*
X0193080Y0127217D02*
X0193200Y0127000D01*
X0193200Y0116600D01*
X0198800Y0111000D01*
X0198198Y0127217D02*
X0198000Y0129400D01*
X0207600Y0139000D01*
X0214800Y0139000D01*
X0211600Y0135800D02*
X0203600Y0127800D01*
X0203316Y0127217D01*
X0198198Y0127217D02*
X0198000Y0127800D01*
X0198000Y0129400D01*
X0213200Y0147800D02*
X0213200Y0150200D01*
X0213300Y0150902D01*
X0213300Y0188599D02*
X0213300Y0196300D01*
X0207800Y0201800D01*
X0202800Y0201800D01*
X0184300Y0220300D01*
X0160300Y0220300D01*
X0153843Y0226757D01*
X0153843Y0229383D01*
X0164080Y0229383D02*
X0164080Y0225520D01*
X0166800Y0222800D01*
X0186800Y0222800D01*
X0197800Y0211800D01*
X0201800Y0211800D01*
X0218300Y0195300D01*
X0218300Y0188599D01*
X0223300Y0188599D02*
X0223800Y0189099D01*
X0223800Y0193800D01*
X0201800Y0215800D01*
X0197800Y0215800D01*
X0188300Y0225300D01*
X0170300Y0225300D01*
X0169198Y0226402D01*
X0169198Y0229383D01*
X0174316Y0229383D02*
X0187217Y0229383D01*
X0197800Y0218800D01*
X0202800Y0218800D01*
X0227800Y0193800D01*
X0227800Y0189099D01*
X0228300Y0188599D01*
X0210800Y0214800D02*
X0203800Y0221800D01*
X0198800Y0221800D01*
X0195800Y0224800D01*
X0195800Y0229339D01*
X0195843Y0229383D01*
X0206080Y0229383D02*
X0206080Y0223520D01*
X0212300Y0217300D01*
X0310300Y0217300D01*
X0321800Y0205800D01*
X0327300Y0205800D01*
X0337300Y0195800D01*
X0337300Y0189599D01*
X0341800Y0190099D02*
X0342300Y0189599D01*
X0341800Y0190099D02*
X0341800Y0195800D01*
X0328800Y0208800D01*
X0322800Y0208800D01*
X0311800Y0219800D01*
X0213800Y0219800D01*
X0211198Y0222402D01*
X0211198Y0229383D01*
X0216316Y0229383D02*
X0216316Y0224284D01*
X0217800Y0222800D01*
X0210800Y0214800D02*
X0309800Y0214800D01*
X0321800Y0202800D01*
X0326800Y0202800D01*
X0331800Y0197800D01*
X0331800Y0190099D01*
X0332300Y0189599D01*
X0346800Y0190099D02*
X0347300Y0189599D01*
X0346800Y0190099D02*
X0346800Y0195800D01*
X0343800Y0198800D01*
X0259200Y0248600D02*
X0257600Y0247000D01*
X0250400Y0247000D01*
X0248000Y0249400D01*
X0248000Y0252200D01*
X0247639Y0252217D01*
X0250000Y0252600D02*
X0250198Y0252217D01*
X0250000Y0252600D02*
X0250000Y0255000D01*
X0249200Y0255800D01*
X0248000Y0255800D01*
X0246000Y0257800D01*
X0246000Y0260200D01*
X0245605Y0260300D01*
X0243200Y0260200D02*
X0243200Y0256600D01*
X0244800Y0255000D01*
X0244800Y0252600D01*
X0245080Y0252217D01*
X0242520Y0252217D02*
X0242400Y0252200D01*
X0242400Y0249800D01*
X0241200Y0248600D01*
X0230800Y0248600D01*
X0227600Y0251800D01*
X0227600Y0266600D01*
X0230400Y0269400D01*
X0240000Y0269400D01*
X0242800Y0266600D01*
X0242800Y0265000D01*
X0243105Y0264800D01*
X0240605Y0264800D02*
X0240400Y0265000D01*
X0240400Y0266600D01*
X0239200Y0267800D01*
X0231200Y0267800D01*
X0229200Y0265800D01*
X0229200Y0255400D01*
X0232000Y0252600D01*
X0232284Y0252217D01*
X0234843Y0252217D02*
X0235200Y0252600D01*
X0235200Y0255000D01*
X0236000Y0255800D01*
X0238400Y0255800D01*
X0240400Y0257800D01*
X0240400Y0260200D01*
X0240605Y0260300D01*
X0243105Y0260300D02*
X0243200Y0260200D01*
X0248105Y0260300D02*
X0248400Y0260200D01*
X0250000Y0260200D01*
X0255200Y0255000D01*
X0255200Y0252600D01*
X0255316Y0252217D01*
X0252800Y0252200D02*
X0252757Y0252217D01*
X0252800Y0252200D02*
X0252800Y0249800D01*
X0254000Y0248600D01*
X0256800Y0248600D01*
X0257600Y0249400D01*
X0257600Y0255400D01*
X0248400Y0264600D01*
X0248105Y0264800D01*
X0246000Y0265000D02*
X0245605Y0264800D01*
X0246000Y0265000D02*
X0246000Y0267000D01*
X0246800Y0267800D01*
X0249200Y0267800D01*
X0259200Y0257800D01*
X0259200Y0248600D01*
X0220000Y0248600D02*
X0218400Y0247000D01*
X0211200Y0247000D01*
X0208800Y0249400D01*
X0208800Y0252200D01*
X0208639Y0252217D01*
X0210800Y0252600D02*
X0211198Y0252217D01*
X0210800Y0252600D02*
X0210800Y0255000D01*
X0210000Y0255800D01*
X0208000Y0255800D01*
X0206000Y0257800D01*
X0206000Y0260200D01*
X0205605Y0260300D01*
X0203200Y0260200D02*
X0203200Y0257400D01*
X0206000Y0254600D01*
X0206000Y0252600D01*
X0206080Y0252217D01*
X0203520Y0252217D02*
X0203200Y0252200D01*
X0203200Y0249400D01*
X0202400Y0248600D01*
X0192000Y0248600D01*
X0186400Y0254200D01*
X0186400Y0266600D01*
X0189200Y0269400D01*
X0200000Y0269400D01*
X0202800Y0266600D01*
X0202800Y0265000D01*
X0203105Y0264800D01*
X0200605Y0264800D02*
X0200400Y0265000D01*
X0200400Y0266600D01*
X0199200Y0267800D01*
X0190000Y0267800D01*
X0188000Y0265800D01*
X0188000Y0257800D01*
X0193200Y0252600D01*
X0193284Y0252217D01*
X0195843Y0252217D02*
X0196000Y0252600D01*
X0196000Y0255000D01*
X0196800Y0255800D01*
X0198400Y0255800D01*
X0200400Y0257800D01*
X0200400Y0260200D01*
X0200605Y0260300D01*
X0203105Y0260300D02*
X0203200Y0260200D01*
X0208105Y0260300D02*
X0208400Y0260200D01*
X0210800Y0260200D01*
X0216000Y0255000D01*
X0216000Y0252600D01*
X0216316Y0252217D01*
X0214000Y0252200D02*
X0214000Y0249400D01*
X0214800Y0248600D01*
X0217600Y0248600D01*
X0218400Y0249400D01*
X0218400Y0255000D01*
X0211600Y0261800D01*
X0211200Y0261800D01*
X0208400Y0264600D01*
X0208105Y0264800D01*
X0206000Y0265000D02*
X0205605Y0264800D01*
X0206000Y0265000D02*
X0206000Y0267000D01*
X0206800Y0267800D01*
X0209200Y0267800D01*
X0220000Y0257000D01*
X0220000Y0248600D01*
X0214000Y0252200D02*
X0213757Y0252217D01*
X0178000Y0248600D02*
X0176400Y0247000D01*
X0169200Y0247000D01*
X0166800Y0249400D01*
X0166800Y0252200D01*
X0166639Y0252217D01*
X0168800Y0252600D02*
X0169198Y0252217D01*
X0168800Y0252600D02*
X0168800Y0255000D01*
X0166000Y0257800D01*
X0166000Y0260200D01*
X0165605Y0260300D01*
X0163200Y0260200D02*
X0163105Y0260300D01*
X0163200Y0260200D02*
X0163200Y0255400D01*
X0164000Y0254600D01*
X0164000Y0252600D01*
X0164080Y0252217D01*
X0161520Y0252217D02*
X0161200Y0252200D01*
X0161200Y0249400D01*
X0160400Y0248600D01*
X0150000Y0248600D01*
X0146400Y0252200D01*
X0146400Y0266600D01*
X0149200Y0269400D01*
X0160000Y0269400D01*
X0162800Y0266600D01*
X0162800Y0265000D01*
X0163105Y0264800D01*
X0160605Y0264800D02*
X0160400Y0265000D01*
X0160400Y0266600D01*
X0159200Y0267800D01*
X0150000Y0267800D01*
X0148000Y0265800D01*
X0148000Y0255800D01*
X0151200Y0252600D01*
X0151284Y0252217D01*
X0153843Y0252217D02*
X0154000Y0252600D01*
X0154000Y0255000D01*
X0154800Y0255800D01*
X0158400Y0255800D01*
X0160400Y0257800D01*
X0160400Y0260200D01*
X0160605Y0260300D01*
X0168105Y0260300D02*
X0168400Y0260200D01*
X0172800Y0255800D01*
X0173200Y0255800D01*
X0174000Y0255000D01*
X0174000Y0252600D01*
X0174316Y0252217D01*
X0172000Y0252200D02*
X0171757Y0252217D01*
X0172000Y0252200D02*
X0172000Y0249400D01*
X0172800Y0248600D01*
X0175600Y0248600D01*
X0176400Y0249400D01*
X0176400Y0256600D01*
X0168400Y0264600D01*
X0168105Y0264800D01*
X0166000Y0265000D02*
X0165605Y0264800D01*
X0166000Y0265000D02*
X0166000Y0267000D01*
X0166800Y0267800D01*
X0169200Y0267800D01*
X0178000Y0259000D01*
X0178000Y0248600D01*
X0134000Y0248600D02*
X0132400Y0247000D01*
X0125200Y0247000D01*
X0122800Y0249400D01*
X0122800Y0252200D01*
X0122639Y0252217D01*
X0120400Y0252600D02*
X0120080Y0252217D01*
X0120400Y0252600D02*
X0120400Y0255000D01*
X0122800Y0257400D01*
X0122800Y0260200D01*
X0123105Y0260300D01*
X0125600Y0260200D02*
X0125605Y0260300D01*
X0125600Y0260200D02*
X0125600Y0253000D01*
X0125200Y0252600D01*
X0125198Y0252217D01*
X0127757Y0252217D02*
X0128000Y0252200D01*
X0128000Y0249400D01*
X0128800Y0248600D01*
X0131600Y0248600D01*
X0132400Y0249400D01*
X0132400Y0260600D01*
X0128400Y0264600D01*
X0128105Y0264800D01*
X0126000Y0265000D02*
X0125605Y0264800D01*
X0126000Y0265000D02*
X0126000Y0267000D01*
X0126800Y0267800D01*
X0129200Y0267800D01*
X0134000Y0263000D01*
X0134000Y0248600D01*
X0130316Y0252217D02*
X0130000Y0252600D01*
X0130000Y0255000D01*
X0128400Y0256600D01*
X0128400Y0260200D01*
X0128105Y0260300D01*
X0120605Y0260300D02*
X0120400Y0260200D01*
X0120400Y0257800D01*
X0118400Y0255800D01*
X0110800Y0255800D01*
X0110000Y0255000D01*
X0110000Y0252600D01*
X0109843Y0252217D01*
X0107600Y0252600D02*
X0107284Y0252217D01*
X0107600Y0252600D02*
X0107600Y0265400D01*
X0110000Y0267800D01*
X0119200Y0267800D01*
X0120400Y0266600D01*
X0120400Y0265000D01*
X0120605Y0264800D01*
X0122800Y0265000D02*
X0123105Y0264800D01*
X0122800Y0265000D02*
X0122800Y0266600D01*
X0120000Y0269400D01*
X0109200Y0269400D01*
X0105200Y0265400D01*
X0105200Y0249400D01*
X0106000Y0248600D01*
X0116400Y0248600D01*
X0117200Y0249400D01*
X0117200Y0252200D01*
X0117520Y0252217D01*
X0120080Y0229383D02*
X0119800Y0229103D01*
X0119800Y0223800D01*
X0099300Y0203300D01*
X0099300Y0192599D01*
X0094300Y0192599D02*
X0094300Y0208300D01*
X0109843Y0223843D01*
X0109843Y0229383D01*
X0124800Y0228985D02*
X0124800Y0222800D01*
X0104300Y0202300D01*
X0104300Y0192599D01*
X0109300Y0192599D02*
X0109300Y0200300D01*
X0129800Y0220800D01*
X0129800Y0228867D01*
X0130316Y0229383D01*
X0125198Y0229383D02*
X0124800Y0228985D01*
X0109300Y0154902D02*
X0109200Y0154802D01*
X0109200Y0150200D01*
X0086800Y0127800D01*
X0083600Y0127800D01*
X0083316Y0127217D01*
X0078198Y0127217D02*
X0078000Y0127800D01*
X0078000Y0129400D01*
X0089200Y0140600D01*
X0094800Y0140600D01*
X0103600Y0149400D01*
X0103600Y0154202D01*
X0104300Y0154902D01*
X0099300Y0154902D02*
X0098800Y0154402D01*
X0098800Y0149400D01*
X0091600Y0142200D01*
X0085200Y0142200D01*
X0073200Y0130200D01*
X0073200Y0127800D01*
X0073080Y0127217D01*
X0066800Y0131800D02*
X0070000Y0135000D01*
X0070000Y0138200D01*
X0075600Y0143800D01*
X0089200Y0143800D01*
X0094000Y0148600D01*
X0094000Y0152600D01*
X0066800Y0131800D02*
X0064400Y0131800D01*
X0062800Y0130200D01*
X0062800Y0127800D01*
X0062843Y0127217D01*
D29*
X0234843Y0229383D02*
X0234843Y0232843D01*
X0240800Y0238800D01*
X0257800Y0238800D01*
X0265800Y0230800D01*
X0447800Y0230800D01*
X0453800Y0224800D01*
X0453800Y0221800D01*
X0437300Y0227800D02*
X0467300Y0197800D01*
X0467300Y0188599D01*
X0468300Y0187599D01*
X0463300Y0187599D02*
X0462800Y0188099D01*
X0462800Y0196800D01*
X0434800Y0224800D01*
X0250800Y0224800D01*
X0250198Y0225402D01*
X0250198Y0229383D01*
X0255316Y0229383D02*
X0256217Y0229383D01*
X0257800Y0227800D01*
X0437300Y0227800D01*
X0432300Y0222300D02*
X0458800Y0195800D01*
X0458800Y0188099D01*
X0458300Y0187599D01*
X0453300Y0187599D02*
X0453300Y0195800D01*
X0453800Y0196300D01*
X0432300Y0222300D02*
X0247300Y0222300D01*
X0245080Y0224520D01*
X0245080Y0229383D01*
D30*
X0413800Y0249800D03*
M02*
