G75*
%MOIN*%
%OFA0B0*%
%FSLAX25Y25*%
%IPPOS*%
%LPD*%
%AMOC8*
5,1,8,0,0,1.08239X$1,22.5*
%
%ADD10R,0.04600X0.06800*%
%ADD11R,0.02375X0.05524*%
%ADD12R,0.03162X0.09461*%
%ADD13C,0.06312*%
%ADD14C,0.12080*%
%ADD15R,0.02769X0.05721*%
%ADD16C,0.06509*%
%ADD17R,0.02300X0.03800*%
%ADD18R,0.02300X0.04800*%
%ADD19C,0.20485*%
%ADD20C,0.07887*%
%ADD21R,0.07099X0.07887*%
%ADD22R,0.05131X0.04737*%
%ADD23R,0.09600X0.05600*%
%ADD24R,0.09461X0.14973*%
%ADD25C,0.03400*%
%ADD26C,0.04762*%
D10*
X0142700Y0122800D03*
X0150900Y0122800D03*
X0164700Y0122800D03*
X0172900Y0122800D03*
X0172900Y0137800D03*
X0164700Y0137800D03*
X0150900Y0137800D03*
X0142700Y0137800D03*
X0115900Y0130800D03*
X0107700Y0130800D03*
X0052900Y0126800D03*
X0044700Y0126800D03*
X0025900Y0125800D03*
X0017700Y0125800D03*
X0017700Y0138800D03*
X0025900Y0138800D03*
X0044700Y0138800D03*
X0052900Y0138800D03*
X0056900Y0200800D03*
X0048700Y0200800D03*
X0048700Y0211800D03*
X0056900Y0211800D03*
X0026900Y0210800D03*
X0018700Y0210800D03*
X0018700Y0199800D03*
X0026900Y0199800D03*
X0124700Y0199800D03*
X0132900Y0199800D03*
X0144700Y0199800D03*
X0152900Y0199800D03*
X0152900Y0209800D03*
X0144700Y0209800D03*
X0172700Y0209800D03*
X0180900Y0209800D03*
X0180900Y0199800D03*
X0172700Y0199800D03*
X0231700Y0198800D03*
X0239900Y0198800D03*
X0264700Y0198800D03*
X0272900Y0198800D03*
X0272900Y0209800D03*
X0264700Y0209800D03*
X0294700Y0209800D03*
X0302900Y0209800D03*
X0302900Y0198800D03*
X0294700Y0198800D03*
X0341700Y0207800D03*
X0349900Y0207800D03*
X0384700Y0205800D03*
X0392900Y0205800D03*
X0392900Y0195800D03*
X0384700Y0195800D03*
X0412700Y0195800D03*
X0420900Y0195800D03*
X0420900Y0205800D03*
X0412700Y0205800D03*
X0470700Y0206800D03*
X0478900Y0206800D03*
X0418900Y0133800D03*
X0410700Y0133800D03*
X0410700Y0121800D03*
X0418900Y0121800D03*
X0392900Y0122800D03*
X0384700Y0122800D03*
X0384700Y0133800D03*
X0392900Y0133800D03*
X0355900Y0130800D03*
X0347700Y0130800D03*
X0298900Y0124800D03*
X0290700Y0124800D03*
X0290700Y0137800D03*
X0298900Y0137800D03*
X0272900Y0137800D03*
X0264700Y0137800D03*
X0264700Y0124800D03*
X0272900Y0124800D03*
X0235900Y0130800D03*
X0227700Y0130800D03*
X0469700Y0131800D03*
X0477900Y0131800D03*
D11*
X0448316Y0127217D03*
X0445757Y0127217D03*
X0443198Y0127217D03*
X0440639Y0127217D03*
X0438080Y0127217D03*
X0435520Y0127217D03*
X0432961Y0127217D03*
X0430402Y0127217D03*
X0427843Y0127217D03*
X0425284Y0127217D03*
X0425284Y0104383D03*
X0427843Y0104383D03*
X0430402Y0104383D03*
X0432961Y0104383D03*
X0435520Y0104383D03*
X0438080Y0104383D03*
X0440639Y0104383D03*
X0443198Y0104383D03*
X0445757Y0104383D03*
X0448316Y0104383D03*
X0353316Y0097383D03*
X0350757Y0097383D03*
X0348198Y0097383D03*
X0345639Y0097383D03*
X0343080Y0097383D03*
X0340520Y0097383D03*
X0337961Y0097383D03*
X0335402Y0097383D03*
X0332843Y0097383D03*
X0330284Y0097383D03*
X0330284Y0120217D03*
X0332843Y0120217D03*
X0335402Y0120217D03*
X0337961Y0120217D03*
X0340520Y0120217D03*
X0343080Y0120217D03*
X0345639Y0120217D03*
X0348198Y0120217D03*
X0350757Y0120217D03*
X0353316Y0120217D03*
X0203316Y0127217D03*
X0200757Y0127217D03*
X0198198Y0127217D03*
X0195639Y0127217D03*
X0193080Y0127217D03*
X0190520Y0127217D03*
X0187961Y0127217D03*
X0185402Y0127217D03*
X0182843Y0127217D03*
X0180284Y0127217D03*
X0180284Y0104383D03*
X0182843Y0104383D03*
X0185402Y0104383D03*
X0187961Y0104383D03*
X0190520Y0104383D03*
X0193080Y0104383D03*
X0195639Y0104383D03*
X0198198Y0104383D03*
X0200757Y0104383D03*
X0203316Y0104383D03*
X0083316Y0104383D03*
X0080757Y0104383D03*
X0078198Y0104383D03*
X0075639Y0104383D03*
X0073080Y0104383D03*
X0070520Y0104383D03*
X0067961Y0104383D03*
X0065402Y0104383D03*
X0062843Y0104383D03*
X0060284Y0104383D03*
X0060284Y0127217D03*
X0062843Y0127217D03*
X0065402Y0127217D03*
X0067961Y0127217D03*
X0070520Y0127217D03*
X0073080Y0127217D03*
X0075639Y0127217D03*
X0078198Y0127217D03*
X0080757Y0127217D03*
X0083316Y0127217D03*
X0107284Y0229383D03*
X0109843Y0229383D03*
X0112402Y0229383D03*
X0114961Y0229383D03*
X0117520Y0229383D03*
X0120080Y0229383D03*
X0122639Y0229383D03*
X0125198Y0229383D03*
X0127757Y0229383D03*
X0130316Y0229383D03*
X0151284Y0229383D03*
X0153843Y0229383D03*
X0156402Y0229383D03*
X0158961Y0229383D03*
X0161520Y0229383D03*
X0164080Y0229383D03*
X0166639Y0229383D03*
X0169198Y0229383D03*
X0171757Y0229383D03*
X0174316Y0229383D03*
X0193284Y0229383D03*
X0195843Y0229383D03*
X0198402Y0229383D03*
X0200961Y0229383D03*
X0203520Y0229383D03*
X0206080Y0229383D03*
X0208639Y0229383D03*
X0211198Y0229383D03*
X0213757Y0229383D03*
X0216316Y0229383D03*
X0232284Y0229383D03*
X0234843Y0229383D03*
X0237402Y0229383D03*
X0239961Y0229383D03*
X0242520Y0229383D03*
X0245080Y0229383D03*
X0247639Y0229383D03*
X0250198Y0229383D03*
X0252757Y0229383D03*
X0255316Y0229383D03*
X0255316Y0252217D03*
X0252757Y0252217D03*
X0250198Y0252217D03*
X0247639Y0252217D03*
X0245080Y0252217D03*
X0242520Y0252217D03*
X0239961Y0252217D03*
X0237402Y0252217D03*
X0234843Y0252217D03*
X0232284Y0252217D03*
X0216316Y0252217D03*
X0213757Y0252217D03*
X0211198Y0252217D03*
X0208639Y0252217D03*
X0206080Y0252217D03*
X0203520Y0252217D03*
X0200961Y0252217D03*
X0198402Y0252217D03*
X0195843Y0252217D03*
X0193284Y0252217D03*
X0174316Y0252217D03*
X0171757Y0252217D03*
X0169198Y0252217D03*
X0166639Y0252217D03*
X0164080Y0252217D03*
X0161520Y0252217D03*
X0158961Y0252217D03*
X0156402Y0252217D03*
X0153843Y0252217D03*
X0151284Y0252217D03*
X0130316Y0252217D03*
X0127757Y0252217D03*
X0125198Y0252217D03*
X0122639Y0252217D03*
X0120080Y0252217D03*
X0117520Y0252217D03*
X0114961Y0252217D03*
X0112402Y0252217D03*
X0109843Y0252217D03*
X0107284Y0252217D03*
D12*
X0109300Y0192599D03*
X0104300Y0192599D03*
X0099300Y0192599D03*
X0094300Y0192599D03*
X0089300Y0192599D03*
X0084300Y0192599D03*
X0114300Y0192599D03*
X0119300Y0192599D03*
X0144300Y0189599D03*
X0149300Y0189599D03*
X0154300Y0189599D03*
X0159300Y0189599D03*
X0164300Y0189599D03*
X0169300Y0189599D03*
X0174300Y0189599D03*
X0179300Y0189599D03*
X0203300Y0188599D03*
X0208300Y0188599D03*
X0213300Y0188599D03*
X0218300Y0188599D03*
X0223300Y0188599D03*
X0228300Y0188599D03*
X0233300Y0188599D03*
X0238300Y0188599D03*
X0264300Y0189599D03*
X0269300Y0189599D03*
X0274300Y0189599D03*
X0279300Y0189599D03*
X0284300Y0189599D03*
X0289300Y0189599D03*
X0294300Y0189599D03*
X0299300Y0189599D03*
X0322300Y0189599D03*
X0327300Y0189599D03*
X0332300Y0189599D03*
X0337300Y0189599D03*
X0342300Y0189599D03*
X0347300Y0189599D03*
X0352300Y0189599D03*
X0357300Y0189599D03*
X0384300Y0184599D03*
X0389300Y0184599D03*
X0394300Y0184599D03*
X0399300Y0184599D03*
X0404300Y0184599D03*
X0409300Y0184599D03*
X0414300Y0184599D03*
X0419300Y0184599D03*
X0443300Y0187599D03*
X0448300Y0187599D03*
X0453300Y0187599D03*
X0458300Y0187599D03*
X0463300Y0187599D03*
X0468300Y0187599D03*
X0473300Y0187599D03*
X0478300Y0187599D03*
X0478300Y0149902D03*
X0473300Y0149902D03*
X0468300Y0149902D03*
X0463300Y0149902D03*
X0458300Y0149902D03*
X0453300Y0149902D03*
X0448300Y0149902D03*
X0443300Y0149902D03*
X0419300Y0146902D03*
X0414300Y0146902D03*
X0409300Y0146902D03*
X0404300Y0146902D03*
X0399300Y0146902D03*
X0394300Y0146902D03*
X0389300Y0146902D03*
X0384300Y0146902D03*
X0357300Y0151902D03*
X0352300Y0151902D03*
X0347300Y0151902D03*
X0342300Y0151902D03*
X0337300Y0151902D03*
X0332300Y0151902D03*
X0327300Y0151902D03*
X0322300Y0151902D03*
X0299300Y0151902D03*
X0294300Y0151902D03*
X0289300Y0151902D03*
X0284300Y0151902D03*
X0279300Y0151902D03*
X0274300Y0151902D03*
X0269300Y0151902D03*
X0264300Y0151902D03*
X0238300Y0150902D03*
X0233300Y0150902D03*
X0228300Y0150902D03*
X0223300Y0150902D03*
X0218300Y0150902D03*
X0213300Y0150902D03*
X0208300Y0150902D03*
X0203300Y0150902D03*
X0179300Y0151902D03*
X0174300Y0151902D03*
X0169300Y0151902D03*
X0164300Y0151902D03*
X0159300Y0151902D03*
X0154300Y0151902D03*
X0149300Y0151902D03*
X0144300Y0151902D03*
X0119300Y0154902D03*
X0114300Y0154902D03*
X0109300Y0154902D03*
X0104300Y0154902D03*
X0099300Y0154902D03*
X0094300Y0154902D03*
X0089300Y0154902D03*
X0084300Y0154902D03*
X0054300Y0151902D03*
X0049300Y0151902D03*
X0044300Y0151902D03*
X0039300Y0151902D03*
X0034300Y0151902D03*
X0029300Y0151902D03*
X0024300Y0151902D03*
X0019300Y0151902D03*
X0019300Y0189599D03*
X0024300Y0189599D03*
X0029300Y0189599D03*
X0034300Y0189599D03*
X0039300Y0189599D03*
X0044300Y0189599D03*
X0049300Y0189599D03*
X0054300Y0189599D03*
D13*
X0169272Y0034957D03*
X0318879Y0034957D03*
D14*
X0321339Y0057713D03*
X0166812Y0057713D03*
D15*
X0182658Y0044190D03*
X0185808Y0044190D03*
X0188957Y0044190D03*
X0192107Y0044190D03*
X0195257Y0044190D03*
X0198406Y0044190D03*
X0201556Y0044190D03*
X0204706Y0044190D03*
X0207855Y0044190D03*
X0211005Y0044190D03*
X0214154Y0044190D03*
X0217304Y0044190D03*
X0220454Y0044190D03*
X0223603Y0044190D03*
X0226753Y0044190D03*
X0229902Y0044190D03*
X0233052Y0044190D03*
X0236202Y0044190D03*
X0239351Y0044190D03*
X0242501Y0044190D03*
X0245650Y0044190D03*
X0248800Y0044190D03*
X0251950Y0044190D03*
X0255099Y0044190D03*
X0258249Y0044190D03*
X0261398Y0044190D03*
X0264548Y0044190D03*
X0267698Y0044190D03*
X0270847Y0044190D03*
X0273997Y0044190D03*
X0277146Y0044190D03*
X0280296Y0044190D03*
X0283446Y0044190D03*
X0286595Y0044190D03*
X0289745Y0044190D03*
X0292894Y0044190D03*
X0296044Y0044190D03*
X0299194Y0044190D03*
X0302343Y0044190D03*
X0305493Y0044190D03*
X0305493Y0037300D03*
X0302343Y0037300D03*
X0299194Y0037300D03*
X0296044Y0037300D03*
X0292894Y0037300D03*
X0289745Y0037300D03*
X0286595Y0037300D03*
X0283446Y0037300D03*
X0280296Y0037300D03*
X0277146Y0037300D03*
X0273997Y0037300D03*
X0270847Y0037300D03*
X0267698Y0037300D03*
X0264548Y0037300D03*
X0261398Y0037300D03*
X0258249Y0037300D03*
X0255099Y0037300D03*
X0251950Y0037300D03*
X0248800Y0037300D03*
X0245650Y0037300D03*
X0242501Y0037300D03*
X0239351Y0037300D03*
X0236202Y0037300D03*
X0233052Y0037300D03*
X0229902Y0037300D03*
X0226753Y0037300D03*
X0223603Y0037300D03*
X0220454Y0037300D03*
X0217304Y0037300D03*
X0214154Y0037300D03*
X0211005Y0037300D03*
X0207855Y0037300D03*
X0204706Y0037300D03*
X0201556Y0037300D03*
X0198406Y0037300D03*
X0195257Y0037300D03*
X0192107Y0037300D03*
X0188957Y0037300D03*
X0185808Y0037300D03*
X0182658Y0037300D03*
D16*
X0166812Y0041965D03*
X0321339Y0042320D03*
D17*
X0248105Y0264800D03*
X0245605Y0264800D03*
X0243105Y0264800D03*
X0240605Y0264800D03*
X0238105Y0264800D03*
X0235605Y0264800D03*
X0208105Y0264800D03*
X0205605Y0264800D03*
X0203105Y0264800D03*
X0200605Y0264800D03*
X0198105Y0264800D03*
X0195605Y0264800D03*
X0168105Y0264800D03*
X0165605Y0264800D03*
X0163105Y0264800D03*
X0160605Y0264800D03*
X0158105Y0264800D03*
X0155605Y0264800D03*
X0128105Y0264800D03*
X0125605Y0264800D03*
X0123105Y0264800D03*
X0120605Y0264800D03*
X0118105Y0264800D03*
X0115605Y0264800D03*
D18*
X0115605Y0260300D03*
X0118105Y0260300D03*
X0120605Y0260300D03*
X0123105Y0260300D03*
X0125605Y0260300D03*
X0128105Y0260300D03*
X0155605Y0260300D03*
X0158105Y0260300D03*
X0160605Y0260300D03*
X0163105Y0260300D03*
X0165605Y0260300D03*
X0168105Y0260300D03*
X0195605Y0260300D03*
X0198105Y0260300D03*
X0200605Y0260300D03*
X0203105Y0260300D03*
X0205605Y0260300D03*
X0208105Y0260300D03*
X0235605Y0260300D03*
X0238105Y0260300D03*
X0240605Y0260300D03*
X0243105Y0260300D03*
X0245605Y0260300D03*
X0248105Y0260300D03*
D19*
X0026800Y0044300D03*
X0026800Y0229300D03*
X0469300Y0229300D03*
X0469300Y0044300D03*
D20*
X0448690Y0241257D02*
X0448690Y0248343D01*
X0434910Y0248343D02*
X0434910Y0241257D01*
X0300690Y0241257D02*
X0300690Y0248343D01*
X0286910Y0248343D02*
X0286910Y0241257D01*
D21*
X0343288Y0240800D03*
X0354312Y0240800D03*
D22*
X0350146Y0258800D03*
X0343454Y0258800D03*
D23*
X0377600Y0258900D03*
X0377600Y0249800D03*
X0377600Y0240700D03*
D24*
X0402001Y0249800D03*
D25*
X0364800Y0240800D03*
X0311800Y0244800D03*
X0307800Y0209800D03*
X0289800Y0209800D03*
X0277800Y0209800D03*
X0268800Y0209800D03*
X0239800Y0204800D03*
X0231800Y0204800D03*
X0207800Y0196800D03*
X0199800Y0188800D03*
X0180800Y0216800D03*
X0172800Y0216800D03*
X0152800Y0216800D03*
X0143800Y0216800D03*
X0124800Y0205800D03*
X0137800Y0192800D03*
X0088800Y0200800D03*
X0080800Y0192800D03*
X0062800Y0211800D03*
X0048800Y0217800D03*
X0032800Y0211800D03*
X0017800Y0216800D03*
X0111800Y0235800D03*
X0122800Y0234800D03*
X0127800Y0234800D03*
X0154800Y0234800D03*
X0166800Y0234800D03*
X0171800Y0234800D03*
X0197800Y0234800D03*
X0208800Y0234800D03*
X0213800Y0234800D03*
X0217800Y0222800D03*
X0232800Y0234800D03*
X0242800Y0234800D03*
X0247800Y0234800D03*
X0252800Y0234800D03*
X0318800Y0189800D03*
X0326800Y0197800D03*
X0336800Y0207800D03*
X0343800Y0198800D03*
X0354800Y0207800D03*
X0379800Y0205800D03*
X0397800Y0205800D03*
X0407800Y0205800D03*
X0416800Y0205800D03*
X0438800Y0188800D03*
X0447800Y0194800D03*
X0453800Y0196300D03*
X0465800Y0206800D03*
X0481800Y0213800D03*
X0453800Y0221800D03*
X0444800Y0142800D03*
X0439800Y0135800D03*
X0428800Y0131800D03*
X0435800Y0120800D03*
X0440800Y0120800D03*
X0418800Y0113800D03*
X0409800Y0114800D03*
X0392800Y0115800D03*
X0384800Y0115800D03*
X0361800Y0128800D03*
X0343800Y0114800D03*
X0348800Y0110800D03*
X0344800Y0091800D03*
X0344800Y0086800D03*
X0345800Y0081800D03*
X0339800Y0078800D03*
X0301200Y0049400D03*
X0297200Y0049400D03*
X0284300Y0057800D03*
X0281800Y0053800D03*
X0280800Y0049800D03*
X0282800Y0065800D03*
X0290300Y0068300D03*
X0266800Y0071800D03*
X0223600Y0049400D03*
X0220400Y0051800D03*
X0216800Y0061800D03*
X0190800Y0049400D03*
X0182800Y0030800D03*
X0214800Y0030800D03*
X0246800Y0031800D03*
X0276800Y0031800D03*
X0346800Y0032800D03*
X0410000Y0064600D03*
X0412800Y0071300D03*
X0469800Y0122800D03*
X0478800Y0121800D03*
X0364800Y0141800D03*
X0347800Y0142800D03*
X0321800Y0133800D03*
X0318800Y0151800D03*
X0298800Y0115800D03*
X0290800Y0115800D03*
X0272800Y0116800D03*
X0264800Y0116800D03*
X0242800Y0131800D03*
X0226800Y0122800D03*
X0213800Y0124800D03*
X0200800Y0120800D03*
X0212800Y0113800D03*
X0190800Y0131800D03*
X0184800Y0135800D03*
X0196800Y0141800D03*
X0211600Y0135800D03*
X0214800Y0139000D03*
X0221200Y0143800D03*
X0226000Y0144600D03*
X0172800Y0114800D03*
X0164800Y0114800D03*
X0150800Y0115800D03*
X0142800Y0115800D03*
X0115800Y0122800D03*
X0107800Y0122800D03*
X0076800Y0120800D03*
X0052800Y0119800D03*
X0044800Y0119800D03*
X0025800Y0118800D03*
X0016800Y0118800D03*
X0077800Y0152800D03*
X0087800Y0147800D03*
X0180400Y0091800D03*
X0187600Y0095000D03*
X0116800Y0048800D03*
X0097200Y0067000D03*
D26*
X0413800Y0249800D03*
M02*
