G75*
%MOIN*%
%OFA0B0*%
%FSLAX25Y25*%
%IPPOS*%
%LPD*%
%AMOC8*
5,1,8,0,0,1.08239X$1,22.5*
%
%ADD10C,0.00800*%
%ADD11C,0.00000*%
D10*
X0008800Y0026800D02*
X0008800Y0266800D01*
X0094800Y0266800D01*
X0094800Y0277800D01*
X0271800Y0277800D01*
X0271800Y0266800D01*
X0488800Y0266800D01*
X0488800Y0026800D01*
X0008800Y0026800D01*
D11*
X0163958Y0041965D02*
X0163960Y0042072D01*
X0163966Y0042178D01*
X0163976Y0042285D01*
X0163990Y0042390D01*
X0164008Y0042496D01*
X0164030Y0042600D01*
X0164055Y0042704D01*
X0164085Y0042806D01*
X0164118Y0042908D01*
X0164155Y0043008D01*
X0164196Y0043106D01*
X0164241Y0043203D01*
X0164289Y0043299D01*
X0164340Y0043392D01*
X0164395Y0043483D01*
X0164454Y0043573D01*
X0164516Y0043660D01*
X0164581Y0043744D01*
X0164649Y0043827D01*
X0164720Y0043906D01*
X0164794Y0043983D01*
X0164871Y0044057D01*
X0164950Y0044128D01*
X0165033Y0044196D01*
X0165117Y0044261D01*
X0165204Y0044323D01*
X0165294Y0044382D01*
X0165385Y0044437D01*
X0165478Y0044488D01*
X0165574Y0044536D01*
X0165671Y0044581D01*
X0165769Y0044622D01*
X0165869Y0044659D01*
X0165971Y0044692D01*
X0166073Y0044722D01*
X0166177Y0044747D01*
X0166281Y0044769D01*
X0166387Y0044787D01*
X0166492Y0044801D01*
X0166599Y0044811D01*
X0166705Y0044817D01*
X0166812Y0044819D01*
X0166919Y0044817D01*
X0167025Y0044811D01*
X0167132Y0044801D01*
X0167237Y0044787D01*
X0167343Y0044769D01*
X0167447Y0044747D01*
X0167551Y0044722D01*
X0167653Y0044692D01*
X0167755Y0044659D01*
X0167855Y0044622D01*
X0167953Y0044581D01*
X0168050Y0044536D01*
X0168146Y0044488D01*
X0168239Y0044437D01*
X0168330Y0044382D01*
X0168420Y0044323D01*
X0168507Y0044261D01*
X0168591Y0044196D01*
X0168674Y0044128D01*
X0168753Y0044057D01*
X0168830Y0043983D01*
X0168904Y0043906D01*
X0168975Y0043827D01*
X0169043Y0043744D01*
X0169108Y0043660D01*
X0169170Y0043573D01*
X0169229Y0043483D01*
X0169284Y0043392D01*
X0169335Y0043299D01*
X0169383Y0043203D01*
X0169428Y0043106D01*
X0169469Y0043008D01*
X0169506Y0042908D01*
X0169539Y0042806D01*
X0169569Y0042704D01*
X0169594Y0042600D01*
X0169616Y0042496D01*
X0169634Y0042390D01*
X0169648Y0042285D01*
X0169658Y0042178D01*
X0169664Y0042072D01*
X0169666Y0041965D01*
X0169664Y0041858D01*
X0169658Y0041752D01*
X0169648Y0041645D01*
X0169634Y0041540D01*
X0169616Y0041434D01*
X0169594Y0041330D01*
X0169569Y0041226D01*
X0169539Y0041124D01*
X0169506Y0041022D01*
X0169469Y0040922D01*
X0169428Y0040824D01*
X0169383Y0040727D01*
X0169335Y0040631D01*
X0169284Y0040538D01*
X0169229Y0040447D01*
X0169170Y0040357D01*
X0169108Y0040270D01*
X0169043Y0040186D01*
X0168975Y0040103D01*
X0168904Y0040024D01*
X0168830Y0039947D01*
X0168753Y0039873D01*
X0168674Y0039802D01*
X0168591Y0039734D01*
X0168507Y0039669D01*
X0168420Y0039607D01*
X0168330Y0039548D01*
X0168239Y0039493D01*
X0168146Y0039442D01*
X0168050Y0039394D01*
X0167953Y0039349D01*
X0167855Y0039308D01*
X0167755Y0039271D01*
X0167653Y0039238D01*
X0167551Y0039208D01*
X0167447Y0039183D01*
X0167343Y0039161D01*
X0167237Y0039143D01*
X0167132Y0039129D01*
X0167025Y0039119D01*
X0166919Y0039113D01*
X0166812Y0039111D01*
X0166705Y0039113D01*
X0166599Y0039119D01*
X0166492Y0039129D01*
X0166387Y0039143D01*
X0166281Y0039161D01*
X0166177Y0039183D01*
X0166073Y0039208D01*
X0165971Y0039238D01*
X0165869Y0039271D01*
X0165769Y0039308D01*
X0165671Y0039349D01*
X0165574Y0039394D01*
X0165478Y0039442D01*
X0165385Y0039493D01*
X0165294Y0039548D01*
X0165204Y0039607D01*
X0165117Y0039669D01*
X0165033Y0039734D01*
X0164950Y0039802D01*
X0164871Y0039873D01*
X0164794Y0039947D01*
X0164720Y0040024D01*
X0164649Y0040103D01*
X0164581Y0040186D01*
X0164516Y0040270D01*
X0164454Y0040357D01*
X0164395Y0040447D01*
X0164340Y0040538D01*
X0164289Y0040631D01*
X0164241Y0040727D01*
X0164196Y0040824D01*
X0164155Y0040922D01*
X0164118Y0041022D01*
X0164085Y0041124D01*
X0164055Y0041226D01*
X0164030Y0041330D01*
X0164008Y0041434D01*
X0163990Y0041540D01*
X0163976Y0041645D01*
X0163966Y0041752D01*
X0163960Y0041858D01*
X0163958Y0041965D01*
X0318485Y0042320D02*
X0318487Y0042427D01*
X0318493Y0042533D01*
X0318503Y0042640D01*
X0318517Y0042745D01*
X0318535Y0042851D01*
X0318557Y0042955D01*
X0318582Y0043059D01*
X0318612Y0043161D01*
X0318645Y0043263D01*
X0318682Y0043363D01*
X0318723Y0043461D01*
X0318768Y0043558D01*
X0318816Y0043654D01*
X0318867Y0043747D01*
X0318922Y0043838D01*
X0318981Y0043928D01*
X0319043Y0044015D01*
X0319108Y0044099D01*
X0319176Y0044182D01*
X0319247Y0044261D01*
X0319321Y0044338D01*
X0319398Y0044412D01*
X0319477Y0044483D01*
X0319560Y0044551D01*
X0319644Y0044616D01*
X0319731Y0044678D01*
X0319821Y0044737D01*
X0319912Y0044792D01*
X0320005Y0044843D01*
X0320101Y0044891D01*
X0320198Y0044936D01*
X0320296Y0044977D01*
X0320396Y0045014D01*
X0320498Y0045047D01*
X0320600Y0045077D01*
X0320704Y0045102D01*
X0320808Y0045124D01*
X0320914Y0045142D01*
X0321019Y0045156D01*
X0321126Y0045166D01*
X0321232Y0045172D01*
X0321339Y0045174D01*
X0321446Y0045172D01*
X0321552Y0045166D01*
X0321659Y0045156D01*
X0321764Y0045142D01*
X0321870Y0045124D01*
X0321974Y0045102D01*
X0322078Y0045077D01*
X0322180Y0045047D01*
X0322282Y0045014D01*
X0322382Y0044977D01*
X0322480Y0044936D01*
X0322577Y0044891D01*
X0322673Y0044843D01*
X0322766Y0044792D01*
X0322857Y0044737D01*
X0322947Y0044678D01*
X0323034Y0044616D01*
X0323118Y0044551D01*
X0323201Y0044483D01*
X0323280Y0044412D01*
X0323357Y0044338D01*
X0323431Y0044261D01*
X0323502Y0044182D01*
X0323570Y0044099D01*
X0323635Y0044015D01*
X0323697Y0043928D01*
X0323756Y0043838D01*
X0323811Y0043747D01*
X0323862Y0043654D01*
X0323910Y0043558D01*
X0323955Y0043461D01*
X0323996Y0043363D01*
X0324033Y0043263D01*
X0324066Y0043161D01*
X0324096Y0043059D01*
X0324121Y0042955D01*
X0324143Y0042851D01*
X0324161Y0042745D01*
X0324175Y0042640D01*
X0324185Y0042533D01*
X0324191Y0042427D01*
X0324193Y0042320D01*
X0324191Y0042213D01*
X0324185Y0042107D01*
X0324175Y0042000D01*
X0324161Y0041895D01*
X0324143Y0041789D01*
X0324121Y0041685D01*
X0324096Y0041581D01*
X0324066Y0041479D01*
X0324033Y0041377D01*
X0323996Y0041277D01*
X0323955Y0041179D01*
X0323910Y0041082D01*
X0323862Y0040986D01*
X0323811Y0040893D01*
X0323756Y0040802D01*
X0323697Y0040712D01*
X0323635Y0040625D01*
X0323570Y0040541D01*
X0323502Y0040458D01*
X0323431Y0040379D01*
X0323357Y0040302D01*
X0323280Y0040228D01*
X0323201Y0040157D01*
X0323118Y0040089D01*
X0323034Y0040024D01*
X0322947Y0039962D01*
X0322857Y0039903D01*
X0322766Y0039848D01*
X0322673Y0039797D01*
X0322577Y0039749D01*
X0322480Y0039704D01*
X0322382Y0039663D01*
X0322282Y0039626D01*
X0322180Y0039593D01*
X0322078Y0039563D01*
X0321974Y0039538D01*
X0321870Y0039516D01*
X0321764Y0039498D01*
X0321659Y0039484D01*
X0321552Y0039474D01*
X0321446Y0039468D01*
X0321339Y0039466D01*
X0321232Y0039468D01*
X0321126Y0039474D01*
X0321019Y0039484D01*
X0320914Y0039498D01*
X0320808Y0039516D01*
X0320704Y0039538D01*
X0320600Y0039563D01*
X0320498Y0039593D01*
X0320396Y0039626D01*
X0320296Y0039663D01*
X0320198Y0039704D01*
X0320101Y0039749D01*
X0320005Y0039797D01*
X0319912Y0039848D01*
X0319821Y0039903D01*
X0319731Y0039962D01*
X0319644Y0040024D01*
X0319560Y0040089D01*
X0319477Y0040157D01*
X0319398Y0040228D01*
X0319321Y0040302D01*
X0319247Y0040379D01*
X0319176Y0040458D01*
X0319108Y0040541D01*
X0319043Y0040625D01*
X0318981Y0040712D01*
X0318922Y0040802D01*
X0318867Y0040893D01*
X0318816Y0040986D01*
X0318768Y0041082D01*
X0318723Y0041179D01*
X0318682Y0041277D01*
X0318645Y0041377D01*
X0318612Y0041479D01*
X0318582Y0041581D01*
X0318557Y0041685D01*
X0318535Y0041789D01*
X0318517Y0041895D01*
X0318503Y0042000D01*
X0318493Y0042107D01*
X0318487Y0042213D01*
X0318485Y0042320D01*
M02*
