G75*
%MOIN*%
%OFA0B0*%
%FSLAX25Y25*%
%IPPOS*%
%LPD*%
%AMOC8*
5,1,8,0,0,1.08239X$1,22.5*
%
%ADD10C,0.05512*%
%ADD11C,0.11280*%
%ADD12C,0.19685*%
%ADD13C,0.07087*%
%ADD14C,0.02600*%
%ADD15C,0.00800*%
%ADD16C,0.01200*%
%ADD17C,0.03962*%
%ADD18C,0.01500*%
D10*
X0169272Y0034957D03*
X0318879Y0034957D03*
D11*
X0321339Y0057713D03*
X0166812Y0057713D03*
D12*
X0026800Y0044300D03*
X0026800Y0229300D03*
X0469300Y0229300D03*
X0469300Y0044300D03*
D13*
X0448690Y0241257D02*
X0448690Y0248343D01*
X0434910Y0248343D02*
X0434910Y0241257D01*
X0300690Y0241257D02*
X0300690Y0248343D01*
X0286910Y0248343D02*
X0286910Y0241257D01*
D14*
X0311800Y0244800D03*
X0364800Y0240800D03*
X0354800Y0207800D03*
X0343800Y0198800D03*
X0336800Y0207800D03*
X0326800Y0197800D03*
X0318800Y0189800D03*
X0307800Y0209800D03*
X0289800Y0209800D03*
X0277800Y0209800D03*
X0268800Y0209800D03*
X0239800Y0204800D03*
X0231800Y0204800D03*
X0207800Y0196800D03*
X0199800Y0188800D03*
X0180800Y0216800D03*
X0172800Y0216800D03*
X0152800Y0216800D03*
X0143800Y0216800D03*
X0124800Y0205800D03*
X0137800Y0192800D03*
X0088800Y0200800D03*
X0080800Y0192800D03*
X0062800Y0211800D03*
X0048800Y0217800D03*
X0032800Y0211800D03*
X0017800Y0216800D03*
X0111800Y0235800D03*
X0122800Y0234800D03*
X0127800Y0234800D03*
X0154800Y0234800D03*
X0166800Y0234800D03*
X0171800Y0234800D03*
X0197800Y0234800D03*
X0208800Y0234800D03*
X0213800Y0234800D03*
X0217800Y0222800D03*
X0232800Y0234800D03*
X0242800Y0234800D03*
X0247800Y0234800D03*
X0252800Y0234800D03*
X0379800Y0205800D03*
X0397800Y0205800D03*
X0407800Y0205800D03*
X0416800Y0205800D03*
X0438800Y0188800D03*
X0447800Y0194800D03*
X0453800Y0196300D03*
X0465800Y0206800D03*
X0481800Y0213800D03*
X0453800Y0221800D03*
X0444800Y0142800D03*
X0439800Y0135800D03*
X0428800Y0131800D03*
X0435800Y0120800D03*
X0440800Y0120800D03*
X0418800Y0113800D03*
X0409800Y0114800D03*
X0392800Y0115800D03*
X0384800Y0115800D03*
X0361800Y0128800D03*
X0343800Y0114800D03*
X0348800Y0110800D03*
X0344800Y0091800D03*
X0344800Y0086800D03*
X0345800Y0081800D03*
X0339800Y0078800D03*
X0301200Y0049400D03*
X0297200Y0049400D03*
X0284300Y0057800D03*
X0281800Y0053800D03*
X0280800Y0049800D03*
X0282800Y0065800D03*
X0290300Y0068300D03*
X0266800Y0071800D03*
X0223600Y0049400D03*
X0220400Y0051800D03*
X0216800Y0061800D03*
X0190800Y0049400D03*
X0182800Y0030800D03*
X0214800Y0030800D03*
X0246800Y0031800D03*
X0276800Y0031800D03*
X0346800Y0032800D03*
X0410000Y0064600D03*
X0412800Y0071300D03*
X0469800Y0122800D03*
X0478800Y0121800D03*
X0364800Y0141800D03*
X0347800Y0142800D03*
X0321800Y0133800D03*
X0318800Y0151800D03*
X0298800Y0115800D03*
X0290800Y0115800D03*
X0272800Y0116800D03*
X0264800Y0116800D03*
X0242800Y0131800D03*
X0226800Y0122800D03*
X0213800Y0124800D03*
X0200800Y0120800D03*
X0212800Y0113800D03*
X0190800Y0131800D03*
X0184800Y0135800D03*
X0196800Y0141800D03*
X0211600Y0135800D03*
X0214800Y0139000D03*
X0221200Y0143800D03*
X0226000Y0144600D03*
X0172800Y0114800D03*
X0164800Y0114800D03*
X0150800Y0115800D03*
X0142800Y0115800D03*
X0115800Y0122800D03*
X0107800Y0122800D03*
X0076800Y0120800D03*
X0052800Y0119800D03*
X0044800Y0119800D03*
X0025800Y0118800D03*
X0016800Y0118800D03*
X0077800Y0152800D03*
X0087800Y0147800D03*
X0180400Y0091800D03*
X0187600Y0095000D03*
X0116800Y0048800D03*
X0097200Y0067000D03*
D15*
X0173200Y0067000D01*
X0190800Y0049400D01*
X0220400Y0051800D02*
X0180400Y0091800D01*
X0187600Y0095000D02*
X0223600Y0059000D01*
X0223600Y0049400D01*
X0281800Y0053800D02*
X0284800Y0053800D01*
X0309800Y0078800D01*
X0339800Y0078800D01*
X0345800Y0081800D02*
X0308300Y0081800D01*
X0284300Y0057800D01*
X0282800Y0065800D02*
X0308800Y0091800D01*
X0344800Y0091800D01*
X0344800Y0086800D02*
X0308800Y0086800D01*
X0290300Y0068300D01*
X0297200Y0049400D02*
X0314600Y0066800D01*
X0408300Y0066800D01*
X0412800Y0071300D01*
X0410000Y0064600D02*
X0316400Y0064600D01*
X0301200Y0049400D01*
X0428800Y0131800D02*
X0435800Y0131800D01*
X0439800Y0135800D01*
X0364800Y0141800D02*
X0348800Y0141800D01*
X0347800Y0142800D01*
X0343800Y0198800D02*
X0342800Y0199800D01*
X0335800Y0199800D01*
X0317800Y0217800D01*
X0222800Y0217800D01*
X0217800Y0222800D01*
X0226000Y0144600D02*
X0217200Y0135800D01*
X0211600Y0135800D01*
X0214800Y0139000D02*
X0216400Y0139000D01*
X0221200Y0143800D01*
D16*
X0453800Y0196300D02*
X0453800Y0221800D01*
D17*
X0413800Y0249800D03*
D18*
X0213800Y0124800D02*
X0196800Y0141800D01*
X0280800Y0049800D02*
X0280800Y0032800D01*
X0283800Y0029800D01*
X0343800Y0029800D01*
X0346800Y0032800D01*
M02*
