%
M48
M72
T01C0.01000
T02C0.02362
T03C0.02756
T04C0.04724
T05C0.05709
T06C0.07520
T07C0.12598
%
T01
X97200Y67000
X116800Y48800
X182800Y30800
X190800Y49400
X216800Y61800
X220400Y51800
X223600Y49400
X214800Y30800
X246800Y31800
X276800Y31800
X280800Y49800
X281800Y53800
X284300Y57800
X282800Y65800
X290300Y68300
X266800Y71800
X297200Y49400
X301200Y49400
X346800Y32800
X410000Y64600
X412800Y71300
X345800Y81800
X339800Y78800
X344800Y86800
X344800Y91800
X348800Y110800
X343800Y114800
X361800Y128800
X364800Y141800
X347800Y142800
X321800Y133800
X318800Y151800
X298800Y115800
X290800Y115800
X272800Y116800
X264800Y116800
X242800Y131800
X226800Y122800
X213800Y124800
X200800Y120800
X212800Y113800
X190800Y131800
X184800Y135800
X196800Y141800
X211600Y135800
X214800Y139000
X221200Y143800
X226000Y144600
X172800Y114800
X164800Y114800
X150800Y115800
X142800Y115800
X115800Y122800
X107800Y122800
X76800Y120800
X52800Y119800
X44800Y119800
X25800Y118800
X16800Y118800
X77800Y152800
X87800Y147800
X80800Y192800
X88800Y200800
X62800Y211800
X48800Y217800
X32800Y211800
X17800Y216800
X111800Y235800
X122800Y234800
X127800Y234800
X143800Y216800
X152800Y216800
X172800Y216800
X180800Y216800
X171800Y234800
X166800Y234800
X154800Y234800
X197800Y234800
X208800Y234800
X213800Y234800
X217800Y222800
X232800Y234800
X242800Y234800
X247800Y234800
X252800Y234800
X268800Y209800
X277800Y209800
X289800Y209800
X307800Y209800
X326800Y197800
X318800Y189800
X343800Y198800
X336800Y207800
X354800Y207800
X379800Y205800
X397800Y205800
X407800Y205800
X416800Y205800
X438800Y188800
X447800Y194800
X453800Y196300
X465800Y206800
X481800Y213800
X453800Y221800
X364800Y240800
X311800Y244800
X239800Y204800
X231800Y204800
X207800Y196800
X199800Y188800
X137800Y192800
X124800Y205800
X187600Y95000
X180400Y91800
X384800Y115800
X392800Y115800
X409800Y114800
X418800Y113800
X435800Y120800
X440800Y120800
X428800Y131800
X439800Y135800
X444800Y142800
X469800Y122800
X478800Y121800
T02
X413800Y249800
T03
X318879Y34957
X169272Y34957
T04
X286910Y244800
X300690Y244800
X434910Y244800
X448690Y244800
T05
X321339Y42320
X166812Y41965
T06
X166812Y57713
X321339Y57713
T07
X26800Y44300
X26800Y229300
X469300Y229300
X469300Y44300
M30
