G75*
%MOIN*%
%OFA0B0*%
%FSLAX25Y25*%
%IPPOS*%
%LPD*%
%AMOC8*
5,1,8,0,0,1.08239X$1,22.5*
%
%ADD10C,0.04756*%
%ADD11C,0.11280*%
%ADD12C,0.16598*%
%ADD13C,0.07087*%
%ADD14C,0.02600*%
%ADD15C,0.01500*%
%ADD16C,0.01600*%
%ADD17C,0.03962*%
%ADD18C,0.03200*%
D10*
X0169272Y0034957D03*
X0318879Y0034957D03*
D11*
X0321339Y0057713D03*
X0166812Y0057713D03*
D12*
X0026800Y0044300D03*
X0026800Y0229300D03*
X0469300Y0229300D03*
X0469300Y0044300D03*
D13*
X0448690Y0244800D03*
X0434910Y0244800D03*
X0300690Y0244800D03*
X0286910Y0244800D03*
D14*
X0311800Y0244800D03*
X0364800Y0240800D03*
X0354800Y0207800D03*
X0343800Y0198800D03*
X0336800Y0207800D03*
X0326800Y0197800D03*
X0318800Y0189800D03*
X0307800Y0209800D03*
X0289800Y0209800D03*
X0277800Y0209800D03*
X0268800Y0209800D03*
X0239800Y0204800D03*
X0231800Y0204800D03*
X0207800Y0196800D03*
X0199800Y0188800D03*
X0180800Y0216800D03*
X0172800Y0216800D03*
X0152800Y0216800D03*
X0143800Y0216800D03*
X0124800Y0205800D03*
X0137800Y0192800D03*
X0088800Y0200800D03*
X0080800Y0192800D03*
X0062800Y0211800D03*
X0048800Y0217800D03*
X0032800Y0211800D03*
X0017800Y0216800D03*
X0111800Y0235800D03*
X0122800Y0234800D03*
X0127800Y0234800D03*
X0154800Y0234800D03*
X0166800Y0234800D03*
X0171800Y0234800D03*
X0197800Y0234800D03*
X0208800Y0234800D03*
X0213800Y0234800D03*
X0217800Y0222800D03*
X0232800Y0234800D03*
X0242800Y0234800D03*
X0247800Y0234800D03*
X0252800Y0234800D03*
X0379800Y0205800D03*
X0397800Y0205800D03*
X0407800Y0205800D03*
X0416800Y0205800D03*
X0438800Y0188800D03*
X0447800Y0194800D03*
X0453800Y0196300D03*
X0465800Y0206800D03*
X0481800Y0213800D03*
X0453800Y0221800D03*
X0444800Y0142800D03*
X0439800Y0135800D03*
X0428800Y0131800D03*
X0435800Y0120800D03*
X0440800Y0120800D03*
X0418800Y0113800D03*
X0409800Y0114800D03*
X0392800Y0115800D03*
X0384800Y0115800D03*
X0361800Y0128800D03*
X0343800Y0114800D03*
X0348800Y0110800D03*
X0344800Y0091800D03*
X0344800Y0086800D03*
X0345800Y0081800D03*
X0339800Y0078800D03*
X0301200Y0049400D03*
X0297200Y0049400D03*
X0284300Y0057800D03*
X0281800Y0053800D03*
X0280800Y0049800D03*
X0282800Y0065800D03*
X0290300Y0068300D03*
X0266800Y0071800D03*
X0223600Y0049400D03*
X0220400Y0051800D03*
X0216800Y0061800D03*
X0190800Y0049400D03*
X0182800Y0030800D03*
X0214800Y0030800D03*
X0246800Y0031800D03*
X0276800Y0031800D03*
X0346800Y0032800D03*
X0410000Y0064600D03*
X0412800Y0071300D03*
X0469800Y0122800D03*
X0478800Y0121800D03*
X0364800Y0141800D03*
X0347800Y0142800D03*
X0321800Y0133800D03*
X0318800Y0151800D03*
X0298800Y0115800D03*
X0290800Y0115800D03*
X0272800Y0116800D03*
X0264800Y0116800D03*
X0242800Y0131800D03*
X0226800Y0122800D03*
X0213800Y0124800D03*
X0200800Y0120800D03*
X0212800Y0113800D03*
X0190800Y0131800D03*
X0184800Y0135800D03*
X0196800Y0141800D03*
X0211600Y0135800D03*
X0214800Y0139000D03*
X0221200Y0143800D03*
X0226000Y0144600D03*
X0172800Y0114800D03*
X0164800Y0114800D03*
X0150800Y0115800D03*
X0142800Y0115800D03*
X0115800Y0122800D03*
X0107800Y0122800D03*
X0076800Y0120800D03*
X0052800Y0119800D03*
X0044800Y0119800D03*
X0025800Y0118800D03*
X0016800Y0118800D03*
X0077800Y0152800D03*
X0087800Y0147800D03*
X0180400Y0091800D03*
X0187600Y0095000D03*
X0116800Y0048800D03*
X0097200Y0067000D03*
D15*
X0011450Y0029450D02*
X0011450Y0156800D01*
X0486150Y0156800D01*
X0486150Y0029450D01*
X0011450Y0029450D01*
X0011450Y0030761D02*
X0344808Y0030761D01*
X0345186Y0030384D02*
X0346233Y0029950D01*
X0347367Y0029950D01*
X0348414Y0030384D01*
X0349216Y0031186D01*
X0349650Y0032233D01*
X0349650Y0033367D01*
X0349216Y0034414D01*
X0348414Y0035216D01*
X0347367Y0035650D01*
X0346233Y0035650D01*
X0345186Y0035216D01*
X0344384Y0034414D01*
X0343950Y0033367D01*
X0343950Y0032233D01*
X0344384Y0031186D01*
X0345186Y0030384D01*
X0343950Y0032260D02*
X0321736Y0032260D01*
X0322209Y0032732D02*
X0321104Y0031628D01*
X0319660Y0031030D01*
X0318097Y0031030D01*
X0316654Y0031628D01*
X0315549Y0032732D01*
X0314951Y0034176D01*
X0314951Y0035739D01*
X0315549Y0037182D01*
X0316654Y0038287D01*
X0317714Y0038727D01*
X0317012Y0039428D01*
X0316235Y0041304D01*
X0316235Y0043335D01*
X0317012Y0045211D01*
X0318448Y0046647D01*
X0320324Y0047424D01*
X0322355Y0047424D01*
X0324231Y0046647D01*
X0325667Y0045211D01*
X0326444Y0043335D01*
X0326444Y0041304D01*
X0325667Y0039428D01*
X0324231Y0037992D01*
X0322355Y0037215D01*
X0322176Y0037215D01*
X0322209Y0037182D01*
X0322807Y0035739D01*
X0322807Y0034176D01*
X0322209Y0032732D01*
X0322634Y0033758D02*
X0344112Y0033758D01*
X0345284Y0035257D02*
X0322807Y0035257D01*
X0322386Y0036755D02*
X0462916Y0036755D01*
X0463721Y0035950D02*
X0460950Y0038721D01*
X0459451Y0042341D01*
X0459451Y0046259D01*
X0460950Y0049879D01*
X0463721Y0052650D01*
X0467341Y0054149D01*
X0471259Y0054149D01*
X0474879Y0052650D01*
X0477650Y0049879D01*
X0479149Y0046259D01*
X0479149Y0042341D01*
X0477650Y0038721D01*
X0474879Y0035950D01*
X0471259Y0034451D01*
X0467341Y0034451D01*
X0463721Y0035950D01*
X0465395Y0035257D02*
X0348316Y0035257D01*
X0349488Y0033758D02*
X0486150Y0033758D01*
X0486150Y0032260D02*
X0349650Y0032260D01*
X0348792Y0030761D02*
X0486150Y0030761D01*
X0486150Y0035257D02*
X0473205Y0035257D01*
X0475684Y0036755D02*
X0486150Y0036755D01*
X0486150Y0038254D02*
X0477183Y0038254D01*
X0478077Y0039752D02*
X0486150Y0039752D01*
X0486150Y0041251D02*
X0478698Y0041251D01*
X0479149Y0042749D02*
X0486150Y0042749D01*
X0486150Y0044248D02*
X0479149Y0044248D01*
X0479149Y0045746D02*
X0486150Y0045746D01*
X0486150Y0047245D02*
X0478741Y0047245D01*
X0478120Y0048743D02*
X0486150Y0048743D01*
X0486150Y0050242D02*
X0477287Y0050242D01*
X0475788Y0051740D02*
X0486150Y0051740D01*
X0486150Y0053239D02*
X0473457Y0053239D01*
X0465143Y0053239D02*
X0327033Y0053239D01*
X0327435Y0053641D02*
X0328529Y0056283D01*
X0328529Y0059144D01*
X0327435Y0061786D01*
X0325412Y0063809D01*
X0322770Y0064903D01*
X0319909Y0064903D01*
X0317267Y0063809D01*
X0315244Y0061786D01*
X0314150Y0059144D01*
X0314150Y0056283D01*
X0315244Y0053641D01*
X0317267Y0051618D01*
X0319909Y0050524D01*
X0322770Y0050524D01*
X0325412Y0051618D01*
X0327435Y0053641D01*
X0327889Y0054737D02*
X0486150Y0054737D01*
X0486150Y0056236D02*
X0328510Y0056236D01*
X0328529Y0057734D02*
X0486150Y0057734D01*
X0486150Y0059233D02*
X0328492Y0059233D01*
X0327871Y0060732D02*
X0486150Y0060732D01*
X0486150Y0062230D02*
X0411661Y0062230D01*
X0411614Y0062184D02*
X0412416Y0062986D01*
X0412850Y0064033D01*
X0412850Y0065167D01*
X0412416Y0066214D01*
X0411614Y0067016D01*
X0410567Y0067450D01*
X0409433Y0067450D01*
X0408386Y0067016D01*
X0407584Y0066214D01*
X0407150Y0065167D01*
X0407150Y0064033D01*
X0407584Y0062986D01*
X0408386Y0062184D01*
X0409433Y0061750D01*
X0410567Y0061750D01*
X0411614Y0062184D01*
X0412724Y0063729D02*
X0486150Y0063729D01*
X0486150Y0065227D02*
X0412825Y0065227D01*
X0411905Y0066726D02*
X0486150Y0066726D01*
X0486150Y0068224D02*
X0293150Y0068224D01*
X0293150Y0067733D02*
X0292716Y0066686D01*
X0291914Y0065884D01*
X0290867Y0065450D01*
X0289733Y0065450D01*
X0288686Y0065884D01*
X0287884Y0066686D01*
X0287450Y0067733D01*
X0287450Y0068867D01*
X0287884Y0069914D01*
X0288686Y0070716D01*
X0289733Y0071150D01*
X0290867Y0071150D01*
X0291914Y0070716D01*
X0292716Y0069914D01*
X0293150Y0068867D01*
X0293150Y0067733D01*
X0292733Y0066726D02*
X0408095Y0066726D01*
X0407175Y0065227D02*
X0285647Y0065227D01*
X0285650Y0065233D02*
X0285216Y0064186D01*
X0284414Y0063384D01*
X0283367Y0062950D01*
X0282233Y0062950D01*
X0281186Y0063384D01*
X0280384Y0064186D01*
X0279950Y0065233D01*
X0279950Y0066367D01*
X0280384Y0067414D01*
X0281186Y0068216D01*
X0282233Y0068650D01*
X0283367Y0068650D01*
X0284414Y0068216D01*
X0285216Y0067414D01*
X0285650Y0066367D01*
X0285650Y0065233D01*
X0285501Y0066726D02*
X0287867Y0066726D01*
X0287450Y0068224D02*
X0284395Y0068224D01*
X0281205Y0068224D02*
X0099778Y0068224D01*
X0099616Y0068614D02*
X0100050Y0067567D01*
X0100050Y0066433D01*
X0099616Y0065386D01*
X0098814Y0064584D01*
X0097767Y0064150D01*
X0096633Y0064150D01*
X0095586Y0064584D01*
X0094784Y0065386D01*
X0094350Y0066433D01*
X0094350Y0067567D01*
X0094784Y0068614D01*
X0095586Y0069416D01*
X0096633Y0069850D01*
X0097767Y0069850D01*
X0098814Y0069416D01*
X0099616Y0068614D01*
X0098074Y0069723D02*
X0264847Y0069723D01*
X0265186Y0069384D02*
X0266233Y0068950D01*
X0267367Y0068950D01*
X0268414Y0069384D01*
X0269216Y0070186D01*
X0269650Y0071233D01*
X0269650Y0072367D01*
X0269216Y0073414D01*
X0268414Y0074216D01*
X0267367Y0074650D01*
X0266233Y0074650D01*
X0265186Y0074216D01*
X0264384Y0073414D01*
X0263950Y0072367D01*
X0263950Y0071233D01*
X0264384Y0070186D01*
X0265186Y0069384D01*
X0263955Y0071221D02*
X0011450Y0071221D01*
X0011450Y0069723D02*
X0096326Y0069723D01*
X0094622Y0068224D02*
X0011450Y0068224D01*
X0011450Y0066726D02*
X0094350Y0066726D01*
X0094942Y0065227D02*
X0011450Y0065227D01*
X0011450Y0063729D02*
X0162659Y0063729D01*
X0162739Y0063809D02*
X0160717Y0061786D01*
X0159622Y0059144D01*
X0159622Y0056283D01*
X0160717Y0053641D01*
X0162739Y0051618D01*
X0165382Y0050524D01*
X0168242Y0050524D01*
X0170884Y0051618D01*
X0172907Y0053641D01*
X0174002Y0056283D01*
X0174002Y0059144D01*
X0172907Y0061786D01*
X0170884Y0063809D01*
X0168242Y0064903D01*
X0165382Y0064903D01*
X0162739Y0063809D01*
X0161161Y0062230D02*
X0011450Y0062230D01*
X0011450Y0060732D02*
X0160280Y0060732D01*
X0159659Y0059233D02*
X0011450Y0059233D01*
X0011450Y0057734D02*
X0159622Y0057734D01*
X0159642Y0056236D02*
X0011450Y0056236D01*
X0011450Y0054737D02*
X0160262Y0054737D01*
X0161118Y0053239D02*
X0030957Y0053239D01*
X0032379Y0052650D02*
X0028759Y0054149D01*
X0024841Y0054149D01*
X0021221Y0052650D01*
X0018450Y0049879D01*
X0016951Y0046259D01*
X0016951Y0042341D01*
X0018450Y0038721D01*
X0021221Y0035950D01*
X0024841Y0034451D01*
X0028759Y0034451D01*
X0032379Y0035950D01*
X0035150Y0038721D01*
X0036649Y0042341D01*
X0036649Y0046259D01*
X0035150Y0049879D01*
X0032379Y0052650D01*
X0033288Y0051740D02*
X0162617Y0051740D01*
X0163920Y0046293D02*
X0165796Y0047070D01*
X0167827Y0047070D01*
X0169703Y0046293D01*
X0171139Y0044857D01*
X0171916Y0042981D01*
X0171916Y0040950D01*
X0171139Y0039074D01*
X0170688Y0038623D01*
X0171497Y0038287D01*
X0172602Y0037182D01*
X0173200Y0035739D01*
X0173200Y0034176D01*
X0172602Y0032732D01*
X0171497Y0031628D01*
X0170054Y0031030D01*
X0168491Y0031030D01*
X0167047Y0031628D01*
X0165942Y0032732D01*
X0165344Y0034176D01*
X0165344Y0035739D01*
X0165809Y0036861D01*
X0165796Y0036861D01*
X0163920Y0037638D01*
X0162485Y0039074D01*
X0161707Y0040950D01*
X0161707Y0042981D01*
X0162485Y0044857D01*
X0163920Y0046293D01*
X0163374Y0045746D02*
X0036649Y0045746D01*
X0036649Y0044248D02*
X0162232Y0044248D01*
X0161707Y0042749D02*
X0036649Y0042749D01*
X0036198Y0041251D02*
X0161707Y0041251D01*
X0162204Y0039752D02*
X0035577Y0039752D01*
X0034683Y0038254D02*
X0163305Y0038254D01*
X0165766Y0036755D02*
X0033184Y0036755D01*
X0030705Y0035257D02*
X0165344Y0035257D01*
X0165518Y0033758D02*
X0011450Y0033758D01*
X0011450Y0032260D02*
X0166415Y0032260D01*
X0172130Y0032260D02*
X0316021Y0032260D01*
X0315124Y0033758D02*
X0173027Y0033758D01*
X0173200Y0035257D02*
X0314951Y0035257D01*
X0315372Y0036755D02*
X0172779Y0036755D01*
X0171531Y0038254D02*
X0316620Y0038254D01*
X0316878Y0039752D02*
X0171420Y0039752D01*
X0171916Y0041251D02*
X0316257Y0041251D01*
X0316235Y0042749D02*
X0171916Y0042749D01*
X0171391Y0044248D02*
X0316613Y0044248D01*
X0317547Y0045746D02*
X0170249Y0045746D01*
X0171007Y0051740D02*
X0189110Y0051740D01*
X0189186Y0051816D02*
X0188384Y0051014D01*
X0187950Y0049967D01*
X0187950Y0048833D01*
X0188384Y0047786D01*
X0189186Y0046984D01*
X0190233Y0046550D01*
X0191367Y0046550D01*
X0192414Y0046984D01*
X0193216Y0047786D01*
X0193650Y0048833D01*
X0193650Y0049967D01*
X0193216Y0051014D01*
X0192414Y0051816D01*
X0191367Y0052250D01*
X0190233Y0052250D01*
X0189186Y0051816D01*
X0188064Y0050242D02*
X0119288Y0050242D01*
X0119216Y0050414D02*
X0118414Y0051216D01*
X0117367Y0051650D01*
X0116233Y0051650D01*
X0115186Y0051216D01*
X0114384Y0050414D01*
X0113950Y0049367D01*
X0113950Y0048233D01*
X0114384Y0047186D01*
X0115186Y0046384D01*
X0116233Y0045950D01*
X0117367Y0045950D01*
X0118414Y0046384D01*
X0119216Y0047186D01*
X0119650Y0048233D01*
X0119650Y0049367D01*
X0119216Y0050414D01*
X0119650Y0048743D02*
X0187987Y0048743D01*
X0188925Y0047245D02*
X0119241Y0047245D01*
X0114359Y0047245D02*
X0036241Y0047245D01*
X0035620Y0048743D02*
X0113950Y0048743D01*
X0114312Y0050242D02*
X0034787Y0050242D01*
X0022643Y0053239D02*
X0011450Y0053239D01*
X0011450Y0051740D02*
X0020312Y0051740D01*
X0018813Y0050242D02*
X0011450Y0050242D01*
X0011450Y0048743D02*
X0017980Y0048743D01*
X0017359Y0047245D02*
X0011450Y0047245D01*
X0011450Y0045746D02*
X0016951Y0045746D01*
X0016951Y0044248D02*
X0011450Y0044248D01*
X0011450Y0042749D02*
X0016951Y0042749D01*
X0017402Y0041251D02*
X0011450Y0041251D01*
X0011450Y0039752D02*
X0018023Y0039752D01*
X0018917Y0038254D02*
X0011450Y0038254D01*
X0011450Y0036755D02*
X0020416Y0036755D01*
X0022895Y0035257D02*
X0011450Y0035257D01*
X0011450Y0072720D02*
X0264096Y0072720D01*
X0265190Y0074218D02*
X0011450Y0074218D01*
X0011450Y0075717D02*
X0486150Y0075717D01*
X0486150Y0077215D02*
X0342228Y0077215D01*
X0342216Y0077186D02*
X0342650Y0078233D01*
X0342650Y0079367D01*
X0342216Y0080414D01*
X0341414Y0081216D01*
X0340367Y0081650D01*
X0339233Y0081650D01*
X0338186Y0081216D01*
X0337384Y0080414D01*
X0336950Y0079367D01*
X0336950Y0078233D01*
X0337384Y0077186D01*
X0338186Y0076384D01*
X0339233Y0075950D01*
X0340367Y0075950D01*
X0341414Y0076384D01*
X0342216Y0077186D01*
X0342650Y0078714D02*
X0486150Y0078714D01*
X0486150Y0080212D02*
X0348227Y0080212D01*
X0348216Y0080186D02*
X0348650Y0081233D01*
X0348650Y0082367D01*
X0348216Y0083414D01*
X0347414Y0084216D01*
X0346589Y0084558D01*
X0347216Y0085186D01*
X0347650Y0086233D01*
X0347650Y0087367D01*
X0347216Y0088414D01*
X0346414Y0089216D01*
X0346212Y0089300D01*
X0346414Y0089384D01*
X0347216Y0090186D01*
X0347650Y0091233D01*
X0347650Y0092367D01*
X0347216Y0093414D01*
X0346414Y0094216D01*
X0345367Y0094650D01*
X0344233Y0094650D01*
X0343186Y0094216D01*
X0342384Y0093414D01*
X0341950Y0092367D01*
X0341950Y0091233D01*
X0342384Y0090186D01*
X0343186Y0089384D01*
X0343388Y0089300D01*
X0343186Y0089216D01*
X0342384Y0088414D01*
X0341950Y0087367D01*
X0341950Y0086233D01*
X0342384Y0085186D01*
X0343186Y0084384D01*
X0344011Y0084042D01*
X0343384Y0083414D01*
X0342950Y0082367D01*
X0342950Y0081233D01*
X0343384Y0080186D01*
X0344186Y0079384D01*
X0345233Y0078950D01*
X0346367Y0078950D01*
X0347414Y0079384D01*
X0348216Y0080186D01*
X0348650Y0081711D02*
X0486150Y0081711D01*
X0486150Y0083209D02*
X0348301Y0083209D01*
X0346738Y0084708D02*
X0486150Y0084708D01*
X0486150Y0086206D02*
X0347639Y0086206D01*
X0347510Y0087705D02*
X0486150Y0087705D01*
X0486150Y0089203D02*
X0346427Y0089203D01*
X0347430Y0090702D02*
X0486150Y0090702D01*
X0486150Y0092200D02*
X0347650Y0092200D01*
X0346932Y0093699D02*
X0486150Y0093699D01*
X0486150Y0095197D02*
X0190450Y0095197D01*
X0190450Y0095567D02*
X0190016Y0096614D01*
X0189214Y0097416D01*
X0188167Y0097850D01*
X0187033Y0097850D01*
X0185986Y0097416D01*
X0185184Y0096614D01*
X0184750Y0095567D01*
X0184750Y0094433D01*
X0185184Y0093386D01*
X0185986Y0092584D01*
X0187033Y0092150D01*
X0188167Y0092150D01*
X0189214Y0092584D01*
X0190016Y0093386D01*
X0190450Y0094433D01*
X0190450Y0095567D01*
X0189935Y0096696D02*
X0486150Y0096696D01*
X0486150Y0098194D02*
X0011450Y0098194D01*
X0011450Y0096696D02*
X0185265Y0096696D01*
X0184750Y0095197D02*
X0011450Y0095197D01*
X0011450Y0093699D02*
X0178268Y0093699D01*
X0177984Y0093414D02*
X0177550Y0092367D01*
X0177550Y0091233D01*
X0177984Y0090186D01*
X0178786Y0089384D01*
X0179833Y0088950D01*
X0180967Y0088950D01*
X0182014Y0089384D01*
X0182816Y0090186D01*
X0183250Y0091233D01*
X0183250Y0092367D01*
X0182816Y0093414D01*
X0182014Y0094216D01*
X0180967Y0094650D01*
X0179833Y0094650D01*
X0178786Y0094216D01*
X0177984Y0093414D01*
X0177550Y0092200D02*
X0011450Y0092200D01*
X0011450Y0090702D02*
X0177770Y0090702D01*
X0179222Y0089203D02*
X0011450Y0089203D01*
X0011450Y0087705D02*
X0342090Y0087705D01*
X0341961Y0086206D02*
X0011450Y0086206D01*
X0011450Y0084708D02*
X0342862Y0084708D01*
X0343299Y0083209D02*
X0011450Y0083209D01*
X0011450Y0081711D02*
X0342950Y0081711D01*
X0343373Y0080212D02*
X0342300Y0080212D01*
X0337300Y0080212D02*
X0011450Y0080212D01*
X0011450Y0078714D02*
X0336950Y0078714D01*
X0337372Y0077215D02*
X0011450Y0077215D01*
X0011450Y0099693D02*
X0486150Y0099693D01*
X0486150Y0101191D02*
X0011450Y0101191D01*
X0011450Y0102690D02*
X0486150Y0102690D01*
X0486150Y0104188D02*
X0011450Y0104188D01*
X0011450Y0105687D02*
X0486150Y0105687D01*
X0486150Y0107185D02*
X0011450Y0107185D01*
X0011450Y0108684D02*
X0486150Y0108684D01*
X0486150Y0110182D02*
X0011450Y0110182D01*
X0011450Y0111681D02*
X0210889Y0111681D01*
X0211186Y0111384D02*
X0210384Y0112186D01*
X0209950Y0113233D01*
X0209950Y0114367D01*
X0210384Y0115414D01*
X0211186Y0116216D01*
X0212233Y0116650D01*
X0213367Y0116650D01*
X0214414Y0116216D01*
X0215216Y0115414D01*
X0215650Y0114367D01*
X0215650Y0113233D01*
X0215216Y0112186D01*
X0214414Y0111384D01*
X0213367Y0110950D01*
X0212233Y0110950D01*
X0211186Y0111384D01*
X0209972Y0113179D02*
X0175210Y0113179D01*
X0175216Y0113186D02*
X0175650Y0114233D01*
X0175650Y0115367D01*
X0175216Y0116414D01*
X0174414Y0117216D01*
X0173367Y0117650D01*
X0172233Y0117650D01*
X0171186Y0117216D01*
X0170384Y0116414D01*
X0169950Y0115367D01*
X0169950Y0114233D01*
X0170384Y0113186D01*
X0171186Y0112384D01*
X0172233Y0111950D01*
X0173367Y0111950D01*
X0174414Y0112384D01*
X0175216Y0113186D01*
X0175650Y0114678D02*
X0210079Y0114678D01*
X0211146Y0116176D02*
X0175315Y0116176D01*
X0170285Y0116176D02*
X0153650Y0116176D01*
X0153650Y0116367D02*
X0153216Y0117414D01*
X0152414Y0118216D01*
X0151367Y0118650D01*
X0150233Y0118650D01*
X0149186Y0118216D01*
X0148384Y0117414D01*
X0147950Y0116367D01*
X0147950Y0115233D01*
X0148384Y0114186D01*
X0149186Y0113384D01*
X0150233Y0112950D01*
X0151367Y0112950D01*
X0152414Y0113384D01*
X0153216Y0114186D01*
X0153650Y0115233D01*
X0153650Y0116367D01*
X0152956Y0117675D02*
X0270078Y0117675D01*
X0269950Y0117367D02*
X0270384Y0118414D01*
X0271186Y0119216D01*
X0272233Y0119650D01*
X0273367Y0119650D01*
X0274414Y0119216D01*
X0275216Y0118414D01*
X0275650Y0117367D01*
X0275650Y0116233D01*
X0275216Y0115186D01*
X0274414Y0114384D01*
X0273367Y0113950D01*
X0272233Y0113950D01*
X0271186Y0114384D01*
X0270384Y0115186D01*
X0269950Y0116233D01*
X0269950Y0117367D01*
X0269973Y0116176D02*
X0214454Y0116176D01*
X0215521Y0114678D02*
X0270892Y0114678D01*
X0274708Y0114678D02*
X0296180Y0114678D01*
X0296384Y0114186D02*
X0295950Y0115233D01*
X0295950Y0116367D01*
X0296384Y0117414D01*
X0297186Y0118216D01*
X0298233Y0118650D01*
X0299367Y0118650D01*
X0300414Y0118216D01*
X0301216Y0117414D01*
X0301650Y0116367D01*
X0301650Y0115233D01*
X0301216Y0114186D01*
X0300414Y0113384D01*
X0299367Y0112950D01*
X0298233Y0112950D01*
X0297186Y0113384D01*
X0296384Y0114186D01*
X0297679Y0113179D02*
X0215628Y0113179D01*
X0214711Y0111681D02*
X0416889Y0111681D01*
X0417186Y0111384D02*
X0416384Y0112186D01*
X0415950Y0113233D01*
X0415950Y0114367D01*
X0416384Y0115414D01*
X0417186Y0116216D01*
X0418233Y0116650D01*
X0419367Y0116650D01*
X0420414Y0116216D01*
X0421216Y0115414D01*
X0421650Y0114367D01*
X0421650Y0113233D01*
X0421216Y0112186D01*
X0420414Y0111384D01*
X0419367Y0110950D01*
X0418233Y0110950D01*
X0417186Y0111384D01*
X0415972Y0113179D02*
X0393921Y0113179D01*
X0394414Y0113384D02*
X0395216Y0114186D01*
X0395650Y0115233D01*
X0395650Y0116367D01*
X0395216Y0117414D01*
X0394414Y0118216D01*
X0393367Y0118650D01*
X0392233Y0118650D01*
X0391186Y0118216D01*
X0390384Y0117414D01*
X0389950Y0116367D01*
X0389950Y0115233D01*
X0390384Y0114186D01*
X0391186Y0113384D01*
X0392233Y0112950D01*
X0393367Y0112950D01*
X0394414Y0113384D01*
X0395420Y0114678D02*
X0416079Y0114678D01*
X0417146Y0116176D02*
X0395650Y0116176D01*
X0394956Y0117675D02*
X0486150Y0117675D01*
X0486150Y0119173D02*
X0479906Y0119173D01*
X0480414Y0119384D02*
X0481216Y0120186D01*
X0481650Y0121233D01*
X0481650Y0122367D01*
X0481216Y0123414D01*
X0480414Y0124216D01*
X0479367Y0124650D01*
X0478233Y0124650D01*
X0477186Y0124216D01*
X0476384Y0123414D01*
X0475950Y0122367D01*
X0475950Y0121233D01*
X0476384Y0120186D01*
X0477186Y0119384D01*
X0478233Y0118950D01*
X0479367Y0118950D01*
X0480414Y0119384D01*
X0481418Y0120672D02*
X0486150Y0120672D01*
X0486150Y0122170D02*
X0481650Y0122170D01*
X0480961Y0123669D02*
X0486150Y0123669D01*
X0486150Y0125168D02*
X0216650Y0125168D01*
X0216650Y0125367D02*
X0216216Y0126414D01*
X0215414Y0127216D01*
X0214367Y0127650D01*
X0213233Y0127650D01*
X0212186Y0127216D01*
X0211384Y0126414D01*
X0210950Y0125367D01*
X0210950Y0124233D01*
X0211384Y0123186D01*
X0212186Y0122384D01*
X0213233Y0121950D01*
X0214367Y0121950D01*
X0215414Y0122384D01*
X0216216Y0123186D01*
X0216650Y0124233D01*
X0216650Y0125367D01*
X0215964Y0126666D02*
X0359903Y0126666D01*
X0360186Y0126384D02*
X0361233Y0125950D01*
X0362367Y0125950D01*
X0363414Y0126384D01*
X0364216Y0127186D01*
X0364650Y0128233D01*
X0364650Y0129367D01*
X0364216Y0130414D01*
X0363414Y0131216D01*
X0362367Y0131650D01*
X0361233Y0131650D01*
X0360186Y0131216D01*
X0359384Y0130414D01*
X0358950Y0129367D01*
X0358950Y0128233D01*
X0359384Y0127186D01*
X0360186Y0126384D01*
X0358978Y0128165D02*
X0011450Y0128165D01*
X0011450Y0129663D02*
X0240906Y0129663D01*
X0241186Y0129384D02*
X0242233Y0128950D01*
X0243367Y0128950D01*
X0244414Y0129384D01*
X0245216Y0130186D01*
X0245650Y0131233D01*
X0245650Y0132367D01*
X0245216Y0133414D01*
X0244414Y0134216D01*
X0243367Y0134650D01*
X0242233Y0134650D01*
X0241186Y0134216D01*
X0240384Y0133414D01*
X0239950Y0132367D01*
X0239950Y0131233D01*
X0240384Y0130186D01*
X0241186Y0129384D01*
X0239980Y0131162D02*
X0011450Y0131162D01*
X0011450Y0132660D02*
X0240071Y0132660D01*
X0241128Y0134159D02*
X0213989Y0134159D01*
X0214016Y0134186D02*
X0214450Y0135233D01*
X0214450Y0136150D01*
X0215367Y0136150D01*
X0216414Y0136584D01*
X0217216Y0137386D01*
X0217650Y0138433D01*
X0217650Y0139567D01*
X0217216Y0140614D01*
X0216414Y0141416D01*
X0215367Y0141850D01*
X0214233Y0141850D01*
X0213186Y0141416D01*
X0212384Y0140614D01*
X0211950Y0139567D01*
X0211950Y0138650D01*
X0211033Y0138650D01*
X0209986Y0138216D01*
X0209184Y0137414D01*
X0208750Y0136367D01*
X0208750Y0135233D01*
X0209184Y0134186D01*
X0209986Y0133384D01*
X0211033Y0132950D01*
X0212167Y0132950D01*
X0213214Y0133384D01*
X0214016Y0134186D01*
X0214450Y0135657D02*
X0319627Y0135657D01*
X0319384Y0135414D02*
X0318950Y0134367D01*
X0318950Y0133233D01*
X0319384Y0132186D01*
X0320186Y0131384D01*
X0321233Y0130950D01*
X0322367Y0130950D01*
X0323414Y0131384D01*
X0324216Y0132186D01*
X0324650Y0133233D01*
X0324650Y0134367D01*
X0324216Y0135414D01*
X0323414Y0136216D01*
X0322367Y0136650D01*
X0321233Y0136650D01*
X0320186Y0136216D01*
X0319384Y0135414D01*
X0318950Y0134159D02*
X0244472Y0134159D01*
X0245529Y0132660D02*
X0319187Y0132660D01*
X0320722Y0131162D02*
X0245620Y0131162D01*
X0244694Y0129663D02*
X0359073Y0129663D01*
X0360131Y0131162D02*
X0322878Y0131162D01*
X0324413Y0132660D02*
X0426071Y0132660D01*
X0425950Y0132367D02*
X0425950Y0131233D01*
X0426384Y0130186D01*
X0427186Y0129384D01*
X0428233Y0128950D01*
X0429367Y0128950D01*
X0430414Y0129384D01*
X0431216Y0130186D01*
X0431650Y0131233D01*
X0431650Y0132367D01*
X0431216Y0133414D01*
X0430414Y0134216D01*
X0429367Y0134650D01*
X0428233Y0134650D01*
X0427186Y0134216D01*
X0426384Y0133414D01*
X0425950Y0132367D01*
X0425980Y0131162D02*
X0363469Y0131162D01*
X0364527Y0129663D02*
X0426906Y0129663D01*
X0430694Y0129663D02*
X0486150Y0129663D01*
X0486150Y0128165D02*
X0364622Y0128165D01*
X0363697Y0126666D02*
X0486150Y0126666D01*
X0486150Y0131162D02*
X0431620Y0131162D01*
X0431529Y0132660D02*
X0486150Y0132660D01*
X0486150Y0134159D02*
X0442189Y0134159D01*
X0442216Y0134186D02*
X0442650Y0135233D01*
X0442650Y0136367D01*
X0442216Y0137414D01*
X0441414Y0138216D01*
X0440367Y0138650D01*
X0439233Y0138650D01*
X0438186Y0138216D01*
X0437384Y0137414D01*
X0436950Y0136367D01*
X0436950Y0135233D01*
X0437384Y0134186D01*
X0438186Y0133384D01*
X0439233Y0132950D01*
X0440367Y0132950D01*
X0441414Y0133384D01*
X0442216Y0134186D01*
X0442650Y0135657D02*
X0486150Y0135657D01*
X0486150Y0137156D02*
X0442323Y0137156D01*
X0443744Y0140153D02*
X0367183Y0140153D01*
X0367216Y0140186D02*
X0367650Y0141233D01*
X0367650Y0142367D01*
X0367216Y0143414D01*
X0366414Y0144216D01*
X0365367Y0144650D01*
X0364233Y0144650D01*
X0363186Y0144216D01*
X0362384Y0143414D01*
X0361950Y0142367D01*
X0361950Y0141233D01*
X0362384Y0140186D01*
X0363186Y0139384D01*
X0364233Y0138950D01*
X0365367Y0138950D01*
X0366414Y0139384D01*
X0367216Y0140186D01*
X0367650Y0141651D02*
X0442191Y0141651D01*
X0442384Y0141186D02*
X0443186Y0140384D01*
X0444233Y0139950D01*
X0445367Y0139950D01*
X0446414Y0140384D01*
X0447216Y0141186D01*
X0447650Y0142233D01*
X0447650Y0143367D01*
X0447216Y0144414D01*
X0446414Y0145216D01*
X0445367Y0145650D01*
X0444233Y0145650D01*
X0443186Y0145216D01*
X0442384Y0144414D01*
X0441950Y0143367D01*
X0441950Y0142233D01*
X0442384Y0141186D01*
X0441950Y0143150D02*
X0367326Y0143150D01*
X0365371Y0144648D02*
X0442618Y0144648D01*
X0446982Y0144648D02*
X0486150Y0144648D01*
X0486150Y0143150D02*
X0447650Y0143150D01*
X0447409Y0141651D02*
X0486150Y0141651D01*
X0486150Y0140153D02*
X0445856Y0140153D01*
X0437277Y0137156D02*
X0216986Y0137156D01*
X0217650Y0138654D02*
X0486150Y0138654D01*
X0486150Y0146147D02*
X0228444Y0146147D01*
X0228416Y0146214D02*
X0227614Y0147016D01*
X0226567Y0147450D01*
X0225433Y0147450D01*
X0224386Y0147016D01*
X0223584Y0146214D01*
X0223359Y0145671D01*
X0222814Y0146216D01*
X0221767Y0146650D01*
X0220633Y0146650D01*
X0219586Y0146216D01*
X0218784Y0145414D01*
X0218350Y0144367D01*
X0218350Y0143233D01*
X0218784Y0142186D01*
X0219586Y0141384D01*
X0220633Y0140950D01*
X0221767Y0140950D01*
X0222814Y0141384D01*
X0223616Y0142186D01*
X0223841Y0142729D01*
X0224386Y0142184D01*
X0225433Y0141750D01*
X0226567Y0141750D01*
X0227614Y0142184D01*
X0228416Y0142986D01*
X0228850Y0144033D01*
X0228850Y0145167D01*
X0228416Y0146214D01*
X0228850Y0144648D02*
X0345618Y0144648D01*
X0345384Y0144414D02*
X0344950Y0143367D01*
X0344950Y0142233D01*
X0345384Y0141186D01*
X0346186Y0140384D01*
X0347233Y0139950D01*
X0348367Y0139950D01*
X0349414Y0140384D01*
X0350216Y0141186D01*
X0350650Y0142233D01*
X0350650Y0143367D01*
X0350216Y0144414D01*
X0349414Y0145216D01*
X0348367Y0145650D01*
X0347233Y0145650D01*
X0346186Y0145216D01*
X0345384Y0144414D01*
X0344950Y0143150D02*
X0228484Y0143150D01*
X0223082Y0141651D02*
X0345191Y0141651D01*
X0346744Y0140153D02*
X0217407Y0140153D01*
X0215847Y0141651D02*
X0219318Y0141651D01*
X0218385Y0143150D02*
X0199326Y0143150D01*
X0199216Y0143414D02*
X0198414Y0144216D01*
X0197367Y0144650D01*
X0196233Y0144650D01*
X0195186Y0144216D01*
X0194384Y0143414D01*
X0193950Y0142367D01*
X0193950Y0141233D01*
X0194384Y0140186D01*
X0195186Y0139384D01*
X0196233Y0138950D01*
X0197367Y0138950D01*
X0198414Y0139384D01*
X0199216Y0140186D01*
X0199650Y0141233D01*
X0199650Y0142367D01*
X0199216Y0143414D01*
X0199650Y0141651D02*
X0213753Y0141651D01*
X0212193Y0140153D02*
X0199183Y0140153D01*
X0194417Y0140153D02*
X0011450Y0140153D01*
X0011450Y0141651D02*
X0193950Y0141651D01*
X0194274Y0143150D02*
X0011450Y0143150D01*
X0011450Y0144648D02*
X0196229Y0144648D01*
X0197371Y0144648D02*
X0218467Y0144648D01*
X0219516Y0146147D02*
X0090177Y0146147D01*
X0090216Y0146186D02*
X0090650Y0147233D01*
X0090650Y0148367D01*
X0090216Y0149414D01*
X0089414Y0150216D01*
X0088367Y0150650D01*
X0087233Y0150650D01*
X0086186Y0150216D01*
X0085384Y0149414D01*
X0084950Y0148367D01*
X0084950Y0147233D01*
X0085384Y0146186D01*
X0086186Y0145384D01*
X0087233Y0144950D01*
X0088367Y0144950D01*
X0089414Y0145384D01*
X0090216Y0146186D01*
X0090650Y0147645D02*
X0486150Y0147645D01*
X0486150Y0149144D02*
X0090328Y0149144D01*
X0088386Y0150642D02*
X0486150Y0150642D01*
X0486150Y0152141D02*
X0011450Y0152141D01*
X0011450Y0153639D02*
X0486150Y0153639D01*
X0486150Y0155138D02*
X0011450Y0155138D01*
X0011450Y0156636D02*
X0486150Y0156636D01*
X0436950Y0135657D02*
X0323973Y0135657D01*
X0324650Y0134159D02*
X0427128Y0134159D01*
X0430472Y0134159D02*
X0437411Y0134159D01*
X0440233Y0123650D02*
X0439186Y0123216D01*
X0438384Y0122414D01*
X0437950Y0121367D01*
X0437950Y0120233D01*
X0438384Y0119186D01*
X0439186Y0118384D01*
X0440233Y0117950D01*
X0441367Y0117950D01*
X0442414Y0118384D01*
X0443216Y0119186D01*
X0443650Y0120233D01*
X0443650Y0121367D01*
X0443216Y0122414D01*
X0442414Y0123216D01*
X0441367Y0123650D01*
X0440233Y0123650D01*
X0438283Y0122170D02*
X0214899Y0122170D01*
X0216416Y0123669D02*
X0476638Y0123669D01*
X0475950Y0122170D02*
X0443317Y0122170D01*
X0443650Y0120672D02*
X0476182Y0120672D01*
X0477694Y0119173D02*
X0443204Y0119173D01*
X0438396Y0119173D02*
X0274457Y0119173D01*
X0275522Y0117675D02*
X0296644Y0117675D01*
X0295950Y0116176D02*
X0275627Y0116176D01*
X0271143Y0119173D02*
X0079204Y0119173D01*
X0079216Y0119186D02*
X0079650Y0120233D01*
X0079650Y0121367D01*
X0079216Y0122414D01*
X0078414Y0123216D01*
X0077367Y0123650D01*
X0076233Y0123650D01*
X0075186Y0123216D01*
X0074384Y0122414D01*
X0073950Y0121367D01*
X0073950Y0120233D01*
X0074384Y0119186D01*
X0075186Y0118384D01*
X0076233Y0117950D01*
X0077367Y0117950D01*
X0078414Y0118384D01*
X0079216Y0119186D01*
X0079650Y0120672D02*
X0113898Y0120672D01*
X0114186Y0120384D02*
X0115233Y0119950D01*
X0116367Y0119950D01*
X0117414Y0120384D01*
X0118216Y0121186D01*
X0118650Y0122233D01*
X0118650Y0123367D01*
X0118216Y0124414D01*
X0117414Y0125216D01*
X0116367Y0125650D01*
X0115233Y0125650D01*
X0114186Y0125216D01*
X0113384Y0124414D01*
X0112950Y0123367D01*
X0112950Y0122233D01*
X0113384Y0121186D01*
X0114186Y0120384D01*
X0112976Y0122170D02*
X0079317Y0122170D01*
X0074283Y0122170D02*
X0054460Y0122170D01*
X0054414Y0122216D02*
X0053367Y0122650D01*
X0052233Y0122650D01*
X0051186Y0122216D01*
X0050384Y0121414D01*
X0049950Y0120367D01*
X0049950Y0119233D01*
X0050384Y0118186D01*
X0051186Y0117384D01*
X0052233Y0116950D01*
X0053367Y0116950D01*
X0054414Y0117384D01*
X0055216Y0118186D01*
X0055650Y0119233D01*
X0055650Y0120367D01*
X0055216Y0121414D01*
X0054414Y0122216D01*
X0055524Y0120672D02*
X0073950Y0120672D01*
X0074396Y0119173D02*
X0055625Y0119173D01*
X0054705Y0117675D02*
X0148644Y0117675D01*
X0147950Y0116176D02*
X0026914Y0116176D01*
X0027414Y0116384D02*
X0028216Y0117186D01*
X0028650Y0118233D01*
X0028650Y0119367D01*
X0028216Y0120414D01*
X0027414Y0121216D01*
X0026367Y0121650D01*
X0025233Y0121650D01*
X0024186Y0121216D01*
X0023384Y0120414D01*
X0022950Y0119367D01*
X0022950Y0118233D01*
X0023384Y0117186D01*
X0024186Y0116384D01*
X0025233Y0115950D01*
X0026367Y0115950D01*
X0027414Y0116384D01*
X0028419Y0117675D02*
X0050895Y0117675D01*
X0049975Y0119173D02*
X0028650Y0119173D01*
X0027959Y0120672D02*
X0050076Y0120672D01*
X0051140Y0122170D02*
X0011450Y0122170D01*
X0011450Y0120672D02*
X0023641Y0120672D01*
X0022950Y0119173D02*
X0011450Y0119173D01*
X0011450Y0117675D02*
X0023181Y0117675D01*
X0024686Y0116176D02*
X0011450Y0116176D01*
X0011450Y0114678D02*
X0148180Y0114678D01*
X0149679Y0113179D02*
X0011450Y0113179D01*
X0016800Y0115800D02*
X0016800Y0118800D01*
X0011450Y0123669D02*
X0113075Y0123669D01*
X0114137Y0125168D02*
X0011450Y0125168D01*
X0011450Y0126666D02*
X0211636Y0126666D01*
X0210950Y0125168D02*
X0117463Y0125168D01*
X0118525Y0123669D02*
X0211184Y0123669D01*
X0212701Y0122170D02*
X0118624Y0122170D01*
X0117702Y0120672D02*
X0437950Y0120672D01*
X0435800Y0120800D02*
X0435800Y0117800D01*
X0421521Y0114678D02*
X0486150Y0114678D01*
X0486150Y0116176D02*
X0420454Y0116176D01*
X0421628Y0113179D02*
X0486150Y0113179D01*
X0486150Y0111681D02*
X0420711Y0111681D01*
X0409800Y0112800D02*
X0408800Y0111800D01*
X0409800Y0112800D02*
X0409800Y0114800D01*
X0391679Y0113179D02*
X0346210Y0113179D01*
X0346216Y0113186D02*
X0346650Y0114233D01*
X0346650Y0115367D01*
X0346216Y0116414D01*
X0345414Y0117216D01*
X0344367Y0117650D01*
X0343233Y0117650D01*
X0342186Y0117216D01*
X0341384Y0116414D01*
X0340950Y0115367D01*
X0340950Y0114233D01*
X0341384Y0113186D01*
X0342186Y0112384D01*
X0343233Y0111950D01*
X0344367Y0111950D01*
X0345414Y0112384D01*
X0346216Y0113186D01*
X0346650Y0114678D02*
X0390180Y0114678D01*
X0389950Y0116176D02*
X0346315Y0116176D01*
X0341285Y0116176D02*
X0301650Y0116176D01*
X0301420Y0114678D02*
X0340950Y0114678D01*
X0340800Y0113800D02*
X0340800Y0111800D01*
X0341800Y0110800D01*
X0341390Y0113179D02*
X0299921Y0113179D01*
X0300956Y0117675D02*
X0390644Y0117675D01*
X0384800Y0115800D02*
X0384800Y0112800D01*
X0348800Y0110800D02*
X0346800Y0108800D01*
X0342668Y0093699D02*
X0190146Y0093699D01*
X0188288Y0092200D02*
X0341950Y0092200D01*
X0342170Y0090702D02*
X0183030Y0090702D01*
X0183250Y0092200D02*
X0186912Y0092200D01*
X0185054Y0093699D02*
X0182532Y0093699D01*
X0181578Y0089203D02*
X0343173Y0089203D01*
X0325492Y0063729D02*
X0407276Y0063729D01*
X0408339Y0062230D02*
X0326991Y0062230D01*
X0317187Y0063729D02*
X0284759Y0063729D01*
X0284867Y0060650D02*
X0283733Y0060650D01*
X0282686Y0060216D01*
X0281884Y0059414D01*
X0281450Y0058367D01*
X0281450Y0057233D01*
X0281692Y0056650D01*
X0281233Y0056650D01*
X0280186Y0056216D01*
X0279384Y0055414D01*
X0278950Y0054367D01*
X0278950Y0053233D01*
X0279344Y0052282D01*
X0279186Y0052216D01*
X0278384Y0051414D01*
X0277950Y0050367D01*
X0277950Y0049233D01*
X0278384Y0048186D01*
X0279186Y0047384D01*
X0280233Y0046950D01*
X0281367Y0046950D01*
X0282414Y0047384D01*
X0283216Y0048186D01*
X0283650Y0049233D01*
X0283650Y0050367D01*
X0283256Y0051318D01*
X0283414Y0051384D01*
X0284216Y0052186D01*
X0284650Y0053233D01*
X0284650Y0054367D01*
X0284408Y0054950D01*
X0284867Y0054950D01*
X0285914Y0055384D01*
X0286716Y0056186D01*
X0287150Y0057233D01*
X0287150Y0058367D01*
X0286716Y0059414D01*
X0285914Y0060216D01*
X0284867Y0060650D01*
X0286791Y0059233D02*
X0314187Y0059233D01*
X0314150Y0057734D02*
X0287150Y0057734D01*
X0286737Y0056236D02*
X0314169Y0056236D01*
X0314790Y0054737D02*
X0284496Y0054737D01*
X0284650Y0053239D02*
X0315646Y0053239D01*
X0317144Y0051740D02*
X0302890Y0051740D01*
X0302814Y0051816D02*
X0301767Y0052250D01*
X0300633Y0052250D01*
X0299586Y0051816D01*
X0299200Y0051430D01*
X0298814Y0051816D01*
X0297767Y0052250D01*
X0296633Y0052250D01*
X0295586Y0051816D01*
X0294784Y0051014D01*
X0294350Y0049967D01*
X0294350Y0048833D01*
X0294784Y0047786D01*
X0295586Y0046984D01*
X0296633Y0046550D01*
X0297767Y0046550D01*
X0298814Y0046984D01*
X0299200Y0047370D01*
X0299586Y0046984D01*
X0300633Y0046550D01*
X0301767Y0046550D01*
X0302814Y0046984D01*
X0303616Y0047786D01*
X0304050Y0048833D01*
X0304050Y0049967D01*
X0303616Y0051014D01*
X0302814Y0051816D01*
X0303936Y0050242D02*
X0461313Y0050242D01*
X0460480Y0048743D02*
X0304013Y0048743D01*
X0303075Y0047245D02*
X0319892Y0047245D01*
X0322787Y0047245D02*
X0459859Y0047245D01*
X0459451Y0045746D02*
X0325131Y0045746D01*
X0326066Y0044248D02*
X0459451Y0044248D01*
X0459451Y0042749D02*
X0326444Y0042749D01*
X0326422Y0041251D02*
X0459902Y0041251D01*
X0460523Y0039752D02*
X0325801Y0039752D01*
X0324492Y0038254D02*
X0461417Y0038254D01*
X0462812Y0051740D02*
X0325534Y0051740D01*
X0314807Y0060732D02*
X0219442Y0060732D01*
X0219650Y0061233D02*
X0219216Y0060186D01*
X0218414Y0059384D01*
X0217367Y0058950D01*
X0216233Y0058950D01*
X0215186Y0059384D01*
X0214384Y0060186D01*
X0213950Y0061233D01*
X0213950Y0062367D01*
X0214384Y0063414D01*
X0215186Y0064216D01*
X0216233Y0064650D01*
X0217367Y0064650D01*
X0218414Y0064216D01*
X0219216Y0063414D01*
X0219650Y0062367D01*
X0219650Y0061233D01*
X0219650Y0062230D02*
X0315688Y0062230D01*
X0299510Y0051740D02*
X0298890Y0051740D01*
X0295510Y0051740D02*
X0283771Y0051740D01*
X0283650Y0050242D02*
X0294464Y0050242D01*
X0294387Y0048743D02*
X0283447Y0048743D01*
X0282079Y0047245D02*
X0295325Y0047245D01*
X0299075Y0047245D02*
X0299325Y0047245D01*
X0279521Y0047245D02*
X0225475Y0047245D01*
X0225214Y0046984D02*
X0226016Y0047786D01*
X0226450Y0048833D01*
X0226450Y0049967D01*
X0226016Y0051014D01*
X0225214Y0051816D01*
X0224167Y0052250D01*
X0223250Y0052250D01*
X0223250Y0052367D01*
X0222816Y0053414D01*
X0222014Y0054216D01*
X0220967Y0054650D01*
X0219833Y0054650D01*
X0218786Y0054216D01*
X0217984Y0053414D01*
X0217550Y0052367D01*
X0217550Y0051233D01*
X0217984Y0050186D01*
X0218786Y0049384D01*
X0219833Y0048950D01*
X0220750Y0048950D01*
X0220750Y0048833D01*
X0221184Y0047786D01*
X0221986Y0046984D01*
X0223033Y0046550D01*
X0224167Y0046550D01*
X0225214Y0046984D01*
X0226413Y0048743D02*
X0278153Y0048743D01*
X0277950Y0050242D02*
X0226336Y0050242D01*
X0225290Y0051740D02*
X0278710Y0051740D01*
X0278950Y0053239D02*
X0222889Y0053239D01*
X0217911Y0053239D02*
X0172505Y0053239D01*
X0173361Y0054737D02*
X0279104Y0054737D01*
X0280234Y0056236D02*
X0173982Y0056236D01*
X0174002Y0057734D02*
X0281450Y0057734D01*
X0281809Y0059233D02*
X0218050Y0059233D01*
X0215550Y0059233D02*
X0173965Y0059233D01*
X0173344Y0060732D02*
X0214158Y0060732D01*
X0213950Y0062230D02*
X0172463Y0062230D01*
X0170964Y0063729D02*
X0214698Y0063729D01*
X0218902Y0063729D02*
X0280841Y0063729D01*
X0279952Y0065227D02*
X0099458Y0065227D01*
X0100050Y0066726D02*
X0280099Y0066726D01*
X0287804Y0069723D02*
X0268753Y0069723D01*
X0269645Y0071221D02*
X0409950Y0071221D01*
X0409950Y0070733D02*
X0410384Y0069686D01*
X0411186Y0068884D01*
X0412233Y0068450D01*
X0413367Y0068450D01*
X0414414Y0068884D01*
X0415216Y0069686D01*
X0415650Y0070733D01*
X0415650Y0071867D01*
X0415216Y0072914D01*
X0414414Y0073716D01*
X0413367Y0074150D01*
X0412233Y0074150D01*
X0411186Y0073716D01*
X0410384Y0072914D01*
X0409950Y0071867D01*
X0409950Y0070733D01*
X0410369Y0069723D02*
X0292796Y0069723D01*
X0269504Y0072720D02*
X0410303Y0072720D01*
X0415297Y0072720D02*
X0486150Y0072720D01*
X0486150Y0074218D02*
X0268410Y0074218D01*
X0221725Y0047245D02*
X0192675Y0047245D01*
X0193613Y0048743D02*
X0220787Y0048743D01*
X0217961Y0050242D02*
X0193536Y0050242D01*
X0192490Y0051740D02*
X0217550Y0051740D01*
X0246800Y0031800D02*
X0251800Y0031800D01*
X0271800Y0031800D02*
X0276800Y0031800D01*
X0264800Y0112800D02*
X0264800Y0116800D01*
X0290800Y0115800D02*
X0290800Y0113800D01*
X0348856Y0140153D02*
X0362417Y0140153D01*
X0361950Y0141651D02*
X0350409Y0141651D01*
X0350650Y0143150D02*
X0362274Y0143150D01*
X0364229Y0144648D02*
X0349982Y0144648D01*
X0318800Y0151800D02*
X0314800Y0151800D01*
X0315800Y0189800D02*
X0318800Y0189800D01*
X0335800Y0207800D02*
X0336800Y0207800D01*
X0376800Y0205800D02*
X0379800Y0205800D01*
X0404800Y0205800D02*
X0407800Y0205800D01*
X0434800Y0188800D02*
X0438800Y0188800D01*
X0462800Y0206800D02*
X0465800Y0206800D01*
X0469800Y0122800D02*
X0469800Y0118800D01*
X0486150Y0071221D02*
X0415650Y0071221D01*
X0415231Y0069723D02*
X0486150Y0069723D01*
X0289800Y0209800D02*
X0287800Y0209800D01*
X0268800Y0209800D02*
X0268800Y0212800D01*
X0252800Y0234800D02*
X0252800Y0236800D01*
X0242800Y0236800D02*
X0242800Y0234800D01*
X0232800Y0234800D02*
X0232800Y0236800D01*
X0213800Y0236800D02*
X0213800Y0234800D01*
X0199800Y0234800D02*
X0197800Y0234800D01*
X0171800Y0234800D02*
X0171800Y0236800D01*
X0156800Y0234800D02*
X0154800Y0234800D01*
X0143800Y0220800D02*
X0143800Y0216800D01*
X0124800Y0208800D02*
X0124800Y0205800D01*
X0127800Y0234800D02*
X0127800Y0236800D01*
X0112800Y0235800D02*
X0111800Y0235800D01*
X0172800Y0219800D02*
X0172800Y0216800D01*
X0196800Y0188800D02*
X0199800Y0188800D01*
X0231800Y0204800D02*
X0231800Y0207800D01*
X0223556Y0146147D02*
X0222884Y0146147D01*
X0211950Y0138654D02*
X0011450Y0138654D01*
X0011450Y0137156D02*
X0209077Y0137156D01*
X0208750Y0135657D02*
X0011450Y0135657D01*
X0011450Y0134159D02*
X0209211Y0134159D01*
X0190800Y0133800D02*
X0190800Y0131800D01*
X0184800Y0135800D02*
X0182800Y0133800D01*
X0200800Y0120800D02*
X0200800Y0118800D01*
X0199800Y0117800D01*
X0226800Y0119800D02*
X0226800Y0122800D01*
X0170390Y0113179D02*
X0151921Y0113179D01*
X0153420Y0114678D02*
X0169950Y0114678D01*
X0164800Y0114800D02*
X0164800Y0111800D01*
X0142800Y0111800D02*
X0142800Y0115800D01*
X0107800Y0119800D02*
X0107800Y0122800D01*
X0085423Y0146147D02*
X0011450Y0146147D01*
X0011450Y0147645D02*
X0084950Y0147645D01*
X0085272Y0149144D02*
X0011450Y0149144D01*
X0011450Y0150642D02*
X0087214Y0150642D01*
X0077800Y0150800D02*
X0077800Y0152800D01*
X0044800Y0119800D02*
X0041800Y0119800D01*
X0040800Y0118800D01*
X0077800Y0192800D02*
X0080800Y0192800D01*
X0048800Y0217800D02*
X0043800Y0217800D01*
X0017800Y0216800D02*
X0014800Y0216800D01*
D16*
X0011500Y0217190D02*
X0149900Y0217190D01*
X0149900Y0217377D02*
X0149900Y0216223D01*
X0150341Y0215157D01*
X0151157Y0214341D01*
X0152223Y0213900D01*
X0153377Y0213900D01*
X0154443Y0214341D01*
X0155258Y0215157D01*
X0155700Y0216223D01*
X0155700Y0217377D01*
X0155258Y0218443D01*
X0154443Y0219258D01*
X0153377Y0219700D01*
X0152223Y0219700D01*
X0151157Y0219258D01*
X0150341Y0218443D01*
X0149900Y0217377D01*
X0150687Y0218789D02*
X0011500Y0218789D01*
X0011500Y0220387D02*
X0022450Y0220387D01*
X0021193Y0220908D02*
X0024831Y0219401D01*
X0028769Y0219401D01*
X0032407Y0220908D01*
X0035192Y0223693D01*
X0036699Y0227331D01*
X0036699Y0231269D01*
X0035192Y0234907D01*
X0032407Y0237692D01*
X0028769Y0239199D01*
X0024831Y0239199D01*
X0021193Y0237692D01*
X0018408Y0234907D01*
X0016901Y0231269D01*
X0016901Y0227331D01*
X0018408Y0223693D01*
X0021193Y0220908D01*
X0020115Y0221986D02*
X0011500Y0221986D01*
X0011500Y0223584D02*
X0018516Y0223584D01*
X0017791Y0225183D02*
X0011500Y0225183D01*
X0011500Y0226781D02*
X0017128Y0226781D01*
X0016901Y0228380D02*
X0011500Y0228380D01*
X0011500Y0229978D02*
X0016901Y0229978D01*
X0017028Y0231577D02*
X0011500Y0231577D01*
X0011500Y0233175D02*
X0017690Y0233175D01*
X0018352Y0234774D02*
X0011500Y0234774D01*
X0011500Y0236372D02*
X0019873Y0236372D01*
X0021865Y0237971D02*
X0011500Y0237971D01*
X0011500Y0239569D02*
X0299559Y0239569D01*
X0299439Y0239588D02*
X0300269Y0239457D01*
X0300309Y0239457D01*
X0300309Y0244419D01*
X0301071Y0244419D01*
X0301071Y0245181D01*
X0306033Y0245181D01*
X0306033Y0245221D01*
X0305901Y0246051D01*
X0305642Y0246851D01*
X0305260Y0247600D01*
X0304765Y0248281D01*
X0304171Y0248876D01*
X0303490Y0249370D01*
X0302741Y0249752D01*
X0301941Y0250012D01*
X0301110Y0250143D01*
X0301071Y0250143D01*
X0301071Y0245181D01*
X0300309Y0245181D01*
X0300309Y0250143D01*
X0300269Y0250143D01*
X0299439Y0250012D01*
X0298639Y0249752D01*
X0297889Y0249370D01*
X0297209Y0248876D01*
X0296614Y0248281D01*
X0296120Y0247600D01*
X0295738Y0246851D01*
X0295478Y0246051D01*
X0295346Y0245221D01*
X0295346Y0245181D01*
X0300309Y0245181D01*
X0300309Y0244419D01*
X0295346Y0244419D01*
X0295346Y0244379D01*
X0295478Y0243549D01*
X0295738Y0242749D01*
X0296120Y0241999D01*
X0296614Y0241319D01*
X0297209Y0240724D01*
X0297889Y0240230D01*
X0298639Y0239848D01*
X0299439Y0239588D01*
X0300309Y0239569D02*
X0301071Y0239569D01*
X0301071Y0239457D02*
X0301110Y0239457D01*
X0301941Y0239588D01*
X0302741Y0239848D01*
X0303490Y0240230D01*
X0304171Y0240724D01*
X0304765Y0241319D01*
X0305260Y0241999D01*
X0305642Y0242749D01*
X0305901Y0243549D01*
X0306033Y0244379D01*
X0306033Y0244419D01*
X0301071Y0244419D01*
X0301071Y0239457D01*
X0301821Y0239569D02*
X0362171Y0239569D01*
X0362341Y0239157D02*
X0363157Y0238341D01*
X0364223Y0237900D01*
X0365377Y0237900D01*
X0366443Y0238341D01*
X0367258Y0239157D01*
X0367700Y0240223D01*
X0367700Y0241377D01*
X0367258Y0242443D01*
X0366443Y0243258D01*
X0365377Y0243700D01*
X0364223Y0243700D01*
X0363157Y0243258D01*
X0362341Y0242443D01*
X0361900Y0241377D01*
X0361900Y0240223D01*
X0362341Y0239157D01*
X0361900Y0241168D02*
X0304614Y0241168D01*
X0305647Y0242766D02*
X0362665Y0242766D01*
X0366935Y0242766D02*
X0430186Y0242766D01*
X0430550Y0241887D02*
X0431997Y0240440D01*
X0433887Y0239657D01*
X0435933Y0239657D01*
X0437824Y0240440D01*
X0439271Y0241887D01*
X0440054Y0243777D01*
X0440054Y0245823D01*
X0439271Y0247713D01*
X0437824Y0249160D01*
X0435933Y0249943D01*
X0433887Y0249943D01*
X0431997Y0249160D01*
X0303779Y0249160D01*
X0305279Y0247562D02*
X0430487Y0247562D01*
X0430550Y0247713D02*
X0429767Y0245823D01*
X0429767Y0243777D01*
X0430550Y0241887D01*
X0431269Y0241168D02*
X0367700Y0241168D01*
X0367429Y0239569D02*
X0447559Y0239569D01*
X0447439Y0239588D02*
X0448269Y0239457D01*
X0448309Y0239457D01*
X0448309Y0244419D01*
X0449071Y0244419D01*
X0449071Y0245181D01*
X0454033Y0245181D01*
X0454033Y0245221D01*
X0453901Y0246051D01*
X0453642Y0246851D01*
X0453260Y0247600D01*
X0452765Y0248281D01*
X0452171Y0248876D01*
X0451490Y0249370D01*
X0450741Y0249752D01*
X0449941Y0250012D01*
X0449110Y0250143D01*
X0449071Y0250143D01*
X0449071Y0245181D01*
X0448309Y0245181D01*
X0448309Y0250143D01*
X0448269Y0250143D01*
X0447439Y0250012D01*
X0446639Y0249752D01*
X0445889Y0249370D01*
X0445209Y0248876D01*
X0444614Y0248281D01*
X0444120Y0247600D01*
X0443738Y0246851D01*
X0443478Y0246051D01*
X0443346Y0245221D01*
X0443346Y0245181D01*
X0448309Y0245181D01*
X0448309Y0244419D01*
X0443346Y0244419D01*
X0443346Y0244379D01*
X0443478Y0243549D01*
X0443738Y0242749D01*
X0444120Y0241999D01*
X0444614Y0241319D01*
X0445209Y0240724D01*
X0445889Y0240230D01*
X0446639Y0239848D01*
X0447439Y0239588D01*
X0448309Y0239569D02*
X0449071Y0239569D01*
X0449071Y0239457D02*
X0449110Y0239457D01*
X0449941Y0239588D01*
X0450741Y0239848D01*
X0451490Y0240230D01*
X0452171Y0240724D01*
X0452765Y0241319D01*
X0453260Y0241999D01*
X0453642Y0242749D01*
X0453901Y0243549D01*
X0454033Y0244379D01*
X0454033Y0244419D01*
X0449071Y0244419D01*
X0449071Y0239457D01*
X0449821Y0239569D02*
X0486100Y0239569D01*
X0486100Y0237971D02*
X0474235Y0237971D01*
X0474907Y0237692D02*
X0471269Y0239199D01*
X0467331Y0239199D01*
X0463693Y0237692D01*
X0460908Y0234907D01*
X0459401Y0231269D01*
X0459401Y0227331D01*
X0460908Y0223693D01*
X0463693Y0220908D01*
X0467331Y0219401D01*
X0471269Y0219401D01*
X0474907Y0220908D01*
X0477692Y0223693D01*
X0479199Y0227331D01*
X0479199Y0231269D01*
X0477692Y0234907D01*
X0474907Y0237692D01*
X0476227Y0236372D02*
X0486100Y0236372D01*
X0486100Y0234774D02*
X0477748Y0234774D01*
X0478410Y0233175D02*
X0486100Y0233175D01*
X0486100Y0231577D02*
X0479072Y0231577D01*
X0479199Y0229978D02*
X0486100Y0229978D01*
X0486100Y0228380D02*
X0479199Y0228380D01*
X0478971Y0226781D02*
X0486100Y0226781D01*
X0486100Y0225183D02*
X0478309Y0225183D01*
X0477584Y0223584D02*
X0486100Y0223584D01*
X0486100Y0221986D02*
X0475985Y0221986D01*
X0473650Y0220387D02*
X0486100Y0220387D01*
X0486100Y0218789D02*
X0182913Y0218789D01*
X0183258Y0218443D02*
X0182443Y0219258D01*
X0181377Y0219700D01*
X0180223Y0219700D01*
X0179157Y0219258D01*
X0178341Y0218443D01*
X0177900Y0217377D01*
X0177900Y0216223D01*
X0178341Y0215157D01*
X0179157Y0214341D01*
X0180223Y0213900D01*
X0181377Y0213900D01*
X0182443Y0214341D01*
X0183258Y0215157D01*
X0183700Y0216223D01*
X0183700Y0217377D01*
X0183258Y0218443D01*
X0183700Y0217190D02*
X0486100Y0217190D01*
X0486100Y0215592D02*
X0484110Y0215592D01*
X0484258Y0215443D02*
X0483443Y0216258D01*
X0482377Y0216700D01*
X0481223Y0216700D01*
X0480157Y0216258D01*
X0479341Y0215443D01*
X0478900Y0214377D01*
X0478900Y0213223D01*
X0479341Y0212157D01*
X0480157Y0211341D01*
X0481223Y0210900D01*
X0482377Y0210900D01*
X0483443Y0211341D01*
X0484258Y0212157D01*
X0484700Y0213223D01*
X0484700Y0214377D01*
X0484258Y0215443D01*
X0484700Y0213993D02*
X0486100Y0213993D01*
X0486100Y0212395D02*
X0484357Y0212395D01*
X0486100Y0210796D02*
X0310526Y0210796D01*
X0310700Y0210377D02*
X0310258Y0211443D01*
X0309443Y0212258D01*
X0308377Y0212700D01*
X0307223Y0212700D01*
X0306157Y0212258D01*
X0305341Y0211443D01*
X0304900Y0210377D01*
X0304900Y0209223D01*
X0305341Y0208157D01*
X0306157Y0207341D01*
X0307223Y0206900D01*
X0308377Y0206900D01*
X0309443Y0207341D01*
X0310258Y0208157D01*
X0310700Y0209223D01*
X0310700Y0210377D01*
X0310689Y0209198D02*
X0352240Y0209198D01*
X0352341Y0209443D02*
X0351900Y0208377D01*
X0351900Y0207223D01*
X0352341Y0206157D01*
X0353157Y0205341D01*
X0354223Y0204900D01*
X0355377Y0204900D01*
X0356443Y0205341D01*
X0357258Y0206157D01*
X0357700Y0207223D01*
X0357700Y0208377D01*
X0357258Y0209443D01*
X0356443Y0210258D01*
X0355377Y0210700D01*
X0354223Y0210700D01*
X0353157Y0210258D01*
X0352341Y0209443D01*
X0351900Y0207599D02*
X0309700Y0207599D01*
X0305900Y0207599D02*
X0279700Y0207599D01*
X0279443Y0207341D02*
X0280258Y0208157D01*
X0280700Y0209223D01*
X0280700Y0210377D01*
X0280258Y0211443D01*
X0279443Y0212258D01*
X0278377Y0212700D01*
X0277223Y0212700D01*
X0276157Y0212258D01*
X0275341Y0211443D01*
X0274900Y0210377D01*
X0274900Y0209223D01*
X0275341Y0208157D01*
X0276157Y0207341D01*
X0277223Y0206900D01*
X0278377Y0206900D01*
X0279443Y0207341D01*
X0280689Y0209198D02*
X0304911Y0209198D01*
X0305074Y0210796D02*
X0280526Y0210796D01*
X0279114Y0212395D02*
X0306486Y0212395D01*
X0309114Y0212395D02*
X0479243Y0212395D01*
X0478900Y0213993D02*
X0181602Y0213993D01*
X0179998Y0213993D02*
X0153602Y0213993D01*
X0151998Y0213993D02*
X0064708Y0213993D01*
X0064443Y0214258D02*
X0063377Y0214700D01*
X0062223Y0214700D01*
X0061157Y0214258D01*
X0060341Y0213443D01*
X0059900Y0212377D01*
X0059900Y0211223D01*
X0060341Y0210157D01*
X0061157Y0209341D01*
X0062223Y0208900D01*
X0063377Y0208900D01*
X0064443Y0209341D01*
X0065258Y0210157D01*
X0065700Y0211223D01*
X0065700Y0212377D01*
X0065258Y0213443D01*
X0064443Y0214258D01*
X0065693Y0212395D02*
X0276486Y0212395D01*
X0275074Y0210796D02*
X0065523Y0210796D01*
X0064095Y0209198D02*
X0274911Y0209198D01*
X0275900Y0207599D02*
X0240621Y0207599D01*
X0240377Y0207700D02*
X0239223Y0207700D01*
X0238157Y0207258D01*
X0237341Y0206443D01*
X0236900Y0205377D01*
X0236900Y0204223D01*
X0237341Y0203157D01*
X0238157Y0202341D01*
X0239223Y0201900D01*
X0240377Y0201900D01*
X0241443Y0202341D01*
X0242258Y0203157D01*
X0242700Y0204223D01*
X0242700Y0205377D01*
X0242258Y0206443D01*
X0241443Y0207258D01*
X0240377Y0207700D01*
X0238979Y0207599D02*
X0011500Y0207599D01*
X0011500Y0206001D02*
X0237158Y0206001D01*
X0236900Y0204402D02*
X0011500Y0204402D01*
X0011500Y0202803D02*
X0086702Y0202803D01*
X0086341Y0202443D02*
X0087157Y0203258D01*
X0088223Y0203700D01*
X0089377Y0203700D01*
X0090443Y0203258D01*
X0091258Y0202443D01*
X0091700Y0201377D01*
X0091700Y0200223D01*
X0091258Y0199157D01*
X0090443Y0198341D01*
X0089377Y0197900D01*
X0088223Y0197900D01*
X0087157Y0198341D01*
X0086341Y0199157D01*
X0085900Y0200223D01*
X0085900Y0201377D01*
X0086341Y0202443D01*
X0085900Y0201205D02*
X0011500Y0201205D01*
X0011500Y0199606D02*
X0086155Y0199606D01*
X0087962Y0198008D02*
X0011500Y0198008D01*
X0011500Y0196409D02*
X0204900Y0196409D01*
X0204900Y0196223D02*
X0205341Y0195157D01*
X0206157Y0194341D01*
X0207223Y0193900D01*
X0208377Y0193900D01*
X0209443Y0194341D01*
X0210258Y0195157D01*
X0210700Y0196223D01*
X0210700Y0197377D01*
X0210258Y0198443D01*
X0209443Y0199258D01*
X0208377Y0199700D01*
X0207223Y0199700D01*
X0206157Y0199258D01*
X0205341Y0198443D01*
X0204900Y0197377D01*
X0204900Y0196223D01*
X0205688Y0194811D02*
X0139890Y0194811D01*
X0140258Y0194443D02*
X0139443Y0195258D01*
X0138377Y0195700D01*
X0137223Y0195700D01*
X0136157Y0195258D01*
X0135341Y0194443D01*
X0134900Y0193377D01*
X0134900Y0192223D01*
X0135341Y0191157D01*
X0136157Y0190341D01*
X0137223Y0189900D01*
X0138377Y0189900D01*
X0139443Y0190341D01*
X0140258Y0191157D01*
X0140700Y0192223D01*
X0140700Y0193377D01*
X0140258Y0194443D01*
X0140700Y0193212D02*
X0445319Y0193212D01*
X0445341Y0193157D02*
X0446157Y0192341D01*
X0447223Y0191900D01*
X0448377Y0191900D01*
X0449443Y0192341D01*
X0450258Y0193157D01*
X0450700Y0194223D01*
X0450700Y0195377D01*
X0450258Y0196443D01*
X0449443Y0197258D01*
X0448377Y0197700D01*
X0447223Y0197700D01*
X0446157Y0197258D01*
X0445341Y0196443D01*
X0444900Y0195377D01*
X0444900Y0194223D01*
X0445341Y0193157D01*
X0444900Y0194811D02*
X0209912Y0194811D01*
X0210700Y0196409D02*
X0324237Y0196409D01*
X0324341Y0196157D02*
X0325157Y0195341D01*
X0326223Y0194900D01*
X0327377Y0194900D01*
X0328443Y0195341D01*
X0329258Y0196157D01*
X0329700Y0197223D01*
X0329700Y0198377D01*
X0329258Y0199443D01*
X0328443Y0200258D01*
X0327377Y0200700D01*
X0326223Y0200700D01*
X0325157Y0200258D01*
X0324341Y0199443D01*
X0323900Y0198377D01*
X0323900Y0197223D01*
X0324341Y0196157D01*
X0323900Y0198008D02*
X0210439Y0198008D01*
X0208603Y0199606D02*
X0324505Y0199606D01*
X0329095Y0199606D02*
X0340995Y0199606D01*
X0340900Y0199377D02*
X0340900Y0198223D01*
X0341341Y0197157D01*
X0342157Y0196341D01*
X0343223Y0195900D01*
X0344377Y0195900D01*
X0345443Y0196341D01*
X0346258Y0197157D01*
X0346700Y0198223D01*
X0346700Y0199377D01*
X0346258Y0200443D01*
X0345443Y0201258D01*
X0344377Y0201700D01*
X0343223Y0201700D01*
X0342157Y0201258D01*
X0341341Y0200443D01*
X0340900Y0199377D01*
X0340989Y0198008D02*
X0329700Y0198008D01*
X0329363Y0196409D02*
X0342089Y0196409D01*
X0345511Y0196409D02*
X0445328Y0196409D01*
X0450272Y0196409D02*
X0450900Y0196409D01*
X0450900Y0196877D02*
X0450900Y0195723D01*
X0451341Y0194657D01*
X0452157Y0193841D01*
X0453223Y0193400D01*
X0454377Y0193400D01*
X0455443Y0193841D01*
X0456258Y0194657D01*
X0456700Y0195723D01*
X0456700Y0196877D01*
X0456258Y0197943D01*
X0455443Y0198758D01*
X0454377Y0199200D01*
X0453223Y0199200D01*
X0452157Y0198758D01*
X0451341Y0197943D01*
X0450900Y0196877D01*
X0451407Y0198008D02*
X0346611Y0198008D01*
X0346605Y0199606D02*
X0486100Y0199606D01*
X0486100Y0198008D02*
X0456193Y0198008D01*
X0456700Y0196409D02*
X0486100Y0196409D01*
X0486100Y0194811D02*
X0456322Y0194811D01*
X0451278Y0194811D02*
X0450700Y0194811D01*
X0450281Y0193212D02*
X0486100Y0193212D01*
X0486100Y0191614D02*
X0140448Y0191614D01*
X0138655Y0190015D02*
X0486100Y0190015D01*
X0486100Y0188417D02*
X0011500Y0188417D01*
X0011500Y0190015D02*
X0136945Y0190015D01*
X0135152Y0191614D02*
X0011500Y0191614D01*
X0011500Y0193212D02*
X0134900Y0193212D01*
X0135710Y0194811D02*
X0011500Y0194811D01*
X0011500Y0186818D02*
X0486100Y0186818D01*
X0486100Y0186800D02*
X0011500Y0186800D01*
X0011500Y0264100D01*
X0094263Y0264100D01*
X0095337Y0264100D01*
X0096329Y0264511D01*
X0097089Y0265271D01*
X0097500Y0266263D01*
X0097500Y0275100D01*
X0269100Y0275100D01*
X0269100Y0266263D01*
X0269511Y0265271D01*
X0270271Y0264511D01*
X0271263Y0264100D01*
X0486100Y0264100D01*
X0486100Y0186800D01*
X0486100Y0201205D02*
X0345496Y0201205D01*
X0342104Y0201205D02*
X0091700Y0201205D01*
X0091445Y0199606D02*
X0206997Y0199606D01*
X0205161Y0198008D02*
X0089637Y0198008D01*
X0090898Y0202803D02*
X0237695Y0202803D01*
X0241905Y0202803D02*
X0486100Y0202803D01*
X0486100Y0204402D02*
X0419360Y0204402D01*
X0419258Y0204157D02*
X0419700Y0205223D01*
X0419700Y0206377D01*
X0419258Y0207443D01*
X0418443Y0208258D01*
X0417377Y0208700D01*
X0416223Y0208700D01*
X0415157Y0208258D01*
X0414341Y0207443D01*
X0413900Y0206377D01*
X0413900Y0205223D01*
X0414341Y0204157D01*
X0415157Y0203341D01*
X0416223Y0202900D01*
X0417377Y0202900D01*
X0418443Y0203341D01*
X0419258Y0204157D01*
X0419700Y0206001D02*
X0486100Y0206001D01*
X0486100Y0207599D02*
X0419102Y0207599D01*
X0414498Y0207599D02*
X0400102Y0207599D01*
X0400258Y0207443D02*
X0399443Y0208258D01*
X0398377Y0208700D01*
X0397223Y0208700D01*
X0396157Y0208258D01*
X0395341Y0207443D01*
X0394900Y0206377D01*
X0394900Y0205223D01*
X0395341Y0204157D01*
X0396157Y0203341D01*
X0397223Y0202900D01*
X0398377Y0202900D01*
X0399443Y0203341D01*
X0400258Y0204157D01*
X0400700Y0205223D01*
X0400700Y0206377D01*
X0400258Y0207443D01*
X0400700Y0206001D02*
X0413900Y0206001D01*
X0414240Y0204402D02*
X0400360Y0204402D01*
X0395240Y0204402D02*
X0242700Y0204402D01*
X0242442Y0206001D02*
X0352498Y0206001D01*
X0357102Y0206001D02*
X0394900Y0206001D01*
X0395498Y0207599D02*
X0357700Y0207599D01*
X0357360Y0209198D02*
X0486100Y0209198D01*
X0479490Y0215592D02*
X0183438Y0215592D01*
X0178162Y0215592D02*
X0155438Y0215592D01*
X0155700Y0217190D02*
X0177900Y0217190D01*
X0178687Y0218789D02*
X0154913Y0218789D01*
X0150162Y0215592D02*
X0011500Y0215592D01*
X0011500Y0213993D02*
X0030892Y0213993D01*
X0031157Y0214258D02*
X0030341Y0213443D01*
X0029900Y0212377D01*
X0029900Y0211223D01*
X0030341Y0210157D01*
X0031157Y0209341D01*
X0032223Y0208900D01*
X0033377Y0208900D01*
X0034443Y0209341D01*
X0035258Y0210157D01*
X0035700Y0211223D01*
X0035700Y0212377D01*
X0035258Y0213443D01*
X0034443Y0214258D01*
X0033377Y0214700D01*
X0032223Y0214700D01*
X0031157Y0214258D01*
X0029907Y0212395D02*
X0011500Y0212395D01*
X0011500Y0210796D02*
X0030077Y0210796D01*
X0031505Y0209198D02*
X0011500Y0209198D01*
X0034095Y0209198D02*
X0061505Y0209198D01*
X0060077Y0210796D02*
X0035523Y0210796D01*
X0035693Y0212395D02*
X0059907Y0212395D01*
X0060892Y0213993D02*
X0034708Y0213993D01*
X0031150Y0220387D02*
X0216112Y0220387D01*
X0216157Y0220341D02*
X0217223Y0219900D01*
X0218377Y0219900D01*
X0219443Y0220341D01*
X0220258Y0221157D01*
X0220700Y0222223D01*
X0220700Y0223377D01*
X0220258Y0224443D01*
X0219443Y0225258D01*
X0218377Y0225700D01*
X0217223Y0225700D01*
X0216157Y0225258D01*
X0215341Y0224443D01*
X0214900Y0223377D01*
X0214900Y0222223D01*
X0215341Y0221157D01*
X0216157Y0220341D01*
X0214998Y0221986D02*
X0033485Y0221986D01*
X0035084Y0223584D02*
X0214986Y0223584D01*
X0216081Y0225183D02*
X0035809Y0225183D01*
X0036471Y0226781D02*
X0459628Y0226781D01*
X0459401Y0228380D02*
X0036699Y0228380D01*
X0036699Y0229978D02*
X0459401Y0229978D01*
X0459528Y0231577D02*
X0036572Y0231577D01*
X0035910Y0233175D02*
X0120334Y0233175D01*
X0120341Y0233157D02*
X0121157Y0232341D01*
X0122223Y0231900D01*
X0123377Y0231900D01*
X0124443Y0232341D01*
X0125258Y0233157D01*
X0125700Y0234223D01*
X0125700Y0235377D01*
X0125258Y0236443D01*
X0124443Y0237258D01*
X0123377Y0237700D01*
X0122223Y0237700D01*
X0121157Y0237258D01*
X0120341Y0236443D01*
X0119900Y0235377D01*
X0119900Y0234223D01*
X0120341Y0233157D01*
X0119900Y0234774D02*
X0035248Y0234774D01*
X0033727Y0236372D02*
X0120312Y0236372D01*
X0125288Y0236372D02*
X0164312Y0236372D01*
X0164341Y0236443D02*
X0163900Y0235377D01*
X0163900Y0234223D01*
X0164341Y0233157D01*
X0165157Y0232341D01*
X0166223Y0231900D01*
X0167377Y0231900D01*
X0168443Y0232341D01*
X0169258Y0233157D01*
X0169700Y0234223D01*
X0169700Y0235377D01*
X0169258Y0236443D01*
X0168443Y0237258D01*
X0167377Y0237700D01*
X0166223Y0237700D01*
X0165157Y0237258D01*
X0164341Y0236443D01*
X0163900Y0234774D02*
X0125700Y0234774D01*
X0125266Y0233175D02*
X0164334Y0233175D01*
X0169266Y0233175D02*
X0206334Y0233175D01*
X0206341Y0233157D02*
X0207157Y0232341D01*
X0208223Y0231900D01*
X0209377Y0231900D01*
X0210443Y0232341D01*
X0211258Y0233157D01*
X0211700Y0234223D01*
X0211700Y0235377D01*
X0211258Y0236443D01*
X0210443Y0237258D01*
X0209377Y0237700D01*
X0208223Y0237700D01*
X0207157Y0237258D01*
X0206341Y0236443D01*
X0205900Y0235377D01*
X0205900Y0234223D01*
X0206341Y0233157D01*
X0205900Y0234774D02*
X0169700Y0234774D01*
X0169288Y0236372D02*
X0206312Y0236372D01*
X0211288Y0236372D02*
X0245312Y0236372D01*
X0245341Y0236443D02*
X0244900Y0235377D01*
X0244900Y0234223D01*
X0245341Y0233157D01*
X0246157Y0232341D01*
X0247223Y0231900D01*
X0248377Y0231900D01*
X0249443Y0232341D01*
X0250258Y0233157D01*
X0250700Y0234223D01*
X0250700Y0235377D01*
X0250258Y0236443D01*
X0249443Y0237258D01*
X0248377Y0237700D01*
X0247223Y0237700D01*
X0246157Y0237258D01*
X0245341Y0236443D01*
X0244900Y0234774D02*
X0211700Y0234774D01*
X0211266Y0233175D02*
X0245334Y0233175D01*
X0250266Y0233175D02*
X0460190Y0233175D01*
X0460852Y0234774D02*
X0250700Y0234774D01*
X0250288Y0236372D02*
X0462373Y0236372D01*
X0464365Y0237971D02*
X0365548Y0237971D01*
X0364052Y0237971D02*
X0031735Y0237971D01*
X0011500Y0241168D02*
X0283269Y0241168D01*
X0282550Y0241887D02*
X0283997Y0240440D01*
X0285887Y0239657D01*
X0287933Y0239657D01*
X0289824Y0240440D01*
X0291271Y0241887D01*
X0292054Y0243777D01*
X0292054Y0245823D01*
X0291271Y0247713D01*
X0289824Y0249160D01*
X0287933Y0249943D01*
X0285887Y0249943D01*
X0283997Y0249160D01*
X0011500Y0249160D01*
X0011500Y0247562D02*
X0282487Y0247562D01*
X0282550Y0247713D02*
X0281767Y0245823D01*
X0281767Y0243777D01*
X0282550Y0241887D01*
X0282186Y0242766D02*
X0011500Y0242766D01*
X0011500Y0244365D02*
X0281767Y0244365D01*
X0281825Y0245963D02*
X0011500Y0245963D01*
X0011500Y0250759D02*
X0486100Y0250759D01*
X0486100Y0252357D02*
X0011500Y0252357D01*
X0011500Y0253956D02*
X0486100Y0253956D01*
X0486100Y0255554D02*
X0011500Y0255554D01*
X0011500Y0257153D02*
X0486100Y0257153D01*
X0486100Y0258751D02*
X0011500Y0258751D01*
X0011500Y0260350D02*
X0486100Y0260350D01*
X0486100Y0261948D02*
X0011500Y0261948D01*
X0011500Y0263547D02*
X0486100Y0263547D01*
X0486100Y0249160D02*
X0451779Y0249160D01*
X0453279Y0247562D02*
X0486100Y0247562D01*
X0486100Y0245963D02*
X0453915Y0245963D01*
X0454031Y0244365D02*
X0486100Y0244365D01*
X0486100Y0242766D02*
X0453647Y0242766D01*
X0452614Y0241168D02*
X0486100Y0241168D01*
X0460291Y0225183D02*
X0219519Y0225183D01*
X0220614Y0223584D02*
X0451483Y0223584D01*
X0451341Y0223443D02*
X0450900Y0222377D01*
X0450900Y0221223D01*
X0451341Y0220157D01*
X0452157Y0219341D01*
X0453223Y0218900D01*
X0454377Y0218900D01*
X0455443Y0219341D01*
X0456258Y0220157D01*
X0456700Y0221223D01*
X0456700Y0222377D01*
X0456258Y0223443D01*
X0455443Y0224258D01*
X0454377Y0224700D01*
X0453223Y0224700D01*
X0452157Y0224258D01*
X0451341Y0223443D01*
X0450900Y0221986D02*
X0220602Y0221986D01*
X0219488Y0220387D02*
X0451246Y0220387D01*
X0456354Y0220387D02*
X0464950Y0220387D01*
X0462615Y0221986D02*
X0456700Y0221986D01*
X0456117Y0223584D02*
X0461016Y0223584D01*
X0449071Y0241168D02*
X0448309Y0241168D01*
X0448309Y0242766D02*
X0449071Y0242766D01*
X0449071Y0244365D02*
X0448309Y0244365D01*
X0448309Y0245963D02*
X0449071Y0245963D01*
X0449071Y0247562D02*
X0448309Y0247562D01*
X0448309Y0249160D02*
X0449071Y0249160D01*
X0445601Y0249160D02*
X0437824Y0249160D01*
X0439333Y0247562D02*
X0444100Y0247562D01*
X0443464Y0245963D02*
X0439995Y0245963D01*
X0440054Y0244365D02*
X0443349Y0244365D01*
X0443732Y0242766D02*
X0439635Y0242766D01*
X0438552Y0241168D02*
X0444765Y0241168D01*
X0431997Y0249160D02*
X0430550Y0247713D01*
X0429825Y0245963D02*
X0305915Y0245963D01*
X0306031Y0244365D02*
X0429767Y0244365D01*
X0311800Y0244800D02*
X0311800Y0240800D01*
X0301071Y0241168D02*
X0300309Y0241168D01*
X0300309Y0242766D02*
X0301071Y0242766D01*
X0301071Y0244365D02*
X0300309Y0244365D01*
X0300309Y0245963D02*
X0301071Y0245963D01*
X0301071Y0247562D02*
X0300309Y0247562D01*
X0300309Y0249160D02*
X0301071Y0249160D01*
X0297601Y0249160D02*
X0289824Y0249160D01*
X0291333Y0247562D02*
X0296100Y0247562D01*
X0295464Y0245963D02*
X0291995Y0245963D01*
X0292054Y0244365D02*
X0295349Y0244365D01*
X0295732Y0242766D02*
X0291635Y0242766D01*
X0290552Y0241168D02*
X0296765Y0241168D01*
X0283997Y0249160D02*
X0282550Y0247713D01*
X0269636Y0265145D02*
X0096964Y0265145D01*
X0097500Y0266744D02*
X0269100Y0266744D01*
X0269100Y0268342D02*
X0097500Y0268342D01*
X0097500Y0269941D02*
X0269100Y0269941D01*
X0269100Y0271539D02*
X0097500Y0271539D01*
X0097500Y0273138D02*
X0269100Y0273138D01*
X0269100Y0274737D02*
X0097500Y0274737D01*
X0182800Y0030800D02*
X0186800Y0030800D01*
X0186800Y0031800D01*
X0214800Y0030800D02*
X0221800Y0030800D01*
X0221800Y0031800D01*
X0277800Y0029800D02*
X0286800Y0029800D01*
X0286800Y0031800D01*
D17*
X0413800Y0249800D03*
D18*
X0417800Y0249800D01*
M02*
