G75*
%MOIN*%
%OFA0B0*%
%FSLAX25Y25*%
%IPPOS*%
%LPD*%
%AMOC8*
5,1,8,0,0,1.08239X$1,22.5*
%
%ADD10C,0.00600*%
%ADD11C,0.00800*%
%ADD12C,0.00500*%
%ADD13C,0.00300*%
%ADD14C,0.00984*%
%ADD15C,0.00100*%
%ADD16C,0.00000*%
%ADD17C,0.00400*%
D10*
X0039100Y0033600D02*
X0041235Y0033600D01*
X0040168Y0033600D02*
X0040168Y0040005D01*
X0041235Y0040005D02*
X0039100Y0040005D01*
X0043397Y0036803D02*
X0044465Y0037870D01*
X0047667Y0037870D01*
X0046600Y0035735D02*
X0044465Y0035735D01*
X0043397Y0036803D01*
X0043397Y0033600D02*
X0046600Y0033600D01*
X0047667Y0034668D01*
X0046600Y0035735D01*
X0049842Y0036803D02*
X0049842Y0034668D01*
X0050910Y0033600D01*
X0053045Y0033600D01*
X0054113Y0034668D01*
X0054113Y0036803D01*
X0053045Y0037870D01*
X0050910Y0037870D01*
X0049842Y0036803D01*
X0056288Y0040005D02*
X0057356Y0040005D01*
X0057356Y0033600D01*
X0058423Y0033600D02*
X0056288Y0033600D01*
X0060585Y0034668D02*
X0061653Y0035735D01*
X0064855Y0035735D01*
X0064855Y0036803D02*
X0064855Y0033600D01*
X0061653Y0033600D01*
X0060585Y0034668D01*
X0061653Y0037870D02*
X0063788Y0037870D01*
X0064855Y0036803D01*
X0067030Y0037870D02*
X0069166Y0037870D01*
X0068098Y0038938D02*
X0068098Y0034668D01*
X0069166Y0033600D01*
X0071327Y0033600D02*
X0073463Y0033600D01*
X0072395Y0033600D02*
X0072395Y0037870D01*
X0071327Y0037870D01*
X0072395Y0040005D02*
X0072395Y0041073D01*
X0075624Y0036803D02*
X0075624Y0034668D01*
X0076692Y0033600D01*
X0078827Y0033600D01*
X0079895Y0034668D01*
X0079895Y0036803D01*
X0078827Y0037870D01*
X0076692Y0037870D01*
X0075624Y0036803D01*
X0082070Y0037870D02*
X0082070Y0033600D01*
X0086340Y0033600D02*
X0086340Y0036803D01*
X0085273Y0037870D01*
X0082070Y0037870D01*
X0094961Y0036803D02*
X0098164Y0036803D01*
X0099231Y0035735D01*
X0099231Y0034668D01*
X0098164Y0033600D01*
X0094961Y0033600D01*
X0094961Y0040005D01*
X0098164Y0040005D01*
X0099231Y0038938D01*
X0099231Y0037870D01*
X0098164Y0036803D01*
X0101406Y0036803D02*
X0101406Y0034668D01*
X0102474Y0033600D01*
X0104609Y0033600D01*
X0105677Y0034668D01*
X0105677Y0036803D01*
X0104609Y0037870D01*
X0102474Y0037870D01*
X0101406Y0036803D01*
X0107852Y0034668D02*
X0108920Y0035735D01*
X0112122Y0035735D01*
X0112122Y0036803D02*
X0112122Y0033600D01*
X0108920Y0033600D01*
X0107852Y0034668D01*
X0108920Y0037870D02*
X0111055Y0037870D01*
X0112122Y0036803D01*
X0114297Y0037870D02*
X0114297Y0033600D01*
X0114297Y0035735D02*
X0116433Y0037870D01*
X0117500Y0037870D01*
X0119669Y0036803D02*
X0119669Y0034668D01*
X0120736Y0033600D01*
X0123939Y0033600D01*
X0123939Y0040005D01*
X0123939Y0037870D02*
X0120736Y0037870D01*
X0119669Y0036803D01*
X0141100Y0084100D02*
X0145370Y0090505D01*
X0141100Y0090505D02*
X0145370Y0084100D01*
X0266100Y0088438D02*
X0268235Y0086303D01*
X0268235Y0083100D01*
X0268235Y0086303D02*
X0270370Y0088438D01*
X0270370Y0089505D01*
X0266100Y0089505D02*
X0266100Y0088438D01*
X0382100Y0088505D02*
X0386370Y0088505D01*
X0386370Y0087438D01*
X0382100Y0083168D01*
X0382100Y0082100D01*
X0386370Y0082100D01*
X0423100Y0039005D02*
X0426303Y0039005D01*
X0427370Y0037938D01*
X0427370Y0035803D01*
X0426303Y0034735D01*
X0423100Y0034735D01*
X0423100Y0032600D02*
X0423100Y0039005D01*
X0425235Y0034735D02*
X0427370Y0032600D01*
X0429545Y0032600D02*
X0433816Y0032600D01*
X0435991Y0034735D02*
X0438126Y0032600D01*
X0440261Y0034735D01*
X0440261Y0039005D01*
X0442436Y0039005D02*
X0445639Y0039005D01*
X0446707Y0037938D01*
X0446707Y0036870D01*
X0445639Y0035803D01*
X0442436Y0035803D01*
X0442436Y0039005D02*
X0442436Y0032600D01*
X0445639Y0032600D01*
X0446707Y0033668D01*
X0446707Y0034735D01*
X0445639Y0035803D01*
X0448882Y0037938D02*
X0449950Y0039005D01*
X0452085Y0039005D01*
X0453152Y0037938D01*
X0453152Y0036870D01*
X0448882Y0032600D01*
X0453152Y0032600D01*
X0435991Y0034735D02*
X0435991Y0039005D01*
X0433816Y0039005D02*
X0429545Y0039005D01*
X0429545Y0032600D01*
X0429545Y0035803D02*
X0431681Y0035803D01*
X0474095Y0069100D02*
X0474095Y0073370D01*
X0474095Y0071235D02*
X0480500Y0071235D01*
X0480500Y0075545D02*
X0474095Y0075545D01*
X0480500Y0079816D01*
X0474095Y0079816D01*
X0474095Y0081991D02*
X0480500Y0081991D01*
X0480500Y0086261D01*
X0480500Y0088436D02*
X0474095Y0088436D01*
X0474095Y0086261D02*
X0474095Y0081991D01*
X0477297Y0081991D02*
X0477297Y0084126D01*
X0480500Y0088436D02*
X0480500Y0092707D01*
X0455580Y0234170D02*
X0428020Y0234170D01*
X0428020Y0259761D01*
X0431446Y0259761D01*
X0431446Y0255135D01*
X0438335Y0255135D01*
X0438335Y0259761D01*
X0445265Y0259761D01*
X0445265Y0255135D01*
X0452154Y0255135D01*
X0452154Y0259761D01*
X0455580Y0259761D01*
X0455580Y0234170D01*
X0452154Y0259761D02*
X0445265Y0259761D01*
X0438335Y0259761D02*
X0431446Y0259761D01*
X0307580Y0259761D02*
X0307580Y0234170D01*
X0280020Y0234170D01*
X0280020Y0259761D01*
X0283446Y0259761D01*
X0283446Y0255135D01*
X0290335Y0255135D01*
X0290335Y0259761D01*
X0297265Y0259761D01*
X0297265Y0255135D01*
X0304154Y0255135D01*
X0304154Y0259761D01*
X0307580Y0259761D01*
X0304154Y0259761D02*
X0297265Y0259761D01*
X0290335Y0259761D02*
X0283446Y0259761D01*
X0228370Y0268100D02*
X0224100Y0268100D01*
X0224100Y0269168D01*
X0228370Y0273438D01*
X0228370Y0274505D01*
X0224100Y0274505D01*
X0188370Y0274505D02*
X0188370Y0273438D01*
X0186235Y0271303D01*
X0186235Y0268100D01*
X0186235Y0271303D02*
X0184100Y0273438D01*
X0184100Y0274505D01*
X0147370Y0274505D02*
X0143100Y0268100D01*
X0147370Y0268100D02*
X0143100Y0274505D01*
X0106370Y0274505D02*
X0106370Y0268100D01*
X0104235Y0270235D01*
X0102100Y0268100D01*
X0102100Y0274505D01*
X0017370Y0088505D02*
X0017370Y0082100D01*
X0015235Y0084235D01*
X0013100Y0082100D01*
X0013100Y0088505D01*
D11*
X0008800Y0026800D02*
X0008800Y0266800D01*
X0094800Y0266800D01*
X0094800Y0277800D01*
X0271800Y0277800D01*
X0271800Y0266800D01*
X0488800Y0266800D01*
X0488800Y0026800D01*
X0008800Y0026800D01*
X0059202Y0107335D02*
X0059202Y0124265D01*
X0084398Y0124265D01*
X0084398Y0107335D01*
X0059202Y0107335D01*
X0080461Y0120918D02*
X0080463Y0120989D01*
X0080469Y0121060D01*
X0080479Y0121131D01*
X0080493Y0121200D01*
X0080510Y0121269D01*
X0080532Y0121337D01*
X0080557Y0121404D01*
X0080586Y0121469D01*
X0080618Y0121532D01*
X0080654Y0121594D01*
X0080693Y0121653D01*
X0080736Y0121710D01*
X0080781Y0121765D01*
X0080830Y0121817D01*
X0080881Y0121866D01*
X0080935Y0121912D01*
X0080992Y0121956D01*
X0081050Y0121996D01*
X0081111Y0122032D01*
X0081174Y0122066D01*
X0081239Y0122095D01*
X0081305Y0122121D01*
X0081373Y0122144D01*
X0081441Y0122162D01*
X0081511Y0122177D01*
X0081581Y0122188D01*
X0081652Y0122195D01*
X0081723Y0122198D01*
X0081794Y0122197D01*
X0081865Y0122192D01*
X0081936Y0122183D01*
X0082006Y0122170D01*
X0082075Y0122154D01*
X0082143Y0122133D01*
X0082210Y0122109D01*
X0082276Y0122081D01*
X0082339Y0122049D01*
X0082401Y0122014D01*
X0082461Y0121976D01*
X0082519Y0121934D01*
X0082574Y0121890D01*
X0082627Y0121842D01*
X0082677Y0121791D01*
X0082724Y0121738D01*
X0082768Y0121682D01*
X0082809Y0121624D01*
X0082847Y0121563D01*
X0082881Y0121501D01*
X0082911Y0121436D01*
X0082938Y0121371D01*
X0082962Y0121303D01*
X0082981Y0121235D01*
X0082997Y0121166D01*
X0083009Y0121095D01*
X0083017Y0121025D01*
X0083021Y0120954D01*
X0083021Y0120882D01*
X0083017Y0120811D01*
X0083009Y0120741D01*
X0082997Y0120670D01*
X0082981Y0120601D01*
X0082962Y0120533D01*
X0082938Y0120465D01*
X0082911Y0120400D01*
X0082881Y0120335D01*
X0082847Y0120273D01*
X0082809Y0120212D01*
X0082768Y0120154D01*
X0082724Y0120098D01*
X0082677Y0120045D01*
X0082627Y0119994D01*
X0082574Y0119946D01*
X0082519Y0119902D01*
X0082461Y0119860D01*
X0082401Y0119822D01*
X0082339Y0119787D01*
X0082276Y0119755D01*
X0082210Y0119727D01*
X0082143Y0119703D01*
X0082075Y0119682D01*
X0082006Y0119666D01*
X0081936Y0119653D01*
X0081865Y0119644D01*
X0081794Y0119639D01*
X0081723Y0119638D01*
X0081652Y0119641D01*
X0081581Y0119648D01*
X0081511Y0119659D01*
X0081441Y0119674D01*
X0081373Y0119692D01*
X0081305Y0119715D01*
X0081239Y0119741D01*
X0081174Y0119770D01*
X0081111Y0119804D01*
X0081050Y0119840D01*
X0080992Y0119880D01*
X0080935Y0119924D01*
X0080881Y0119970D01*
X0080830Y0120019D01*
X0080781Y0120071D01*
X0080736Y0120126D01*
X0080693Y0120183D01*
X0080654Y0120242D01*
X0080618Y0120304D01*
X0080586Y0120367D01*
X0080557Y0120432D01*
X0080532Y0120499D01*
X0080510Y0120567D01*
X0080493Y0120636D01*
X0080479Y0120705D01*
X0080469Y0120776D01*
X0080463Y0120847D01*
X0080461Y0120918D01*
X0057036Y0156233D02*
X0057036Y0181725D01*
X0016564Y0181725D01*
X0016564Y0185367D01*
X0016564Y0181725D02*
X0016564Y0156233D01*
X0057036Y0181725D02*
X0057036Y0185367D01*
X0081564Y0184725D02*
X0081564Y0188367D01*
X0081564Y0184725D02*
X0081564Y0159233D01*
X0081564Y0184725D02*
X0122036Y0184725D01*
X0122036Y0159233D01*
X0141564Y0156233D02*
X0141564Y0181725D01*
X0141564Y0185367D01*
X0141564Y0181725D02*
X0182036Y0181725D01*
X0182036Y0156233D01*
X0200564Y0155233D02*
X0200564Y0180725D01*
X0200564Y0184367D01*
X0200564Y0180725D02*
X0241036Y0180725D01*
X0241036Y0155233D01*
X0261564Y0156233D02*
X0261564Y0181725D01*
X0261564Y0185367D01*
X0261564Y0181725D02*
X0302036Y0181725D01*
X0302036Y0156233D01*
X0319564Y0156233D02*
X0319564Y0181725D01*
X0319564Y0185367D01*
X0319564Y0181725D02*
X0360036Y0181725D01*
X0360036Y0156233D01*
X0381564Y0151233D02*
X0381564Y0176725D01*
X0381564Y0180367D01*
X0381564Y0176725D02*
X0422036Y0176725D01*
X0422036Y0151233D01*
X0440564Y0154233D02*
X0440564Y0179725D01*
X0440564Y0183367D01*
X0440564Y0179725D02*
X0481036Y0179725D01*
X0481036Y0154233D01*
X0481036Y0179725D02*
X0481036Y0183367D01*
X0422036Y0180367D02*
X0422036Y0176725D01*
X0360036Y0181725D02*
X0360036Y0185367D01*
X0302036Y0185367D02*
X0302036Y0181725D01*
X0241036Y0180725D02*
X0241036Y0184367D01*
X0182036Y0185367D02*
X0182036Y0181725D01*
X0122036Y0184725D02*
X0122036Y0188367D01*
X0131398Y0232335D02*
X0106202Y0232335D01*
X0106202Y0249265D01*
X0131398Y0249265D01*
X0131398Y0232335D01*
X0127461Y0245918D02*
X0127463Y0245989D01*
X0127469Y0246060D01*
X0127479Y0246131D01*
X0127493Y0246200D01*
X0127510Y0246269D01*
X0127532Y0246337D01*
X0127557Y0246404D01*
X0127586Y0246469D01*
X0127618Y0246532D01*
X0127654Y0246594D01*
X0127693Y0246653D01*
X0127736Y0246710D01*
X0127781Y0246765D01*
X0127830Y0246817D01*
X0127881Y0246866D01*
X0127935Y0246912D01*
X0127992Y0246956D01*
X0128050Y0246996D01*
X0128111Y0247032D01*
X0128174Y0247066D01*
X0128239Y0247095D01*
X0128305Y0247121D01*
X0128373Y0247144D01*
X0128441Y0247162D01*
X0128511Y0247177D01*
X0128581Y0247188D01*
X0128652Y0247195D01*
X0128723Y0247198D01*
X0128794Y0247197D01*
X0128865Y0247192D01*
X0128936Y0247183D01*
X0129006Y0247170D01*
X0129075Y0247154D01*
X0129143Y0247133D01*
X0129210Y0247109D01*
X0129276Y0247081D01*
X0129339Y0247049D01*
X0129401Y0247014D01*
X0129461Y0246976D01*
X0129519Y0246934D01*
X0129574Y0246890D01*
X0129627Y0246842D01*
X0129677Y0246791D01*
X0129724Y0246738D01*
X0129768Y0246682D01*
X0129809Y0246624D01*
X0129847Y0246563D01*
X0129881Y0246501D01*
X0129911Y0246436D01*
X0129938Y0246371D01*
X0129962Y0246303D01*
X0129981Y0246235D01*
X0129997Y0246166D01*
X0130009Y0246095D01*
X0130017Y0246025D01*
X0130021Y0245954D01*
X0130021Y0245882D01*
X0130017Y0245811D01*
X0130009Y0245741D01*
X0129997Y0245670D01*
X0129981Y0245601D01*
X0129962Y0245533D01*
X0129938Y0245465D01*
X0129911Y0245400D01*
X0129881Y0245335D01*
X0129847Y0245273D01*
X0129809Y0245212D01*
X0129768Y0245154D01*
X0129724Y0245098D01*
X0129677Y0245045D01*
X0129627Y0244994D01*
X0129574Y0244946D01*
X0129519Y0244902D01*
X0129461Y0244860D01*
X0129401Y0244822D01*
X0129339Y0244787D01*
X0129276Y0244755D01*
X0129210Y0244727D01*
X0129143Y0244703D01*
X0129075Y0244682D01*
X0129006Y0244666D01*
X0128936Y0244653D01*
X0128865Y0244644D01*
X0128794Y0244639D01*
X0128723Y0244638D01*
X0128652Y0244641D01*
X0128581Y0244648D01*
X0128511Y0244659D01*
X0128441Y0244674D01*
X0128373Y0244692D01*
X0128305Y0244715D01*
X0128239Y0244741D01*
X0128174Y0244770D01*
X0128111Y0244804D01*
X0128050Y0244840D01*
X0127992Y0244880D01*
X0127935Y0244924D01*
X0127881Y0244970D01*
X0127830Y0245019D01*
X0127781Y0245071D01*
X0127736Y0245126D01*
X0127693Y0245183D01*
X0127654Y0245242D01*
X0127618Y0245304D01*
X0127586Y0245367D01*
X0127557Y0245432D01*
X0127532Y0245499D01*
X0127510Y0245567D01*
X0127493Y0245636D01*
X0127479Y0245705D01*
X0127469Y0245776D01*
X0127463Y0245847D01*
X0127461Y0245918D01*
X0150202Y0249265D02*
X0150202Y0232335D01*
X0175398Y0232335D01*
X0175398Y0249265D01*
X0150202Y0249265D01*
X0171461Y0245918D02*
X0171463Y0245989D01*
X0171469Y0246060D01*
X0171479Y0246131D01*
X0171493Y0246200D01*
X0171510Y0246269D01*
X0171532Y0246337D01*
X0171557Y0246404D01*
X0171586Y0246469D01*
X0171618Y0246532D01*
X0171654Y0246594D01*
X0171693Y0246653D01*
X0171736Y0246710D01*
X0171781Y0246765D01*
X0171830Y0246817D01*
X0171881Y0246866D01*
X0171935Y0246912D01*
X0171992Y0246956D01*
X0172050Y0246996D01*
X0172111Y0247032D01*
X0172174Y0247066D01*
X0172239Y0247095D01*
X0172305Y0247121D01*
X0172373Y0247144D01*
X0172441Y0247162D01*
X0172511Y0247177D01*
X0172581Y0247188D01*
X0172652Y0247195D01*
X0172723Y0247198D01*
X0172794Y0247197D01*
X0172865Y0247192D01*
X0172936Y0247183D01*
X0173006Y0247170D01*
X0173075Y0247154D01*
X0173143Y0247133D01*
X0173210Y0247109D01*
X0173276Y0247081D01*
X0173339Y0247049D01*
X0173401Y0247014D01*
X0173461Y0246976D01*
X0173519Y0246934D01*
X0173574Y0246890D01*
X0173627Y0246842D01*
X0173677Y0246791D01*
X0173724Y0246738D01*
X0173768Y0246682D01*
X0173809Y0246624D01*
X0173847Y0246563D01*
X0173881Y0246501D01*
X0173911Y0246436D01*
X0173938Y0246371D01*
X0173962Y0246303D01*
X0173981Y0246235D01*
X0173997Y0246166D01*
X0174009Y0246095D01*
X0174017Y0246025D01*
X0174021Y0245954D01*
X0174021Y0245882D01*
X0174017Y0245811D01*
X0174009Y0245741D01*
X0173997Y0245670D01*
X0173981Y0245601D01*
X0173962Y0245533D01*
X0173938Y0245465D01*
X0173911Y0245400D01*
X0173881Y0245335D01*
X0173847Y0245273D01*
X0173809Y0245212D01*
X0173768Y0245154D01*
X0173724Y0245098D01*
X0173677Y0245045D01*
X0173627Y0244994D01*
X0173574Y0244946D01*
X0173519Y0244902D01*
X0173461Y0244860D01*
X0173401Y0244822D01*
X0173339Y0244787D01*
X0173276Y0244755D01*
X0173210Y0244727D01*
X0173143Y0244703D01*
X0173075Y0244682D01*
X0173006Y0244666D01*
X0172936Y0244653D01*
X0172865Y0244644D01*
X0172794Y0244639D01*
X0172723Y0244638D01*
X0172652Y0244641D01*
X0172581Y0244648D01*
X0172511Y0244659D01*
X0172441Y0244674D01*
X0172373Y0244692D01*
X0172305Y0244715D01*
X0172239Y0244741D01*
X0172174Y0244770D01*
X0172111Y0244804D01*
X0172050Y0244840D01*
X0171992Y0244880D01*
X0171935Y0244924D01*
X0171881Y0244970D01*
X0171830Y0245019D01*
X0171781Y0245071D01*
X0171736Y0245126D01*
X0171693Y0245183D01*
X0171654Y0245242D01*
X0171618Y0245304D01*
X0171586Y0245367D01*
X0171557Y0245432D01*
X0171532Y0245499D01*
X0171510Y0245567D01*
X0171493Y0245636D01*
X0171479Y0245705D01*
X0171469Y0245776D01*
X0171463Y0245847D01*
X0171461Y0245918D01*
X0192202Y0249265D02*
X0192202Y0232335D01*
X0217398Y0232335D01*
X0217398Y0249265D01*
X0192202Y0249265D01*
X0213461Y0245918D02*
X0213463Y0245989D01*
X0213469Y0246060D01*
X0213479Y0246131D01*
X0213493Y0246200D01*
X0213510Y0246269D01*
X0213532Y0246337D01*
X0213557Y0246404D01*
X0213586Y0246469D01*
X0213618Y0246532D01*
X0213654Y0246594D01*
X0213693Y0246653D01*
X0213736Y0246710D01*
X0213781Y0246765D01*
X0213830Y0246817D01*
X0213881Y0246866D01*
X0213935Y0246912D01*
X0213992Y0246956D01*
X0214050Y0246996D01*
X0214111Y0247032D01*
X0214174Y0247066D01*
X0214239Y0247095D01*
X0214305Y0247121D01*
X0214373Y0247144D01*
X0214441Y0247162D01*
X0214511Y0247177D01*
X0214581Y0247188D01*
X0214652Y0247195D01*
X0214723Y0247198D01*
X0214794Y0247197D01*
X0214865Y0247192D01*
X0214936Y0247183D01*
X0215006Y0247170D01*
X0215075Y0247154D01*
X0215143Y0247133D01*
X0215210Y0247109D01*
X0215276Y0247081D01*
X0215339Y0247049D01*
X0215401Y0247014D01*
X0215461Y0246976D01*
X0215519Y0246934D01*
X0215574Y0246890D01*
X0215627Y0246842D01*
X0215677Y0246791D01*
X0215724Y0246738D01*
X0215768Y0246682D01*
X0215809Y0246624D01*
X0215847Y0246563D01*
X0215881Y0246501D01*
X0215911Y0246436D01*
X0215938Y0246371D01*
X0215962Y0246303D01*
X0215981Y0246235D01*
X0215997Y0246166D01*
X0216009Y0246095D01*
X0216017Y0246025D01*
X0216021Y0245954D01*
X0216021Y0245882D01*
X0216017Y0245811D01*
X0216009Y0245741D01*
X0215997Y0245670D01*
X0215981Y0245601D01*
X0215962Y0245533D01*
X0215938Y0245465D01*
X0215911Y0245400D01*
X0215881Y0245335D01*
X0215847Y0245273D01*
X0215809Y0245212D01*
X0215768Y0245154D01*
X0215724Y0245098D01*
X0215677Y0245045D01*
X0215627Y0244994D01*
X0215574Y0244946D01*
X0215519Y0244902D01*
X0215461Y0244860D01*
X0215401Y0244822D01*
X0215339Y0244787D01*
X0215276Y0244755D01*
X0215210Y0244727D01*
X0215143Y0244703D01*
X0215075Y0244682D01*
X0215006Y0244666D01*
X0214936Y0244653D01*
X0214865Y0244644D01*
X0214794Y0244639D01*
X0214723Y0244638D01*
X0214652Y0244641D01*
X0214581Y0244648D01*
X0214511Y0244659D01*
X0214441Y0244674D01*
X0214373Y0244692D01*
X0214305Y0244715D01*
X0214239Y0244741D01*
X0214174Y0244770D01*
X0214111Y0244804D01*
X0214050Y0244840D01*
X0213992Y0244880D01*
X0213935Y0244924D01*
X0213881Y0244970D01*
X0213830Y0245019D01*
X0213781Y0245071D01*
X0213736Y0245126D01*
X0213693Y0245183D01*
X0213654Y0245242D01*
X0213618Y0245304D01*
X0213586Y0245367D01*
X0213557Y0245432D01*
X0213532Y0245499D01*
X0213510Y0245567D01*
X0213493Y0245636D01*
X0213479Y0245705D01*
X0213469Y0245776D01*
X0213463Y0245847D01*
X0213461Y0245918D01*
X0231202Y0249265D02*
X0231202Y0232335D01*
X0256398Y0232335D01*
X0256398Y0249265D01*
X0231202Y0249265D01*
X0252461Y0245918D02*
X0252463Y0245989D01*
X0252469Y0246060D01*
X0252479Y0246131D01*
X0252493Y0246200D01*
X0252510Y0246269D01*
X0252532Y0246337D01*
X0252557Y0246404D01*
X0252586Y0246469D01*
X0252618Y0246532D01*
X0252654Y0246594D01*
X0252693Y0246653D01*
X0252736Y0246710D01*
X0252781Y0246765D01*
X0252830Y0246817D01*
X0252881Y0246866D01*
X0252935Y0246912D01*
X0252992Y0246956D01*
X0253050Y0246996D01*
X0253111Y0247032D01*
X0253174Y0247066D01*
X0253239Y0247095D01*
X0253305Y0247121D01*
X0253373Y0247144D01*
X0253441Y0247162D01*
X0253511Y0247177D01*
X0253581Y0247188D01*
X0253652Y0247195D01*
X0253723Y0247198D01*
X0253794Y0247197D01*
X0253865Y0247192D01*
X0253936Y0247183D01*
X0254006Y0247170D01*
X0254075Y0247154D01*
X0254143Y0247133D01*
X0254210Y0247109D01*
X0254276Y0247081D01*
X0254339Y0247049D01*
X0254401Y0247014D01*
X0254461Y0246976D01*
X0254519Y0246934D01*
X0254574Y0246890D01*
X0254627Y0246842D01*
X0254677Y0246791D01*
X0254724Y0246738D01*
X0254768Y0246682D01*
X0254809Y0246624D01*
X0254847Y0246563D01*
X0254881Y0246501D01*
X0254911Y0246436D01*
X0254938Y0246371D01*
X0254962Y0246303D01*
X0254981Y0246235D01*
X0254997Y0246166D01*
X0255009Y0246095D01*
X0255017Y0246025D01*
X0255021Y0245954D01*
X0255021Y0245882D01*
X0255017Y0245811D01*
X0255009Y0245741D01*
X0254997Y0245670D01*
X0254981Y0245601D01*
X0254962Y0245533D01*
X0254938Y0245465D01*
X0254911Y0245400D01*
X0254881Y0245335D01*
X0254847Y0245273D01*
X0254809Y0245212D01*
X0254768Y0245154D01*
X0254724Y0245098D01*
X0254677Y0245045D01*
X0254627Y0244994D01*
X0254574Y0244946D01*
X0254519Y0244902D01*
X0254461Y0244860D01*
X0254401Y0244822D01*
X0254339Y0244787D01*
X0254276Y0244755D01*
X0254210Y0244727D01*
X0254143Y0244703D01*
X0254075Y0244682D01*
X0254006Y0244666D01*
X0253936Y0244653D01*
X0253865Y0244644D01*
X0253794Y0244639D01*
X0253723Y0244638D01*
X0253652Y0244641D01*
X0253581Y0244648D01*
X0253511Y0244659D01*
X0253441Y0244674D01*
X0253373Y0244692D01*
X0253305Y0244715D01*
X0253239Y0244741D01*
X0253174Y0244770D01*
X0253111Y0244804D01*
X0253050Y0244840D01*
X0252992Y0244880D01*
X0252935Y0244924D01*
X0252881Y0244970D01*
X0252830Y0245019D01*
X0252781Y0245071D01*
X0252736Y0245126D01*
X0252693Y0245183D01*
X0252654Y0245242D01*
X0252618Y0245304D01*
X0252586Y0245367D01*
X0252557Y0245432D01*
X0252532Y0245499D01*
X0252510Y0245567D01*
X0252493Y0245636D01*
X0252479Y0245705D01*
X0252469Y0245776D01*
X0252463Y0245847D01*
X0252461Y0245918D01*
X0383300Y0236900D02*
X0383300Y0262700D01*
X0396300Y0262700D01*
X0396300Y0236900D01*
X0383300Y0236900D01*
X0424202Y0124265D02*
X0449398Y0124265D01*
X0449398Y0107335D01*
X0424202Y0107335D01*
X0424202Y0124265D01*
X0445461Y0120918D02*
X0445463Y0120989D01*
X0445469Y0121060D01*
X0445479Y0121131D01*
X0445493Y0121200D01*
X0445510Y0121269D01*
X0445532Y0121337D01*
X0445557Y0121404D01*
X0445586Y0121469D01*
X0445618Y0121532D01*
X0445654Y0121594D01*
X0445693Y0121653D01*
X0445736Y0121710D01*
X0445781Y0121765D01*
X0445830Y0121817D01*
X0445881Y0121866D01*
X0445935Y0121912D01*
X0445992Y0121956D01*
X0446050Y0121996D01*
X0446111Y0122032D01*
X0446174Y0122066D01*
X0446239Y0122095D01*
X0446305Y0122121D01*
X0446373Y0122144D01*
X0446441Y0122162D01*
X0446511Y0122177D01*
X0446581Y0122188D01*
X0446652Y0122195D01*
X0446723Y0122198D01*
X0446794Y0122197D01*
X0446865Y0122192D01*
X0446936Y0122183D01*
X0447006Y0122170D01*
X0447075Y0122154D01*
X0447143Y0122133D01*
X0447210Y0122109D01*
X0447276Y0122081D01*
X0447339Y0122049D01*
X0447401Y0122014D01*
X0447461Y0121976D01*
X0447519Y0121934D01*
X0447574Y0121890D01*
X0447627Y0121842D01*
X0447677Y0121791D01*
X0447724Y0121738D01*
X0447768Y0121682D01*
X0447809Y0121624D01*
X0447847Y0121563D01*
X0447881Y0121501D01*
X0447911Y0121436D01*
X0447938Y0121371D01*
X0447962Y0121303D01*
X0447981Y0121235D01*
X0447997Y0121166D01*
X0448009Y0121095D01*
X0448017Y0121025D01*
X0448021Y0120954D01*
X0448021Y0120882D01*
X0448017Y0120811D01*
X0448009Y0120741D01*
X0447997Y0120670D01*
X0447981Y0120601D01*
X0447962Y0120533D01*
X0447938Y0120465D01*
X0447911Y0120400D01*
X0447881Y0120335D01*
X0447847Y0120273D01*
X0447809Y0120212D01*
X0447768Y0120154D01*
X0447724Y0120098D01*
X0447677Y0120045D01*
X0447627Y0119994D01*
X0447574Y0119946D01*
X0447519Y0119902D01*
X0447461Y0119860D01*
X0447401Y0119822D01*
X0447339Y0119787D01*
X0447276Y0119755D01*
X0447210Y0119727D01*
X0447143Y0119703D01*
X0447075Y0119682D01*
X0447006Y0119666D01*
X0446936Y0119653D01*
X0446865Y0119644D01*
X0446794Y0119639D01*
X0446723Y0119638D01*
X0446652Y0119641D01*
X0446581Y0119648D01*
X0446511Y0119659D01*
X0446441Y0119674D01*
X0446373Y0119692D01*
X0446305Y0119715D01*
X0446239Y0119741D01*
X0446174Y0119770D01*
X0446111Y0119804D01*
X0446050Y0119840D01*
X0445992Y0119880D01*
X0445935Y0119924D01*
X0445881Y0119970D01*
X0445830Y0120019D01*
X0445781Y0120071D01*
X0445736Y0120126D01*
X0445693Y0120183D01*
X0445654Y0120242D01*
X0445618Y0120304D01*
X0445586Y0120367D01*
X0445557Y0120432D01*
X0445532Y0120499D01*
X0445510Y0120567D01*
X0445493Y0120636D01*
X0445479Y0120705D01*
X0445469Y0120776D01*
X0445463Y0120847D01*
X0445461Y0120918D01*
X0354398Y0117265D02*
X0354398Y0100335D01*
X0329202Y0100335D01*
X0329202Y0117265D01*
X0354398Y0117265D01*
X0350461Y0113918D02*
X0350463Y0113989D01*
X0350469Y0114060D01*
X0350479Y0114131D01*
X0350493Y0114200D01*
X0350510Y0114269D01*
X0350532Y0114337D01*
X0350557Y0114404D01*
X0350586Y0114469D01*
X0350618Y0114532D01*
X0350654Y0114594D01*
X0350693Y0114653D01*
X0350736Y0114710D01*
X0350781Y0114765D01*
X0350830Y0114817D01*
X0350881Y0114866D01*
X0350935Y0114912D01*
X0350992Y0114956D01*
X0351050Y0114996D01*
X0351111Y0115032D01*
X0351174Y0115066D01*
X0351239Y0115095D01*
X0351305Y0115121D01*
X0351373Y0115144D01*
X0351441Y0115162D01*
X0351511Y0115177D01*
X0351581Y0115188D01*
X0351652Y0115195D01*
X0351723Y0115198D01*
X0351794Y0115197D01*
X0351865Y0115192D01*
X0351936Y0115183D01*
X0352006Y0115170D01*
X0352075Y0115154D01*
X0352143Y0115133D01*
X0352210Y0115109D01*
X0352276Y0115081D01*
X0352339Y0115049D01*
X0352401Y0115014D01*
X0352461Y0114976D01*
X0352519Y0114934D01*
X0352574Y0114890D01*
X0352627Y0114842D01*
X0352677Y0114791D01*
X0352724Y0114738D01*
X0352768Y0114682D01*
X0352809Y0114624D01*
X0352847Y0114563D01*
X0352881Y0114501D01*
X0352911Y0114436D01*
X0352938Y0114371D01*
X0352962Y0114303D01*
X0352981Y0114235D01*
X0352997Y0114166D01*
X0353009Y0114095D01*
X0353017Y0114025D01*
X0353021Y0113954D01*
X0353021Y0113882D01*
X0353017Y0113811D01*
X0353009Y0113741D01*
X0352997Y0113670D01*
X0352981Y0113601D01*
X0352962Y0113533D01*
X0352938Y0113465D01*
X0352911Y0113400D01*
X0352881Y0113335D01*
X0352847Y0113273D01*
X0352809Y0113212D01*
X0352768Y0113154D01*
X0352724Y0113098D01*
X0352677Y0113045D01*
X0352627Y0112994D01*
X0352574Y0112946D01*
X0352519Y0112902D01*
X0352461Y0112860D01*
X0352401Y0112822D01*
X0352339Y0112787D01*
X0352276Y0112755D01*
X0352210Y0112727D01*
X0352143Y0112703D01*
X0352075Y0112682D01*
X0352006Y0112666D01*
X0351936Y0112653D01*
X0351865Y0112644D01*
X0351794Y0112639D01*
X0351723Y0112638D01*
X0351652Y0112641D01*
X0351581Y0112648D01*
X0351511Y0112659D01*
X0351441Y0112674D01*
X0351373Y0112692D01*
X0351305Y0112715D01*
X0351239Y0112741D01*
X0351174Y0112770D01*
X0351111Y0112804D01*
X0351050Y0112840D01*
X0350992Y0112880D01*
X0350935Y0112924D01*
X0350881Y0112970D01*
X0350830Y0113019D01*
X0350781Y0113071D01*
X0350736Y0113126D01*
X0350693Y0113183D01*
X0350654Y0113242D01*
X0350618Y0113304D01*
X0350586Y0113367D01*
X0350557Y0113432D01*
X0350532Y0113499D01*
X0350510Y0113567D01*
X0350493Y0113636D01*
X0350479Y0113705D01*
X0350469Y0113776D01*
X0350463Y0113847D01*
X0350461Y0113918D01*
X0204398Y0107335D02*
X0204398Y0124265D01*
X0179202Y0124265D01*
X0179202Y0107335D01*
X0204398Y0107335D01*
X0200461Y0120918D02*
X0200463Y0120989D01*
X0200469Y0121060D01*
X0200479Y0121131D01*
X0200493Y0121200D01*
X0200510Y0121269D01*
X0200532Y0121337D01*
X0200557Y0121404D01*
X0200586Y0121469D01*
X0200618Y0121532D01*
X0200654Y0121594D01*
X0200693Y0121653D01*
X0200736Y0121710D01*
X0200781Y0121765D01*
X0200830Y0121817D01*
X0200881Y0121866D01*
X0200935Y0121912D01*
X0200992Y0121956D01*
X0201050Y0121996D01*
X0201111Y0122032D01*
X0201174Y0122066D01*
X0201239Y0122095D01*
X0201305Y0122121D01*
X0201373Y0122144D01*
X0201441Y0122162D01*
X0201511Y0122177D01*
X0201581Y0122188D01*
X0201652Y0122195D01*
X0201723Y0122198D01*
X0201794Y0122197D01*
X0201865Y0122192D01*
X0201936Y0122183D01*
X0202006Y0122170D01*
X0202075Y0122154D01*
X0202143Y0122133D01*
X0202210Y0122109D01*
X0202276Y0122081D01*
X0202339Y0122049D01*
X0202401Y0122014D01*
X0202461Y0121976D01*
X0202519Y0121934D01*
X0202574Y0121890D01*
X0202627Y0121842D01*
X0202677Y0121791D01*
X0202724Y0121738D01*
X0202768Y0121682D01*
X0202809Y0121624D01*
X0202847Y0121563D01*
X0202881Y0121501D01*
X0202911Y0121436D01*
X0202938Y0121371D01*
X0202962Y0121303D01*
X0202981Y0121235D01*
X0202997Y0121166D01*
X0203009Y0121095D01*
X0203017Y0121025D01*
X0203021Y0120954D01*
X0203021Y0120882D01*
X0203017Y0120811D01*
X0203009Y0120741D01*
X0202997Y0120670D01*
X0202981Y0120601D01*
X0202962Y0120533D01*
X0202938Y0120465D01*
X0202911Y0120400D01*
X0202881Y0120335D01*
X0202847Y0120273D01*
X0202809Y0120212D01*
X0202768Y0120154D01*
X0202724Y0120098D01*
X0202677Y0120045D01*
X0202627Y0119994D01*
X0202574Y0119946D01*
X0202519Y0119902D01*
X0202461Y0119860D01*
X0202401Y0119822D01*
X0202339Y0119787D01*
X0202276Y0119755D01*
X0202210Y0119727D01*
X0202143Y0119703D01*
X0202075Y0119682D01*
X0202006Y0119666D01*
X0201936Y0119653D01*
X0201865Y0119644D01*
X0201794Y0119639D01*
X0201723Y0119638D01*
X0201652Y0119641D01*
X0201581Y0119648D01*
X0201511Y0119659D01*
X0201441Y0119674D01*
X0201373Y0119692D01*
X0201305Y0119715D01*
X0201239Y0119741D01*
X0201174Y0119770D01*
X0201111Y0119804D01*
X0201050Y0119840D01*
X0200992Y0119880D01*
X0200935Y0119924D01*
X0200881Y0119970D01*
X0200830Y0120019D01*
X0200781Y0120071D01*
X0200736Y0120126D01*
X0200693Y0120183D01*
X0200654Y0120242D01*
X0200618Y0120304D01*
X0200586Y0120367D01*
X0200557Y0120432D01*
X0200532Y0120499D01*
X0200510Y0120567D01*
X0200493Y0120636D01*
X0200479Y0120705D01*
X0200469Y0120776D01*
X0200463Y0120847D01*
X0200461Y0120918D01*
D12*
X0175800Y0118800D02*
X0175800Y0126800D01*
X0161800Y0126800D01*
X0161800Y0118800D01*
X0175800Y0118800D01*
X0175800Y0133800D02*
X0161800Y0133800D01*
X0161800Y0141800D01*
X0175800Y0141800D01*
X0175800Y0133800D01*
X0153800Y0133800D02*
X0139800Y0133800D01*
X0139800Y0141800D01*
X0153800Y0141800D01*
X0153800Y0133800D01*
X0153800Y0126800D02*
X0139800Y0126800D01*
X0139800Y0118800D01*
X0153800Y0118800D01*
X0153800Y0126800D01*
X0118800Y0126800D02*
X0118800Y0134800D01*
X0104800Y0134800D01*
X0104800Y0126800D01*
X0118800Y0126800D01*
X0055800Y0130800D02*
X0055800Y0122800D01*
X0041800Y0122800D01*
X0041800Y0130800D01*
X0055800Y0130800D01*
X0055800Y0134800D02*
X0055800Y0142800D01*
X0041800Y0142800D01*
X0041800Y0134800D01*
X0055800Y0134800D01*
X0028800Y0134800D02*
X0014800Y0134800D01*
X0014800Y0142800D01*
X0028800Y0142800D01*
X0028800Y0134800D01*
X0028800Y0129800D02*
X0028800Y0121800D01*
X0014800Y0121800D01*
X0014800Y0129800D01*
X0028800Y0129800D01*
X0029800Y0195800D02*
X0015800Y0195800D01*
X0015800Y0203800D01*
X0029800Y0203800D01*
X0029800Y0195800D01*
X0029800Y0206800D02*
X0015800Y0206800D01*
X0015800Y0214800D01*
X0029800Y0214800D01*
X0029800Y0206800D01*
X0045800Y0207800D02*
X0045800Y0215800D01*
X0059800Y0215800D01*
X0059800Y0207800D01*
X0045800Y0207800D01*
X0045800Y0204800D02*
X0045800Y0196800D01*
X0059800Y0196800D01*
X0059800Y0204800D01*
X0045800Y0204800D01*
X0016800Y0229300D02*
X0016803Y0229545D01*
X0016812Y0229791D01*
X0016827Y0230036D01*
X0016848Y0230280D01*
X0016875Y0230524D01*
X0016908Y0230767D01*
X0016947Y0231010D01*
X0016992Y0231251D01*
X0017043Y0231491D01*
X0017100Y0231730D01*
X0017162Y0231967D01*
X0017231Y0232203D01*
X0017305Y0232437D01*
X0017385Y0232669D01*
X0017470Y0232899D01*
X0017561Y0233127D01*
X0017658Y0233352D01*
X0017760Y0233576D01*
X0017868Y0233796D01*
X0017981Y0234014D01*
X0018099Y0234229D01*
X0018223Y0234441D01*
X0018351Y0234650D01*
X0018485Y0234856D01*
X0018624Y0235058D01*
X0018768Y0235257D01*
X0018917Y0235452D01*
X0019070Y0235644D01*
X0019228Y0235832D01*
X0019390Y0236016D01*
X0019558Y0236195D01*
X0019729Y0236371D01*
X0019905Y0236542D01*
X0020084Y0236710D01*
X0020268Y0236872D01*
X0020456Y0237030D01*
X0020648Y0237183D01*
X0020843Y0237332D01*
X0021042Y0237476D01*
X0021244Y0237615D01*
X0021450Y0237749D01*
X0021659Y0237877D01*
X0021871Y0238001D01*
X0022086Y0238119D01*
X0022304Y0238232D01*
X0022524Y0238340D01*
X0022748Y0238442D01*
X0022973Y0238539D01*
X0023201Y0238630D01*
X0023431Y0238715D01*
X0023663Y0238795D01*
X0023897Y0238869D01*
X0024133Y0238938D01*
X0024370Y0239000D01*
X0024609Y0239057D01*
X0024849Y0239108D01*
X0025090Y0239153D01*
X0025333Y0239192D01*
X0025576Y0239225D01*
X0025820Y0239252D01*
X0026064Y0239273D01*
X0026309Y0239288D01*
X0026555Y0239297D01*
X0026800Y0239300D01*
X0027045Y0239297D01*
X0027291Y0239288D01*
X0027536Y0239273D01*
X0027780Y0239252D01*
X0028024Y0239225D01*
X0028267Y0239192D01*
X0028510Y0239153D01*
X0028751Y0239108D01*
X0028991Y0239057D01*
X0029230Y0239000D01*
X0029467Y0238938D01*
X0029703Y0238869D01*
X0029937Y0238795D01*
X0030169Y0238715D01*
X0030399Y0238630D01*
X0030627Y0238539D01*
X0030852Y0238442D01*
X0031076Y0238340D01*
X0031296Y0238232D01*
X0031514Y0238119D01*
X0031729Y0238001D01*
X0031941Y0237877D01*
X0032150Y0237749D01*
X0032356Y0237615D01*
X0032558Y0237476D01*
X0032757Y0237332D01*
X0032952Y0237183D01*
X0033144Y0237030D01*
X0033332Y0236872D01*
X0033516Y0236710D01*
X0033695Y0236542D01*
X0033871Y0236371D01*
X0034042Y0236195D01*
X0034210Y0236016D01*
X0034372Y0235832D01*
X0034530Y0235644D01*
X0034683Y0235452D01*
X0034832Y0235257D01*
X0034976Y0235058D01*
X0035115Y0234856D01*
X0035249Y0234650D01*
X0035377Y0234441D01*
X0035501Y0234229D01*
X0035619Y0234014D01*
X0035732Y0233796D01*
X0035840Y0233576D01*
X0035942Y0233352D01*
X0036039Y0233127D01*
X0036130Y0232899D01*
X0036215Y0232669D01*
X0036295Y0232437D01*
X0036369Y0232203D01*
X0036438Y0231967D01*
X0036500Y0231730D01*
X0036557Y0231491D01*
X0036608Y0231251D01*
X0036653Y0231010D01*
X0036692Y0230767D01*
X0036725Y0230524D01*
X0036752Y0230280D01*
X0036773Y0230036D01*
X0036788Y0229791D01*
X0036797Y0229545D01*
X0036800Y0229300D01*
X0036797Y0229055D01*
X0036788Y0228809D01*
X0036773Y0228564D01*
X0036752Y0228320D01*
X0036725Y0228076D01*
X0036692Y0227833D01*
X0036653Y0227590D01*
X0036608Y0227349D01*
X0036557Y0227109D01*
X0036500Y0226870D01*
X0036438Y0226633D01*
X0036369Y0226397D01*
X0036295Y0226163D01*
X0036215Y0225931D01*
X0036130Y0225701D01*
X0036039Y0225473D01*
X0035942Y0225248D01*
X0035840Y0225024D01*
X0035732Y0224804D01*
X0035619Y0224586D01*
X0035501Y0224371D01*
X0035377Y0224159D01*
X0035249Y0223950D01*
X0035115Y0223744D01*
X0034976Y0223542D01*
X0034832Y0223343D01*
X0034683Y0223148D01*
X0034530Y0222956D01*
X0034372Y0222768D01*
X0034210Y0222584D01*
X0034042Y0222405D01*
X0033871Y0222229D01*
X0033695Y0222058D01*
X0033516Y0221890D01*
X0033332Y0221728D01*
X0033144Y0221570D01*
X0032952Y0221417D01*
X0032757Y0221268D01*
X0032558Y0221124D01*
X0032356Y0220985D01*
X0032150Y0220851D01*
X0031941Y0220723D01*
X0031729Y0220599D01*
X0031514Y0220481D01*
X0031296Y0220368D01*
X0031076Y0220260D01*
X0030852Y0220158D01*
X0030627Y0220061D01*
X0030399Y0219970D01*
X0030169Y0219885D01*
X0029937Y0219805D01*
X0029703Y0219731D01*
X0029467Y0219662D01*
X0029230Y0219600D01*
X0028991Y0219543D01*
X0028751Y0219492D01*
X0028510Y0219447D01*
X0028267Y0219408D01*
X0028024Y0219375D01*
X0027780Y0219348D01*
X0027536Y0219327D01*
X0027291Y0219312D01*
X0027045Y0219303D01*
X0026800Y0219300D01*
X0026555Y0219303D01*
X0026309Y0219312D01*
X0026064Y0219327D01*
X0025820Y0219348D01*
X0025576Y0219375D01*
X0025333Y0219408D01*
X0025090Y0219447D01*
X0024849Y0219492D01*
X0024609Y0219543D01*
X0024370Y0219600D01*
X0024133Y0219662D01*
X0023897Y0219731D01*
X0023663Y0219805D01*
X0023431Y0219885D01*
X0023201Y0219970D01*
X0022973Y0220061D01*
X0022748Y0220158D01*
X0022524Y0220260D01*
X0022304Y0220368D01*
X0022086Y0220481D01*
X0021871Y0220599D01*
X0021659Y0220723D01*
X0021450Y0220851D01*
X0021244Y0220985D01*
X0021042Y0221124D01*
X0020843Y0221268D01*
X0020648Y0221417D01*
X0020456Y0221570D01*
X0020268Y0221728D01*
X0020084Y0221890D01*
X0019905Y0222058D01*
X0019729Y0222229D01*
X0019558Y0222405D01*
X0019390Y0222584D01*
X0019228Y0222768D01*
X0019070Y0222956D01*
X0018917Y0223148D01*
X0018768Y0223343D01*
X0018624Y0223542D01*
X0018485Y0223744D01*
X0018351Y0223950D01*
X0018223Y0224159D01*
X0018099Y0224371D01*
X0017981Y0224586D01*
X0017868Y0224804D01*
X0017760Y0225024D01*
X0017658Y0225248D01*
X0017561Y0225473D01*
X0017470Y0225701D01*
X0017385Y0225931D01*
X0017305Y0226163D01*
X0017231Y0226397D01*
X0017162Y0226633D01*
X0017100Y0226870D01*
X0017043Y0227109D01*
X0016992Y0227349D01*
X0016947Y0227590D01*
X0016908Y0227833D01*
X0016875Y0228076D01*
X0016848Y0228320D01*
X0016827Y0228564D01*
X0016812Y0228809D01*
X0016803Y0229055D01*
X0016800Y0229300D01*
X0113105Y0267500D02*
X0115605Y0267500D01*
X0118105Y0267500D01*
X0120605Y0267500D01*
X0120605Y0267050D01*
X0120605Y0267500D02*
X0123105Y0267500D01*
X0123105Y0267050D01*
X0123105Y0267500D02*
X0125605Y0267500D01*
X0125605Y0267050D01*
X0125605Y0267500D02*
X0128105Y0267500D01*
X0130605Y0267500D01*
X0130605Y0277500D01*
X0113105Y0277500D01*
X0113105Y0284500D01*
X0130605Y0284500D01*
X0130605Y0277500D01*
X0128105Y0267500D02*
X0128105Y0267050D01*
X0118105Y0267050D02*
X0118105Y0267500D01*
X0115605Y0267500D02*
X0115605Y0267050D01*
X0113105Y0267500D02*
X0113105Y0277500D01*
X0153105Y0277500D02*
X0153105Y0267500D01*
X0155605Y0267500D01*
X0158105Y0267500D01*
X0160605Y0267500D01*
X0160605Y0267050D01*
X0160605Y0267500D02*
X0163105Y0267500D01*
X0163105Y0267050D01*
X0163105Y0267500D02*
X0165605Y0267500D01*
X0165605Y0267050D01*
X0165605Y0267500D02*
X0168105Y0267500D01*
X0170605Y0267500D01*
X0170605Y0277500D01*
X0153105Y0277500D01*
X0153105Y0284500D01*
X0170605Y0284500D01*
X0170605Y0277500D01*
X0168105Y0267500D02*
X0168105Y0267050D01*
X0158105Y0267050D02*
X0158105Y0267500D01*
X0155605Y0267500D02*
X0155605Y0267050D01*
X0193105Y0267500D02*
X0195605Y0267500D01*
X0198105Y0267500D01*
X0200605Y0267500D01*
X0200605Y0267050D01*
X0200605Y0267500D02*
X0203105Y0267500D01*
X0203105Y0267050D01*
X0203105Y0267500D02*
X0205605Y0267500D01*
X0205605Y0267050D01*
X0205605Y0267500D02*
X0208105Y0267500D01*
X0210605Y0267500D01*
X0210605Y0277500D01*
X0193105Y0277500D01*
X0193105Y0284500D01*
X0210605Y0284500D01*
X0210605Y0277500D01*
X0208105Y0267500D02*
X0208105Y0267050D01*
X0198105Y0267050D02*
X0198105Y0267500D01*
X0195605Y0267500D02*
X0195605Y0267050D01*
X0193105Y0267500D02*
X0193105Y0277500D01*
X0233105Y0277500D02*
X0233105Y0267500D01*
X0235605Y0267500D01*
X0238105Y0267500D01*
X0240605Y0267500D01*
X0240605Y0267050D01*
X0240605Y0267500D02*
X0243105Y0267500D01*
X0243105Y0267050D01*
X0243105Y0267500D02*
X0245605Y0267500D01*
X0245605Y0267050D01*
X0245605Y0267500D02*
X0248105Y0267500D01*
X0250605Y0267500D01*
X0250605Y0277500D01*
X0233105Y0277500D01*
X0233105Y0284500D01*
X0250605Y0284500D01*
X0250605Y0277500D01*
X0248105Y0267500D02*
X0248105Y0267050D01*
X0238105Y0267050D02*
X0238105Y0267500D01*
X0235605Y0267500D02*
X0235605Y0267050D01*
X0276283Y0266011D02*
X0276283Y0263759D01*
X0277784Y0264509D01*
X0278535Y0264509D01*
X0279285Y0263759D01*
X0279285Y0262257D01*
X0278535Y0261507D01*
X0277033Y0261507D01*
X0276283Y0262257D01*
X0276283Y0266011D02*
X0279285Y0266011D01*
X0283189Y0265260D02*
X0283939Y0266011D01*
X0285440Y0266011D01*
X0286191Y0265260D01*
X0283189Y0262257D01*
X0283939Y0261507D01*
X0285440Y0261507D01*
X0286191Y0262257D01*
X0286191Y0265260D01*
X0287792Y0266011D02*
X0287792Y0263008D01*
X0289294Y0261507D01*
X0290795Y0263008D01*
X0290795Y0266011D01*
X0295809Y0265260D02*
X0295809Y0262257D01*
X0296560Y0261507D01*
X0298061Y0261507D01*
X0298812Y0262257D01*
X0298812Y0263759D01*
X0297310Y0263759D01*
X0295809Y0265260D02*
X0296560Y0266011D01*
X0298061Y0266011D01*
X0298812Y0265260D01*
X0300413Y0266011D02*
X0303416Y0261507D01*
X0303416Y0266011D01*
X0305017Y0266011D02*
X0305017Y0261507D01*
X0307269Y0261507D01*
X0308019Y0262257D01*
X0308019Y0265260D01*
X0307269Y0266011D01*
X0305017Y0266011D01*
X0300413Y0266011D02*
X0300413Y0261507D01*
X0283189Y0262257D02*
X0283189Y0265260D01*
X0281637Y0262257D02*
X0281637Y0261507D01*
X0280887Y0261507D01*
X0280887Y0262257D01*
X0281637Y0262257D01*
X0275800Y0213800D02*
X0261800Y0213800D01*
X0261800Y0205800D01*
X0275800Y0205800D01*
X0275800Y0213800D01*
X0275800Y0202800D02*
X0261800Y0202800D01*
X0261800Y0194800D01*
X0275800Y0194800D01*
X0275800Y0202800D01*
X0291800Y0202800D02*
X0291800Y0194800D01*
X0305800Y0194800D01*
X0305800Y0202800D01*
X0291800Y0202800D01*
X0291800Y0205800D02*
X0291800Y0213800D01*
X0305800Y0213800D01*
X0305800Y0205800D01*
X0291800Y0205800D01*
X0338800Y0203800D02*
X0338800Y0211800D01*
X0352800Y0211800D01*
X0352800Y0203800D01*
X0338800Y0203800D01*
X0381800Y0201800D02*
X0381800Y0209800D01*
X0395800Y0209800D01*
X0395800Y0201800D01*
X0381800Y0201800D01*
X0381800Y0199800D02*
X0381800Y0191800D01*
X0395800Y0191800D01*
X0395800Y0199800D01*
X0381800Y0199800D01*
X0409800Y0199800D02*
X0409800Y0191800D01*
X0423800Y0191800D01*
X0423800Y0199800D01*
X0409800Y0199800D01*
X0409800Y0201800D02*
X0409800Y0209800D01*
X0423800Y0209800D01*
X0423800Y0201800D01*
X0409800Y0201800D01*
X0467800Y0202800D02*
X0467800Y0210800D01*
X0481800Y0210800D01*
X0481800Y0202800D01*
X0467800Y0202800D01*
X0459300Y0229300D02*
X0459303Y0229545D01*
X0459312Y0229791D01*
X0459327Y0230036D01*
X0459348Y0230280D01*
X0459375Y0230524D01*
X0459408Y0230767D01*
X0459447Y0231010D01*
X0459492Y0231251D01*
X0459543Y0231491D01*
X0459600Y0231730D01*
X0459662Y0231967D01*
X0459731Y0232203D01*
X0459805Y0232437D01*
X0459885Y0232669D01*
X0459970Y0232899D01*
X0460061Y0233127D01*
X0460158Y0233352D01*
X0460260Y0233576D01*
X0460368Y0233796D01*
X0460481Y0234014D01*
X0460599Y0234229D01*
X0460723Y0234441D01*
X0460851Y0234650D01*
X0460985Y0234856D01*
X0461124Y0235058D01*
X0461268Y0235257D01*
X0461417Y0235452D01*
X0461570Y0235644D01*
X0461728Y0235832D01*
X0461890Y0236016D01*
X0462058Y0236195D01*
X0462229Y0236371D01*
X0462405Y0236542D01*
X0462584Y0236710D01*
X0462768Y0236872D01*
X0462956Y0237030D01*
X0463148Y0237183D01*
X0463343Y0237332D01*
X0463542Y0237476D01*
X0463744Y0237615D01*
X0463950Y0237749D01*
X0464159Y0237877D01*
X0464371Y0238001D01*
X0464586Y0238119D01*
X0464804Y0238232D01*
X0465024Y0238340D01*
X0465248Y0238442D01*
X0465473Y0238539D01*
X0465701Y0238630D01*
X0465931Y0238715D01*
X0466163Y0238795D01*
X0466397Y0238869D01*
X0466633Y0238938D01*
X0466870Y0239000D01*
X0467109Y0239057D01*
X0467349Y0239108D01*
X0467590Y0239153D01*
X0467833Y0239192D01*
X0468076Y0239225D01*
X0468320Y0239252D01*
X0468564Y0239273D01*
X0468809Y0239288D01*
X0469055Y0239297D01*
X0469300Y0239300D01*
X0469545Y0239297D01*
X0469791Y0239288D01*
X0470036Y0239273D01*
X0470280Y0239252D01*
X0470524Y0239225D01*
X0470767Y0239192D01*
X0471010Y0239153D01*
X0471251Y0239108D01*
X0471491Y0239057D01*
X0471730Y0239000D01*
X0471967Y0238938D01*
X0472203Y0238869D01*
X0472437Y0238795D01*
X0472669Y0238715D01*
X0472899Y0238630D01*
X0473127Y0238539D01*
X0473352Y0238442D01*
X0473576Y0238340D01*
X0473796Y0238232D01*
X0474014Y0238119D01*
X0474229Y0238001D01*
X0474441Y0237877D01*
X0474650Y0237749D01*
X0474856Y0237615D01*
X0475058Y0237476D01*
X0475257Y0237332D01*
X0475452Y0237183D01*
X0475644Y0237030D01*
X0475832Y0236872D01*
X0476016Y0236710D01*
X0476195Y0236542D01*
X0476371Y0236371D01*
X0476542Y0236195D01*
X0476710Y0236016D01*
X0476872Y0235832D01*
X0477030Y0235644D01*
X0477183Y0235452D01*
X0477332Y0235257D01*
X0477476Y0235058D01*
X0477615Y0234856D01*
X0477749Y0234650D01*
X0477877Y0234441D01*
X0478001Y0234229D01*
X0478119Y0234014D01*
X0478232Y0233796D01*
X0478340Y0233576D01*
X0478442Y0233352D01*
X0478539Y0233127D01*
X0478630Y0232899D01*
X0478715Y0232669D01*
X0478795Y0232437D01*
X0478869Y0232203D01*
X0478938Y0231967D01*
X0479000Y0231730D01*
X0479057Y0231491D01*
X0479108Y0231251D01*
X0479153Y0231010D01*
X0479192Y0230767D01*
X0479225Y0230524D01*
X0479252Y0230280D01*
X0479273Y0230036D01*
X0479288Y0229791D01*
X0479297Y0229545D01*
X0479300Y0229300D01*
X0479297Y0229055D01*
X0479288Y0228809D01*
X0479273Y0228564D01*
X0479252Y0228320D01*
X0479225Y0228076D01*
X0479192Y0227833D01*
X0479153Y0227590D01*
X0479108Y0227349D01*
X0479057Y0227109D01*
X0479000Y0226870D01*
X0478938Y0226633D01*
X0478869Y0226397D01*
X0478795Y0226163D01*
X0478715Y0225931D01*
X0478630Y0225701D01*
X0478539Y0225473D01*
X0478442Y0225248D01*
X0478340Y0225024D01*
X0478232Y0224804D01*
X0478119Y0224586D01*
X0478001Y0224371D01*
X0477877Y0224159D01*
X0477749Y0223950D01*
X0477615Y0223744D01*
X0477476Y0223542D01*
X0477332Y0223343D01*
X0477183Y0223148D01*
X0477030Y0222956D01*
X0476872Y0222768D01*
X0476710Y0222584D01*
X0476542Y0222405D01*
X0476371Y0222229D01*
X0476195Y0222058D01*
X0476016Y0221890D01*
X0475832Y0221728D01*
X0475644Y0221570D01*
X0475452Y0221417D01*
X0475257Y0221268D01*
X0475058Y0221124D01*
X0474856Y0220985D01*
X0474650Y0220851D01*
X0474441Y0220723D01*
X0474229Y0220599D01*
X0474014Y0220481D01*
X0473796Y0220368D01*
X0473576Y0220260D01*
X0473352Y0220158D01*
X0473127Y0220061D01*
X0472899Y0219970D01*
X0472669Y0219885D01*
X0472437Y0219805D01*
X0472203Y0219731D01*
X0471967Y0219662D01*
X0471730Y0219600D01*
X0471491Y0219543D01*
X0471251Y0219492D01*
X0471010Y0219447D01*
X0470767Y0219408D01*
X0470524Y0219375D01*
X0470280Y0219348D01*
X0470036Y0219327D01*
X0469791Y0219312D01*
X0469545Y0219303D01*
X0469300Y0219300D01*
X0469055Y0219303D01*
X0468809Y0219312D01*
X0468564Y0219327D01*
X0468320Y0219348D01*
X0468076Y0219375D01*
X0467833Y0219408D01*
X0467590Y0219447D01*
X0467349Y0219492D01*
X0467109Y0219543D01*
X0466870Y0219600D01*
X0466633Y0219662D01*
X0466397Y0219731D01*
X0466163Y0219805D01*
X0465931Y0219885D01*
X0465701Y0219970D01*
X0465473Y0220061D01*
X0465248Y0220158D01*
X0465024Y0220260D01*
X0464804Y0220368D01*
X0464586Y0220481D01*
X0464371Y0220599D01*
X0464159Y0220723D01*
X0463950Y0220851D01*
X0463744Y0220985D01*
X0463542Y0221124D01*
X0463343Y0221268D01*
X0463148Y0221417D01*
X0462956Y0221570D01*
X0462768Y0221728D01*
X0462584Y0221890D01*
X0462405Y0222058D01*
X0462229Y0222229D01*
X0462058Y0222405D01*
X0461890Y0222584D01*
X0461728Y0222768D01*
X0461570Y0222956D01*
X0461417Y0223148D01*
X0461268Y0223343D01*
X0461124Y0223542D01*
X0460985Y0223744D01*
X0460851Y0223950D01*
X0460723Y0224159D01*
X0460599Y0224371D01*
X0460481Y0224586D01*
X0460368Y0224804D01*
X0460260Y0225024D01*
X0460158Y0225248D01*
X0460061Y0225473D01*
X0459970Y0225701D01*
X0459885Y0225931D01*
X0459805Y0226163D01*
X0459731Y0226397D01*
X0459662Y0226633D01*
X0459600Y0226870D01*
X0459543Y0227109D01*
X0459492Y0227349D01*
X0459447Y0227590D01*
X0459408Y0227833D01*
X0459375Y0228076D01*
X0459348Y0228320D01*
X0459327Y0228564D01*
X0459312Y0228809D01*
X0459303Y0229055D01*
X0459300Y0229300D01*
X0455269Y0261507D02*
X0453017Y0261507D01*
X0453017Y0266011D01*
X0455269Y0266011D01*
X0456019Y0265260D01*
X0456019Y0262257D01*
X0455269Y0261507D01*
X0451416Y0261507D02*
X0451416Y0266011D01*
X0448413Y0266011D02*
X0448413Y0261507D01*
X0446812Y0262257D02*
X0446812Y0263759D01*
X0445310Y0263759D01*
X0443809Y0265260D02*
X0443809Y0262257D01*
X0444560Y0261507D01*
X0446061Y0261507D01*
X0446812Y0262257D01*
X0446812Y0265260D02*
X0446061Y0266011D01*
X0444560Y0266011D01*
X0443809Y0265260D01*
X0448413Y0266011D02*
X0451416Y0261507D01*
X0438795Y0263008D02*
X0438795Y0266011D01*
X0435792Y0266011D02*
X0435792Y0263008D01*
X0437294Y0261507D01*
X0438795Y0263008D01*
X0434191Y0263008D02*
X0434191Y0262257D01*
X0433440Y0261507D01*
X0431939Y0261507D01*
X0431189Y0262257D01*
X0429637Y0262257D02*
X0429637Y0261507D01*
X0428887Y0261507D01*
X0428887Y0262257D01*
X0429637Y0262257D01*
X0427285Y0262257D02*
X0426535Y0261507D01*
X0425033Y0261507D01*
X0424283Y0262257D01*
X0425784Y0263759D02*
X0426535Y0263759D01*
X0427285Y0263008D01*
X0427285Y0262257D01*
X0426535Y0263759D02*
X0427285Y0264509D01*
X0427285Y0265260D01*
X0426535Y0266011D01*
X0425033Y0266011D01*
X0424283Y0265260D01*
X0431189Y0265260D02*
X0431939Y0266011D01*
X0433440Y0266011D01*
X0434191Y0265260D01*
X0434191Y0264509D01*
X0433440Y0263759D01*
X0434191Y0263008D01*
X0433440Y0263759D02*
X0432690Y0263759D01*
X0242800Y0202800D02*
X0242800Y0194800D01*
X0228800Y0194800D01*
X0228800Y0202800D01*
X0242800Y0202800D01*
X0183800Y0203800D02*
X0183800Y0195800D01*
X0169800Y0195800D01*
X0169800Y0203800D01*
X0183800Y0203800D01*
X0183800Y0205800D02*
X0169800Y0205800D01*
X0169800Y0213800D01*
X0183800Y0213800D01*
X0183800Y0205800D01*
X0155800Y0205800D02*
X0155800Y0213800D01*
X0141800Y0213800D01*
X0141800Y0205800D01*
X0155800Y0205800D01*
X0155800Y0203800D02*
X0155800Y0195800D01*
X0141800Y0195800D01*
X0141800Y0203800D01*
X0155800Y0203800D01*
X0135800Y0203800D02*
X0135800Y0195800D01*
X0121800Y0195800D01*
X0121800Y0203800D01*
X0135800Y0203800D01*
X0224800Y0134800D02*
X0238800Y0134800D01*
X0238800Y0126800D01*
X0224800Y0126800D01*
X0224800Y0134800D01*
X0261800Y0133800D02*
X0261800Y0141800D01*
X0275800Y0141800D01*
X0275800Y0133800D01*
X0261800Y0133800D01*
X0261800Y0128800D02*
X0261800Y0120800D01*
X0275800Y0120800D01*
X0275800Y0128800D01*
X0261800Y0128800D01*
X0287800Y0128800D02*
X0287800Y0120800D01*
X0301800Y0120800D01*
X0301800Y0128800D01*
X0287800Y0128800D01*
X0287800Y0133800D02*
X0287800Y0141800D01*
X0301800Y0141800D01*
X0301800Y0133800D01*
X0287800Y0133800D01*
X0344800Y0134800D02*
X0344800Y0126800D01*
X0358800Y0126800D01*
X0358800Y0134800D01*
X0344800Y0134800D01*
X0381800Y0137800D02*
X0381800Y0129800D01*
X0395800Y0129800D01*
X0395800Y0137800D01*
X0381800Y0137800D01*
X0381800Y0126800D02*
X0381800Y0118800D01*
X0395800Y0118800D01*
X0395800Y0126800D01*
X0381800Y0126800D01*
X0407800Y0125800D02*
X0407800Y0117800D01*
X0421800Y0117800D01*
X0421800Y0125800D01*
X0407800Y0125800D01*
X0407800Y0129800D02*
X0407800Y0137800D01*
X0421800Y0137800D01*
X0421800Y0129800D01*
X0407800Y0129800D01*
X0466800Y0127800D02*
X0466800Y0135800D01*
X0480800Y0135800D01*
X0480800Y0127800D01*
X0466800Y0127800D01*
X0459300Y0044300D02*
X0459303Y0044545D01*
X0459312Y0044791D01*
X0459327Y0045036D01*
X0459348Y0045280D01*
X0459375Y0045524D01*
X0459408Y0045767D01*
X0459447Y0046010D01*
X0459492Y0046251D01*
X0459543Y0046491D01*
X0459600Y0046730D01*
X0459662Y0046967D01*
X0459731Y0047203D01*
X0459805Y0047437D01*
X0459885Y0047669D01*
X0459970Y0047899D01*
X0460061Y0048127D01*
X0460158Y0048352D01*
X0460260Y0048576D01*
X0460368Y0048796D01*
X0460481Y0049014D01*
X0460599Y0049229D01*
X0460723Y0049441D01*
X0460851Y0049650D01*
X0460985Y0049856D01*
X0461124Y0050058D01*
X0461268Y0050257D01*
X0461417Y0050452D01*
X0461570Y0050644D01*
X0461728Y0050832D01*
X0461890Y0051016D01*
X0462058Y0051195D01*
X0462229Y0051371D01*
X0462405Y0051542D01*
X0462584Y0051710D01*
X0462768Y0051872D01*
X0462956Y0052030D01*
X0463148Y0052183D01*
X0463343Y0052332D01*
X0463542Y0052476D01*
X0463744Y0052615D01*
X0463950Y0052749D01*
X0464159Y0052877D01*
X0464371Y0053001D01*
X0464586Y0053119D01*
X0464804Y0053232D01*
X0465024Y0053340D01*
X0465248Y0053442D01*
X0465473Y0053539D01*
X0465701Y0053630D01*
X0465931Y0053715D01*
X0466163Y0053795D01*
X0466397Y0053869D01*
X0466633Y0053938D01*
X0466870Y0054000D01*
X0467109Y0054057D01*
X0467349Y0054108D01*
X0467590Y0054153D01*
X0467833Y0054192D01*
X0468076Y0054225D01*
X0468320Y0054252D01*
X0468564Y0054273D01*
X0468809Y0054288D01*
X0469055Y0054297D01*
X0469300Y0054300D01*
X0469545Y0054297D01*
X0469791Y0054288D01*
X0470036Y0054273D01*
X0470280Y0054252D01*
X0470524Y0054225D01*
X0470767Y0054192D01*
X0471010Y0054153D01*
X0471251Y0054108D01*
X0471491Y0054057D01*
X0471730Y0054000D01*
X0471967Y0053938D01*
X0472203Y0053869D01*
X0472437Y0053795D01*
X0472669Y0053715D01*
X0472899Y0053630D01*
X0473127Y0053539D01*
X0473352Y0053442D01*
X0473576Y0053340D01*
X0473796Y0053232D01*
X0474014Y0053119D01*
X0474229Y0053001D01*
X0474441Y0052877D01*
X0474650Y0052749D01*
X0474856Y0052615D01*
X0475058Y0052476D01*
X0475257Y0052332D01*
X0475452Y0052183D01*
X0475644Y0052030D01*
X0475832Y0051872D01*
X0476016Y0051710D01*
X0476195Y0051542D01*
X0476371Y0051371D01*
X0476542Y0051195D01*
X0476710Y0051016D01*
X0476872Y0050832D01*
X0477030Y0050644D01*
X0477183Y0050452D01*
X0477332Y0050257D01*
X0477476Y0050058D01*
X0477615Y0049856D01*
X0477749Y0049650D01*
X0477877Y0049441D01*
X0478001Y0049229D01*
X0478119Y0049014D01*
X0478232Y0048796D01*
X0478340Y0048576D01*
X0478442Y0048352D01*
X0478539Y0048127D01*
X0478630Y0047899D01*
X0478715Y0047669D01*
X0478795Y0047437D01*
X0478869Y0047203D01*
X0478938Y0046967D01*
X0479000Y0046730D01*
X0479057Y0046491D01*
X0479108Y0046251D01*
X0479153Y0046010D01*
X0479192Y0045767D01*
X0479225Y0045524D01*
X0479252Y0045280D01*
X0479273Y0045036D01*
X0479288Y0044791D01*
X0479297Y0044545D01*
X0479300Y0044300D01*
X0479297Y0044055D01*
X0479288Y0043809D01*
X0479273Y0043564D01*
X0479252Y0043320D01*
X0479225Y0043076D01*
X0479192Y0042833D01*
X0479153Y0042590D01*
X0479108Y0042349D01*
X0479057Y0042109D01*
X0479000Y0041870D01*
X0478938Y0041633D01*
X0478869Y0041397D01*
X0478795Y0041163D01*
X0478715Y0040931D01*
X0478630Y0040701D01*
X0478539Y0040473D01*
X0478442Y0040248D01*
X0478340Y0040024D01*
X0478232Y0039804D01*
X0478119Y0039586D01*
X0478001Y0039371D01*
X0477877Y0039159D01*
X0477749Y0038950D01*
X0477615Y0038744D01*
X0477476Y0038542D01*
X0477332Y0038343D01*
X0477183Y0038148D01*
X0477030Y0037956D01*
X0476872Y0037768D01*
X0476710Y0037584D01*
X0476542Y0037405D01*
X0476371Y0037229D01*
X0476195Y0037058D01*
X0476016Y0036890D01*
X0475832Y0036728D01*
X0475644Y0036570D01*
X0475452Y0036417D01*
X0475257Y0036268D01*
X0475058Y0036124D01*
X0474856Y0035985D01*
X0474650Y0035851D01*
X0474441Y0035723D01*
X0474229Y0035599D01*
X0474014Y0035481D01*
X0473796Y0035368D01*
X0473576Y0035260D01*
X0473352Y0035158D01*
X0473127Y0035061D01*
X0472899Y0034970D01*
X0472669Y0034885D01*
X0472437Y0034805D01*
X0472203Y0034731D01*
X0471967Y0034662D01*
X0471730Y0034600D01*
X0471491Y0034543D01*
X0471251Y0034492D01*
X0471010Y0034447D01*
X0470767Y0034408D01*
X0470524Y0034375D01*
X0470280Y0034348D01*
X0470036Y0034327D01*
X0469791Y0034312D01*
X0469545Y0034303D01*
X0469300Y0034300D01*
X0469055Y0034303D01*
X0468809Y0034312D01*
X0468564Y0034327D01*
X0468320Y0034348D01*
X0468076Y0034375D01*
X0467833Y0034408D01*
X0467590Y0034447D01*
X0467349Y0034492D01*
X0467109Y0034543D01*
X0466870Y0034600D01*
X0466633Y0034662D01*
X0466397Y0034731D01*
X0466163Y0034805D01*
X0465931Y0034885D01*
X0465701Y0034970D01*
X0465473Y0035061D01*
X0465248Y0035158D01*
X0465024Y0035260D01*
X0464804Y0035368D01*
X0464586Y0035481D01*
X0464371Y0035599D01*
X0464159Y0035723D01*
X0463950Y0035851D01*
X0463744Y0035985D01*
X0463542Y0036124D01*
X0463343Y0036268D01*
X0463148Y0036417D01*
X0462956Y0036570D01*
X0462768Y0036728D01*
X0462584Y0036890D01*
X0462405Y0037058D01*
X0462229Y0037229D01*
X0462058Y0037405D01*
X0461890Y0037584D01*
X0461728Y0037768D01*
X0461570Y0037956D01*
X0461417Y0038148D01*
X0461268Y0038343D01*
X0461124Y0038542D01*
X0460985Y0038744D01*
X0460851Y0038950D01*
X0460723Y0039159D01*
X0460599Y0039371D01*
X0460481Y0039586D01*
X0460368Y0039804D01*
X0460260Y0040024D01*
X0460158Y0040248D01*
X0460061Y0040473D01*
X0459970Y0040701D01*
X0459885Y0040931D01*
X0459805Y0041163D01*
X0459731Y0041397D01*
X0459662Y0041633D01*
X0459600Y0041870D01*
X0459543Y0042109D01*
X0459492Y0042349D01*
X0459447Y0042590D01*
X0459408Y0042833D01*
X0459375Y0043076D01*
X0459348Y0043320D01*
X0459327Y0043564D01*
X0459312Y0043809D01*
X0459303Y0044055D01*
X0459300Y0044300D01*
X0016800Y0044300D02*
X0016803Y0044545D01*
X0016812Y0044791D01*
X0016827Y0045036D01*
X0016848Y0045280D01*
X0016875Y0045524D01*
X0016908Y0045767D01*
X0016947Y0046010D01*
X0016992Y0046251D01*
X0017043Y0046491D01*
X0017100Y0046730D01*
X0017162Y0046967D01*
X0017231Y0047203D01*
X0017305Y0047437D01*
X0017385Y0047669D01*
X0017470Y0047899D01*
X0017561Y0048127D01*
X0017658Y0048352D01*
X0017760Y0048576D01*
X0017868Y0048796D01*
X0017981Y0049014D01*
X0018099Y0049229D01*
X0018223Y0049441D01*
X0018351Y0049650D01*
X0018485Y0049856D01*
X0018624Y0050058D01*
X0018768Y0050257D01*
X0018917Y0050452D01*
X0019070Y0050644D01*
X0019228Y0050832D01*
X0019390Y0051016D01*
X0019558Y0051195D01*
X0019729Y0051371D01*
X0019905Y0051542D01*
X0020084Y0051710D01*
X0020268Y0051872D01*
X0020456Y0052030D01*
X0020648Y0052183D01*
X0020843Y0052332D01*
X0021042Y0052476D01*
X0021244Y0052615D01*
X0021450Y0052749D01*
X0021659Y0052877D01*
X0021871Y0053001D01*
X0022086Y0053119D01*
X0022304Y0053232D01*
X0022524Y0053340D01*
X0022748Y0053442D01*
X0022973Y0053539D01*
X0023201Y0053630D01*
X0023431Y0053715D01*
X0023663Y0053795D01*
X0023897Y0053869D01*
X0024133Y0053938D01*
X0024370Y0054000D01*
X0024609Y0054057D01*
X0024849Y0054108D01*
X0025090Y0054153D01*
X0025333Y0054192D01*
X0025576Y0054225D01*
X0025820Y0054252D01*
X0026064Y0054273D01*
X0026309Y0054288D01*
X0026555Y0054297D01*
X0026800Y0054300D01*
X0027045Y0054297D01*
X0027291Y0054288D01*
X0027536Y0054273D01*
X0027780Y0054252D01*
X0028024Y0054225D01*
X0028267Y0054192D01*
X0028510Y0054153D01*
X0028751Y0054108D01*
X0028991Y0054057D01*
X0029230Y0054000D01*
X0029467Y0053938D01*
X0029703Y0053869D01*
X0029937Y0053795D01*
X0030169Y0053715D01*
X0030399Y0053630D01*
X0030627Y0053539D01*
X0030852Y0053442D01*
X0031076Y0053340D01*
X0031296Y0053232D01*
X0031514Y0053119D01*
X0031729Y0053001D01*
X0031941Y0052877D01*
X0032150Y0052749D01*
X0032356Y0052615D01*
X0032558Y0052476D01*
X0032757Y0052332D01*
X0032952Y0052183D01*
X0033144Y0052030D01*
X0033332Y0051872D01*
X0033516Y0051710D01*
X0033695Y0051542D01*
X0033871Y0051371D01*
X0034042Y0051195D01*
X0034210Y0051016D01*
X0034372Y0050832D01*
X0034530Y0050644D01*
X0034683Y0050452D01*
X0034832Y0050257D01*
X0034976Y0050058D01*
X0035115Y0049856D01*
X0035249Y0049650D01*
X0035377Y0049441D01*
X0035501Y0049229D01*
X0035619Y0049014D01*
X0035732Y0048796D01*
X0035840Y0048576D01*
X0035942Y0048352D01*
X0036039Y0048127D01*
X0036130Y0047899D01*
X0036215Y0047669D01*
X0036295Y0047437D01*
X0036369Y0047203D01*
X0036438Y0046967D01*
X0036500Y0046730D01*
X0036557Y0046491D01*
X0036608Y0046251D01*
X0036653Y0046010D01*
X0036692Y0045767D01*
X0036725Y0045524D01*
X0036752Y0045280D01*
X0036773Y0045036D01*
X0036788Y0044791D01*
X0036797Y0044545D01*
X0036800Y0044300D01*
X0036797Y0044055D01*
X0036788Y0043809D01*
X0036773Y0043564D01*
X0036752Y0043320D01*
X0036725Y0043076D01*
X0036692Y0042833D01*
X0036653Y0042590D01*
X0036608Y0042349D01*
X0036557Y0042109D01*
X0036500Y0041870D01*
X0036438Y0041633D01*
X0036369Y0041397D01*
X0036295Y0041163D01*
X0036215Y0040931D01*
X0036130Y0040701D01*
X0036039Y0040473D01*
X0035942Y0040248D01*
X0035840Y0040024D01*
X0035732Y0039804D01*
X0035619Y0039586D01*
X0035501Y0039371D01*
X0035377Y0039159D01*
X0035249Y0038950D01*
X0035115Y0038744D01*
X0034976Y0038542D01*
X0034832Y0038343D01*
X0034683Y0038148D01*
X0034530Y0037956D01*
X0034372Y0037768D01*
X0034210Y0037584D01*
X0034042Y0037405D01*
X0033871Y0037229D01*
X0033695Y0037058D01*
X0033516Y0036890D01*
X0033332Y0036728D01*
X0033144Y0036570D01*
X0032952Y0036417D01*
X0032757Y0036268D01*
X0032558Y0036124D01*
X0032356Y0035985D01*
X0032150Y0035851D01*
X0031941Y0035723D01*
X0031729Y0035599D01*
X0031514Y0035481D01*
X0031296Y0035368D01*
X0031076Y0035260D01*
X0030852Y0035158D01*
X0030627Y0035061D01*
X0030399Y0034970D01*
X0030169Y0034885D01*
X0029937Y0034805D01*
X0029703Y0034731D01*
X0029467Y0034662D01*
X0029230Y0034600D01*
X0028991Y0034543D01*
X0028751Y0034492D01*
X0028510Y0034447D01*
X0028267Y0034408D01*
X0028024Y0034375D01*
X0027780Y0034348D01*
X0027536Y0034327D01*
X0027291Y0034312D01*
X0027045Y0034303D01*
X0026800Y0034300D01*
X0026555Y0034303D01*
X0026309Y0034312D01*
X0026064Y0034327D01*
X0025820Y0034348D01*
X0025576Y0034375D01*
X0025333Y0034408D01*
X0025090Y0034447D01*
X0024849Y0034492D01*
X0024609Y0034543D01*
X0024370Y0034600D01*
X0024133Y0034662D01*
X0023897Y0034731D01*
X0023663Y0034805D01*
X0023431Y0034885D01*
X0023201Y0034970D01*
X0022973Y0035061D01*
X0022748Y0035158D01*
X0022524Y0035260D01*
X0022304Y0035368D01*
X0022086Y0035481D01*
X0021871Y0035599D01*
X0021659Y0035723D01*
X0021450Y0035851D01*
X0021244Y0035985D01*
X0021042Y0036124D01*
X0020843Y0036268D01*
X0020648Y0036417D01*
X0020456Y0036570D01*
X0020268Y0036728D01*
X0020084Y0036890D01*
X0019905Y0037058D01*
X0019729Y0037229D01*
X0019558Y0037405D01*
X0019390Y0037584D01*
X0019228Y0037768D01*
X0019070Y0037956D01*
X0018917Y0038148D01*
X0018768Y0038343D01*
X0018624Y0038542D01*
X0018485Y0038744D01*
X0018351Y0038950D01*
X0018223Y0039159D01*
X0018099Y0039371D01*
X0017981Y0039586D01*
X0017868Y0039804D01*
X0017760Y0040024D01*
X0017658Y0040248D01*
X0017561Y0040473D01*
X0017470Y0040701D01*
X0017385Y0040931D01*
X0017305Y0041163D01*
X0017231Y0041397D01*
X0017162Y0041633D01*
X0017100Y0041870D01*
X0017043Y0042109D01*
X0016992Y0042349D01*
X0016947Y0042590D01*
X0016908Y0042833D01*
X0016875Y0043076D01*
X0016848Y0043320D01*
X0016827Y0043564D01*
X0016812Y0043809D01*
X0016803Y0044055D01*
X0016800Y0044300D01*
D13*
X0045518Y0117950D02*
X0046752Y0117950D01*
X0047369Y0118567D01*
X0048584Y0118567D02*
X0049201Y0117950D01*
X0050435Y0117950D01*
X0051052Y0118567D01*
X0051052Y0119184D01*
X0050435Y0119802D01*
X0049818Y0119802D01*
X0050435Y0119802D02*
X0051052Y0120419D01*
X0051052Y0121036D01*
X0050435Y0121653D01*
X0049201Y0121653D01*
X0048584Y0121036D01*
X0047369Y0121036D02*
X0046752Y0121653D01*
X0045518Y0121653D01*
X0044901Y0121036D01*
X0044901Y0118567D01*
X0045518Y0117950D01*
X0052267Y0117950D02*
X0052267Y0118567D01*
X0054736Y0121036D01*
X0054736Y0121653D01*
X0052267Y0121653D01*
X0052884Y0129950D02*
X0052267Y0130567D01*
X0052267Y0131184D01*
X0052884Y0131802D01*
X0054118Y0131802D01*
X0054736Y0131184D01*
X0054736Y0130567D01*
X0054118Y0129950D01*
X0052884Y0129950D01*
X0052884Y0131802D02*
X0052267Y0132419D01*
X0052267Y0133036D01*
X0052884Y0133653D01*
X0054118Y0133653D01*
X0054736Y0133036D01*
X0054736Y0132419D01*
X0054118Y0131802D01*
X0051052Y0132419D02*
X0050435Y0131802D01*
X0051052Y0131184D01*
X0051052Y0130567D01*
X0050435Y0129950D01*
X0049201Y0129950D01*
X0048584Y0130567D01*
X0047369Y0130567D02*
X0046752Y0129950D01*
X0045518Y0129950D01*
X0044901Y0130567D01*
X0044901Y0133036D01*
X0045518Y0133653D01*
X0046752Y0133653D01*
X0047369Y0133036D01*
X0048584Y0133036D02*
X0049201Y0133653D01*
X0050435Y0133653D01*
X0051052Y0133036D01*
X0051052Y0132419D01*
X0050435Y0131802D02*
X0049818Y0131802D01*
X0021102Y0132802D02*
X0018633Y0132802D01*
X0020485Y0134653D01*
X0020485Y0130950D01*
X0017419Y0131567D02*
X0016802Y0130950D01*
X0015567Y0130950D01*
X0014950Y0131567D01*
X0014950Y0134036D01*
X0015567Y0134653D01*
X0016802Y0134653D01*
X0017419Y0134036D01*
X0016802Y0143950D02*
X0017419Y0144567D01*
X0016802Y0143950D02*
X0015567Y0143950D01*
X0014950Y0144567D01*
X0014950Y0147036D01*
X0015567Y0147653D01*
X0016802Y0147653D01*
X0017419Y0147036D01*
X0018633Y0147036D02*
X0019250Y0147653D01*
X0020485Y0147653D01*
X0021102Y0147036D01*
X0021102Y0146419D01*
X0020485Y0145802D01*
X0021102Y0145184D01*
X0021102Y0144567D01*
X0020485Y0143950D01*
X0019250Y0143950D01*
X0018633Y0144567D01*
X0019868Y0145802D02*
X0020485Y0145802D01*
X0020752Y0190950D02*
X0019518Y0190950D01*
X0018901Y0191567D01*
X0018901Y0194036D01*
X0019518Y0194653D01*
X0020752Y0194653D01*
X0021369Y0194036D01*
X0022584Y0194036D02*
X0023201Y0194653D01*
X0024435Y0194653D01*
X0025052Y0194036D01*
X0025052Y0193419D01*
X0022584Y0190950D01*
X0025052Y0190950D01*
X0026267Y0190950D02*
X0026267Y0191567D01*
X0028736Y0194036D01*
X0028736Y0194653D01*
X0026267Y0194653D01*
X0021369Y0191567D02*
X0020752Y0190950D01*
X0020752Y0201950D02*
X0019518Y0201950D01*
X0018901Y0202567D01*
X0018901Y0205036D01*
X0019518Y0205653D01*
X0020752Y0205653D01*
X0021369Y0205036D01*
X0022584Y0205036D02*
X0023201Y0205653D01*
X0024435Y0205653D01*
X0025052Y0205036D01*
X0025052Y0204419D01*
X0022584Y0201950D01*
X0025052Y0201950D01*
X0026267Y0202567D02*
X0026267Y0203184D01*
X0026884Y0203802D01*
X0028118Y0203802D01*
X0028736Y0203184D01*
X0028736Y0202567D01*
X0028118Y0201950D01*
X0026884Y0201950D01*
X0026267Y0202567D01*
X0026884Y0203802D02*
X0026267Y0204419D01*
X0026267Y0205036D01*
X0026884Y0205653D01*
X0028118Y0205653D01*
X0028736Y0205036D01*
X0028736Y0204419D01*
X0028118Y0203802D01*
X0021369Y0202567D02*
X0020752Y0201950D01*
X0045950Y0206567D02*
X0046567Y0205950D01*
X0047802Y0205950D01*
X0048419Y0206567D01*
X0049633Y0205950D02*
X0052102Y0208419D01*
X0052102Y0209036D01*
X0051485Y0209653D01*
X0050250Y0209653D01*
X0049633Y0209036D01*
X0048419Y0209036D02*
X0047802Y0209653D01*
X0046567Y0209653D01*
X0045950Y0209036D01*
X0045950Y0206567D01*
X0049633Y0205950D02*
X0052102Y0205950D01*
X0052102Y0216950D02*
X0049633Y0216950D01*
X0050868Y0216950D02*
X0050868Y0220653D01*
X0049633Y0219419D01*
X0048419Y0220036D02*
X0047802Y0220653D01*
X0046567Y0220653D01*
X0045950Y0220036D01*
X0045950Y0217567D01*
X0046567Y0216950D01*
X0047802Y0216950D01*
X0048419Y0217567D01*
X0128584Y0194036D02*
X0128584Y0191567D01*
X0129201Y0190950D01*
X0130435Y0190950D01*
X0131052Y0191567D01*
X0132267Y0191567D02*
X0132884Y0190950D01*
X0134118Y0190950D01*
X0134736Y0191567D01*
X0134736Y0192802D01*
X0134118Y0193419D01*
X0133501Y0193419D01*
X0132267Y0192802D01*
X0132267Y0194653D01*
X0134736Y0194653D01*
X0131052Y0194036D02*
X0130435Y0194653D01*
X0129201Y0194653D01*
X0128584Y0194036D01*
X0144901Y0194036D02*
X0144901Y0191567D01*
X0145518Y0190950D01*
X0146752Y0190950D01*
X0147369Y0191567D01*
X0148584Y0191567D02*
X0149201Y0190950D01*
X0150435Y0190950D01*
X0151052Y0191567D01*
X0151052Y0192184D01*
X0150435Y0192802D01*
X0149818Y0192802D01*
X0150435Y0192802D02*
X0151052Y0193419D01*
X0151052Y0194036D01*
X0150435Y0194653D01*
X0149201Y0194653D01*
X0148584Y0194036D01*
X0147369Y0194036D02*
X0146752Y0194653D01*
X0145518Y0194653D01*
X0144901Y0194036D01*
X0152267Y0193419D02*
X0153501Y0194653D01*
X0153501Y0190950D01*
X0152267Y0190950D02*
X0154736Y0190950D01*
X0154736Y0200950D02*
X0152267Y0200950D01*
X0154736Y0203419D01*
X0154736Y0204036D01*
X0154118Y0204653D01*
X0152884Y0204653D01*
X0152267Y0204036D01*
X0151052Y0204036D02*
X0151052Y0203419D01*
X0150435Y0202802D01*
X0151052Y0202184D01*
X0151052Y0201567D01*
X0150435Y0200950D01*
X0149201Y0200950D01*
X0148584Y0201567D01*
X0147369Y0201567D02*
X0146752Y0200950D01*
X0145518Y0200950D01*
X0144901Y0201567D01*
X0144901Y0204036D01*
X0145518Y0204653D01*
X0146752Y0204653D01*
X0147369Y0204036D01*
X0148584Y0204036D02*
X0149201Y0204653D01*
X0150435Y0204653D01*
X0151052Y0204036D01*
X0150435Y0202802D02*
X0149818Y0202802D01*
X0169950Y0205567D02*
X0170567Y0204950D01*
X0171802Y0204950D01*
X0172419Y0205567D01*
X0173633Y0204950D02*
X0176102Y0204950D01*
X0174868Y0204950D02*
X0174868Y0208653D01*
X0173633Y0207419D01*
X0172419Y0208036D02*
X0171802Y0208653D01*
X0170567Y0208653D01*
X0169950Y0208036D01*
X0169950Y0205567D01*
X0177316Y0205567D02*
X0177933Y0204950D01*
X0179168Y0204950D01*
X0179785Y0205567D01*
X0179785Y0208036D01*
X0177316Y0205567D01*
X0177316Y0208036D01*
X0177933Y0208653D01*
X0179168Y0208653D01*
X0179785Y0208036D01*
X0175485Y0214950D02*
X0174250Y0214950D01*
X0173633Y0215567D01*
X0172419Y0215567D02*
X0171802Y0214950D01*
X0170567Y0214950D01*
X0169950Y0215567D01*
X0169950Y0218036D01*
X0170567Y0218653D01*
X0171802Y0218653D01*
X0172419Y0218036D01*
X0173633Y0218036D02*
X0173633Y0217419D01*
X0174250Y0216802D01*
X0176102Y0216802D01*
X0176102Y0218036D02*
X0176102Y0215567D01*
X0175485Y0214950D01*
X0176102Y0218036D02*
X0175485Y0218653D01*
X0174250Y0218653D01*
X0173633Y0218036D01*
X0235584Y0193036D02*
X0235584Y0190567D01*
X0236201Y0189950D01*
X0237435Y0189950D01*
X0238052Y0190567D01*
X0239267Y0190567D02*
X0239267Y0191184D01*
X0239884Y0191802D01*
X0241118Y0191802D01*
X0241736Y0191184D01*
X0241736Y0190567D01*
X0241118Y0189950D01*
X0239884Y0189950D01*
X0239267Y0190567D01*
X0239884Y0191802D02*
X0239267Y0192419D01*
X0239267Y0193036D01*
X0239884Y0193653D01*
X0241118Y0193653D01*
X0241736Y0193036D01*
X0241736Y0192419D01*
X0241118Y0191802D01*
X0238052Y0193036D02*
X0237435Y0193653D01*
X0236201Y0193653D01*
X0235584Y0193036D01*
X0264901Y0193036D02*
X0264901Y0190567D01*
X0265518Y0189950D01*
X0266752Y0189950D01*
X0267369Y0190567D01*
X0268584Y0190567D02*
X0269201Y0189950D01*
X0270435Y0189950D01*
X0271052Y0190567D01*
X0271052Y0191184D01*
X0270435Y0191802D01*
X0269818Y0191802D01*
X0270435Y0191802D02*
X0271052Y0192419D01*
X0271052Y0193036D01*
X0270435Y0193653D01*
X0269201Y0193653D01*
X0268584Y0193036D01*
X0267369Y0193036D02*
X0266752Y0193653D01*
X0265518Y0193653D01*
X0264901Y0193036D01*
X0272267Y0193653D02*
X0272267Y0191802D01*
X0273501Y0192419D01*
X0274118Y0192419D01*
X0274736Y0191802D01*
X0274736Y0190567D01*
X0274118Y0189950D01*
X0272884Y0189950D01*
X0272267Y0190567D01*
X0272267Y0193653D02*
X0274736Y0193653D01*
X0274118Y0200950D02*
X0274736Y0201567D01*
X0274736Y0202184D01*
X0274118Y0202802D01*
X0272267Y0202802D01*
X0272267Y0201567D01*
X0272884Y0200950D01*
X0274118Y0200950D01*
X0272267Y0202802D02*
X0273501Y0204036D01*
X0274736Y0204653D01*
X0271052Y0204036D02*
X0271052Y0203419D01*
X0270435Y0202802D01*
X0271052Y0202184D01*
X0271052Y0201567D01*
X0270435Y0200950D01*
X0269201Y0200950D01*
X0268584Y0201567D01*
X0267369Y0201567D02*
X0266752Y0200950D01*
X0265518Y0200950D01*
X0264901Y0201567D01*
X0264901Y0204036D01*
X0265518Y0204653D01*
X0266752Y0204653D01*
X0267369Y0204036D01*
X0268584Y0204036D02*
X0269201Y0204653D01*
X0270435Y0204653D01*
X0271052Y0204036D01*
X0270435Y0202802D02*
X0269818Y0202802D01*
X0291950Y0204567D02*
X0292567Y0203950D01*
X0293802Y0203950D01*
X0294419Y0204567D01*
X0295633Y0203950D02*
X0298102Y0203950D01*
X0296868Y0203950D02*
X0296868Y0207653D01*
X0295633Y0206419D01*
X0294419Y0207036D02*
X0293802Y0207653D01*
X0292567Y0207653D01*
X0291950Y0207036D01*
X0291950Y0204567D01*
X0299316Y0204567D02*
X0299933Y0203950D01*
X0301168Y0203950D01*
X0301785Y0204567D01*
X0301785Y0205184D01*
X0301168Y0205802D01*
X0299316Y0205802D01*
X0299316Y0204567D01*
X0299316Y0205802D02*
X0300551Y0207036D01*
X0301785Y0207653D01*
X0301168Y0214950D02*
X0299933Y0214950D01*
X0299316Y0215567D01*
X0299316Y0216802D02*
X0300551Y0217419D01*
X0301168Y0217419D01*
X0301785Y0216802D01*
X0301785Y0215567D01*
X0301168Y0214950D01*
X0299316Y0216802D02*
X0299316Y0218653D01*
X0301785Y0218653D01*
X0296868Y0218653D02*
X0296868Y0214950D01*
X0298102Y0214950D02*
X0295633Y0214950D01*
X0294419Y0215567D02*
X0293802Y0214950D01*
X0292567Y0214950D01*
X0291950Y0215567D01*
X0291950Y0218036D01*
X0292567Y0218653D01*
X0293802Y0218653D01*
X0294419Y0218036D01*
X0295633Y0217419D02*
X0296868Y0218653D01*
X0341901Y0202036D02*
X0341901Y0199567D01*
X0342518Y0198950D01*
X0343752Y0198950D01*
X0344369Y0199567D01*
X0345584Y0198950D02*
X0348052Y0198950D01*
X0346818Y0198950D02*
X0346818Y0202653D01*
X0345584Y0201419D01*
X0344369Y0202036D02*
X0343752Y0202653D01*
X0342518Y0202653D01*
X0341901Y0202036D01*
X0349267Y0200802D02*
X0351736Y0200802D01*
X0351118Y0202653D02*
X0349267Y0200802D01*
X0351118Y0202653D02*
X0351118Y0198950D01*
X0381950Y0201567D02*
X0382567Y0200950D01*
X0383802Y0200950D01*
X0384419Y0201567D01*
X0385633Y0200950D02*
X0388102Y0203419D01*
X0388102Y0204036D01*
X0387485Y0204653D01*
X0386250Y0204653D01*
X0385633Y0204036D01*
X0384419Y0204036D02*
X0383802Y0204653D01*
X0382567Y0204653D01*
X0381950Y0204036D01*
X0381950Y0201567D01*
X0385633Y0200950D02*
X0388102Y0200950D01*
X0389316Y0200950D02*
X0391785Y0203419D01*
X0391785Y0204036D01*
X0391168Y0204653D01*
X0389933Y0204653D01*
X0389316Y0204036D01*
X0389316Y0200950D02*
X0391785Y0200950D01*
X0391785Y0210950D02*
X0389316Y0210950D01*
X0388102Y0210950D02*
X0385633Y0210950D01*
X0388102Y0213419D01*
X0388102Y0214036D01*
X0387485Y0214653D01*
X0386250Y0214653D01*
X0385633Y0214036D01*
X0384419Y0214036D02*
X0383802Y0214653D01*
X0382567Y0214653D01*
X0381950Y0214036D01*
X0381950Y0211567D01*
X0382567Y0210950D01*
X0383802Y0210950D01*
X0384419Y0211567D01*
X0389316Y0213419D02*
X0390551Y0214653D01*
X0390551Y0210950D01*
X0412901Y0200036D02*
X0412901Y0197567D01*
X0413518Y0196950D01*
X0414752Y0196950D01*
X0415369Y0197567D01*
X0416584Y0198802D02*
X0419052Y0198802D01*
X0420267Y0200036D02*
X0420267Y0197567D01*
X0422736Y0200036D01*
X0422736Y0197567D01*
X0422118Y0196950D01*
X0420884Y0196950D01*
X0420267Y0197567D01*
X0418435Y0196950D02*
X0418435Y0200653D01*
X0416584Y0198802D01*
X0415369Y0200036D02*
X0414752Y0200653D01*
X0413518Y0200653D01*
X0412901Y0200036D01*
X0420267Y0200036D02*
X0420884Y0200653D01*
X0422118Y0200653D01*
X0422736Y0200036D01*
X0422118Y0190653D02*
X0420884Y0190653D01*
X0420267Y0190036D01*
X0420267Y0189419D01*
X0420884Y0188802D01*
X0422736Y0188802D01*
X0422736Y0190036D02*
X0422118Y0190653D01*
X0422736Y0190036D02*
X0422736Y0187567D01*
X0422118Y0186950D01*
X0420884Y0186950D01*
X0420267Y0187567D01*
X0419052Y0187567D02*
X0418435Y0186950D01*
X0417201Y0186950D01*
X0416584Y0187567D01*
X0415369Y0187567D02*
X0414752Y0186950D01*
X0413518Y0186950D01*
X0412901Y0187567D01*
X0412901Y0190036D01*
X0413518Y0190653D01*
X0414752Y0190653D01*
X0415369Y0190036D01*
X0416584Y0190036D02*
X0417201Y0190653D01*
X0418435Y0190653D01*
X0419052Y0190036D01*
X0419052Y0189419D01*
X0418435Y0188802D01*
X0419052Y0188184D01*
X0419052Y0187567D01*
X0418435Y0188802D02*
X0417818Y0188802D01*
X0470901Y0198567D02*
X0471518Y0197950D01*
X0472752Y0197950D01*
X0473369Y0198567D01*
X0474584Y0197950D02*
X0477052Y0200419D01*
X0477052Y0201036D01*
X0476435Y0201653D01*
X0475201Y0201653D01*
X0474584Y0201036D01*
X0473369Y0201036D02*
X0472752Y0201653D01*
X0471518Y0201653D01*
X0470901Y0201036D01*
X0470901Y0198567D01*
X0474584Y0197950D02*
X0477052Y0197950D01*
X0478267Y0198567D02*
X0480736Y0201036D01*
X0480736Y0198567D01*
X0480118Y0197950D01*
X0478884Y0197950D01*
X0478267Y0198567D01*
X0478267Y0201036D01*
X0478884Y0201653D01*
X0480118Y0201653D01*
X0480736Y0201036D01*
X0391785Y0142036D02*
X0391785Y0141419D01*
X0391168Y0140802D01*
X0391785Y0140184D01*
X0391785Y0139567D01*
X0391168Y0138950D01*
X0389933Y0138950D01*
X0389316Y0139567D01*
X0388102Y0138950D02*
X0385633Y0138950D01*
X0388102Y0141419D01*
X0388102Y0142036D01*
X0387485Y0142653D01*
X0386250Y0142653D01*
X0385633Y0142036D01*
X0384419Y0142036D02*
X0383802Y0142653D01*
X0382567Y0142653D01*
X0381950Y0142036D01*
X0381950Y0139567D01*
X0382567Y0138950D01*
X0383802Y0138950D01*
X0384419Y0139567D01*
X0389316Y0142036D02*
X0389933Y0142653D01*
X0391168Y0142653D01*
X0391785Y0142036D01*
X0391168Y0140802D02*
X0390551Y0140802D01*
X0391168Y0131653D02*
X0389316Y0129802D01*
X0391785Y0129802D01*
X0391168Y0131653D02*
X0391168Y0127950D01*
X0388102Y0127950D02*
X0385633Y0127950D01*
X0388102Y0130419D01*
X0388102Y0131036D01*
X0387485Y0131653D01*
X0386250Y0131653D01*
X0385633Y0131036D01*
X0384419Y0131036D02*
X0383802Y0131653D01*
X0382567Y0131653D01*
X0381950Y0131036D01*
X0381950Y0128567D01*
X0382567Y0127950D01*
X0383802Y0127950D01*
X0384419Y0128567D01*
X0410901Y0128036D02*
X0410901Y0125567D01*
X0411518Y0124950D01*
X0412752Y0124950D01*
X0413369Y0125567D01*
X0414584Y0124950D02*
X0417052Y0127419D01*
X0417052Y0128036D01*
X0416435Y0128653D01*
X0415201Y0128653D01*
X0414584Y0128036D01*
X0413369Y0128036D02*
X0412752Y0128653D01*
X0411518Y0128653D01*
X0410901Y0128036D01*
X0414584Y0124950D02*
X0417052Y0124950D01*
X0418267Y0125567D02*
X0418884Y0124950D01*
X0420118Y0124950D01*
X0420736Y0125567D01*
X0420736Y0126184D01*
X0420118Y0126802D01*
X0418267Y0126802D01*
X0418267Y0125567D01*
X0418267Y0126802D02*
X0419501Y0128036D01*
X0420736Y0128653D01*
X0420736Y0116653D02*
X0418267Y0116653D01*
X0418267Y0114802D01*
X0419501Y0115419D01*
X0420118Y0115419D01*
X0420736Y0114802D01*
X0420736Y0113567D01*
X0420118Y0112950D01*
X0418884Y0112950D01*
X0418267Y0113567D01*
X0417052Y0112950D02*
X0414584Y0112950D01*
X0417052Y0115419D01*
X0417052Y0116036D01*
X0416435Y0116653D01*
X0415201Y0116653D01*
X0414584Y0116036D01*
X0413369Y0116036D02*
X0412752Y0116653D01*
X0411518Y0116653D01*
X0410901Y0116036D01*
X0410901Y0113567D01*
X0411518Y0112950D01*
X0412752Y0112950D01*
X0413369Y0113567D01*
X0357736Y0122567D02*
X0357118Y0121950D01*
X0355884Y0121950D01*
X0355267Y0122567D01*
X0354052Y0121950D02*
X0351584Y0121950D01*
X0352818Y0121950D02*
X0352818Y0125653D01*
X0351584Y0124419D01*
X0350369Y0125036D02*
X0349752Y0125653D01*
X0348518Y0125653D01*
X0347901Y0125036D01*
X0347901Y0122567D01*
X0348518Y0121950D01*
X0349752Y0121950D01*
X0350369Y0122567D01*
X0355267Y0125036D02*
X0355884Y0125653D01*
X0357118Y0125653D01*
X0357736Y0125036D01*
X0357736Y0124419D01*
X0357118Y0123802D01*
X0357736Y0123184D01*
X0357736Y0122567D01*
X0357118Y0123802D02*
X0356501Y0123802D01*
X0300736Y0119036D02*
X0300736Y0116567D01*
X0300118Y0115950D01*
X0298884Y0115950D01*
X0298267Y0116567D01*
X0297052Y0115950D02*
X0294584Y0115950D01*
X0297052Y0118419D01*
X0297052Y0119036D01*
X0296435Y0119653D01*
X0295201Y0119653D01*
X0294584Y0119036D01*
X0293369Y0119036D02*
X0292752Y0119653D01*
X0291518Y0119653D01*
X0290901Y0119036D01*
X0290901Y0116567D01*
X0291518Y0115950D01*
X0292752Y0115950D01*
X0293369Y0116567D01*
X0298267Y0118419D02*
X0298884Y0117802D01*
X0300736Y0117802D01*
X0300736Y0119036D02*
X0300118Y0119653D01*
X0298884Y0119653D01*
X0298267Y0119036D01*
X0298267Y0118419D01*
X0298884Y0128950D02*
X0298267Y0129567D01*
X0300736Y0132036D01*
X0300736Y0129567D01*
X0300118Y0128950D01*
X0298884Y0128950D01*
X0298267Y0129567D02*
X0298267Y0132036D01*
X0298884Y0132653D01*
X0300118Y0132653D01*
X0300736Y0132036D01*
X0297052Y0132036D02*
X0296435Y0132653D01*
X0295201Y0132653D01*
X0294584Y0132036D01*
X0293369Y0132036D02*
X0292752Y0132653D01*
X0291518Y0132653D01*
X0290901Y0132036D01*
X0290901Y0129567D01*
X0291518Y0128950D01*
X0292752Y0128950D01*
X0293369Y0129567D01*
X0294584Y0129567D02*
X0295201Y0128950D01*
X0296435Y0128950D01*
X0297052Y0129567D01*
X0297052Y0130184D01*
X0296435Y0130802D01*
X0295818Y0130802D01*
X0296435Y0130802D02*
X0297052Y0131419D01*
X0297052Y0132036D01*
X0271785Y0132419D02*
X0271168Y0131802D01*
X0269933Y0131802D01*
X0269316Y0132419D01*
X0269316Y0133036D01*
X0269933Y0133653D01*
X0271168Y0133653D01*
X0271785Y0133036D01*
X0271785Y0132419D01*
X0271168Y0131802D02*
X0271785Y0131184D01*
X0271785Y0130567D01*
X0271168Y0129950D01*
X0269933Y0129950D01*
X0269316Y0130567D01*
X0269316Y0131184D01*
X0269933Y0131802D01*
X0268102Y0129950D02*
X0265633Y0129950D01*
X0266868Y0129950D02*
X0266868Y0133653D01*
X0265633Y0132419D01*
X0264419Y0133036D02*
X0263802Y0133653D01*
X0262567Y0133653D01*
X0261950Y0133036D01*
X0261950Y0130567D01*
X0262567Y0129950D01*
X0263802Y0129950D01*
X0264419Y0130567D01*
X0263802Y0142950D02*
X0264419Y0143567D01*
X0263802Y0142950D02*
X0262567Y0142950D01*
X0261950Y0143567D01*
X0261950Y0146036D01*
X0262567Y0146653D01*
X0263802Y0146653D01*
X0264419Y0146036D01*
X0265633Y0145419D02*
X0266868Y0146653D01*
X0266868Y0142950D01*
X0268102Y0142950D02*
X0265633Y0142950D01*
X0269316Y0142950D02*
X0269316Y0143567D01*
X0271785Y0146036D01*
X0271785Y0146653D01*
X0269316Y0146653D01*
X0237736Y0125653D02*
X0237736Y0125036D01*
X0235267Y0122567D01*
X0235267Y0121950D01*
X0234052Y0122567D02*
X0233435Y0121950D01*
X0232201Y0121950D01*
X0231584Y0122567D01*
X0231584Y0125036D01*
X0232201Y0125653D01*
X0233435Y0125653D01*
X0234052Y0125036D01*
X0235267Y0125653D02*
X0237736Y0125653D01*
X0174736Y0130802D02*
X0172267Y0130802D01*
X0174118Y0132653D01*
X0174118Y0128950D01*
X0171052Y0129567D02*
X0170435Y0128950D01*
X0169201Y0128950D01*
X0168584Y0129567D01*
X0167369Y0129567D02*
X0166752Y0128950D01*
X0165518Y0128950D01*
X0164901Y0129567D01*
X0164901Y0132036D01*
X0165518Y0132653D01*
X0166752Y0132653D01*
X0167369Y0132036D01*
X0168584Y0132036D02*
X0169201Y0132653D01*
X0170435Y0132653D01*
X0171052Y0132036D01*
X0171052Y0131419D01*
X0170435Y0130802D01*
X0171052Y0130184D01*
X0171052Y0129567D01*
X0170435Y0130802D02*
X0169818Y0130802D01*
X0169201Y0117653D02*
X0170435Y0117653D01*
X0171052Y0117036D01*
X0171052Y0116419D01*
X0170435Y0115802D01*
X0171052Y0115184D01*
X0171052Y0114567D01*
X0170435Y0113950D01*
X0169201Y0113950D01*
X0168584Y0114567D01*
X0167369Y0114567D02*
X0166752Y0113950D01*
X0165518Y0113950D01*
X0164901Y0114567D01*
X0164901Y0117036D01*
X0165518Y0117653D01*
X0166752Y0117653D01*
X0167369Y0117036D01*
X0168584Y0117036D02*
X0169201Y0117653D01*
X0169818Y0115802D02*
X0170435Y0115802D01*
X0172267Y0117036D02*
X0172884Y0117653D01*
X0174118Y0117653D01*
X0174736Y0117036D01*
X0174736Y0116419D01*
X0174118Y0115802D01*
X0174736Y0115184D01*
X0174736Y0114567D01*
X0174118Y0113950D01*
X0172884Y0113950D01*
X0172267Y0114567D01*
X0173501Y0115802D02*
X0174118Y0115802D01*
X0149785Y0127950D02*
X0147316Y0127950D01*
X0149785Y0130419D01*
X0149785Y0131036D01*
X0149168Y0131653D01*
X0147933Y0131653D01*
X0147316Y0131036D01*
X0144868Y0131653D02*
X0144868Y0127950D01*
X0146102Y0127950D02*
X0143633Y0127950D01*
X0142419Y0128567D02*
X0141802Y0127950D01*
X0140567Y0127950D01*
X0139950Y0128567D01*
X0139950Y0131036D01*
X0140567Y0131653D01*
X0141802Y0131653D01*
X0142419Y0131036D01*
X0143633Y0130419D02*
X0144868Y0131653D01*
X0144868Y0142950D02*
X0144868Y0146653D01*
X0143633Y0145419D01*
X0142419Y0146036D02*
X0141802Y0146653D01*
X0140567Y0146653D01*
X0139950Y0146036D01*
X0139950Y0143567D01*
X0140567Y0142950D01*
X0141802Y0142950D01*
X0142419Y0143567D01*
X0143633Y0142950D02*
X0146102Y0142950D01*
X0147316Y0142950D02*
X0149785Y0142950D01*
X0148551Y0142950D02*
X0148551Y0146653D01*
X0147316Y0145419D01*
X0117736Y0125653D02*
X0116501Y0125036D01*
X0115267Y0123802D01*
X0117118Y0123802D01*
X0117736Y0123184D01*
X0117736Y0122567D01*
X0117118Y0121950D01*
X0115884Y0121950D01*
X0115267Y0122567D01*
X0115267Y0123802D01*
X0114052Y0125036D02*
X0113435Y0125653D01*
X0112201Y0125653D01*
X0111584Y0125036D01*
X0111584Y0122567D01*
X0112201Y0121950D01*
X0113435Y0121950D01*
X0114052Y0122567D01*
X0469901Y0123567D02*
X0470518Y0122950D01*
X0471752Y0122950D01*
X0472369Y0123567D01*
X0473584Y0122950D02*
X0476052Y0122950D01*
X0474818Y0122950D02*
X0474818Y0126653D01*
X0473584Y0125419D01*
X0472369Y0126036D02*
X0471752Y0126653D01*
X0470518Y0126653D01*
X0469901Y0126036D01*
X0469901Y0123567D01*
X0477267Y0123567D02*
X0477884Y0122950D01*
X0479118Y0122950D01*
X0479736Y0123567D01*
X0479736Y0126036D01*
X0479118Y0126653D01*
X0477884Y0126653D01*
X0477267Y0126036D01*
X0477267Y0125419D01*
X0477884Y0124802D01*
X0479736Y0124802D01*
D14*
X0334627Y0063973D02*
X0334627Y0028934D01*
X0308052Y0050194D02*
X0180099Y0050194D01*
X0180099Y0063973D01*
X0180097Y0064163D01*
X0180090Y0064353D01*
X0180078Y0064543D01*
X0180062Y0064733D01*
X0180042Y0064922D01*
X0180016Y0065111D01*
X0179987Y0065299D01*
X0179952Y0065486D01*
X0179913Y0065672D01*
X0179870Y0065857D01*
X0179822Y0066042D01*
X0179770Y0066225D01*
X0179714Y0066406D01*
X0179653Y0066586D01*
X0179587Y0066765D01*
X0179518Y0066942D01*
X0179444Y0067118D01*
X0179366Y0067291D01*
X0179283Y0067463D01*
X0179197Y0067632D01*
X0179107Y0067800D01*
X0179012Y0067965D01*
X0178914Y0068128D01*
X0178811Y0068288D01*
X0178705Y0068446D01*
X0178595Y0068601D01*
X0178482Y0068754D01*
X0178364Y0068904D01*
X0178243Y0069050D01*
X0178119Y0069194D01*
X0177991Y0069335D01*
X0177860Y0069473D01*
X0177725Y0069608D01*
X0177587Y0069739D01*
X0177446Y0069867D01*
X0177302Y0069991D01*
X0177156Y0070112D01*
X0177006Y0070230D01*
X0176853Y0070343D01*
X0176698Y0070453D01*
X0176540Y0070559D01*
X0176380Y0070662D01*
X0176217Y0070760D01*
X0176052Y0070855D01*
X0175884Y0070945D01*
X0175715Y0071031D01*
X0175543Y0071114D01*
X0175370Y0071192D01*
X0175194Y0071266D01*
X0175017Y0071335D01*
X0174838Y0071401D01*
X0174658Y0071462D01*
X0174477Y0071518D01*
X0174294Y0071570D01*
X0174109Y0071618D01*
X0173924Y0071661D01*
X0173738Y0071700D01*
X0173551Y0071735D01*
X0173363Y0071764D01*
X0173174Y0071790D01*
X0172985Y0071810D01*
X0172795Y0071826D01*
X0172605Y0071838D01*
X0172415Y0071845D01*
X0172225Y0071847D01*
X0161398Y0071847D01*
X0161208Y0071845D01*
X0161018Y0071838D01*
X0160828Y0071826D01*
X0160638Y0071810D01*
X0160449Y0071790D01*
X0160260Y0071764D01*
X0160072Y0071735D01*
X0159885Y0071700D01*
X0159699Y0071661D01*
X0159514Y0071618D01*
X0159329Y0071570D01*
X0159146Y0071518D01*
X0158965Y0071462D01*
X0158785Y0071401D01*
X0158606Y0071335D01*
X0158429Y0071266D01*
X0158253Y0071192D01*
X0158080Y0071114D01*
X0157908Y0071031D01*
X0157739Y0070945D01*
X0157571Y0070855D01*
X0157406Y0070760D01*
X0157243Y0070662D01*
X0157083Y0070559D01*
X0156925Y0070453D01*
X0156770Y0070343D01*
X0156617Y0070230D01*
X0156467Y0070112D01*
X0156321Y0069991D01*
X0156177Y0069867D01*
X0156036Y0069739D01*
X0155898Y0069608D01*
X0155763Y0069473D01*
X0155632Y0069335D01*
X0155504Y0069194D01*
X0155380Y0069050D01*
X0155259Y0068904D01*
X0155141Y0068754D01*
X0155028Y0068601D01*
X0154918Y0068446D01*
X0154812Y0068288D01*
X0154709Y0068128D01*
X0154611Y0067965D01*
X0154516Y0067800D01*
X0154426Y0067632D01*
X0154340Y0067463D01*
X0154257Y0067291D01*
X0154179Y0067118D01*
X0154105Y0066942D01*
X0154036Y0066765D01*
X0153970Y0066586D01*
X0153909Y0066406D01*
X0153853Y0066225D01*
X0153801Y0066042D01*
X0153753Y0065857D01*
X0153710Y0065672D01*
X0153671Y0065486D01*
X0153636Y0065299D01*
X0153607Y0065111D01*
X0153581Y0064922D01*
X0153561Y0064733D01*
X0153545Y0064543D01*
X0153533Y0064353D01*
X0153526Y0064163D01*
X0153524Y0063973D01*
X0153524Y0028934D01*
X0308052Y0050194D02*
X0308052Y0063973D01*
X0308054Y0064163D01*
X0308061Y0064353D01*
X0308073Y0064543D01*
X0308089Y0064733D01*
X0308109Y0064922D01*
X0308135Y0065111D01*
X0308164Y0065299D01*
X0308199Y0065486D01*
X0308238Y0065672D01*
X0308281Y0065857D01*
X0308329Y0066042D01*
X0308381Y0066225D01*
X0308437Y0066406D01*
X0308498Y0066586D01*
X0308564Y0066765D01*
X0308633Y0066942D01*
X0308707Y0067118D01*
X0308785Y0067291D01*
X0308868Y0067463D01*
X0308954Y0067632D01*
X0309044Y0067800D01*
X0309139Y0067965D01*
X0309237Y0068128D01*
X0309340Y0068288D01*
X0309446Y0068446D01*
X0309556Y0068601D01*
X0309669Y0068754D01*
X0309787Y0068904D01*
X0309908Y0069050D01*
X0310032Y0069194D01*
X0310160Y0069335D01*
X0310291Y0069473D01*
X0310426Y0069608D01*
X0310564Y0069739D01*
X0310705Y0069867D01*
X0310849Y0069991D01*
X0310995Y0070112D01*
X0311145Y0070230D01*
X0311298Y0070343D01*
X0311453Y0070453D01*
X0311611Y0070559D01*
X0311771Y0070662D01*
X0311934Y0070760D01*
X0312099Y0070855D01*
X0312267Y0070945D01*
X0312436Y0071031D01*
X0312608Y0071114D01*
X0312781Y0071192D01*
X0312957Y0071266D01*
X0313134Y0071335D01*
X0313313Y0071401D01*
X0313493Y0071462D01*
X0313674Y0071518D01*
X0313857Y0071570D01*
X0314042Y0071618D01*
X0314227Y0071661D01*
X0314413Y0071700D01*
X0314600Y0071735D01*
X0314788Y0071764D01*
X0314977Y0071790D01*
X0315166Y0071810D01*
X0315356Y0071826D01*
X0315546Y0071838D01*
X0315736Y0071845D01*
X0315926Y0071847D01*
X0326753Y0071847D01*
X0326943Y0071845D01*
X0327133Y0071838D01*
X0327323Y0071826D01*
X0327513Y0071810D01*
X0327702Y0071790D01*
X0327891Y0071764D01*
X0328079Y0071735D01*
X0328266Y0071700D01*
X0328452Y0071661D01*
X0328637Y0071618D01*
X0328822Y0071570D01*
X0329005Y0071518D01*
X0329186Y0071462D01*
X0329366Y0071401D01*
X0329545Y0071335D01*
X0329722Y0071266D01*
X0329898Y0071192D01*
X0330071Y0071114D01*
X0330243Y0071031D01*
X0330412Y0070945D01*
X0330580Y0070855D01*
X0330745Y0070760D01*
X0330908Y0070662D01*
X0331068Y0070559D01*
X0331226Y0070453D01*
X0331381Y0070343D01*
X0331534Y0070230D01*
X0331684Y0070112D01*
X0331830Y0069991D01*
X0331974Y0069867D01*
X0332115Y0069739D01*
X0332253Y0069608D01*
X0332388Y0069473D01*
X0332519Y0069335D01*
X0332647Y0069194D01*
X0332771Y0069050D01*
X0332892Y0068904D01*
X0333010Y0068754D01*
X0333123Y0068601D01*
X0333233Y0068446D01*
X0333339Y0068288D01*
X0333442Y0068128D01*
X0333540Y0067965D01*
X0333635Y0067800D01*
X0333725Y0067632D01*
X0333811Y0067463D01*
X0333894Y0067291D01*
X0333972Y0067118D01*
X0334046Y0066942D01*
X0334115Y0066765D01*
X0334181Y0066586D01*
X0334242Y0066406D01*
X0334298Y0066225D01*
X0334350Y0066042D01*
X0334398Y0065857D01*
X0334441Y0065672D01*
X0334480Y0065486D01*
X0334515Y0065299D01*
X0334544Y0065111D01*
X0334570Y0064922D01*
X0334590Y0064733D01*
X0334606Y0064543D01*
X0334618Y0064353D01*
X0334625Y0064163D01*
X0334627Y0063973D01*
D15*
X0294310Y0011557D02*
X0294310Y0008899D01*
X0292538Y0011557D01*
X0292538Y0008899D01*
X0291772Y0008899D02*
X0291772Y0011557D01*
X0290000Y0011557D02*
X0291772Y0008899D01*
X0290000Y0008899D02*
X0290000Y0011557D01*
X0289235Y0011114D02*
X0288792Y0011557D01*
X0287906Y0011557D01*
X0287463Y0011114D01*
X0287463Y0009342D01*
X0287906Y0008899D01*
X0288792Y0008899D01*
X0289235Y0009342D01*
X0289235Y0011114D01*
X0286697Y0011114D02*
X0286254Y0011557D01*
X0285368Y0011557D01*
X0284925Y0011114D01*
X0284925Y0009342D01*
X0285368Y0008899D01*
X0286254Y0008899D01*
X0286697Y0009342D01*
X0407599Y0248680D02*
X0408850Y0248680D01*
X0409100Y0248930D01*
X0409100Y0249431D01*
X0408850Y0249681D01*
X0407599Y0249681D01*
X0407849Y0250153D02*
X0407599Y0250404D01*
X0407599Y0250904D01*
X0407849Y0251154D01*
X0408099Y0251627D02*
X0407599Y0252127D01*
X0409100Y0252127D01*
X0409100Y0251627D02*
X0409100Y0252628D01*
X0408850Y0251154D02*
X0408600Y0251154D01*
X0408349Y0250904D01*
X0408349Y0250404D01*
X0408099Y0250153D01*
X0407849Y0250153D01*
X0407349Y0250654D02*
X0409350Y0250654D01*
X0409100Y0250904D02*
X0408850Y0251154D01*
X0409100Y0250904D02*
X0409100Y0250404D01*
X0408850Y0250153D01*
D16*
X0318485Y0042320D02*
X0318487Y0042427D01*
X0318493Y0042533D01*
X0318503Y0042640D01*
X0318517Y0042745D01*
X0318535Y0042851D01*
X0318557Y0042955D01*
X0318582Y0043059D01*
X0318612Y0043161D01*
X0318645Y0043263D01*
X0318682Y0043363D01*
X0318723Y0043461D01*
X0318768Y0043558D01*
X0318816Y0043654D01*
X0318867Y0043747D01*
X0318922Y0043838D01*
X0318981Y0043928D01*
X0319043Y0044015D01*
X0319108Y0044099D01*
X0319176Y0044182D01*
X0319247Y0044261D01*
X0319321Y0044338D01*
X0319398Y0044412D01*
X0319477Y0044483D01*
X0319560Y0044551D01*
X0319644Y0044616D01*
X0319731Y0044678D01*
X0319821Y0044737D01*
X0319912Y0044792D01*
X0320005Y0044843D01*
X0320101Y0044891D01*
X0320198Y0044936D01*
X0320296Y0044977D01*
X0320396Y0045014D01*
X0320498Y0045047D01*
X0320600Y0045077D01*
X0320704Y0045102D01*
X0320808Y0045124D01*
X0320914Y0045142D01*
X0321019Y0045156D01*
X0321126Y0045166D01*
X0321232Y0045172D01*
X0321339Y0045174D01*
X0321446Y0045172D01*
X0321552Y0045166D01*
X0321659Y0045156D01*
X0321764Y0045142D01*
X0321870Y0045124D01*
X0321974Y0045102D01*
X0322078Y0045077D01*
X0322180Y0045047D01*
X0322282Y0045014D01*
X0322382Y0044977D01*
X0322480Y0044936D01*
X0322577Y0044891D01*
X0322673Y0044843D01*
X0322766Y0044792D01*
X0322857Y0044737D01*
X0322947Y0044678D01*
X0323034Y0044616D01*
X0323118Y0044551D01*
X0323201Y0044483D01*
X0323280Y0044412D01*
X0323357Y0044338D01*
X0323431Y0044261D01*
X0323502Y0044182D01*
X0323570Y0044099D01*
X0323635Y0044015D01*
X0323697Y0043928D01*
X0323756Y0043838D01*
X0323811Y0043747D01*
X0323862Y0043654D01*
X0323910Y0043558D01*
X0323955Y0043461D01*
X0323996Y0043363D01*
X0324033Y0043263D01*
X0324066Y0043161D01*
X0324096Y0043059D01*
X0324121Y0042955D01*
X0324143Y0042851D01*
X0324161Y0042745D01*
X0324175Y0042640D01*
X0324185Y0042533D01*
X0324191Y0042427D01*
X0324193Y0042320D01*
X0324191Y0042213D01*
X0324185Y0042107D01*
X0324175Y0042000D01*
X0324161Y0041895D01*
X0324143Y0041789D01*
X0324121Y0041685D01*
X0324096Y0041581D01*
X0324066Y0041479D01*
X0324033Y0041377D01*
X0323996Y0041277D01*
X0323955Y0041179D01*
X0323910Y0041082D01*
X0323862Y0040986D01*
X0323811Y0040893D01*
X0323756Y0040802D01*
X0323697Y0040712D01*
X0323635Y0040625D01*
X0323570Y0040541D01*
X0323502Y0040458D01*
X0323431Y0040379D01*
X0323357Y0040302D01*
X0323280Y0040228D01*
X0323201Y0040157D01*
X0323118Y0040089D01*
X0323034Y0040024D01*
X0322947Y0039962D01*
X0322857Y0039903D01*
X0322766Y0039848D01*
X0322673Y0039797D01*
X0322577Y0039749D01*
X0322480Y0039704D01*
X0322382Y0039663D01*
X0322282Y0039626D01*
X0322180Y0039593D01*
X0322078Y0039563D01*
X0321974Y0039538D01*
X0321870Y0039516D01*
X0321764Y0039498D01*
X0321659Y0039484D01*
X0321552Y0039474D01*
X0321446Y0039468D01*
X0321339Y0039466D01*
X0321232Y0039468D01*
X0321126Y0039474D01*
X0321019Y0039484D01*
X0320914Y0039498D01*
X0320808Y0039516D01*
X0320704Y0039538D01*
X0320600Y0039563D01*
X0320498Y0039593D01*
X0320396Y0039626D01*
X0320296Y0039663D01*
X0320198Y0039704D01*
X0320101Y0039749D01*
X0320005Y0039797D01*
X0319912Y0039848D01*
X0319821Y0039903D01*
X0319731Y0039962D01*
X0319644Y0040024D01*
X0319560Y0040089D01*
X0319477Y0040157D01*
X0319398Y0040228D01*
X0319321Y0040302D01*
X0319247Y0040379D01*
X0319176Y0040458D01*
X0319108Y0040541D01*
X0319043Y0040625D01*
X0318981Y0040712D01*
X0318922Y0040802D01*
X0318867Y0040893D01*
X0318816Y0040986D01*
X0318768Y0041082D01*
X0318723Y0041179D01*
X0318682Y0041277D01*
X0318645Y0041377D01*
X0318612Y0041479D01*
X0318582Y0041581D01*
X0318557Y0041685D01*
X0318535Y0041789D01*
X0318517Y0041895D01*
X0318503Y0042000D01*
X0318493Y0042107D01*
X0318487Y0042213D01*
X0318485Y0042320D01*
X0163958Y0041965D02*
X0163960Y0042072D01*
X0163966Y0042178D01*
X0163976Y0042285D01*
X0163990Y0042390D01*
X0164008Y0042496D01*
X0164030Y0042600D01*
X0164055Y0042704D01*
X0164085Y0042806D01*
X0164118Y0042908D01*
X0164155Y0043008D01*
X0164196Y0043106D01*
X0164241Y0043203D01*
X0164289Y0043299D01*
X0164340Y0043392D01*
X0164395Y0043483D01*
X0164454Y0043573D01*
X0164516Y0043660D01*
X0164581Y0043744D01*
X0164649Y0043827D01*
X0164720Y0043906D01*
X0164794Y0043983D01*
X0164871Y0044057D01*
X0164950Y0044128D01*
X0165033Y0044196D01*
X0165117Y0044261D01*
X0165204Y0044323D01*
X0165294Y0044382D01*
X0165385Y0044437D01*
X0165478Y0044488D01*
X0165574Y0044536D01*
X0165671Y0044581D01*
X0165769Y0044622D01*
X0165869Y0044659D01*
X0165971Y0044692D01*
X0166073Y0044722D01*
X0166177Y0044747D01*
X0166281Y0044769D01*
X0166387Y0044787D01*
X0166492Y0044801D01*
X0166599Y0044811D01*
X0166705Y0044817D01*
X0166812Y0044819D01*
X0166919Y0044817D01*
X0167025Y0044811D01*
X0167132Y0044801D01*
X0167237Y0044787D01*
X0167343Y0044769D01*
X0167447Y0044747D01*
X0167551Y0044722D01*
X0167653Y0044692D01*
X0167755Y0044659D01*
X0167855Y0044622D01*
X0167953Y0044581D01*
X0168050Y0044536D01*
X0168146Y0044488D01*
X0168239Y0044437D01*
X0168330Y0044382D01*
X0168420Y0044323D01*
X0168507Y0044261D01*
X0168591Y0044196D01*
X0168674Y0044128D01*
X0168753Y0044057D01*
X0168830Y0043983D01*
X0168904Y0043906D01*
X0168975Y0043827D01*
X0169043Y0043744D01*
X0169108Y0043660D01*
X0169170Y0043573D01*
X0169229Y0043483D01*
X0169284Y0043392D01*
X0169335Y0043299D01*
X0169383Y0043203D01*
X0169428Y0043106D01*
X0169469Y0043008D01*
X0169506Y0042908D01*
X0169539Y0042806D01*
X0169569Y0042704D01*
X0169594Y0042600D01*
X0169616Y0042496D01*
X0169634Y0042390D01*
X0169648Y0042285D01*
X0169658Y0042178D01*
X0169664Y0042072D01*
X0169666Y0041965D01*
X0169664Y0041858D01*
X0169658Y0041752D01*
X0169648Y0041645D01*
X0169634Y0041540D01*
X0169616Y0041434D01*
X0169594Y0041330D01*
X0169569Y0041226D01*
X0169539Y0041124D01*
X0169506Y0041022D01*
X0169469Y0040922D01*
X0169428Y0040824D01*
X0169383Y0040727D01*
X0169335Y0040631D01*
X0169284Y0040538D01*
X0169229Y0040447D01*
X0169170Y0040357D01*
X0169108Y0040270D01*
X0169043Y0040186D01*
X0168975Y0040103D01*
X0168904Y0040024D01*
X0168830Y0039947D01*
X0168753Y0039873D01*
X0168674Y0039802D01*
X0168591Y0039734D01*
X0168507Y0039669D01*
X0168420Y0039607D01*
X0168330Y0039548D01*
X0168239Y0039493D01*
X0168146Y0039442D01*
X0168050Y0039394D01*
X0167953Y0039349D01*
X0167855Y0039308D01*
X0167755Y0039271D01*
X0167653Y0039238D01*
X0167551Y0039208D01*
X0167447Y0039183D01*
X0167343Y0039161D01*
X0167237Y0039143D01*
X0167132Y0039129D01*
X0167025Y0039119D01*
X0166919Y0039113D01*
X0166812Y0039111D01*
X0166705Y0039113D01*
X0166599Y0039119D01*
X0166492Y0039129D01*
X0166387Y0039143D01*
X0166281Y0039161D01*
X0166177Y0039183D01*
X0166073Y0039208D01*
X0165971Y0039238D01*
X0165869Y0039271D01*
X0165769Y0039308D01*
X0165671Y0039349D01*
X0165574Y0039394D01*
X0165478Y0039442D01*
X0165385Y0039493D01*
X0165294Y0039548D01*
X0165204Y0039607D01*
X0165117Y0039669D01*
X0165033Y0039734D01*
X0164950Y0039802D01*
X0164871Y0039873D01*
X0164794Y0039947D01*
X0164720Y0040024D01*
X0164649Y0040103D01*
X0164581Y0040186D01*
X0164516Y0040270D01*
X0164454Y0040357D01*
X0164395Y0040447D01*
X0164340Y0040538D01*
X0164289Y0040631D01*
X0164241Y0040727D01*
X0164196Y0040824D01*
X0164155Y0040922D01*
X0164118Y0041022D01*
X0164085Y0041124D01*
X0164055Y0041226D01*
X0164030Y0041330D01*
X0164008Y0041434D01*
X0163990Y0041540D01*
X0163976Y0041645D01*
X0163966Y0041752D01*
X0163960Y0041858D01*
X0163958Y0041965D01*
D17*
X0344767Y0245500D02*
X0344000Y0246267D01*
X0344000Y0249337D01*
X0344767Y0250104D01*
X0346302Y0250104D01*
X0347069Y0249337D01*
X0348604Y0247802D02*
X0351673Y0247802D01*
X0353208Y0248569D02*
X0354742Y0250104D01*
X0354742Y0245500D01*
X0353208Y0245500D02*
X0356277Y0245500D01*
X0350906Y0245500D02*
X0350906Y0250104D01*
X0348604Y0247802D01*
X0347069Y0246267D02*
X0346302Y0245500D01*
X0344767Y0245500D01*
X0344267Y0262000D02*
X0343500Y0262767D01*
X0343500Y0265837D01*
X0344267Y0266604D01*
X0345802Y0266604D01*
X0346569Y0265837D01*
X0348104Y0264302D02*
X0351173Y0264302D01*
X0352708Y0265837D02*
X0353475Y0266604D01*
X0355010Y0266604D01*
X0355777Y0265837D01*
X0355777Y0265069D01*
X0352708Y0262000D01*
X0355777Y0262000D01*
X0350406Y0262000D02*
X0350406Y0266604D01*
X0348104Y0264302D01*
X0346569Y0262767D02*
X0345802Y0262000D01*
X0344267Y0262000D01*
M02*
